G04 #@! TF.GenerationSoftware,KiCad,Pcbnew,(5.1.0)-1*
G04 #@! TF.CreationDate,2019-05-22T15:11:18+05:30*
G04 #@! TF.ProjectId,Console,436f6e73-6f6c-4652-9e6b-696361645f70,2.0.1*
G04 #@! TF.SameCoordinates,Original*
G04 #@! TF.FileFunction,Copper,L2,Bot*
G04 #@! TF.FilePolarity,Positive*
%FSLAX46Y46*%
G04 Gerber Fmt 4.6, Leading zero omitted, Abs format (unit mm)*
G04 Created by KiCad (PCBNEW (5.1.0)-1) date 2019-05-22 15:11:18*
%MOMM*%
%LPD*%
G04 APERTURE LIST*
%ADD10O,2.200000X3.500000*%
%ADD11O,1.500000X2.500000*%
%ADD12R,1.500000X2.500000*%
%ADD13O,1.700000X1.700000*%
%ADD14R,1.700000X1.700000*%
%ADD15R,1.750000X1.750000*%
%ADD16C,1.750000*%
%ADD17C,2.700000*%
%ADD18C,4.000000*%
%ADD19C,0.800000*%
%ADD20C,0.200000*%
G04 APERTURE END LIST*
D10*
X-8558000Y-83229000D03*
X-358000Y-83229000D03*
D11*
X-6458000Y-83229000D03*
X-4458000Y-83229000D03*
D12*
X-2458000Y-83229000D03*
D13*
X-18438600Y-75380400D03*
X-18438600Y-98240400D03*
X-18438600Y-105860400D03*
X-18438600Y-88080400D03*
X-18438600Y-85540400D03*
X-18438600Y-100780400D03*
X-18438600Y-93160400D03*
X-18438600Y-103320400D03*
X-18438600Y-110940400D03*
X-18438600Y-83000400D03*
X-18438600Y-90620400D03*
X-18438600Y-80460400D03*
X-18438600Y-95700400D03*
X-18438600Y-77920400D03*
X-18438600Y-108400400D03*
X-40638200Y-95675000D03*
X-40638200Y-103295000D03*
X-40638200Y-80435000D03*
X-40638200Y-100755000D03*
X-40638200Y-108375000D03*
D14*
X-40638200Y-75355000D03*
D13*
X-40638200Y-90595000D03*
X-40638200Y-98215000D03*
X-40638200Y-110915000D03*
X-40638200Y-105835000D03*
X-40638200Y-88055000D03*
X-40638200Y-85515000D03*
X-40638200Y-77895000D03*
X-40638200Y-82975000D03*
X-40638200Y-93135000D03*
X-56310000Y-100628000D03*
D14*
X-56310000Y-103168000D03*
D13*
X-6653000Y-90442600D03*
X-6653000Y-92982600D03*
X-6653000Y-95522600D03*
X-6653000Y-98062600D03*
X-6653000Y-100602600D03*
X-6653000Y-103142600D03*
X-6653000Y-105682600D03*
X-6653000Y-108222600D03*
D14*
X-6653000Y-110762600D03*
D13*
X-2843000Y-110788000D03*
X-2843000Y-108248000D03*
D14*
X-2843000Y-105708000D03*
D13*
X-14425400Y-110813400D03*
X-14425400Y-108273400D03*
X-14425400Y-105733400D03*
X-14425400Y-103193400D03*
X-14425400Y-100653400D03*
X-14425400Y-98113400D03*
X-14425400Y-95573400D03*
D14*
X-14425400Y-93033400D03*
D13*
X-2817600Y-102101200D03*
X-2817600Y-99561200D03*
X-2817600Y-97021200D03*
X-2817600Y-94481200D03*
X-2817600Y-91941200D03*
D14*
X-2817600Y-89401200D03*
D13*
X-18438600Y-110940400D03*
X-18438600Y-108400400D03*
X-18438600Y-105860400D03*
X-18438600Y-103320400D03*
X-18438600Y-100780400D03*
X-18438600Y-98240400D03*
X-18438600Y-95700400D03*
X-18438600Y-93160400D03*
X-18438600Y-90620400D03*
X-18438600Y-88080400D03*
X-18438600Y-85540400D03*
X-18438600Y-83000400D03*
X-18438600Y-80460400D03*
X-18438600Y-77920400D03*
D14*
X-18438600Y-75380400D03*
X-40638200Y-110915000D03*
D13*
X-40638200Y-108375000D03*
X-40638200Y-105835000D03*
X-40638200Y-103295000D03*
X-40638200Y-100755000D03*
X-40638200Y-98215000D03*
X-40638200Y-95675000D03*
X-40638200Y-93135000D03*
X-40638200Y-90595000D03*
X-40638200Y-88055000D03*
X-40638200Y-85515000D03*
X-40638200Y-82975000D03*
X-40638200Y-80435000D03*
X-40638200Y-77895000D03*
X-40638200Y-75355000D03*
X-10336000Y-62020000D03*
X-12876000Y-62020000D03*
X-15416000Y-62020000D03*
X-17956000Y-62020000D03*
X-20496000Y-62020000D03*
X-23036000Y-62020000D03*
X-25576000Y-62020000D03*
X-28116000Y-62020000D03*
X-30656000Y-62020000D03*
X-33196000Y-62020000D03*
X-35736000Y-62020000D03*
X-38276000Y-62020000D03*
X-40816000Y-62020000D03*
X-43356000Y-62020000D03*
X-45896000Y-62020000D03*
D14*
X-48436000Y-62020000D03*
D13*
X-10590000Y-66744400D03*
X-13130000Y-66744400D03*
X-15670000Y-66744400D03*
X-18210000Y-66744400D03*
X-20750000Y-66744400D03*
D14*
X-23290000Y-66744400D03*
D13*
X-26896800Y-66744400D03*
X-29436800Y-66744400D03*
X-31976800Y-66744400D03*
X-34516800Y-66744400D03*
X-37056800Y-66744400D03*
D14*
X-39596800Y-66744400D03*
X-45896000Y-66846000D03*
D13*
X-48436000Y-66846000D03*
D14*
X-10590000Y-110838800D03*
D13*
X-10590000Y-108298800D03*
X-10590000Y-105758800D03*
X-10590000Y-103218800D03*
X-10590000Y-100678800D03*
X-10590000Y-98138800D03*
X-10590000Y-95598800D03*
X-10590000Y-93058800D03*
X-10590000Y-90518800D03*
D14*
X-52500000Y-114801200D03*
D13*
X-49960000Y-114801200D03*
X-47420000Y-114801200D03*
X-44880000Y-114801200D03*
D15*
X-47115200Y-77666400D03*
D16*
X-50615200Y-77666400D03*
X-47115200Y-110666400D03*
D17*
X-44665200Y-82766400D03*
X-44665200Y-105566400D03*
X-53065200Y-81566400D03*
X-53065200Y-106766400D03*
D18*
X-56000000Y-62000000D03*
X0Y-62000000D03*
X0Y-118000000D03*
X-56000000Y-118000000D03*
D19*
X-24610800Y-75329600D03*
X-27735000Y-109341200D03*
X-25195000Y-99941200D03*
X-26998400Y-97778600D03*
X-32229591Y-83768612D03*
X-26281588Y-89454814D03*
X-33371561Y-87893842D03*
X-37463199Y-81998011D03*
X-43671990Y-71252412D03*
X-39031639Y-82431041D03*
X-46251600Y-73551600D03*
X-20953200Y-88718798D03*
X-20597600Y-81176200D03*
X-20546800Y-79338200D03*
X-26693600Y-74059600D03*
X-24661600Y-77401210D03*
X-15111200Y-69390600D03*
X-12418800Y-74872400D03*
X-20953200Y-92618798D03*
X-20953200Y-95908200D03*
X-44218800Y-74612400D03*
X-23681544Y-88766330D03*
X-26723263Y-90352003D03*
X-33754800Y-89045600D03*
X-33573674Y-81531131D03*
X-35875375Y-79736175D03*
X-21043610Y-105200000D03*
X-16469062Y-90162696D03*
X-36356067Y-85036293D03*
X-9381990Y-78631924D03*
X-13214021Y-85916015D03*
X-13638000Y-86912000D03*
X-8557998Y-87496391D03*
X-6399000Y-88309000D03*
X-39038000Y-110215000D03*
X-39038000Y-100247000D03*
X-23925000Y-60115000D03*
X-19340524Y-63556476D03*
X-26518100Y-69690800D03*
X-57118877Y-66737953D03*
X-16686000Y-72561000D03*
X-42213000Y-68497000D03*
X-41877077Y-64071027D03*
X-36627300Y-72434000D03*
X-37807610Y-79397985D03*
X-32977960Y-93852005D03*
X-33613590Y-76548800D03*
X-34203972Y-77509403D03*
X-34009844Y-78490392D03*
X-16588599Y-80460400D03*
X-16642482Y-79461851D03*
X-9720922Y-112337470D03*
X-50549801Y-67978313D03*
X-34974000Y-93835010D03*
X-21893000Y-59444600D03*
X-50022000Y-112947000D03*
X-51611000Y-112947000D03*
X-55167000Y-109518000D03*
X-31545000Y-99941200D03*
X-30327553Y-110941212D03*
X-26699208Y-116170440D03*
X-4671482Y-86353518D03*
X-2081000Y-87801000D03*
X-32815000Y-99941200D03*
X-30883581Y-111780857D03*
X-27851952Y-116549194D03*
X-7914849Y-80570151D03*
X-6018000Y-87166000D03*
X-3503693Y-87278538D03*
X-8304000Y-86404000D03*
X-34085000Y-99941200D03*
X-32688000Y-111423000D03*
X-30374940Y-117086951D03*
X-40181000Y-115741000D03*
X-36752000Y-115558087D03*
X-35080329Y-85559020D03*
X-32892875Y-84759522D03*
X-31492864Y-84727724D03*
X-23247645Y-86786443D03*
X-11582031Y-77818800D03*
X-11855043Y-80516576D03*
X-10844000Y-64494389D03*
X-33575568Y-82531141D03*
X-36752000Y-84118000D03*
X-47303025Y-93505975D03*
X-20546800Y-77463200D03*
X-30956724Y-77818610D03*
X-26998400Y-95903600D03*
X-25709450Y-91710864D03*
X-31011600Y-95903600D03*
X-32688000Y-90366400D03*
X-6830800Y-72383200D03*
X-21657718Y-116590390D03*
X-20217171Y-116790525D03*
X-29186404Y-117180979D03*
X-31545000Y-117086951D03*
X-53357954Y-110091593D03*
X-33443418Y-79666418D03*
X-28568600Y-72078400D03*
X-49232584Y-106833820D03*
X-49055916Y-105849537D03*
X-49856968Y-107614953D03*
X-50266978Y-108581014D03*
X-22832800Y-88182000D03*
X-13676418Y-89210382D03*
X-19378400Y-94303400D03*
X-19177116Y-99488238D03*
X-8693646Y-112337470D03*
X-7415000Y-114344000D03*
D20*
X-46866600Y-110915000D02*
X-40638200Y-110915000D01*
X-47115200Y-110666400D02*
X-46866600Y-110915000D01*
X-27735000Y-103345800D02*
X-27735000Y-109341200D01*
X-26998400Y-102609200D02*
X-27735000Y-103345800D01*
X-26693600Y-102609200D02*
X-26998400Y-102609200D01*
X-25195000Y-99941200D02*
X-25195000Y-101110600D01*
X-25195000Y-101110600D02*
X-26693600Y-102609200D01*
X-29176087Y-112249093D02*
X-30009831Y-112249093D01*
X-34232004Y-110915000D02*
X-39436119Y-110915000D01*
X-30009831Y-112249093D02*
X-30241605Y-112480867D01*
X-30241605Y-112480867D02*
X-32666137Y-112480867D01*
X-39436119Y-110915000D02*
X-40638200Y-110915000D01*
X-32666137Y-112480867D02*
X-34232004Y-110915000D01*
X-27735000Y-109341200D02*
X-27735000Y-110808006D01*
X-27735000Y-110808006D02*
X-29176087Y-112249093D01*
X-29503716Y-75329600D02*
X-32229591Y-78055475D01*
X-32229591Y-78055475D02*
X-32229591Y-83202927D01*
X-24610800Y-75329600D02*
X-29503716Y-75329600D01*
X-32229591Y-83202927D02*
X-32229591Y-83768612D01*
X-24381550Y-87583599D02*
X-25843403Y-89045452D01*
X-23270401Y-87583599D02*
X-24381550Y-87583599D01*
X-26272225Y-89445451D02*
X-26281588Y-89454814D01*
X-26998400Y-97778600D02*
X-22132799Y-92912999D01*
X-22496799Y-87481999D02*
X-23168801Y-87481999D01*
X-26243402Y-89445451D02*
X-26272225Y-89445451D01*
X-23168801Y-87481999D02*
X-23270401Y-87583599D01*
X-25843403Y-89045452D02*
X-26243402Y-89445451D01*
X-22132799Y-87845999D02*
X-22496799Y-87481999D01*
X-22132799Y-92912999D02*
X-22132799Y-87845999D01*
X-27842560Y-87893842D02*
X-32805876Y-87893842D01*
X-26281588Y-89454814D02*
X-27842560Y-87893842D01*
X-32805876Y-87893842D02*
X-33371561Y-87893842D01*
X-43798990Y-65202310D02*
X-43798990Y-71125412D01*
X-45896000Y-62020000D02*
X-45046001Y-62869999D01*
X-43798990Y-71125412D02*
X-43671990Y-71252412D01*
X-45046001Y-62869999D02*
X-45046001Y-63955299D01*
X-45046001Y-63955299D02*
X-43798990Y-65202310D01*
X-37063200Y-78706798D02*
X-37177999Y-78591999D01*
X-37463199Y-82418265D02*
X-37463199Y-81998011D01*
X-37463199Y-81998011D02*
X-37063200Y-81598012D01*
X-38605622Y-83560688D02*
X-37463199Y-82418265D01*
X-38037626Y-78591999D02*
X-39031639Y-79586012D01*
X-37177999Y-78591999D02*
X-38037626Y-78591999D01*
X-34944470Y-87893842D02*
X-38605622Y-84232690D01*
X-38605622Y-84232690D02*
X-38605622Y-83560688D01*
X-39031639Y-81865356D02*
X-39031639Y-82431041D01*
X-39031639Y-79586012D02*
X-39031639Y-81865356D01*
X-33371561Y-87893842D02*
X-34944470Y-87893842D01*
X-37063200Y-81598012D02*
X-37063200Y-78706798D01*
X-18438600Y-90620400D02*
X-20340202Y-88718798D01*
X-20340202Y-88718798D02*
X-20953200Y-88718798D01*
X-20953200Y-88718798D02*
X-20953200Y-81531800D01*
X-20953200Y-81531800D02*
X-20597600Y-81176200D01*
X-20597600Y-81176200D02*
X-20597600Y-79389000D01*
X-20597600Y-79389000D02*
X-20546800Y-79338200D01*
X-24661600Y-76712390D02*
X-24661600Y-77401210D01*
X-24844798Y-74059600D02*
X-23910799Y-74993599D01*
X-23910799Y-75961589D02*
X-24661600Y-76712390D01*
X-23910799Y-74993599D02*
X-23910799Y-75961589D01*
X-26693600Y-74059600D02*
X-24844798Y-74059600D01*
X-15111200Y-67303200D02*
X-15670000Y-66744400D01*
X-15111200Y-69390600D02*
X-15111200Y-67303200D01*
X-20953200Y-92618798D02*
X-20953200Y-95908200D01*
X-37906799Y-65894401D02*
X-37056800Y-66744400D01*
X-38206801Y-65594399D02*
X-37906799Y-65894401D01*
X-40686801Y-65594399D02*
X-38206801Y-65594399D01*
X-40746801Y-65654399D02*
X-40686801Y-65594399D01*
X-40746801Y-71640401D02*
X-40746801Y-65654399D01*
X-43718800Y-74612400D02*
X-40746801Y-71640401D01*
X-44218800Y-74612400D02*
X-43718800Y-74612400D01*
X-26693249Y-90321989D02*
X-25237203Y-90321989D01*
X-24081543Y-89166329D02*
X-23681544Y-88766330D01*
X-25237203Y-90321989D02*
X-24081543Y-89166329D01*
X-26723263Y-90352003D02*
X-26693249Y-90321989D01*
X-26723263Y-90352003D02*
X-28029666Y-89045600D01*
X-33189115Y-89045600D02*
X-33754800Y-89045600D01*
X-28029666Y-89045600D02*
X-33189115Y-89045600D01*
X-20953200Y-105109590D02*
X-21043610Y-105200000D01*
X-18438600Y-108400400D02*
X-21043610Y-105795390D01*
X-21043610Y-105795390D02*
X-21043610Y-105765685D01*
X-20953200Y-95908200D02*
X-20953200Y-105109590D01*
X-21043610Y-105765685D02*
X-21043610Y-105200000D01*
X-3692999Y-98762001D02*
X-2843000Y-99612000D01*
X-3993001Y-95981999D02*
X-3993001Y-98461999D01*
X-3420401Y-95921999D02*
X-3933001Y-95921999D01*
X-3933001Y-95921999D02*
X-3993001Y-95981999D01*
X-3369601Y-95871199D02*
X-3420401Y-95921999D01*
X-2817600Y-91941200D02*
X-1292989Y-93465811D01*
X-1292989Y-95461989D02*
X-1752999Y-95921999D01*
X-1752999Y-95921999D02*
X-2214799Y-95921999D01*
X-1292989Y-93465811D02*
X-1292989Y-95461989D01*
X-2214799Y-95921999D02*
X-2265599Y-95871199D01*
X-3993001Y-98461999D02*
X-3692999Y-98762001D01*
X-2265599Y-95871199D02*
X-3369601Y-95871199D01*
X-48436000Y-65643919D02*
X-48436000Y-62020000D01*
X-48436000Y-66846000D02*
X-48436000Y-65643919D01*
X-44372000Y-71672000D02*
X-46251600Y-73551600D01*
X-44372000Y-65194998D02*
X-44372000Y-71672000D01*
X-45446011Y-64120988D02*
X-44372000Y-65194998D01*
X-45446011Y-63993989D02*
X-45446011Y-64120988D01*
X-48436000Y-62274000D02*
X-48137999Y-62572001D01*
X-48137999Y-62572001D02*
X-48137999Y-63334001D01*
X-48137999Y-63334001D02*
X-47547000Y-63925000D01*
X-47547000Y-63925000D02*
X-45515000Y-63925000D01*
X-48436000Y-62020000D02*
X-48436000Y-62274000D01*
X-45515000Y-63925000D02*
X-45446011Y-63993989D01*
X-15218697Y-89762697D02*
X-16069063Y-89762697D01*
X-16069063Y-89762697D02*
X-16469062Y-90162696D01*
X-13237683Y-87781683D02*
X-15218697Y-89762697D01*
X-13237683Y-86931317D02*
X-13237683Y-87781683D01*
X-35754337Y-84359512D02*
X-35978678Y-84583853D01*
X-35956068Y-84606463D02*
X-35956068Y-84636294D01*
X-35557236Y-84162411D02*
X-35978678Y-84583853D01*
X-35956068Y-84636294D02*
X-36356067Y-85036293D01*
X-32875567Y-82867142D02*
X-34367937Y-84359512D01*
X-35978678Y-84583853D02*
X-35956068Y-84606463D01*
X-33573674Y-81531131D02*
X-32875566Y-82229239D01*
X-35875375Y-79736175D02*
X-35309690Y-79736175D01*
X-35309690Y-79736175D02*
X-32875567Y-82170298D01*
X-32875567Y-82170298D02*
X-32875567Y-82867142D01*
X-34367937Y-84359512D02*
X-35754337Y-84359512D01*
X-34170834Y-84162411D02*
X-35557236Y-84162411D01*
X-32875566Y-82229239D02*
X-32875566Y-82867143D01*
X-32875566Y-82867143D02*
X-34170834Y-84162411D01*
X-9381990Y-78066239D02*
X-9381990Y-78631924D01*
X-12418800Y-74872400D02*
X-9381990Y-77909210D01*
X-9381990Y-77909210D02*
X-9381990Y-78066239D01*
X-12960021Y-86653655D02*
X-13042066Y-86653655D01*
X-13042066Y-86653655D02*
X-13214021Y-86481700D01*
X-13214021Y-86481700D02*
X-13214021Y-85916015D01*
X-13237683Y-86931317D02*
X-12960021Y-86653655D01*
X-13072315Y-86912000D02*
X-13638000Y-86912000D01*
X-12960021Y-86653655D02*
X-12960021Y-86799706D01*
X-12960021Y-86799706D02*
X-13072315Y-86912000D01*
X-8557998Y-87496391D02*
X-7745389Y-88309000D01*
X-7745389Y-88309000D02*
X-6399000Y-88309000D01*
X-40638200Y-108375000D02*
X-39038000Y-109975200D01*
X-39038000Y-109975200D02*
X-39038000Y-110215000D01*
X-40638200Y-108375000D02*
X-39038000Y-106774800D01*
X-39038000Y-106774800D02*
X-39038000Y-100247000D01*
X-23996398Y-69690800D02*
X-26518100Y-69690800D01*
X-22139999Y-67834401D02*
X-23996398Y-69690800D01*
X-22139999Y-66355951D02*
X-22139999Y-67834401D01*
X-19340524Y-63556476D02*
X-22139999Y-66355951D01*
X-48759300Y-60115000D02*
X-55382253Y-66737953D01*
X-56553192Y-66737953D02*
X-57118877Y-66737953D01*
X-23925000Y-60115000D02*
X-48759300Y-60115000D01*
X-55382253Y-66737953D02*
X-56553192Y-66737953D01*
X-42213000Y-68497000D02*
X-42213000Y-64406950D01*
X-42213000Y-64406950D02*
X-41877077Y-64071027D01*
X-8639977Y-90157625D02*
X-7205001Y-91592601D01*
X-11625011Y-82428311D02*
X-11625011Y-86650387D01*
X-6100999Y-91592601D02*
X-5502999Y-90994601D01*
X-5502999Y-90994601D02*
X-5502999Y-88174999D01*
X-12019631Y-78996967D02*
X-11122031Y-78996967D01*
X-16686000Y-74330598D02*
X-12019631Y-78996967D01*
X-5502999Y-88174999D02*
X-3529005Y-86201005D01*
X-7205001Y-91592601D02*
X-6100999Y-91592601D01*
X-8639977Y-89635421D02*
X-8639977Y-90157625D01*
X-11625011Y-86650387D02*
X-8639977Y-89635421D01*
X-10355011Y-81158311D02*
X-11625011Y-82428311D01*
X-10355011Y-79763987D02*
X-10355011Y-81158311D01*
X-11122031Y-78996967D02*
X-10355011Y-79763987D01*
X-16686000Y-72561000D02*
X-16686000Y-74330598D01*
X-3529005Y-85607995D02*
X-3529005Y-86201005D01*
X-4458000Y-84679000D02*
X-3529005Y-85607995D01*
X-4458000Y-83229000D02*
X-4458000Y-84679000D01*
X-24340000Y-66744400D02*
X-23290000Y-66744400D01*
X-25490001Y-65594399D02*
X-24340000Y-66744400D01*
X-35068801Y-65594399D02*
X-25490001Y-65594399D01*
X-35906799Y-66432397D02*
X-35068801Y-65594399D01*
X-35906799Y-71713499D02*
X-35906799Y-66432397D01*
X-36627300Y-72434000D02*
X-35906799Y-71713499D01*
X-11225000Y-85870600D02*
X-6653000Y-90442600D01*
X-11225000Y-82594000D02*
X-11225000Y-85870600D01*
X-9955000Y-81324000D02*
X-11225000Y-82594000D01*
X-9955000Y-79598298D02*
X-9955000Y-81324000D01*
X-10086966Y-79466332D02*
X-9955000Y-79598298D01*
X-10086966Y-78240236D02*
X-10086966Y-79466332D01*
X-13118801Y-75208401D02*
X-10086966Y-78240236D01*
X-8819001Y-70236599D02*
X-13118801Y-74536399D01*
X-8819001Y-63170001D02*
X-8819001Y-70236599D01*
X-18508001Y-63170001D02*
X-8819001Y-63170001D01*
X-19023002Y-62655000D02*
X-18508001Y-63170001D01*
X-19428998Y-62655000D02*
X-19023002Y-62655000D01*
X-23290000Y-66516002D02*
X-19428998Y-62655000D01*
X-13118801Y-74536399D02*
X-13118801Y-75208401D01*
X-23290000Y-66744400D02*
X-23290000Y-66516002D01*
X-37807610Y-79397985D02*
X-38207609Y-79797984D01*
X-38207609Y-82596975D02*
X-39005633Y-83394999D01*
X-32977960Y-93180003D02*
X-32977960Y-93852005D01*
X-39005633Y-87152330D02*
X-32977960Y-93180003D01*
X-39005633Y-83394999D02*
X-39005633Y-87152330D01*
X-38207609Y-79797984D02*
X-38207609Y-82596975D01*
X-29436800Y-72372010D02*
X-33213591Y-76148801D01*
X-33213591Y-76148801D02*
X-33613590Y-76548800D01*
X-29436800Y-66744400D02*
X-29436800Y-72372010D01*
X-34603971Y-77109404D02*
X-34203972Y-77509403D01*
X-34516800Y-66744400D02*
X-32706399Y-68554801D01*
X-32706399Y-68554801D02*
X-32706399Y-70903201D01*
X-32706399Y-70903201D02*
X-34603971Y-72800773D01*
X-34603971Y-72800773D02*
X-34603971Y-77109404D01*
X-39596800Y-66744400D02*
X-39596800Y-73469121D01*
X-39596800Y-73469121D02*
X-34575529Y-78490392D01*
X-34575529Y-78490392D02*
X-34009844Y-78490392D01*
X-11155033Y-80826933D02*
X-12425033Y-82096933D01*
X-12788822Y-80460400D02*
X-12125411Y-79796989D01*
X-11453409Y-79796989D02*
X-11155033Y-80095365D01*
X-11155033Y-80095365D02*
X-11155033Y-80826933D01*
X-12425033Y-86981765D02*
X-9439999Y-89966799D01*
X-9439999Y-89966799D02*
X-9439999Y-107148799D01*
X-9439999Y-107148799D02*
X-9740001Y-107448801D01*
X-12125411Y-79796989D02*
X-11453409Y-79796989D01*
X-12425033Y-82096933D02*
X-12425033Y-86981765D01*
X-9740001Y-107448801D02*
X-10590000Y-108298800D01*
X-16588599Y-80460400D02*
X-12788822Y-80460400D01*
X-12025022Y-82262622D02*
X-12025022Y-86816076D01*
X-9039988Y-108450790D02*
X-10037999Y-109448801D01*
X-9039988Y-89801110D02*
X-9039988Y-108450790D01*
X-16076797Y-79461851D02*
X-16011924Y-79396978D01*
X-11287720Y-79396978D02*
X-10755022Y-79929676D01*
X-11142001Y-109448801D02*
X-11740001Y-108850801D01*
X-11439999Y-106608799D02*
X-10590000Y-105758800D01*
X-11740001Y-108850801D02*
X-11740001Y-106908801D01*
X-16011924Y-79396978D02*
X-11287720Y-79396978D01*
X-12025022Y-86816076D02*
X-9039988Y-89801110D01*
X-10755022Y-79929676D02*
X-10755022Y-80992622D01*
X-16642482Y-79461851D02*
X-16076797Y-79461851D01*
X-11740001Y-106908801D02*
X-11439999Y-106608799D01*
X-10037999Y-109448801D02*
X-11142001Y-109448801D01*
X-10755022Y-80992622D02*
X-12025022Y-82262622D01*
X-54715201Y-91805302D02*
X-54715201Y-107698342D01*
X-52058354Y-117551243D02*
X-51307955Y-117551245D01*
X-54450023Y-114409177D02*
X-54450021Y-114409179D01*
X-52858375Y-116751222D02*
X-52058354Y-117551243D01*
X-16167168Y-114090456D02*
X-15640157Y-113563445D01*
X-52657952Y-109755591D02*
X-52657952Y-110427595D01*
X-54715201Y-107698342D02*
X-52657952Y-109755591D01*
X-48424899Y-85515000D02*
X-54715201Y-91805302D01*
X-52657952Y-110427595D02*
X-54450023Y-112219666D01*
X-54450020Y-116222581D02*
X-53921379Y-116751222D01*
X-10120921Y-112737469D02*
X-9720922Y-112337470D01*
X-54450021Y-114409179D02*
X-54450020Y-116222581D01*
X-54450023Y-112219666D02*
X-54450023Y-114409177D01*
X-26740588Y-114090456D02*
X-16167168Y-114090456D01*
X-27699302Y-115049170D02*
X-26740588Y-114090456D01*
X-51307955Y-117551245D02*
X-43665243Y-117551245D01*
X-28601617Y-115049170D02*
X-27699302Y-115049170D01*
X-40638200Y-85515000D02*
X-48424899Y-85515000D01*
X-28833391Y-115280944D02*
X-28601617Y-115049170D01*
X-10946897Y-113563445D02*
X-10120921Y-112737469D01*
X-40955289Y-114841291D02*
X-34265613Y-114841291D01*
X-53921379Y-116751222D02*
X-52858375Y-116751222D01*
X-43665243Y-117551245D02*
X-40955289Y-114841291D01*
X-34265613Y-114841291D02*
X-33825960Y-115280944D01*
X-33825960Y-115280944D02*
X-28833391Y-115280944D01*
X-15640157Y-113563445D02*
X-10946897Y-113563445D01*
X-45623302Y-84962999D02*
X-41788201Y-84962999D01*
X-52190212Y-69618724D02*
X-52190212Y-78396090D01*
X-52190212Y-78396090D02*
X-45623302Y-84962999D01*
X-41788201Y-84962999D02*
X-41190201Y-84364999D01*
X-39488199Y-84962999D02*
X-39488199Y-88682791D01*
X-39488199Y-88682791D02*
X-34974000Y-93196990D01*
X-41190201Y-84364999D02*
X-40086199Y-84364999D01*
X-50549801Y-67978313D02*
X-52190212Y-69618724D01*
X-40086199Y-84364999D02*
X-39488199Y-84962999D01*
X-34974000Y-93196990D02*
X-34974000Y-93835010D01*
X-50022000Y-112947000D02*
X-51611000Y-112947000D01*
X-22488286Y-59414999D02*
X-22458685Y-59444600D01*
X-51037999Y-59414999D02*
X-22488286Y-59414999D01*
X-57450126Y-66033200D02*
X-55243200Y-66033200D01*
X-22458685Y-59444600D02*
X-21893000Y-59444600D01*
X-57818878Y-66401952D02*
X-57450126Y-66033200D01*
X-57818878Y-106866122D02*
X-57818878Y-66401952D01*
X-55243200Y-66033200D02*
X-51037999Y-61827999D01*
X-51037999Y-61827999D02*
X-51037999Y-59414999D01*
X-55167000Y-109518000D02*
X-57818878Y-106866122D01*
X-31545000Y-99941200D02*
X-31545000Y-109723765D01*
X-30727552Y-110541213D02*
X-30327553Y-110941212D01*
X-31545000Y-109723765D02*
X-30727552Y-110541213D01*
X-1681001Y-88200999D02*
X-2081000Y-87801000D01*
X293978Y-90175978D02*
X-1681001Y-88200999D01*
X293978Y-110913822D02*
X293978Y-90175978D01*
X-5149489Y-116357289D02*
X293978Y-110913822D01*
X-19715480Y-115490377D02*
X-18848568Y-116357289D01*
X-26699208Y-116170440D02*
X-26019145Y-115490377D01*
X-26019145Y-115490377D02*
X-19715480Y-115490377D01*
X-18848568Y-116357289D02*
X-5149489Y-116357289D01*
X-9097969Y-80763320D02*
X-9097969Y-81032667D01*
X-9097969Y-81032667D02*
X-9958010Y-81892708D01*
X-5071481Y-85953519D02*
X-4671482Y-86353518D01*
X-17956000Y-62020000D02*
X-16405991Y-60469991D01*
X-9618310Y-60469991D02*
X293978Y-70382279D01*
X293978Y-70382279D02*
X293978Y-71371371D01*
X-9958010Y-81892708D02*
X-9958010Y-84475988D01*
X293978Y-71371371D02*
X-9097969Y-80763320D01*
X-9958010Y-84475988D02*
X-8729999Y-85703999D01*
X-5321001Y-85703999D02*
X-5071481Y-85953519D01*
X-8729999Y-85703999D02*
X-5321001Y-85703999D01*
X-16405991Y-60469991D02*
X-9618310Y-60469991D01*
X-32815000Y-99941200D02*
X-32815000Y-109849438D01*
X-32815000Y-109849438D02*
X-31283580Y-111380858D01*
X-31283580Y-111380858D02*
X-30883581Y-111780857D01*
X-23052525Y-116949193D02*
X-27451953Y-116949193D01*
X-21993720Y-115890388D02*
X-23052525Y-116949193D01*
X-27451953Y-116949193D02*
X-27851952Y-116549194D01*
X-19063880Y-116757300D02*
X-19930792Y-115890388D01*
X693989Y-111079511D02*
X-4983800Y-116757300D01*
X-20496000Y-62020000D02*
X-18545980Y-60069980D01*
X-3503693Y-87278538D02*
X-3103694Y-86878539D01*
X-3103694Y-86878539D02*
X-1967459Y-86878539D01*
X-4983800Y-116757300D02*
X-19063880Y-116757300D01*
X-1967459Y-86878539D02*
X693989Y-89539987D01*
X693989Y-71961313D02*
X-7514850Y-80170152D01*
X-7514850Y-80170152D02*
X-7914849Y-80570151D01*
X-9452621Y-60069980D02*
X693989Y-70216590D01*
X-18545980Y-60069980D02*
X-9452621Y-60069980D01*
X693989Y-70216590D02*
X693989Y-71961313D01*
X-19930792Y-115890388D02*
X-21993720Y-115890388D01*
X693989Y-89539987D02*
X693989Y-111079511D01*
X-7542000Y-87166000D02*
X-7904001Y-86803999D01*
X-6018000Y-87166000D02*
X-7542000Y-87166000D01*
X-7904001Y-86803999D02*
X-8304000Y-86404000D01*
X-34085000Y-99941200D02*
X-34085000Y-110026000D01*
X-33087999Y-111023001D02*
X-32688000Y-111423000D01*
X-34085000Y-110026000D02*
X-33087999Y-111023001D01*
X-30128380Y-117086951D02*
X-30374940Y-117086951D01*
X-28850402Y-116480977D02*
X-29522406Y-116480977D01*
X-27967852Y-117490527D02*
X-28486402Y-116971977D01*
X-4877483Y-117490527D02*
X-27967852Y-117490527D01*
X-1452979Y-114066023D02*
X-4877483Y-117490527D01*
X-67421Y-114066023D02*
X-1452979Y-114066023D01*
X1124590Y-112874012D02*
X-67421Y-114066023D01*
X1124590Y-70081491D02*
X1124590Y-112874012D01*
X-9286932Y-59669969D02*
X1124590Y-70081491D01*
X-20685969Y-59669969D02*
X-9286932Y-59669969D01*
X-23036000Y-62020000D02*
X-20685969Y-59669969D01*
X-28486402Y-116971977D02*
X-28486402Y-116844977D01*
X-28486402Y-116844977D02*
X-28850402Y-116480977D01*
X-29522406Y-116480977D02*
X-30128380Y-117086951D01*
X-28187954Y-115849192D02*
X-28419728Y-116080966D01*
X-684000Y-90484800D02*
X-684000Y-110896702D01*
X-28419728Y-116080966D02*
X-29688095Y-116080966D01*
X-29688095Y-116080966D02*
X-29942095Y-116334966D01*
X-27367924Y-115849192D02*
X-28187954Y-115849192D01*
X-29942095Y-116334966D02*
X-39587034Y-116334966D01*
X-18168435Y-115906022D02*
X-19183979Y-114890478D01*
X-39781001Y-116140999D02*
X-40181000Y-115741000D01*
X-39587034Y-116334966D02*
X-39781001Y-116140999D01*
X-26409210Y-114890478D02*
X-27367924Y-115849192D01*
X-19183979Y-114890478D02*
X-26409210Y-114890478D01*
X-5693320Y-115906022D02*
X-18168435Y-115906022D01*
X-684000Y-110896702D02*
X-5693320Y-115906022D01*
X-1767600Y-89401200D02*
X-684000Y-90484800D01*
X-2817600Y-89401200D02*
X-1767600Y-89401200D01*
X-27533613Y-115449181D02*
X-28435928Y-115449181D01*
X-2843000Y-97072000D02*
X-1268200Y-98646800D01*
X-1268200Y-98646800D02*
X-1268200Y-110915202D01*
X-1268200Y-110915202D02*
X-5859009Y-115506011D01*
X-5859009Y-115506011D02*
X-18002746Y-115506011D01*
X-18002746Y-115506011D02*
X-19018290Y-114490467D01*
X-19018290Y-114490467D02*
X-26574899Y-114490467D01*
X-26574899Y-114490467D02*
X-27533613Y-115449181D01*
X-28435928Y-115449181D02*
X-28667702Y-115680955D01*
X-28667702Y-115680955D02*
X-36063447Y-115680955D01*
X-36063447Y-115680955D02*
X-36186315Y-115558087D01*
X-36186315Y-115558087D02*
X-36752000Y-115558087D01*
X-49740201Y-76791401D02*
X-50615200Y-77666400D01*
X-41688200Y-75355000D02*
X-42158020Y-75824820D01*
X-48773620Y-75824820D02*
X-49740201Y-76791401D01*
X-42158020Y-75824820D02*
X-48773620Y-75824820D01*
X-40638200Y-75355000D02*
X-41688200Y-75355000D01*
X-34680330Y-85159021D02*
X-35080329Y-85559020D01*
X-32892875Y-84759522D02*
X-34280831Y-84759522D01*
X-34280831Y-84759522D02*
X-34680330Y-85159021D01*
X-23647644Y-86386444D02*
X-23247645Y-86786443D01*
X-31492864Y-84727724D02*
X-25306364Y-84727724D01*
X-25306364Y-84727724D02*
X-23647644Y-86386444D01*
X-13130000Y-66744400D02*
X-13979999Y-67594399D01*
X-13979999Y-75420832D02*
X-11982030Y-77418801D01*
X-11982030Y-77418801D02*
X-11582031Y-77818800D01*
X-13979999Y-67594399D02*
X-13979999Y-75420832D01*
X-12255042Y-80916575D02*
X-11855043Y-80516576D01*
X-16878867Y-85540400D02*
X-12255042Y-80916575D01*
X-18438600Y-85540400D02*
X-16878867Y-85540400D01*
X-10844000Y-66490400D02*
X-10590000Y-66744400D01*
X-10844000Y-64494389D02*
X-10844000Y-66490400D01*
X-33575568Y-82531141D02*
X-35165141Y-82531141D01*
X-35165141Y-82531141D02*
X-36352001Y-83718001D01*
X-36352001Y-83718001D02*
X-36752000Y-84118000D01*
X-24858999Y-99241199D02*
X-24052000Y-100048198D01*
X-34421001Y-99241199D02*
X-24858999Y-99241199D01*
X-34664802Y-99485000D02*
X-34421001Y-99241199D01*
X-41889685Y-99485000D02*
X-34664802Y-99485000D01*
X-47303025Y-93505975D02*
X-47303025Y-94071660D01*
X-47303025Y-94071660D02*
X-41889685Y-99485000D01*
X-20253199Y-104045801D02*
X-19288599Y-105010401D01*
X-19288599Y-105010401D02*
X-18438600Y-105860400D01*
X-20253199Y-92282797D02*
X-20253199Y-104045801D01*
X-20617199Y-91918797D02*
X-20253199Y-92282797D01*
X-21289201Y-91918797D02*
X-20617199Y-91918797D01*
X-21653201Y-92282797D02*
X-21289201Y-91918797D01*
X-21653201Y-97649399D02*
X-21653201Y-92282797D01*
X-24052000Y-100048198D02*
X-21653201Y-97649399D01*
X-20546800Y-77463200D02*
X-21302209Y-78218609D01*
X-21302209Y-78218609D02*
X-30556725Y-78218609D01*
X-30556725Y-78218609D02*
X-30956724Y-77818610D01*
X-26109449Y-92110863D02*
X-25709450Y-91710864D01*
X-26998400Y-92999814D02*
X-26109449Y-92110863D01*
X-26998400Y-95903600D02*
X-26998400Y-92999814D01*
X-31011600Y-95903600D02*
X-31011600Y-92042800D01*
X-31011600Y-92042800D02*
X-32288001Y-90766399D01*
X-32288001Y-90766399D02*
X-32688000Y-90366400D01*
X-6830800Y-63823198D02*
X-6830800Y-72383200D01*
X-9783999Y-60869999D02*
X-6830800Y-63823198D01*
X-11725999Y-60869999D02*
X-9783999Y-60869999D01*
X-12876000Y-62020000D02*
X-11725999Y-60869999D01*
X-3667599Y-95331199D02*
X-2817600Y-94481200D01*
X-3907900Y-95331199D02*
X-3667599Y-95331199D01*
X-5789302Y-97212601D02*
X-3907900Y-95331199D01*
X-5803001Y-97212601D02*
X-5789302Y-97212601D01*
X-6653000Y-98062600D02*
X-5803001Y-97212601D01*
X-6653000Y-99264681D02*
X-6653000Y-100602600D01*
X-6653000Y-98062600D02*
X-6653000Y-99264681D01*
X-6653000Y-103142600D02*
X-6653000Y-100602600D01*
X-3859000Y-103142600D02*
X-2817600Y-102101200D01*
X-6653000Y-103142600D02*
X-3859000Y-103142600D01*
X-20417306Y-116590390D02*
X-20217171Y-116790525D01*
X-21657718Y-116590390D02*
X-20417306Y-116590390D01*
X-50939667Y-118351267D02*
X-30356692Y-118351267D01*
X-53771800Y-121183400D02*
X-50939667Y-118351267D01*
X-57175400Y-121183400D02*
X-53771800Y-121183400D01*
X-59283600Y-119075200D02*
X-57175400Y-121183400D01*
X-59283600Y-115031600D02*
X-59283600Y-119075200D01*
X-53897000Y-109645000D02*
X-59283600Y-115031600D01*
X-53897000Y-109264000D02*
X-53897000Y-109645000D01*
X-43352988Y-65082612D02*
X-43352988Y-70535410D01*
X-44506001Y-61467999D02*
X-44506001Y-63929599D01*
X-43352988Y-70535410D02*
X-42971988Y-70916410D01*
X-43908001Y-60869999D02*
X-44506001Y-61467999D01*
X-30356692Y-118351267D02*
X-29186404Y-117180979D01*
X-28116000Y-62020000D02*
X-29266001Y-60869999D01*
X-55115212Y-70848791D02*
X-55115212Y-108045788D01*
X-29266001Y-60869999D02*
X-43908001Y-60869999D01*
X-44506001Y-63929599D02*
X-43352988Y-65082612D01*
X-49849800Y-71454478D02*
X-49849800Y-67645421D01*
X-42971988Y-70916410D02*
X-42971988Y-71745188D01*
X-46279478Y-75024800D02*
X-49849800Y-71454478D01*
X-42971988Y-71745188D02*
X-46251600Y-75024800D01*
X-49849800Y-67645421D02*
X-50880821Y-66614400D01*
X-46251600Y-75024800D02*
X-46279478Y-75024800D01*
X-50880821Y-66614400D02*
X-55115212Y-70848791D01*
X-55115212Y-108045788D02*
X-53897000Y-109264000D01*
X-32409305Y-117951256D02*
X-31545000Y-117086951D01*
X-53287046Y-117951256D02*
X-32409305Y-117951256D01*
X-53357954Y-110091593D02*
X-58300001Y-115033640D01*
X-58300001Y-115033640D02*
X-58300001Y-119104001D01*
X-57104001Y-120300001D02*
X-54895999Y-120300001D01*
X-58300001Y-119104001D02*
X-57104001Y-120300001D01*
X-54895999Y-120300001D02*
X-53287046Y-118691048D01*
X-53287046Y-118691048D02*
X-53287046Y-117951256D01*
X-42571977Y-70750721D02*
X-42571977Y-71910877D01*
X-46085909Y-75424809D02*
X-50112611Y-75424809D01*
X-42952977Y-70369721D02*
X-42571977Y-70750721D01*
X-50112611Y-75424809D02*
X-51790201Y-77102399D01*
X-51790201Y-78230401D02*
X-51179201Y-78841401D01*
X-42571977Y-71910877D02*
X-46085909Y-75424809D01*
X-42952977Y-63625104D02*
X-42952977Y-70369721D01*
X-51179201Y-78841401D02*
X-44064601Y-78841401D01*
X-51790201Y-77102399D02*
X-51790201Y-78230401D01*
X-34009103Y-79666418D02*
X-33443418Y-79666418D01*
X-44064601Y-78841401D02*
X-41728201Y-76505001D01*
X-43356000Y-62020000D02*
X-43356000Y-63222081D01*
X-37956328Y-76505001D02*
X-34794911Y-79666418D01*
X-41728201Y-76505001D02*
X-37956328Y-76505001D01*
X-34794911Y-79666418D02*
X-34009103Y-79666418D01*
X-43356000Y-63222081D02*
X-42952977Y-63625104D01*
X-17168600Y-109670400D02*
X-17588601Y-110090401D01*
X-18438600Y-88918398D02*
X-17168600Y-90188398D01*
X-18438600Y-88080400D02*
X-18438600Y-88918398D01*
X-17588601Y-110090401D02*
X-18438600Y-110940400D01*
X-17168600Y-90188398D02*
X-17168600Y-109670400D01*
X-24895598Y-72078400D02*
X-27981100Y-72078400D01*
X-19846799Y-84680897D02*
X-19846799Y-77127199D01*
X-19988612Y-86530388D02*
X-19988612Y-84822710D01*
X-19988612Y-84822710D02*
X-19846799Y-84680897D01*
X-18438600Y-88080400D02*
X-19988612Y-86530388D01*
X-19846799Y-77127199D02*
X-24895598Y-72078400D01*
X-27981100Y-72078400D02*
X-28568600Y-72078400D01*
X-41840281Y-100755000D02*
X-40638200Y-100755000D01*
X-41961874Y-107361874D02*
X-41840281Y-107240281D01*
X-48132572Y-107361874D02*
X-41961874Y-107361874D01*
X-48290201Y-111230401D02*
X-48290201Y-107519503D01*
X-47079379Y-112441223D02*
X-48290201Y-111230401D01*
X-26984732Y-110940400D02*
X-28693436Y-112649104D01*
X-41840281Y-107240281D02*
X-41840281Y-100755000D01*
X-18438600Y-110940400D02*
X-26984732Y-110940400D01*
X-48290201Y-107519503D02*
X-48132572Y-107361874D01*
X-28693436Y-112649104D02*
X-29595752Y-112649104D01*
X-33271481Y-112441223D02*
X-47079379Y-112441223D01*
X-29595752Y-112649104D02*
X-29827526Y-112880878D01*
X-29827526Y-112880878D02*
X-32831826Y-112880878D01*
X-32831826Y-112880878D02*
X-33271481Y-112441223D01*
X-14349200Y-108298800D02*
X-14374600Y-108273400D01*
X-14374600Y-108273400D02*
X-14425400Y-108273400D01*
X-33163204Y-113680900D02*
X-33602857Y-113241247D01*
X-19156290Y-112490412D02*
X-19356413Y-112290289D01*
X-14425400Y-108273400D02*
X-13575401Y-109123399D01*
X-29496148Y-113680900D02*
X-33163204Y-113680900D01*
X-29264373Y-113449126D02*
X-29496148Y-113680900D01*
X-13575401Y-109123399D02*
X-13575401Y-109910597D01*
X-15339846Y-111600956D02*
X-16831454Y-111600956D01*
X-28362058Y-113449126D02*
X-29264373Y-113449126D01*
X-19356413Y-112290289D02*
X-27203221Y-112290289D01*
X-41618045Y-113241247D02*
X-44327999Y-115951201D01*
X-33602857Y-113241247D02*
X-41618045Y-113241247D01*
X-13873399Y-111963401D02*
X-14977401Y-111963401D01*
X-27203221Y-112290289D02*
X-28362058Y-113449126D01*
X-14977401Y-111963401D02*
X-15339846Y-111600956D01*
X-49156966Y-106909438D02*
X-49232584Y-106833820D01*
X-49156966Y-113572234D02*
X-49156966Y-106909438D01*
X-48570001Y-114159199D02*
X-49156966Y-113572234D01*
X-48570001Y-115353201D02*
X-48570001Y-114159199D01*
X-47972001Y-115951201D02*
X-48570001Y-115353201D01*
X-44327999Y-115951201D02*
X-47972001Y-115951201D01*
X-17720910Y-112490412D02*
X-19156290Y-112490412D01*
X-16831454Y-111600956D02*
X-17720910Y-112490412D01*
X-13130000Y-111220002D02*
X-13873399Y-111963401D01*
X-13130000Y-110355998D02*
X-13130000Y-111220002D01*
X-13575401Y-109910597D02*
X-13130000Y-110355998D01*
X-19190724Y-111890278D02*
X-27368910Y-111890278D01*
X-16634998Y-110838800D02*
X-17886599Y-112090401D01*
X-29430063Y-113049115D02*
X-29661837Y-113280889D01*
X-14349200Y-110838800D02*
X-16634998Y-110838800D01*
X-17886599Y-112090401D02*
X-18990601Y-112090401D01*
X-18990601Y-112090401D02*
X-19190724Y-111890278D01*
X-47677964Y-112841234D02*
X-48701199Y-111817999D01*
X-48701199Y-111817999D02*
X-48701199Y-107338437D01*
X-48532583Y-106372870D02*
X-48655917Y-106249536D01*
X-48655917Y-106249536D02*
X-49055916Y-105849537D01*
X-48532583Y-107169821D02*
X-48532583Y-106372870D01*
X-48701199Y-107338437D02*
X-48532583Y-107169821D01*
X-33437170Y-112841234D02*
X-47677964Y-112841234D01*
X-32997515Y-113280889D02*
X-33437170Y-112841234D01*
X-29661837Y-113280889D02*
X-32997515Y-113280889D01*
X-28527747Y-113049115D02*
X-29430063Y-113049115D01*
X-27368910Y-111890278D02*
X-28527747Y-113049115D01*
X-52373000Y-113651199D02*
X-52373000Y-111839743D01*
X-51349999Y-115113203D02*
X-51349999Y-113711199D01*
X-14425400Y-105733400D02*
X-12983989Y-107174811D01*
X-51409999Y-113651199D02*
X-52373000Y-113651199D01*
X-50111990Y-116351212D02*
X-51349999Y-115113203D01*
X-29098684Y-113849137D02*
X-29330459Y-114080911D01*
X-52373000Y-111839743D02*
X-49556977Y-109023720D01*
X-12729989Y-109775511D02*
X-12729989Y-111385691D01*
X-51349999Y-113711199D02*
X-51409999Y-113651199D01*
X-49556977Y-107914944D02*
X-49856968Y-107614953D01*
X-33768546Y-113641258D02*
X-41452356Y-113641258D01*
X-13707710Y-112363412D02*
X-17028210Y-112363412D01*
X-28196369Y-113849137D02*
X-29098684Y-113849137D01*
X-41452356Y-113641258D02*
X-44162310Y-116351212D01*
X-17555221Y-112890423D02*
X-27237655Y-112890423D01*
X-17028210Y-112363412D02*
X-17555221Y-112890423D01*
X-12729989Y-111385691D02*
X-13707710Y-112363412D01*
X-49556977Y-109023720D02*
X-49556977Y-107914944D01*
X-12983989Y-109521511D02*
X-12729989Y-109775511D01*
X-12983989Y-107174811D02*
X-12983989Y-109521511D01*
X-44162310Y-116351212D02*
X-50111990Y-116351212D01*
X-27237655Y-112890423D02*
X-28196369Y-113849137D01*
X-29330459Y-114080911D02*
X-33328893Y-114080911D01*
X-33328893Y-114080911D02*
X-33768546Y-113641258D01*
X-12329978Y-109609822D02*
X-12329978Y-111551380D01*
X-12583978Y-109355822D02*
X-12329978Y-109609822D01*
X-12583978Y-105034822D02*
X-12583978Y-109355822D01*
X-14425400Y-103193400D02*
X-12583978Y-105034822D01*
X-50266978Y-109146699D02*
X-50266978Y-108581014D01*
X-53650001Y-112551044D02*
X-50266978Y-109168021D01*
X-12329978Y-111551380D02*
X-13542021Y-112763423D01*
X-13542021Y-112763423D02*
X-16862521Y-112763423D01*
X-16862521Y-112763423D02*
X-17389532Y-113290434D01*
X-17389532Y-113290434D02*
X-27071966Y-113290434D01*
X-27071966Y-113290434D02*
X-28030680Y-114249148D01*
X-28030680Y-114249148D02*
X-28932995Y-114249148D01*
X-28932995Y-114249148D02*
X-29164770Y-114480922D01*
X-29164770Y-114480922D02*
X-33494582Y-114480922D01*
X-33494582Y-114480922D02*
X-33934235Y-114041269D01*
X-33934235Y-114041269D02*
X-41286667Y-114041269D01*
X-41286667Y-114041269D02*
X-43996621Y-116751223D01*
X-43996621Y-116751223D02*
X-51726977Y-116751223D01*
X-51726977Y-116751223D02*
X-52526999Y-115951201D01*
X-52526999Y-115951201D02*
X-53590001Y-115951201D01*
X-53590001Y-115951201D02*
X-53650001Y-115891201D01*
X-53650001Y-115891201D02*
X-53650001Y-112551044D01*
X-50266978Y-109168021D02*
X-50266978Y-109146699D01*
X-22832800Y-88955024D02*
X-22832800Y-88747685D01*
X-24599776Y-90722000D02*
X-22832800Y-88955024D01*
X-26057256Y-90722000D02*
X-24599776Y-90722000D01*
X-28444871Y-89666399D02*
X-27059265Y-91052005D01*
X-33024001Y-89666399D02*
X-28444871Y-89666399D01*
X-33634319Y-91533679D02*
X-33634319Y-90276717D01*
X-32445606Y-94552006D02*
X-31530799Y-93637199D01*
X-35674001Y-93499009D02*
X-35674001Y-94171011D01*
X-41190201Y-89205001D02*
X-39968009Y-89205001D01*
X-51415199Y-109750542D02*
X-51415199Y-89071000D01*
X-54050011Y-116056890D02*
X-54050012Y-112385355D01*
X-22832800Y-88747685D02*
X-22832800Y-88182000D01*
X-51892666Y-117151233D02*
X-52692687Y-116351211D01*
X-31530799Y-93637199D02*
X-33634319Y-91533679D01*
X-43830932Y-117151234D02*
X-51892666Y-117151233D01*
X-41120978Y-114441280D02*
X-43830932Y-117151234D01*
X-27059265Y-91052005D02*
X-26387261Y-91052005D01*
X-33660271Y-114880933D02*
X-34099924Y-114441280D01*
X-39968009Y-89205001D02*
X-35674001Y-93499009D01*
X-28767306Y-114649159D02*
X-28999081Y-114880933D01*
X-16696832Y-113163434D02*
X-17223843Y-113690445D01*
X-11929967Y-111717069D02*
X-13376332Y-113163434D01*
X-34099924Y-114441280D02*
X-41120978Y-114441280D01*
X-11929967Y-109444133D02*
X-11929967Y-111717069D01*
X-51415199Y-89071000D02*
X-41324202Y-89071000D01*
X-27864991Y-114649159D02*
X-28767306Y-114649159D01*
X-26387261Y-91052005D02*
X-26057256Y-90722000D01*
X-54050012Y-112385355D02*
X-51415199Y-109750542D01*
X-35293006Y-94552006D02*
X-32445606Y-94552006D01*
X-17223843Y-113690445D02*
X-26906277Y-113690445D01*
X-33634319Y-90276717D02*
X-33024001Y-89666399D01*
X-41324202Y-89071000D02*
X-41190201Y-89205001D01*
X-13376332Y-113163434D02*
X-16696832Y-113163434D01*
X-28999081Y-114880933D02*
X-33660271Y-114880933D01*
X-53755690Y-116351211D02*
X-54050011Y-116056890D01*
X-52692687Y-116351211D02*
X-53755690Y-116351211D01*
X-14425400Y-100653400D02*
X-12183967Y-102894833D01*
X-26906277Y-113690445D02*
X-27864991Y-114649159D01*
X-35674001Y-94171011D02*
X-35293006Y-94552006D01*
X-12183967Y-109190133D02*
X-11929967Y-109444133D01*
X-12183967Y-102894833D02*
X-12183967Y-109190133D01*
X-14076417Y-89610381D02*
X-13676418Y-89210382D01*
X-14425400Y-93033400D02*
X-14425400Y-89959364D01*
X-14425400Y-89959364D02*
X-14076417Y-89610381D01*
X-19778399Y-98886955D02*
X-19177116Y-99488238D01*
X-19378400Y-94303400D02*
X-19778399Y-94703399D01*
X-19778399Y-94703399D02*
X-19778399Y-98886955D01*
X-8693646Y-112337470D02*
X-8693646Y-113065354D01*
X-8693646Y-113065354D02*
X-7415000Y-114344000D01*
M02*
