G04 #@! TF.GenerationSoftware,KiCad,Pcbnew,(5.1.0)-1*
G04 #@! TF.CreationDate,2019-05-22T15:11:18+05:30*
G04 #@! TF.ProjectId,Console,436f6e73-6f6c-4652-9e6b-696361645f70,2.0.1*
G04 #@! TF.SameCoordinates,Original*
G04 #@! TF.FileFunction,Legend,Top*
G04 #@! TF.FilePolarity,Positive*
%FSLAX46Y46*%
G04 Gerber Fmt 4.6, Leading zero omitted, Abs format (unit mm)*
G04 Created by KiCad (PCBNEW (5.1.0)-1) date 2019-05-22 15:11:18*
%MOMM*%
%LPD*%
G04 APERTURE LIST*
%ADD10C,0.120000*%
%ADD11C,0.625000*%
%ADD12C,0.500000*%
%ADD13C,0.150000*%
%ADD14C,0.075000*%
%ADD15C,0.062500*%
G04 APERTURE END LIST*
D10*
X-1706266Y-80496090D02*
X-1706266Y-79996090D01*
X-1515790Y-79996090D01*
X-1468171Y-80019900D01*
X-1444361Y-80043709D01*
X-1420552Y-80091328D01*
X-1420552Y-80162757D01*
X-1444361Y-80210376D01*
X-1468171Y-80234185D01*
X-1515790Y-80257995D01*
X-1706266Y-80257995D01*
X-1253885Y-79996090D02*
X-1134838Y-80496090D01*
X-1039600Y-80138947D01*
X-944361Y-80496090D01*
X-825314Y-79996090D01*
X-349123Y-80496090D02*
X-515790Y-80257995D01*
X-634838Y-80496090D02*
X-634838Y-79996090D01*
X-444361Y-79996090D01*
X-396742Y-80019900D01*
X-372933Y-80043709D01*
X-349123Y-80091328D01*
X-349123Y-80162757D01*
X-372933Y-80210376D01*
X-396742Y-80234185D01*
X-444361Y-80257995D01*
X-634838Y-80257995D01*
X-17067000Y-69386000D02*
X-16305000Y-69386000D01*
X-16305000Y-69386000D02*
X-16432000Y-69259000D01*
X-16305000Y-69386000D02*
X-16432000Y-69513000D01*
X-51103000Y-67862000D02*
X-51230000Y-67989000D01*
X-51103000Y-67862000D02*
X-51230000Y-67735000D01*
X-51865000Y-67862000D02*
X-51103000Y-67862000D01*
X-50976000Y-65576000D02*
X-51103000Y-65703000D01*
X-50976000Y-65576000D02*
X-51103000Y-65449000D01*
X-51738000Y-65576000D02*
X-50976000Y-65576000D01*
X-20507714Y-69612190D02*
X-20507714Y-69112190D01*
X-20317238Y-69112190D01*
X-20269619Y-69136000D01*
X-20245809Y-69159809D01*
X-20222000Y-69207428D01*
X-20222000Y-69278857D01*
X-20245809Y-69326476D01*
X-20269619Y-69350285D01*
X-20317238Y-69374095D01*
X-20507714Y-69374095D01*
X-20055333Y-69112190D02*
X-19936285Y-69612190D01*
X-19841047Y-69255047D01*
X-19745809Y-69612190D01*
X-19626761Y-69112190D01*
X-19150571Y-69612190D02*
X-19317238Y-69374095D01*
X-19436285Y-69612190D02*
X-19436285Y-69112190D01*
X-19245809Y-69112190D01*
X-19198190Y-69136000D01*
X-19174380Y-69159809D01*
X-19150571Y-69207428D01*
X-19150571Y-69278857D01*
X-19174380Y-69326476D01*
X-19198190Y-69350285D01*
X-19245809Y-69374095D01*
X-19436285Y-69374095D01*
X-19055333Y-69659809D02*
X-18674380Y-69659809D01*
X-18317238Y-69612190D02*
X-18555333Y-69612190D01*
X-18555333Y-69112190D01*
X-18150571Y-69350285D02*
X-17983904Y-69350285D01*
X-17912476Y-69612190D02*
X-18150571Y-69612190D01*
X-18150571Y-69112190D01*
X-17912476Y-69112190D01*
X-17698190Y-69612190D02*
X-17698190Y-69112190D01*
X-17579142Y-69112190D01*
X-17507714Y-69136000D01*
X-17460095Y-69183619D01*
X-17436285Y-69231238D01*
X-17412476Y-69326476D01*
X-17412476Y-69397904D01*
X-17436285Y-69493142D01*
X-17460095Y-69540761D01*
X-17507714Y-69588380D01*
X-17579142Y-69612190D01*
X-17698190Y-69612190D01*
X-12792571Y-85987285D02*
X-12721142Y-86011095D01*
X-12697333Y-86034904D01*
X-12673523Y-86082523D01*
X-12673523Y-86153952D01*
X-12697333Y-86201571D01*
X-12721142Y-86225380D01*
X-12768761Y-86249190D01*
X-12959238Y-86249190D01*
X-12959238Y-85749190D01*
X-12792571Y-85749190D01*
X-12744952Y-85773000D01*
X-12721142Y-85796809D01*
X-12697333Y-85844428D01*
X-12697333Y-85892047D01*
X-12721142Y-85939666D01*
X-12744952Y-85963476D01*
X-12792571Y-85987285D01*
X-12959238Y-85987285D01*
X-12459238Y-85749190D02*
X-12459238Y-86153952D01*
X-12435428Y-86201571D01*
X-12411619Y-86225380D01*
X-12364000Y-86249190D01*
X-12268761Y-86249190D01*
X-12221142Y-86225380D01*
X-12197333Y-86201571D01*
X-12173523Y-86153952D01*
X-12173523Y-85749190D01*
X-11959238Y-86225380D02*
X-11887809Y-86249190D01*
X-11768761Y-86249190D01*
X-11721142Y-86225380D01*
X-11697333Y-86201571D01*
X-11673523Y-86153952D01*
X-11673523Y-86106333D01*
X-11697333Y-86058714D01*
X-11721142Y-86034904D01*
X-11768761Y-86011095D01*
X-11864000Y-85987285D01*
X-11911619Y-85963476D01*
X-11935428Y-85939666D01*
X-11959238Y-85892047D01*
X-11959238Y-85844428D01*
X-11935428Y-85796809D01*
X-11911619Y-85773000D01*
X-11864000Y-85749190D01*
X-11744952Y-85749190D01*
X-11673523Y-85773000D01*
X-11364000Y-86011095D02*
X-11364000Y-86249190D01*
X-11530666Y-85749190D02*
X-11364000Y-86011095D01*
X-11197333Y-85749190D01*
X-15364285Y-113300190D02*
X-15364285Y-112966857D01*
X-15364285Y-113014476D02*
X-15340476Y-112990666D01*
X-15292857Y-112966857D01*
X-15221428Y-112966857D01*
X-15173809Y-112990666D01*
X-15150000Y-113038285D01*
X-15150000Y-113300190D01*
X-15150000Y-113038285D02*
X-15126190Y-112990666D01*
X-15078571Y-112966857D01*
X-15007142Y-112966857D01*
X-14959523Y-112990666D01*
X-14935714Y-113038285D01*
X-14935714Y-113300190D01*
X-14626190Y-113300190D02*
X-14673809Y-113276380D01*
X-14697619Y-113252571D01*
X-14721428Y-113204952D01*
X-14721428Y-113062095D01*
X-14697619Y-113014476D01*
X-14673809Y-112990666D01*
X-14626190Y-112966857D01*
X-14554761Y-112966857D01*
X-14507142Y-112990666D01*
X-14483333Y-113014476D01*
X-14459523Y-113062095D01*
X-14459523Y-113204952D01*
X-14483333Y-113252571D01*
X-14507142Y-113276380D01*
X-14554761Y-113300190D01*
X-14626190Y-113300190D01*
X-14316666Y-112966857D02*
X-14126190Y-112966857D01*
X-14245238Y-112800190D02*
X-14245238Y-113228761D01*
X-14221428Y-113276380D01*
X-14173809Y-113300190D01*
X-14126190Y-113300190D01*
X-13888095Y-113300190D02*
X-13935714Y-113276380D01*
X-13959523Y-113252571D01*
X-13983333Y-113204952D01*
X-13983333Y-113062095D01*
X-13959523Y-113014476D01*
X-13935714Y-112990666D01*
X-13888095Y-112966857D01*
X-13816666Y-112966857D01*
X-13769047Y-112990666D01*
X-13745238Y-113014476D01*
X-13721428Y-113062095D01*
X-13721428Y-113204952D01*
X-13745238Y-113252571D01*
X-13769047Y-113276380D01*
X-13816666Y-113300190D01*
X-13888095Y-113300190D01*
X-13507142Y-113300190D02*
X-13507142Y-112966857D01*
X-13507142Y-113062095D02*
X-13483333Y-113014476D01*
X-13459523Y-112990666D01*
X-13411904Y-112966857D01*
X-13364285Y-112966857D01*
X-11308285Y-112966857D02*
X-11308285Y-113371619D01*
X-11332095Y-113419238D01*
X-11355904Y-113443047D01*
X-11403523Y-113466857D01*
X-11474952Y-113466857D01*
X-11522571Y-113443047D01*
X-11308285Y-113276380D02*
X-11355904Y-113300190D01*
X-11451142Y-113300190D01*
X-11498761Y-113276380D01*
X-11522571Y-113252571D01*
X-11546380Y-113204952D01*
X-11546380Y-113062095D01*
X-11522571Y-113014476D01*
X-11498761Y-112990666D01*
X-11451142Y-112966857D01*
X-11355904Y-112966857D01*
X-11308285Y-112990666D01*
X-11070190Y-112966857D02*
X-11070190Y-113466857D01*
X-11070190Y-112990666D02*
X-11022571Y-112966857D01*
X-10927333Y-112966857D01*
X-10879714Y-112990666D01*
X-10855904Y-113014476D01*
X-10832095Y-113062095D01*
X-10832095Y-113204952D01*
X-10855904Y-113252571D01*
X-10879714Y-113276380D01*
X-10927333Y-113300190D01*
X-11022571Y-113300190D01*
X-11070190Y-113276380D01*
X-10617809Y-113300190D02*
X-10617809Y-112966857D01*
X-10617809Y-112800190D02*
X-10641619Y-112824000D01*
X-10617809Y-112847809D01*
X-10594000Y-112824000D01*
X-10617809Y-112800190D01*
X-10617809Y-112847809D01*
X-10308285Y-113300190D02*
X-10355904Y-113276380D01*
X-10379714Y-113252571D01*
X-10403523Y-113204952D01*
X-10403523Y-113062095D01*
X-10379714Y-113014476D01*
X-10355904Y-112990666D01*
X-10308285Y-112966857D01*
X-10236857Y-112966857D01*
X-10189238Y-112990666D01*
X-10165428Y-113014476D01*
X-10141619Y-113062095D01*
X-10141619Y-113204952D01*
X-10165428Y-113252571D01*
X-10189238Y-113276380D01*
X-10236857Y-113300190D01*
X-10308285Y-113300190D01*
X-5367047Y-112800190D02*
X-5057523Y-112800190D01*
X-5224190Y-112990666D01*
X-5152761Y-112990666D01*
X-5105142Y-113014476D01*
X-5081333Y-113038285D01*
X-5057523Y-113085904D01*
X-5057523Y-113204952D01*
X-5081333Y-113252571D01*
X-5105142Y-113276380D01*
X-5152761Y-113300190D01*
X-5295619Y-113300190D01*
X-5343238Y-113276380D01*
X-5367047Y-113252571D01*
X-4914666Y-112800190D02*
X-4748000Y-113300190D01*
X-4581333Y-112800190D01*
X-4462285Y-112800190D02*
X-4152761Y-112800190D01*
X-4319428Y-112990666D01*
X-4248000Y-112990666D01*
X-4200380Y-113014476D01*
X-4176571Y-113038285D01*
X-4152761Y-113085904D01*
X-4152761Y-113204952D01*
X-4176571Y-113252571D01*
X-4200380Y-113276380D01*
X-4248000Y-113300190D01*
X-4390857Y-113300190D01*
X-4438476Y-113276380D01*
X-4462285Y-113252571D01*
X-553000Y-108950428D02*
X-576809Y-108998047D01*
X-576809Y-109069476D01*
X-553000Y-109140904D01*
X-505380Y-109188523D01*
X-457761Y-109212333D01*
X-362523Y-109236142D01*
X-291095Y-109236142D01*
X-195857Y-109212333D01*
X-148238Y-109188523D01*
X-100619Y-109140904D01*
X-76809Y-109069476D01*
X-76809Y-109021857D01*
X-100619Y-108950428D01*
X-124428Y-108926619D01*
X-291095Y-108926619D01*
X-291095Y-109021857D01*
X-410142Y-108712333D02*
X-76809Y-108712333D01*
X-362523Y-108712333D02*
X-386333Y-108688523D01*
X-410142Y-108640904D01*
X-410142Y-108569476D01*
X-386333Y-108521857D01*
X-338714Y-108498047D01*
X-76809Y-108498047D01*
X-76809Y-108045666D02*
X-576809Y-108045666D01*
X-100619Y-108045666D02*
X-76809Y-108093285D01*
X-76809Y-108188523D01*
X-100619Y-108236142D01*
X-124428Y-108259952D01*
X-172047Y-108283761D01*
X-314904Y-108283761D01*
X-362523Y-108259952D01*
X-386333Y-108236142D01*
X-410142Y-108188523D01*
X-410142Y-108093285D01*
X-386333Y-108045666D01*
D11*
X-40713047Y-116482085D02*
X-38927333Y-116482085D01*
X-39998761Y-115410657D02*
X-40713047Y-118624942D01*
X-39165428Y-117553514D02*
X-40951142Y-117553514D01*
X-39879714Y-118624942D02*
X-39165428Y-115410657D01*
X-38094000Y-118148752D02*
X-38094000Y-115648752D01*
X-37260666Y-117434466D01*
X-36427333Y-115648752D01*
X-36427333Y-118148752D01*
X-34165428Y-118148752D02*
X-34165428Y-116839228D01*
X-34284476Y-116601133D01*
X-34522571Y-116482085D01*
X-34998761Y-116482085D01*
X-35236857Y-116601133D01*
X-34165428Y-118029704D02*
X-34403523Y-118148752D01*
X-34998761Y-118148752D01*
X-35236857Y-118029704D01*
X-35355904Y-117791609D01*
X-35355904Y-117553514D01*
X-35236857Y-117315419D01*
X-34998761Y-117196371D01*
X-34403523Y-117196371D01*
X-34165428Y-117077323D01*
X-32974952Y-118148752D02*
X-32974952Y-115648752D01*
X-32736857Y-117196371D02*
X-32022571Y-118148752D01*
X-32022571Y-116482085D02*
X-32974952Y-117434466D01*
X-29998761Y-118029704D02*
X-30236857Y-118148752D01*
X-30713047Y-118148752D01*
X-30951142Y-118029704D01*
X-31070190Y-117791609D01*
X-31070190Y-116839228D01*
X-30951142Y-116601133D01*
X-30713047Y-116482085D01*
X-30236857Y-116482085D01*
X-29998761Y-116601133D01*
X-29879714Y-116839228D01*
X-29879714Y-117077323D01*
X-31070190Y-117315419D01*
X-28927333Y-118029704D02*
X-28570190Y-118148752D01*
X-27974952Y-118148752D01*
X-27736857Y-118029704D01*
X-27617809Y-117910657D01*
X-27498761Y-117672561D01*
X-27498761Y-117434466D01*
X-27617809Y-117196371D01*
X-27736857Y-117077323D01*
X-27974952Y-116958276D01*
X-28451142Y-116839228D01*
X-28689238Y-116720180D01*
X-28808285Y-116601133D01*
X-28927333Y-116363038D01*
X-28927333Y-116124942D01*
X-28808285Y-115886847D01*
X-28689238Y-115767800D01*
X-28451142Y-115648752D01*
X-27855904Y-115648752D01*
X-27498761Y-115767800D01*
X-26070190Y-118148752D02*
X-26308285Y-118029704D01*
X-26427333Y-117910657D01*
X-26546380Y-117672561D01*
X-26546380Y-116958276D01*
X-26427333Y-116720180D01*
X-26308285Y-116601133D01*
X-26070190Y-116482085D01*
X-25713047Y-116482085D01*
X-25474952Y-116601133D01*
X-25355904Y-116720180D01*
X-25236857Y-116958276D01*
X-25236857Y-117672561D01*
X-25355904Y-117910657D01*
X-25474952Y-118029704D01*
X-25713047Y-118148752D01*
X-26070190Y-118148752D01*
X-24165428Y-118148752D02*
X-24165428Y-116482085D01*
X-24165428Y-116720180D02*
X-24046380Y-116601133D01*
X-23808285Y-116482085D01*
X-23451142Y-116482085D01*
X-23213047Y-116601133D01*
X-23094000Y-116839228D01*
X-23094000Y-118148752D01*
X-23094000Y-116839228D02*
X-22974952Y-116601133D01*
X-22736857Y-116482085D01*
X-22379714Y-116482085D01*
X-22141619Y-116601133D01*
X-22022571Y-116839228D01*
X-22022571Y-118148752D01*
X-19879714Y-118029704D02*
X-20117809Y-118148752D01*
X-20594000Y-118148752D01*
X-20832095Y-118029704D01*
X-20951142Y-117791609D01*
X-20951142Y-116839228D01*
X-20832095Y-116601133D01*
X-20594000Y-116482085D01*
X-20117809Y-116482085D01*
X-19879714Y-116601133D01*
X-19760666Y-116839228D01*
X-19760666Y-117077323D01*
X-20951142Y-117315419D01*
X-19046380Y-116482085D02*
X-18094000Y-116482085D01*
X-18689238Y-115648752D02*
X-18689238Y-117791609D01*
X-18570190Y-118029704D01*
X-18332095Y-118148752D01*
X-18094000Y-118148752D01*
X-17260666Y-118148752D02*
X-17260666Y-115648752D01*
X-16189238Y-118148752D02*
X-16189238Y-116839228D01*
X-16308285Y-116601133D01*
X-16546380Y-116482085D01*
X-16903523Y-116482085D01*
X-17141619Y-116601133D01*
X-17260666Y-116720180D01*
X-14998761Y-118148752D02*
X-14998761Y-116482085D01*
X-14998761Y-115648752D02*
X-15117809Y-115767800D01*
X-14998761Y-115886847D01*
X-14879714Y-115767800D01*
X-14998761Y-115648752D01*
X-14998761Y-115886847D01*
X-13808285Y-116482085D02*
X-13808285Y-118148752D01*
X-13808285Y-116720180D02*
X-13689238Y-116601133D01*
X-13451142Y-116482085D01*
X-13094000Y-116482085D01*
X-12855904Y-116601133D01*
X-12736857Y-116839228D01*
X-12736857Y-118148752D01*
X-10474952Y-116482085D02*
X-10474952Y-118505895D01*
X-10594000Y-118743990D01*
X-10713047Y-118863038D01*
X-10951142Y-118982085D01*
X-11308285Y-118982085D01*
X-11546380Y-118863038D01*
X-10474952Y-118029704D02*
X-10713047Y-118148752D01*
X-11189238Y-118148752D01*
X-11427333Y-118029704D01*
X-11546380Y-117910657D01*
X-11665428Y-117672561D01*
X-11665428Y-116958276D01*
X-11546380Y-116720180D01*
X-11427333Y-116601133D01*
X-11189238Y-116482085D01*
X-10713047Y-116482085D01*
X-10474952Y-116601133D01*
X-9284476Y-118148752D02*
X-9284476Y-115648752D01*
X-7855904Y-118148752D01*
X-7855904Y-115648752D01*
X-5713047Y-118029704D02*
X-5951142Y-118148752D01*
X-6427333Y-118148752D01*
X-6665428Y-118029704D01*
X-6784476Y-117791609D01*
X-6784476Y-116839228D01*
X-6665428Y-116601133D01*
X-6427333Y-116482085D01*
X-5951142Y-116482085D01*
X-5713047Y-116601133D01*
X-5594000Y-116839228D01*
X-5594000Y-117077323D01*
X-6784476Y-117315419D01*
X-4760666Y-116482085D02*
X-4284476Y-118148752D01*
X-3808285Y-116958276D01*
X-3332095Y-118148752D01*
X-2855904Y-116482085D01*
D12*
X-56677038Y-92978761D02*
X-58677038Y-92978761D01*
X-57724657Y-92978761D02*
X-57724657Y-91835904D01*
X-56677038Y-91835904D02*
X-58677038Y-91835904D01*
X-58010371Y-91074000D02*
X-56677038Y-90597809D01*
X-58010371Y-90121619D02*
X-56677038Y-90597809D01*
X-56200847Y-90788285D01*
X-56105609Y-90883523D01*
X-56010371Y-91074000D01*
X-58010371Y-89359714D02*
X-56010371Y-89359714D01*
X-57915133Y-89359714D02*
X-58010371Y-89169238D01*
X-58010371Y-88788285D01*
X-57915133Y-88597809D01*
X-57819895Y-88502571D01*
X-57629419Y-88407333D01*
X-57057990Y-88407333D01*
X-56867514Y-88502571D01*
X-56772276Y-88597809D01*
X-56677038Y-88788285D01*
X-56677038Y-89169238D01*
X-56772276Y-89359714D01*
X-56867514Y-84883523D02*
X-56772276Y-84978761D01*
X-56677038Y-85264476D01*
X-56677038Y-85454952D01*
X-56772276Y-85740666D01*
X-56962752Y-85931142D01*
X-57153228Y-86026380D01*
X-57534180Y-86121619D01*
X-57819895Y-86121619D01*
X-58200847Y-86026380D01*
X-58391323Y-85931142D01*
X-58581800Y-85740666D01*
X-58677038Y-85454952D01*
X-58677038Y-85264476D01*
X-58581800Y-84978761D01*
X-58486561Y-84883523D01*
X-56677038Y-83740666D02*
X-56772276Y-83931142D01*
X-56867514Y-84026380D01*
X-57057990Y-84121619D01*
X-57629419Y-84121619D01*
X-57819895Y-84026380D01*
X-57915133Y-83931142D01*
X-58010371Y-83740666D01*
X-58010371Y-83454952D01*
X-57915133Y-83264476D01*
X-57819895Y-83169238D01*
X-57629419Y-83074000D01*
X-57057990Y-83074000D01*
X-56867514Y-83169238D01*
X-56772276Y-83264476D01*
X-56677038Y-83454952D01*
X-56677038Y-83740666D01*
X-58010371Y-82216857D02*
X-56677038Y-82216857D01*
X-57819895Y-82216857D02*
X-57915133Y-82121619D01*
X-58010371Y-81931142D01*
X-58010371Y-81645428D01*
X-57915133Y-81454952D01*
X-57724657Y-81359714D01*
X-56677038Y-81359714D01*
X-56772276Y-80502571D02*
X-56677038Y-80312095D01*
X-56677038Y-79931142D01*
X-56772276Y-79740666D01*
X-56962752Y-79645428D01*
X-57057990Y-79645428D01*
X-57248466Y-79740666D01*
X-57343704Y-79931142D01*
X-57343704Y-80216857D01*
X-57438942Y-80407333D01*
X-57629419Y-80502571D01*
X-57724657Y-80502571D01*
X-57915133Y-80407333D01*
X-58010371Y-80216857D01*
X-58010371Y-79931142D01*
X-57915133Y-79740666D01*
X-56677038Y-78502571D02*
X-56772276Y-78693047D01*
X-56867514Y-78788285D01*
X-57057990Y-78883523D01*
X-57629419Y-78883523D01*
X-57819895Y-78788285D01*
X-57915133Y-78693047D01*
X-58010371Y-78502571D01*
X-58010371Y-78216857D01*
X-57915133Y-78026380D01*
X-57819895Y-77931142D01*
X-57629419Y-77835904D01*
X-57057990Y-77835904D01*
X-56867514Y-77931142D01*
X-56772276Y-78026380D01*
X-56677038Y-78216857D01*
X-56677038Y-78502571D01*
X-56677038Y-76693047D02*
X-56772276Y-76883523D01*
X-56962752Y-76978761D01*
X-58677038Y-76978761D01*
X-56772276Y-75169238D02*
X-56677038Y-75359714D01*
X-56677038Y-75740666D01*
X-56772276Y-75931142D01*
X-56962752Y-76026380D01*
X-57724657Y-76026380D01*
X-57915133Y-75931142D01*
X-58010371Y-75740666D01*
X-58010371Y-75359714D01*
X-57915133Y-75169238D01*
X-57724657Y-75074000D01*
X-57534180Y-75074000D01*
X-57343704Y-76026380D01*
D10*
X-48884428Y-64437000D02*
X-48932047Y-64413190D01*
X-49003476Y-64413190D01*
X-49074904Y-64437000D01*
X-49122523Y-64484619D01*
X-49146333Y-64532238D01*
X-49170142Y-64627476D01*
X-49170142Y-64698904D01*
X-49146333Y-64794142D01*
X-49122523Y-64841761D01*
X-49074904Y-64889380D01*
X-49003476Y-64913190D01*
X-48955857Y-64913190D01*
X-48884428Y-64889380D01*
X-48860619Y-64865571D01*
X-48860619Y-64698904D01*
X-48955857Y-64698904D01*
X-48646333Y-64579857D02*
X-48646333Y-64913190D01*
X-48646333Y-64627476D02*
X-48622523Y-64603666D01*
X-48574904Y-64579857D01*
X-48503476Y-64579857D01*
X-48455857Y-64603666D01*
X-48432047Y-64651285D01*
X-48432047Y-64913190D01*
X-47979666Y-64913190D02*
X-47979666Y-64413190D01*
X-47979666Y-64889380D02*
X-48027285Y-64913190D01*
X-48122523Y-64913190D01*
X-48170142Y-64889380D01*
X-48193952Y-64865571D01*
X-48217761Y-64817952D01*
X-48217761Y-64675095D01*
X-48193952Y-64627476D01*
X-48170142Y-64603666D01*
X-48122523Y-64579857D01*
X-48027285Y-64579857D01*
X-47979666Y-64603666D01*
X-46491238Y-64413190D02*
X-46324571Y-64913190D01*
X-46157904Y-64413190D01*
X-45776952Y-64889380D02*
X-45824571Y-64913190D01*
X-45919809Y-64913190D01*
X-45967428Y-64889380D01*
X-45991238Y-64865571D01*
X-46015047Y-64817952D01*
X-46015047Y-64675095D01*
X-45991238Y-64627476D01*
X-45967428Y-64603666D01*
X-45919809Y-64579857D01*
X-45824571Y-64579857D01*
X-45776952Y-64603666D01*
X-45348380Y-64889380D02*
X-45396000Y-64913190D01*
X-45491238Y-64913190D01*
X-45538857Y-64889380D01*
X-45562666Y-64865571D01*
X-45586476Y-64817952D01*
X-45586476Y-64675095D01*
X-45562666Y-64627476D01*
X-45538857Y-64603666D01*
X-45491238Y-64579857D01*
X-45396000Y-64579857D01*
X-45348380Y-64603666D01*
X-51392714Y-67278523D02*
X-51368904Y-67207095D01*
X-51345095Y-67183285D01*
X-51297476Y-67159476D01*
X-51226047Y-67159476D01*
X-51178428Y-67183285D01*
X-51154619Y-67207095D01*
X-51130809Y-67254714D01*
X-51130809Y-67445190D01*
X-51630809Y-67445190D01*
X-51630809Y-67278523D01*
X-51607000Y-67230904D01*
X-51583190Y-67207095D01*
X-51535571Y-67183285D01*
X-51487952Y-67183285D01*
X-51440333Y-67207095D01*
X-51416523Y-67230904D01*
X-51392714Y-67278523D01*
X-51392714Y-67445190D01*
X-51273666Y-66969000D02*
X-51273666Y-66730904D01*
X-51130809Y-67016619D02*
X-51630809Y-66849952D01*
X-51130809Y-66683285D01*
X-51630809Y-66588047D02*
X-51630809Y-66302333D01*
X-51130809Y-66445190D02*
X-51630809Y-66445190D01*
X-51630809Y-66207095D02*
X-51630809Y-65921380D01*
X-51130809Y-66064238D02*
X-51630809Y-66064238D01*
X-10590000Y-64560000D02*
X-10590000Y-64687000D01*
X-10590000Y-64433000D02*
X-10590000Y-64560000D01*
X-14146000Y-64433000D02*
X-10590000Y-64433000D01*
X-23290000Y-64433000D02*
X-23290000Y-64687000D01*
X-23290000Y-64433000D02*
X-19480000Y-64433000D01*
X-19193952Y-64659190D02*
X-19193952Y-64159190D01*
X-18979666Y-64206809D02*
X-18955857Y-64183000D01*
X-18908238Y-64159190D01*
X-18789190Y-64159190D01*
X-18741571Y-64183000D01*
X-18717761Y-64206809D01*
X-18693952Y-64254428D01*
X-18693952Y-64302047D01*
X-18717761Y-64373476D01*
X-19003476Y-64659190D01*
X-18693952Y-64659190D01*
X-18193952Y-64611571D02*
X-18217761Y-64635380D01*
X-18289190Y-64659190D01*
X-18336809Y-64659190D01*
X-18408238Y-64635380D01*
X-18455857Y-64587761D01*
X-18479666Y-64540142D01*
X-18503476Y-64444904D01*
X-18503476Y-64373476D01*
X-18479666Y-64278238D01*
X-18455857Y-64230619D01*
X-18408238Y-64183000D01*
X-18336809Y-64159190D01*
X-18289190Y-64159190D01*
X-18217761Y-64183000D01*
X-18193952Y-64206809D01*
X-17598714Y-64397285D02*
X-17432047Y-64397285D01*
X-17360619Y-64659190D02*
X-17598714Y-64659190D01*
X-17598714Y-64159190D01*
X-17360619Y-64159190D01*
X-17193952Y-64659190D02*
X-16932047Y-64325857D01*
X-17193952Y-64325857D02*
X-16932047Y-64659190D01*
X-16741571Y-64325857D02*
X-16741571Y-64825857D01*
X-16741571Y-64349666D02*
X-16693952Y-64325857D01*
X-16598714Y-64325857D01*
X-16551095Y-64349666D01*
X-16527285Y-64373476D01*
X-16503476Y-64421095D01*
X-16503476Y-64563952D01*
X-16527285Y-64611571D01*
X-16551095Y-64635380D01*
X-16598714Y-64659190D01*
X-16693952Y-64659190D01*
X-16741571Y-64635380D01*
X-16074904Y-64659190D02*
X-16074904Y-64397285D01*
X-16098714Y-64349666D01*
X-16146333Y-64325857D01*
X-16241571Y-64325857D01*
X-16289190Y-64349666D01*
X-16074904Y-64635380D02*
X-16122523Y-64659190D01*
X-16241571Y-64659190D01*
X-16289190Y-64635380D01*
X-16313000Y-64587761D01*
X-16313000Y-64540142D01*
X-16289190Y-64492523D01*
X-16241571Y-64468714D01*
X-16122523Y-64468714D01*
X-16074904Y-64444904D01*
X-15836809Y-64325857D02*
X-15836809Y-64659190D01*
X-15836809Y-64373476D02*
X-15813000Y-64349666D01*
X-15765380Y-64325857D01*
X-15693952Y-64325857D01*
X-15646333Y-64349666D01*
X-15622523Y-64397285D01*
X-15622523Y-64659190D01*
X-15170142Y-64659190D02*
X-15170142Y-64159190D01*
X-15170142Y-64635380D02*
X-15217761Y-64659190D01*
X-15313000Y-64659190D01*
X-15360619Y-64635380D01*
X-15384428Y-64611571D01*
X-15408238Y-64563952D01*
X-15408238Y-64421095D01*
X-15384428Y-64373476D01*
X-15360619Y-64349666D01*
X-15313000Y-64325857D01*
X-15217761Y-64325857D01*
X-15170142Y-64349666D01*
X-14741571Y-64635380D02*
X-14789190Y-64659190D01*
X-14884428Y-64659190D01*
X-14932047Y-64635380D01*
X-14955857Y-64587761D01*
X-14955857Y-64397285D01*
X-14932047Y-64349666D01*
X-14884428Y-64325857D01*
X-14789190Y-64325857D01*
X-14741571Y-64349666D01*
X-14717761Y-64397285D01*
X-14717761Y-64444904D01*
X-14955857Y-64492523D01*
X-14503476Y-64659190D02*
X-14503476Y-64325857D01*
X-14503476Y-64421095D02*
X-14479666Y-64373476D01*
X-14455857Y-64349666D01*
X-14408238Y-64325857D01*
X-14360619Y-64325857D01*
X-42086000Y-67862000D02*
X-42213000Y-67989000D01*
X-42086000Y-67862000D02*
X-42213000Y-67735000D01*
X-42848000Y-67862000D02*
X-42086000Y-67862000D01*
X-42086000Y-65576000D02*
X-42213000Y-65703000D01*
X-42086000Y-65576000D02*
X-42213000Y-65449000D01*
X-42848000Y-65576000D02*
X-42086000Y-65576000D01*
X-42367809Y-67040428D02*
X-42367809Y-67278523D01*
X-42867809Y-67278523D01*
X-42629714Y-66873761D02*
X-42629714Y-66707095D01*
X-42367809Y-66635666D02*
X-42367809Y-66873761D01*
X-42867809Y-66873761D01*
X-42867809Y-66635666D01*
X-42367809Y-66421380D02*
X-42867809Y-66421380D01*
X-42867809Y-66302333D01*
X-42844000Y-66230904D01*
X-42796380Y-66183285D01*
X-42748761Y-66159476D01*
X-42653523Y-66135666D01*
X-42582095Y-66135666D01*
X-42486857Y-66159476D01*
X-42439238Y-66183285D01*
X-42391619Y-66230904D01*
X-42367809Y-66302333D01*
X-42367809Y-66421380D01*
X-27036476Y-64468714D02*
X-26655523Y-64468714D01*
X-31989476Y-64468714D02*
X-31608523Y-64468714D01*
X-37196476Y-64468714D02*
X-36815523Y-64468714D01*
X-29576476Y-64468714D02*
X-29195523Y-64468714D01*
X-29386000Y-64659190D02*
X-29386000Y-64278238D01*
X-34656476Y-64468714D02*
X-34275523Y-64468714D01*
X-34466000Y-64659190D02*
X-34466000Y-64278238D01*
X-39736476Y-64468714D02*
X-39355523Y-64468714D01*
X-39546000Y-64659190D02*
X-39546000Y-64278238D01*
X-10304238Y-60214190D02*
X-10589952Y-60214190D01*
X-10447095Y-60214190D02*
X-10447095Y-59714190D01*
X-10494714Y-59785619D01*
X-10542333Y-59833238D01*
X-10589952Y-59857047D01*
X-9875666Y-59714190D02*
X-9970904Y-59714190D01*
X-10018523Y-59738000D01*
X-10042333Y-59761809D01*
X-10089952Y-59833238D01*
X-10113761Y-59928476D01*
X-10113761Y-60118952D01*
X-10089952Y-60166571D01*
X-10066142Y-60190380D01*
X-10018523Y-60214190D01*
X-9923285Y-60214190D01*
X-9875666Y-60190380D01*
X-9851857Y-60166571D01*
X-9828047Y-60118952D01*
X-9828047Y-59999904D01*
X-9851857Y-59952285D01*
X-9875666Y-59928476D01*
X-9923285Y-59904666D01*
X-10018523Y-59904666D01*
X-10066142Y-59928476D01*
X-10089952Y-59952285D01*
X-10113761Y-59999904D01*
X-48293142Y-60214190D02*
X-48578857Y-60214190D01*
X-48436000Y-60214190D02*
X-48436000Y-59714190D01*
X-48483619Y-59785619D01*
X-48531238Y-59833238D01*
X-48578857Y-59857047D01*
X-27481000Y-60115000D02*
X-27608000Y-60242000D01*
X-27608000Y-59988000D02*
X-27481000Y-60115000D01*
X-27481000Y-60115000D02*
X-27608000Y-59988000D01*
X-28624000Y-60115000D02*
X-27481000Y-60115000D01*
X-31672000Y-60115000D02*
X-31545000Y-59988000D01*
X-31545000Y-60242000D02*
X-31672000Y-60115000D01*
X-31672000Y-60115000D02*
X-31545000Y-60242000D01*
X-30148000Y-60115000D02*
X-31672000Y-60115000D01*
X-29731238Y-60341190D02*
X-29969333Y-60341190D01*
X-29969333Y-59841190D01*
X-29278857Y-60293571D02*
X-29302666Y-60317380D01*
X-29374095Y-60341190D01*
X-29421714Y-60341190D01*
X-29493142Y-60317380D01*
X-29540761Y-60269761D01*
X-29564571Y-60222142D01*
X-29588380Y-60126904D01*
X-29588380Y-60055476D01*
X-29564571Y-59960238D01*
X-29540761Y-59912619D01*
X-29493142Y-59865000D01*
X-29421714Y-59841190D01*
X-29374095Y-59841190D01*
X-29302666Y-59865000D01*
X-29278857Y-59888809D01*
X-29064571Y-60341190D02*
X-29064571Y-59841190D01*
X-28945523Y-59841190D01*
X-28874095Y-59865000D01*
X-28826476Y-59912619D01*
X-28802666Y-59960238D01*
X-28778857Y-60055476D01*
X-28778857Y-60126904D01*
X-28802666Y-60222142D01*
X-28826476Y-60269761D01*
X-28874095Y-60317380D01*
X-28945523Y-60341190D01*
X-29064571Y-60341190D01*
X-44753000Y-117011000D02*
X-44753000Y-116630000D01*
X-46277000Y-117011000D02*
X-44753000Y-117011000D01*
X-52627000Y-117011000D02*
X-50722000Y-117011000D01*
X-52627000Y-116630000D02*
X-52627000Y-117011000D01*
X-47257285Y-117860380D02*
X-47257285Y-118027047D01*
X-47519190Y-118098476D02*
X-47519190Y-117860380D01*
X-47019190Y-117860380D01*
X-47019190Y-118098476D01*
X-47495380Y-118527047D02*
X-47519190Y-118479428D01*
X-47519190Y-118384190D01*
X-47495380Y-118336571D01*
X-47471571Y-118312761D01*
X-47423952Y-118288952D01*
X-47281095Y-118288952D01*
X-47233476Y-118312761D01*
X-47209666Y-118336571D01*
X-47185857Y-118384190D01*
X-47185857Y-118479428D01*
X-47209666Y-118527047D01*
X-47519190Y-118741333D02*
X-47019190Y-118741333D01*
X-47519190Y-118955619D02*
X-47257285Y-118955619D01*
X-47209666Y-118931809D01*
X-47185857Y-118884190D01*
X-47185857Y-118812761D01*
X-47209666Y-118765142D01*
X-47233476Y-118741333D01*
X-49686190Y-117765142D02*
X-49686190Y-118050857D01*
X-50186190Y-117908000D02*
X-49686190Y-117908000D01*
X-50186190Y-118217523D02*
X-49852857Y-118217523D01*
X-49948095Y-118217523D02*
X-49900476Y-118241333D01*
X-49876666Y-118265142D01*
X-49852857Y-118312761D01*
X-49852857Y-118360380D01*
X-50186190Y-118527047D02*
X-49852857Y-118527047D01*
X-49686190Y-118527047D02*
X-49710000Y-118503238D01*
X-49733809Y-118527047D01*
X-49710000Y-118550857D01*
X-49686190Y-118527047D01*
X-49733809Y-118527047D01*
X-49852857Y-118979428D02*
X-50257619Y-118979428D01*
X-50305238Y-118955619D01*
X-50329047Y-118931809D01*
X-50352857Y-118884190D01*
X-50352857Y-118812761D01*
X-50329047Y-118765142D01*
X-50162380Y-118979428D02*
X-50186190Y-118931809D01*
X-50186190Y-118836571D01*
X-50162380Y-118788952D01*
X-50138571Y-118765142D01*
X-50090952Y-118741333D01*
X-49948095Y-118741333D01*
X-49900476Y-118765142D01*
X-49876666Y-118788952D01*
X-49852857Y-118836571D01*
X-49852857Y-118931809D01*
X-49876666Y-118979428D01*
X-44376000Y-118086571D02*
X-44352190Y-118038952D01*
X-44352190Y-117967523D01*
X-44376000Y-117896095D01*
X-44423619Y-117848476D01*
X-44471238Y-117824666D01*
X-44566476Y-117800857D01*
X-44637904Y-117800857D01*
X-44733142Y-117824666D01*
X-44780761Y-117848476D01*
X-44828380Y-117896095D01*
X-44852190Y-117967523D01*
X-44852190Y-118015142D01*
X-44828380Y-118086571D01*
X-44804571Y-118110380D01*
X-44637904Y-118110380D01*
X-44637904Y-118015142D01*
X-44518857Y-118324666D02*
X-44852190Y-118324666D01*
X-44566476Y-118324666D02*
X-44542666Y-118348476D01*
X-44518857Y-118396095D01*
X-44518857Y-118467523D01*
X-44542666Y-118515142D01*
X-44590285Y-118538952D01*
X-44852190Y-118538952D01*
X-44852190Y-118991333D02*
X-44352190Y-118991333D01*
X-44828380Y-118991333D02*
X-44852190Y-118943714D01*
X-44852190Y-118848476D01*
X-44828380Y-118800857D01*
X-44804571Y-118777047D01*
X-44756952Y-118753238D01*
X-44614095Y-118753238D01*
X-44566476Y-118777047D01*
X-44542666Y-118800857D01*
X-44518857Y-118848476D01*
X-44518857Y-118943714D01*
X-44542666Y-118991333D01*
X-50340761Y-116737190D02*
X-50340761Y-117141952D01*
X-50316952Y-117189571D01*
X-50293142Y-117213380D01*
X-50245523Y-117237190D01*
X-50150285Y-117237190D01*
X-50102666Y-117213380D01*
X-50078857Y-117189571D01*
X-50055047Y-117141952D01*
X-50055047Y-116737190D01*
X-49745523Y-117237190D02*
X-49793142Y-117213380D01*
X-49816952Y-117165761D01*
X-49816952Y-116737190D01*
X-49626476Y-116903857D02*
X-49436000Y-116903857D01*
X-49555047Y-116737190D02*
X-49555047Y-117165761D01*
X-49531238Y-117213380D01*
X-49483619Y-117237190D01*
X-49436000Y-117237190D01*
X-49269333Y-117237190D02*
X-49269333Y-116903857D01*
X-49269333Y-116999095D02*
X-49245523Y-116951476D01*
X-49221714Y-116927666D01*
X-49174095Y-116903857D01*
X-49126476Y-116903857D01*
X-48745523Y-117237190D02*
X-48745523Y-116975285D01*
X-48769333Y-116927666D01*
X-48816952Y-116903857D01*
X-48912190Y-116903857D01*
X-48959809Y-116927666D01*
X-48745523Y-117213380D02*
X-48793142Y-117237190D01*
X-48912190Y-117237190D01*
X-48959809Y-117213380D01*
X-48983619Y-117165761D01*
X-48983619Y-117118142D01*
X-48959809Y-117070523D01*
X-48912190Y-117046714D01*
X-48793142Y-117046714D01*
X-48745523Y-117022904D01*
X-48531238Y-117213380D02*
X-48483619Y-117237190D01*
X-48388380Y-117237190D01*
X-48340761Y-117213380D01*
X-48316952Y-117165761D01*
X-48316952Y-117141952D01*
X-48340761Y-117094333D01*
X-48388380Y-117070523D01*
X-48459809Y-117070523D01*
X-48507428Y-117046714D01*
X-48531238Y-116999095D01*
X-48531238Y-116975285D01*
X-48507428Y-116927666D01*
X-48459809Y-116903857D01*
X-48388380Y-116903857D01*
X-48340761Y-116927666D01*
X-48031238Y-117237190D02*
X-48078857Y-117213380D01*
X-48102666Y-117189571D01*
X-48126476Y-117141952D01*
X-48126476Y-116999095D01*
X-48102666Y-116951476D01*
X-48078857Y-116927666D01*
X-48031238Y-116903857D01*
X-47959809Y-116903857D01*
X-47912190Y-116927666D01*
X-47888380Y-116951476D01*
X-47864571Y-116999095D01*
X-47864571Y-117141952D01*
X-47888380Y-117189571D01*
X-47912190Y-117213380D01*
X-47959809Y-117237190D01*
X-48031238Y-117237190D01*
X-47436000Y-116903857D02*
X-47436000Y-117237190D01*
X-47650285Y-116903857D02*
X-47650285Y-117165761D01*
X-47626476Y-117213380D01*
X-47578857Y-117237190D01*
X-47507428Y-117237190D01*
X-47459809Y-117213380D01*
X-47436000Y-117189571D01*
X-47197904Y-116903857D02*
X-47197904Y-117237190D01*
X-47197904Y-116951476D02*
X-47174095Y-116927666D01*
X-47126476Y-116903857D01*
X-47055047Y-116903857D01*
X-47007428Y-116927666D01*
X-46983619Y-116975285D01*
X-46983619Y-117237190D01*
X-46531238Y-117237190D02*
X-46531238Y-116737190D01*
X-46531238Y-117213380D02*
X-46578857Y-117237190D01*
X-46674095Y-117237190D01*
X-46721714Y-117213380D01*
X-46745523Y-117189571D01*
X-46769333Y-117141952D01*
X-46769333Y-116999095D01*
X-46745523Y-116951476D01*
X-46721714Y-116927666D01*
X-46674095Y-116903857D01*
X-46578857Y-116903857D01*
X-46531238Y-116927666D01*
X-52353190Y-117812761D02*
X-52853190Y-117979428D01*
X-52353190Y-118146095D01*
X-52829380Y-118527047D02*
X-52853190Y-118479428D01*
X-52853190Y-118384190D01*
X-52829380Y-118336571D01*
X-52805571Y-118312761D01*
X-52757952Y-118288952D01*
X-52615095Y-118288952D01*
X-52567476Y-118312761D01*
X-52543666Y-118336571D01*
X-52519857Y-118384190D01*
X-52519857Y-118479428D01*
X-52543666Y-118527047D01*
X-52829380Y-118955619D02*
X-52853190Y-118908000D01*
X-52853190Y-118812761D01*
X-52829380Y-118765142D01*
X-52805571Y-118741333D01*
X-52757952Y-118717523D01*
X-52615095Y-118717523D01*
X-52567476Y-118741333D01*
X-52543666Y-118765142D01*
X-52519857Y-118812761D01*
X-52519857Y-118908000D01*
X-52543666Y-118955619D01*
X-16332809Y-95670857D02*
X-16666142Y-95670857D01*
X-16618523Y-95670857D02*
X-16642333Y-95647047D01*
X-16666142Y-95599428D01*
X-16666142Y-95528000D01*
X-16642333Y-95480380D01*
X-16594714Y-95456571D01*
X-16332809Y-95456571D01*
X-16594714Y-95456571D02*
X-16642333Y-95432761D01*
X-16666142Y-95385142D01*
X-16666142Y-95313714D01*
X-16642333Y-95266095D01*
X-16594714Y-95242285D01*
X-16332809Y-95242285D01*
X-16332809Y-94932761D02*
X-16356619Y-94980380D01*
X-16380428Y-95004190D01*
X-16428047Y-95028000D01*
X-16570904Y-95028000D01*
X-16618523Y-95004190D01*
X-16642333Y-94980380D01*
X-16666142Y-94932761D01*
X-16666142Y-94861333D01*
X-16642333Y-94813714D01*
X-16618523Y-94789904D01*
X-16570904Y-94766095D01*
X-16428047Y-94766095D01*
X-16380428Y-94789904D01*
X-16356619Y-94813714D01*
X-16332809Y-94861333D01*
X-16332809Y-94932761D01*
X-16666142Y-94623238D02*
X-16666142Y-94432761D01*
X-16832809Y-94551809D02*
X-16404238Y-94551809D01*
X-16356619Y-94528000D01*
X-16332809Y-94480380D01*
X-16332809Y-94432761D01*
X-16332809Y-94194666D02*
X-16356619Y-94242285D01*
X-16380428Y-94266095D01*
X-16428047Y-94289904D01*
X-16570904Y-94289904D01*
X-16618523Y-94266095D01*
X-16642333Y-94242285D01*
X-16666142Y-94194666D01*
X-16666142Y-94123238D01*
X-16642333Y-94075619D01*
X-16618523Y-94051809D01*
X-16570904Y-94028000D01*
X-16428047Y-94028000D01*
X-16380428Y-94051809D01*
X-16356619Y-94075619D01*
X-16332809Y-94123238D01*
X-16332809Y-94194666D01*
X-16332809Y-93813714D02*
X-16666142Y-93813714D01*
X-16570904Y-93813714D02*
X-16618523Y-93789904D01*
X-16642333Y-93766095D01*
X-16666142Y-93718476D01*
X-16666142Y-93670857D01*
X-16332809Y-92861333D02*
X-16332809Y-93147047D01*
X-16332809Y-93004190D02*
X-16832809Y-93004190D01*
X-16761380Y-93051809D01*
X-16713761Y-93099428D01*
X-16689952Y-93147047D01*
X-16332809Y-100623857D02*
X-16666142Y-100623857D01*
X-16618523Y-100623857D02*
X-16642333Y-100600047D01*
X-16666142Y-100552428D01*
X-16666142Y-100481000D01*
X-16642333Y-100433380D01*
X-16594714Y-100409571D01*
X-16332809Y-100409571D01*
X-16594714Y-100409571D02*
X-16642333Y-100385761D01*
X-16666142Y-100338142D01*
X-16666142Y-100266714D01*
X-16642333Y-100219095D01*
X-16594714Y-100195285D01*
X-16332809Y-100195285D01*
X-16332809Y-99885761D02*
X-16356619Y-99933380D01*
X-16380428Y-99957190D01*
X-16428047Y-99981000D01*
X-16570904Y-99981000D01*
X-16618523Y-99957190D01*
X-16642333Y-99933380D01*
X-16666142Y-99885761D01*
X-16666142Y-99814333D01*
X-16642333Y-99766714D01*
X-16618523Y-99742904D01*
X-16570904Y-99719095D01*
X-16428047Y-99719095D01*
X-16380428Y-99742904D01*
X-16356619Y-99766714D01*
X-16332809Y-99814333D01*
X-16332809Y-99885761D01*
X-16666142Y-99576238D02*
X-16666142Y-99385761D01*
X-16832809Y-99504809D02*
X-16404238Y-99504809D01*
X-16356619Y-99481000D01*
X-16332809Y-99433380D01*
X-16332809Y-99385761D01*
X-16332809Y-99147666D02*
X-16356619Y-99195285D01*
X-16380428Y-99219095D01*
X-16428047Y-99242904D01*
X-16570904Y-99242904D01*
X-16618523Y-99219095D01*
X-16642333Y-99195285D01*
X-16666142Y-99147666D01*
X-16666142Y-99076238D01*
X-16642333Y-99028619D01*
X-16618523Y-99004809D01*
X-16570904Y-98981000D01*
X-16428047Y-98981000D01*
X-16380428Y-99004809D01*
X-16356619Y-99028619D01*
X-16332809Y-99076238D01*
X-16332809Y-99147666D01*
X-16332809Y-98766714D02*
X-16666142Y-98766714D01*
X-16570904Y-98766714D02*
X-16618523Y-98742904D01*
X-16642333Y-98719095D01*
X-16666142Y-98671476D01*
X-16666142Y-98623857D01*
X-16785190Y-98100047D02*
X-16809000Y-98076238D01*
X-16832809Y-98028619D01*
X-16832809Y-97909571D01*
X-16809000Y-97861952D01*
X-16785190Y-97838142D01*
X-16737571Y-97814333D01*
X-16689952Y-97814333D01*
X-16618523Y-97838142D01*
X-16332809Y-98123857D01*
X-16332809Y-97814333D01*
X-16332809Y-105830857D02*
X-16666142Y-105830857D01*
X-16618523Y-105830857D02*
X-16642333Y-105807047D01*
X-16666142Y-105759428D01*
X-16666142Y-105688000D01*
X-16642333Y-105640380D01*
X-16594714Y-105616571D01*
X-16332809Y-105616571D01*
X-16594714Y-105616571D02*
X-16642333Y-105592761D01*
X-16666142Y-105545142D01*
X-16666142Y-105473714D01*
X-16642333Y-105426095D01*
X-16594714Y-105402285D01*
X-16332809Y-105402285D01*
X-16332809Y-105092761D02*
X-16356619Y-105140380D01*
X-16380428Y-105164190D01*
X-16428047Y-105188000D01*
X-16570904Y-105188000D01*
X-16618523Y-105164190D01*
X-16642333Y-105140380D01*
X-16666142Y-105092761D01*
X-16666142Y-105021333D01*
X-16642333Y-104973714D01*
X-16618523Y-104949904D01*
X-16570904Y-104926095D01*
X-16428047Y-104926095D01*
X-16380428Y-104949904D01*
X-16356619Y-104973714D01*
X-16332809Y-105021333D01*
X-16332809Y-105092761D01*
X-16666142Y-104783238D02*
X-16666142Y-104592761D01*
X-16832809Y-104711809D02*
X-16404238Y-104711809D01*
X-16356619Y-104688000D01*
X-16332809Y-104640380D01*
X-16332809Y-104592761D01*
X-16332809Y-104354666D02*
X-16356619Y-104402285D01*
X-16380428Y-104426095D01*
X-16428047Y-104449904D01*
X-16570904Y-104449904D01*
X-16618523Y-104426095D01*
X-16642333Y-104402285D01*
X-16666142Y-104354666D01*
X-16666142Y-104283238D01*
X-16642333Y-104235619D01*
X-16618523Y-104211809D01*
X-16570904Y-104188000D01*
X-16428047Y-104188000D01*
X-16380428Y-104211809D01*
X-16356619Y-104235619D01*
X-16332809Y-104283238D01*
X-16332809Y-104354666D01*
X-16332809Y-103973714D02*
X-16666142Y-103973714D01*
X-16570904Y-103973714D02*
X-16618523Y-103949904D01*
X-16642333Y-103926095D01*
X-16666142Y-103878476D01*
X-16666142Y-103830857D01*
X-16832809Y-103330857D02*
X-16832809Y-103021333D01*
X-16642333Y-103188000D01*
X-16642333Y-103116571D01*
X-16618523Y-103068952D01*
X-16594714Y-103045142D01*
X-16547095Y-103021333D01*
X-16428047Y-103021333D01*
X-16380428Y-103045142D01*
X-16356619Y-103068952D01*
X-16332809Y-103116571D01*
X-16332809Y-103259428D01*
X-16356619Y-103307047D01*
X-16380428Y-103330857D01*
X-16178000Y-93008000D02*
X-15416000Y-93008000D01*
X-16178000Y-95675000D02*
X-16178000Y-93008000D01*
X-15416000Y-95675000D02*
X-16178000Y-95675000D01*
X-16178000Y-98088000D02*
X-15416000Y-98088000D01*
X-16178000Y-100755000D02*
X-16178000Y-98088000D01*
X-15416000Y-100755000D02*
X-16178000Y-100755000D01*
X-16178000Y-103168000D02*
X-15416000Y-103168000D01*
X-16178000Y-105835000D02*
X-16178000Y-103168000D01*
X-15416000Y-105835000D02*
X-16178000Y-105835000D01*
X-16332809Y-110910857D02*
X-16666142Y-110910857D01*
X-16618523Y-110910857D02*
X-16642333Y-110887047D01*
X-16666142Y-110839428D01*
X-16666142Y-110768000D01*
X-16642333Y-110720380D01*
X-16594714Y-110696571D01*
X-16332809Y-110696571D01*
X-16594714Y-110696571D02*
X-16642333Y-110672761D01*
X-16666142Y-110625142D01*
X-16666142Y-110553714D01*
X-16642333Y-110506095D01*
X-16594714Y-110482285D01*
X-16332809Y-110482285D01*
X-16332809Y-110172761D02*
X-16356619Y-110220380D01*
X-16380428Y-110244190D01*
X-16428047Y-110268000D01*
X-16570904Y-110268000D01*
X-16618523Y-110244190D01*
X-16642333Y-110220380D01*
X-16666142Y-110172761D01*
X-16666142Y-110101333D01*
X-16642333Y-110053714D01*
X-16618523Y-110029904D01*
X-16570904Y-110006095D01*
X-16428047Y-110006095D01*
X-16380428Y-110029904D01*
X-16356619Y-110053714D01*
X-16332809Y-110101333D01*
X-16332809Y-110172761D01*
X-16666142Y-109863238D02*
X-16666142Y-109672761D01*
X-16832809Y-109791809D02*
X-16404238Y-109791809D01*
X-16356619Y-109768000D01*
X-16332809Y-109720380D01*
X-16332809Y-109672761D01*
X-16332809Y-109434666D02*
X-16356619Y-109482285D01*
X-16380428Y-109506095D01*
X-16428047Y-109529904D01*
X-16570904Y-109529904D01*
X-16618523Y-109506095D01*
X-16642333Y-109482285D01*
X-16666142Y-109434666D01*
X-16666142Y-109363238D01*
X-16642333Y-109315619D01*
X-16618523Y-109291809D01*
X-16570904Y-109268000D01*
X-16428047Y-109268000D01*
X-16380428Y-109291809D01*
X-16356619Y-109315619D01*
X-16332809Y-109363238D01*
X-16332809Y-109434666D01*
X-16332809Y-109053714D02*
X-16666142Y-109053714D01*
X-16570904Y-109053714D02*
X-16618523Y-109029904D01*
X-16642333Y-109006095D01*
X-16666142Y-108958476D01*
X-16666142Y-108910857D01*
X-16666142Y-108148952D02*
X-16332809Y-108148952D01*
X-16856619Y-108268000D02*
X-16499476Y-108387047D01*
X-16499476Y-108077523D01*
X-16178000Y-108248000D02*
X-15416000Y-108248000D01*
X-16178000Y-110915000D02*
X-16178000Y-108248000D01*
X-15416000Y-110915000D02*
X-16178000Y-110915000D01*
X-12542619Y-90535476D02*
X-12590238Y-90511666D01*
X-12614047Y-90487857D01*
X-12637857Y-90440238D01*
X-12637857Y-90416428D01*
X-12614047Y-90368809D01*
X-12590238Y-90345000D01*
X-12542619Y-90321190D01*
X-12447380Y-90321190D01*
X-12399761Y-90345000D01*
X-12375952Y-90368809D01*
X-12352142Y-90416428D01*
X-12352142Y-90440238D01*
X-12375952Y-90487857D01*
X-12399761Y-90511666D01*
X-12447380Y-90535476D01*
X-12542619Y-90535476D01*
X-12590238Y-90559285D01*
X-12614047Y-90583095D01*
X-12637857Y-90630714D01*
X-12637857Y-90725952D01*
X-12614047Y-90773571D01*
X-12590238Y-90797380D01*
X-12542619Y-90821190D01*
X-12447380Y-90821190D01*
X-12399761Y-90797380D01*
X-12375952Y-90773571D01*
X-12352142Y-90725952D01*
X-12352142Y-90630714D01*
X-12375952Y-90583095D01*
X-12399761Y-90559285D01*
X-12447380Y-90535476D01*
X-12661666Y-92734190D02*
X-12328333Y-92734190D01*
X-12542619Y-93234190D01*
X-12399761Y-95274190D02*
X-12495000Y-95274190D01*
X-12542619Y-95298000D01*
X-12566428Y-95321809D01*
X-12614047Y-95393238D01*
X-12637857Y-95488476D01*
X-12637857Y-95678952D01*
X-12614047Y-95726571D01*
X-12590238Y-95750380D01*
X-12542619Y-95774190D01*
X-12447380Y-95774190D01*
X-12399761Y-95750380D01*
X-12375952Y-95726571D01*
X-12352142Y-95678952D01*
X-12352142Y-95559904D01*
X-12375952Y-95512285D01*
X-12399761Y-95488476D01*
X-12447380Y-95464666D01*
X-12542619Y-95464666D01*
X-12590238Y-95488476D01*
X-12614047Y-95512285D01*
X-12637857Y-95559904D01*
X-12375952Y-97814190D02*
X-12614047Y-97814190D01*
X-12637857Y-98052285D01*
X-12614047Y-98028476D01*
X-12566428Y-98004666D01*
X-12447380Y-98004666D01*
X-12399761Y-98028476D01*
X-12375952Y-98052285D01*
X-12352142Y-98099904D01*
X-12352142Y-98218952D01*
X-12375952Y-98266571D01*
X-12399761Y-98290380D01*
X-12447380Y-98314190D01*
X-12566428Y-98314190D01*
X-12614047Y-98290380D01*
X-12637857Y-98266571D01*
X-12399761Y-100520857D02*
X-12399761Y-100854190D01*
X-12518809Y-100330380D02*
X-12637857Y-100687523D01*
X-12328333Y-100687523D01*
X-12661666Y-102894190D02*
X-12352142Y-102894190D01*
X-12518809Y-103084666D01*
X-12447380Y-103084666D01*
X-12399761Y-103108476D01*
X-12375952Y-103132285D01*
X-12352142Y-103179904D01*
X-12352142Y-103298952D01*
X-12375952Y-103346571D01*
X-12399761Y-103370380D01*
X-12447380Y-103394190D01*
X-12590238Y-103394190D01*
X-12637857Y-103370380D01*
X-12661666Y-103346571D01*
X-11606000Y-90595000D02*
X-12114000Y-90595000D01*
X-11606000Y-93008000D02*
X-12114000Y-93008000D01*
X-11606000Y-95548000D02*
X-12114000Y-95548000D01*
X-11606000Y-98088000D02*
X-12114000Y-98088000D01*
X-11606000Y-100628000D02*
X-12114000Y-100628000D01*
X-11606000Y-103168000D02*
X-12114000Y-103168000D01*
X-12637857Y-105481809D02*
X-12614047Y-105458000D01*
X-12566428Y-105434190D01*
X-12447380Y-105434190D01*
X-12399761Y-105458000D01*
X-12375952Y-105481809D01*
X-12352142Y-105529428D01*
X-12352142Y-105577047D01*
X-12375952Y-105648476D01*
X-12661666Y-105934190D01*
X-12352142Y-105934190D01*
X-11606000Y-105708000D02*
X-12114000Y-105708000D01*
X-12352142Y-108474190D02*
X-12637857Y-108474190D01*
X-12495000Y-108474190D02*
X-12495000Y-107974190D01*
X-12542619Y-108045619D01*
X-12590238Y-108093238D01*
X-12637857Y-108117047D01*
X-11606000Y-108248000D02*
X-12114000Y-108248000D01*
X-12114000Y-110915000D02*
X-11606000Y-110915000D01*
X-12518809Y-110641190D02*
X-12471190Y-110641190D01*
X-12423571Y-110665000D01*
X-12399761Y-110688809D01*
X-12375952Y-110736428D01*
X-12352142Y-110831666D01*
X-12352142Y-110950714D01*
X-12375952Y-111045952D01*
X-12399761Y-111093571D01*
X-12423571Y-111117380D01*
X-12471190Y-111141190D01*
X-12518809Y-111141190D01*
X-12566428Y-111117380D01*
X-12590238Y-111093571D01*
X-12614047Y-111045952D01*
X-12637857Y-110950714D01*
X-12637857Y-110831666D01*
X-12614047Y-110736428D01*
X-12590238Y-110688809D01*
X-12566428Y-110665000D01*
X-12518809Y-110641190D01*
X-4748000Y-112566000D02*
X-4875000Y-112439000D01*
X-4748000Y-112566000D02*
X-4621000Y-112439000D01*
X-8558000Y-112566000D02*
X-8431000Y-112439000D01*
X-8558000Y-112566000D02*
X-8685000Y-112439000D01*
X-8558000Y-95548000D02*
X-7669000Y-95548000D01*
X-8558000Y-93008000D02*
X-7669000Y-93008000D01*
X-8558000Y-90468000D02*
X-7669000Y-90468000D01*
X-8558000Y-88944000D02*
X-8431000Y-89071000D01*
X-8558000Y-88944000D02*
X-8685000Y-89071000D01*
X-8558000Y-95548000D02*
X-8558000Y-88944000D01*
X-9617476Y-88162190D02*
X-9450809Y-88662190D01*
X-9284142Y-88162190D01*
X-9236523Y-88709809D02*
X-8855571Y-88709809D01*
X-8736523Y-88662190D02*
X-8736523Y-88328857D01*
X-8736523Y-88376476D02*
X-8712714Y-88352666D01*
X-8665095Y-88328857D01*
X-8593666Y-88328857D01*
X-8546047Y-88352666D01*
X-8522238Y-88400285D01*
X-8522238Y-88662190D01*
X-8522238Y-88400285D02*
X-8498428Y-88352666D01*
X-8450809Y-88328857D01*
X-8379380Y-88328857D01*
X-8331761Y-88352666D01*
X-8307952Y-88400285D01*
X-8307952Y-88662190D01*
X-7998428Y-88662190D02*
X-8046047Y-88638380D01*
X-8069857Y-88614571D01*
X-8093666Y-88566952D01*
X-8093666Y-88424095D01*
X-8069857Y-88376476D01*
X-8046047Y-88352666D01*
X-7998428Y-88328857D01*
X-7927000Y-88328857D01*
X-7879380Y-88352666D01*
X-7855571Y-88376476D01*
X-7831761Y-88424095D01*
X-7831761Y-88566952D01*
X-7855571Y-88614571D01*
X-7879380Y-88638380D01*
X-7927000Y-88662190D01*
X-7998428Y-88662190D01*
X-7688904Y-88328857D02*
X-7498428Y-88328857D01*
X-7617476Y-88162190D02*
X-7617476Y-88590761D01*
X-7593666Y-88638380D01*
X-7546047Y-88662190D01*
X-7498428Y-88662190D01*
X-7260333Y-88662190D02*
X-7307952Y-88638380D01*
X-7331761Y-88614571D01*
X-7355571Y-88566952D01*
X-7355571Y-88424095D01*
X-7331761Y-88376476D01*
X-7307952Y-88352666D01*
X-7260333Y-88328857D01*
X-7188904Y-88328857D01*
X-7141285Y-88352666D01*
X-7117476Y-88376476D01*
X-7093666Y-88424095D01*
X-7093666Y-88566952D01*
X-7117476Y-88614571D01*
X-7141285Y-88638380D01*
X-7188904Y-88662190D01*
X-7260333Y-88662190D01*
X-6879380Y-88662190D02*
X-6879380Y-88328857D01*
X-6879380Y-88424095D02*
X-6855571Y-88376476D01*
X-6831761Y-88352666D01*
X-6784142Y-88328857D01*
X-6736523Y-88328857D01*
X-4875000Y-110788000D02*
X-5637000Y-110788000D01*
X-4748000Y-108248000D02*
X-5637000Y-108248000D01*
X-5002000Y-105581000D02*
X-5637000Y-105581000D01*
X-8558000Y-100628000D02*
X-7669000Y-100628000D01*
X-8304000Y-98088000D02*
X-7669000Y-98088000D01*
X-8304000Y-103295000D02*
X-7669000Y-103295000D01*
X-8558000Y-103295000D02*
X-8304000Y-103295000D01*
X-8653238Y-112800190D02*
X-8891333Y-112800190D01*
X-8915142Y-113038285D01*
X-8891333Y-113014476D01*
X-8843714Y-112990666D01*
X-8724666Y-112990666D01*
X-8677047Y-113014476D01*
X-8653238Y-113038285D01*
X-8629428Y-113085904D01*
X-8629428Y-113204952D01*
X-8653238Y-113252571D01*
X-8677047Y-113276380D01*
X-8724666Y-113300190D01*
X-8843714Y-113300190D01*
X-8891333Y-113276380D01*
X-8915142Y-113252571D01*
X-8486571Y-112800190D02*
X-8319904Y-113300190D01*
X-8153238Y-112800190D01*
X-8558000Y-103168000D02*
X-8558000Y-112566000D01*
X-8558000Y-98088000D02*
X-8304000Y-98088000D01*
X-8558000Y-103168000D02*
X-8558000Y-98088000D01*
X-4748000Y-105581000D02*
X-5002000Y-105581000D01*
X-4748000Y-105835000D02*
X-4748000Y-105581000D01*
X-811000Y-89452000D02*
X-1065000Y-89452000D01*
X-811000Y-94532000D02*
X-1065000Y-94532000D01*
X-811000Y-96945000D02*
X-1065000Y-96945000D01*
X-811000Y-102025000D02*
X-1065000Y-102025000D01*
X-811000Y-105835000D02*
X-1065000Y-105835000D01*
X-811000Y-110915000D02*
X-1065000Y-110915000D01*
X-4748000Y-110915000D02*
X-4748000Y-112566000D01*
X-4748000Y-110915000D02*
X-4748000Y-105835000D01*
X-811000Y-110915000D02*
X-811000Y-105835000D01*
X296333Y-89305190D02*
X391571Y-89305190D01*
X439190Y-89329000D01*
X486809Y-89376619D01*
X510619Y-89471857D01*
X510619Y-89638523D01*
X486809Y-89733761D01*
X439190Y-89781380D01*
X391571Y-89805190D01*
X296333Y-89805190D01*
X248714Y-89781380D01*
X201095Y-89733761D01*
X177285Y-89638523D01*
X177285Y-89471857D01*
X201095Y-89376619D01*
X248714Y-89329000D01*
X296333Y-89305190D01*
X939190Y-89471857D02*
X939190Y-89805190D01*
X724904Y-89471857D02*
X724904Y-89733761D01*
X748714Y-89781380D01*
X796333Y-89805190D01*
X867761Y-89805190D01*
X915380Y-89781380D01*
X939190Y-89757571D01*
X1105857Y-89471857D02*
X1296333Y-89471857D01*
X1177285Y-89305190D02*
X1177285Y-89733761D01*
X1201095Y-89781380D01*
X1248714Y-89805190D01*
X1296333Y-89805190D01*
X391571Y-91996000D02*
X343952Y-91972190D01*
X272523Y-91972190D01*
X201095Y-91996000D01*
X153476Y-92043619D01*
X129666Y-92091238D01*
X105857Y-92186476D01*
X105857Y-92257904D01*
X129666Y-92353142D01*
X153476Y-92400761D01*
X201095Y-92448380D01*
X272523Y-92472190D01*
X320142Y-92472190D01*
X391571Y-92448380D01*
X415380Y-92424571D01*
X415380Y-92257904D01*
X320142Y-92257904D01*
X629666Y-92138857D02*
X629666Y-92472190D01*
X629666Y-92186476D02*
X653476Y-92162666D01*
X701095Y-92138857D01*
X772523Y-92138857D01*
X820142Y-92162666D01*
X843952Y-92210285D01*
X843952Y-92472190D01*
X1296333Y-92472190D02*
X1296333Y-91972190D01*
X1296333Y-92448380D02*
X1248714Y-92472190D01*
X1153476Y-92472190D01*
X1105857Y-92448380D01*
X1082047Y-92424571D01*
X1058238Y-92376952D01*
X1058238Y-92234095D01*
X1082047Y-92186476D01*
X1105857Y-92162666D01*
X1153476Y-92138857D01*
X1248714Y-92138857D01*
X1296333Y-92162666D01*
X-76809Y-93464238D02*
X-576809Y-93464238D01*
X-410142Y-93226142D02*
X-76809Y-93226142D01*
X-362523Y-93226142D02*
X-386333Y-93202333D01*
X-410142Y-93154714D01*
X-410142Y-93083285D01*
X-386333Y-93035666D01*
X-338714Y-93011857D01*
X-76809Y-93011857D01*
X-410142Y-92845190D02*
X-410142Y-92654714D01*
X-76809Y-92773761D02*
X-505380Y-92773761D01*
X-553000Y-92749952D01*
X-576809Y-92702333D01*
X-576809Y-92654714D01*
X-76809Y-92488047D02*
X-410142Y-92488047D01*
X-314904Y-92488047D02*
X-362523Y-92464238D01*
X-386333Y-92440428D01*
X-410142Y-92392809D01*
X-410142Y-92345190D01*
X-76809Y-91964238D02*
X-338714Y-91964238D01*
X-386333Y-91988047D01*
X-410142Y-92035666D01*
X-410142Y-92130904D01*
X-386333Y-92178523D01*
X-100619Y-91964238D02*
X-76809Y-92011857D01*
X-76809Y-92130904D01*
X-100619Y-92178523D01*
X-148238Y-92202333D01*
X-195857Y-92202333D01*
X-243476Y-92178523D01*
X-267285Y-92130904D01*
X-267285Y-92011857D01*
X-291095Y-91964238D01*
X-76809Y-91726142D02*
X-410142Y-91726142D01*
X-314904Y-91726142D02*
X-362523Y-91702333D01*
X-386333Y-91678523D01*
X-410142Y-91630904D01*
X-410142Y-91583285D01*
X-100619Y-91226142D02*
X-76809Y-91273761D01*
X-76809Y-91369000D01*
X-100619Y-91416619D01*
X-148238Y-91440428D01*
X-338714Y-91440428D01*
X-386333Y-91416619D01*
X-410142Y-91369000D01*
X-410142Y-91273761D01*
X-386333Y-91226142D01*
X-338714Y-91202333D01*
X-291095Y-91202333D01*
X-243476Y-91440428D01*
X-76809Y-90773761D02*
X-576809Y-90773761D01*
X-100619Y-90773761D02*
X-76809Y-90821380D01*
X-76809Y-90916619D01*
X-100619Y-90964238D01*
X-124428Y-90988047D01*
X-172047Y-91011857D01*
X-314904Y-91011857D01*
X-362523Y-90988047D01*
X-386333Y-90964238D01*
X-410142Y-90916619D01*
X-410142Y-90821380D01*
X-386333Y-90773761D01*
X117761Y-94512190D02*
X284428Y-95012190D01*
X451095Y-94512190D01*
X832047Y-94988380D02*
X784428Y-95012190D01*
X689190Y-95012190D01*
X641571Y-94988380D01*
X617761Y-94964571D01*
X593952Y-94916952D01*
X593952Y-94774095D01*
X617761Y-94726476D01*
X641571Y-94702666D01*
X689190Y-94678857D01*
X784428Y-94678857D01*
X832047Y-94702666D01*
X1260619Y-94988380D02*
X1213000Y-95012190D01*
X1117761Y-95012190D01*
X1070142Y-94988380D01*
X1046333Y-94964571D01*
X1022523Y-94916952D01*
X1022523Y-94774095D01*
X1046333Y-94726476D01*
X1070142Y-94702666D01*
X1117761Y-94678857D01*
X1213000Y-94678857D01*
X1260619Y-94702666D01*
X-811000Y-94532000D02*
X-811000Y-89452000D01*
X-811000Y-102025000D02*
X-811000Y-96945000D01*
X117761Y-102005190D02*
X284428Y-102505190D01*
X451095Y-102005190D01*
X832047Y-102481380D02*
X784428Y-102505190D01*
X689190Y-102505190D01*
X641571Y-102481380D01*
X617761Y-102457571D01*
X593952Y-102409952D01*
X593952Y-102267095D01*
X617761Y-102219476D01*
X641571Y-102195666D01*
X689190Y-102171857D01*
X784428Y-102171857D01*
X832047Y-102195666D01*
X1260619Y-102481380D02*
X1213000Y-102505190D01*
X1117761Y-102505190D01*
X1070142Y-102481380D01*
X1046333Y-102457571D01*
X1022523Y-102409952D01*
X1022523Y-102267095D01*
X1046333Y-102219476D01*
X1070142Y-102195666D01*
X1117761Y-102171857D01*
X1213000Y-102171857D01*
X1260619Y-102195666D01*
X-76809Y-100957238D02*
X-576809Y-100957238D01*
X-410142Y-100719142D02*
X-76809Y-100719142D01*
X-362523Y-100719142D02*
X-386333Y-100695333D01*
X-410142Y-100647714D01*
X-410142Y-100576285D01*
X-386333Y-100528666D01*
X-338714Y-100504857D01*
X-76809Y-100504857D01*
X-410142Y-100338190D02*
X-410142Y-100147714D01*
X-76809Y-100266761D02*
X-505380Y-100266761D01*
X-553000Y-100242952D01*
X-576809Y-100195333D01*
X-576809Y-100147714D01*
X-76809Y-99981047D02*
X-410142Y-99981047D01*
X-314904Y-99981047D02*
X-362523Y-99957238D01*
X-386333Y-99933428D01*
X-410142Y-99885809D01*
X-410142Y-99838190D01*
X-76809Y-99457238D02*
X-338714Y-99457238D01*
X-386333Y-99481047D01*
X-410142Y-99528666D01*
X-410142Y-99623904D01*
X-386333Y-99671523D01*
X-100619Y-99457238D02*
X-76809Y-99504857D01*
X-76809Y-99623904D01*
X-100619Y-99671523D01*
X-148238Y-99695333D01*
X-195857Y-99695333D01*
X-243476Y-99671523D01*
X-267285Y-99623904D01*
X-267285Y-99504857D01*
X-291095Y-99457238D01*
X-76809Y-99219142D02*
X-410142Y-99219142D01*
X-314904Y-99219142D02*
X-362523Y-99195333D01*
X-386333Y-99171523D01*
X-410142Y-99123904D01*
X-410142Y-99076285D01*
X-100619Y-98719142D02*
X-76809Y-98766761D01*
X-76809Y-98862000D01*
X-100619Y-98909619D01*
X-148238Y-98933428D01*
X-338714Y-98933428D01*
X-386333Y-98909619D01*
X-410142Y-98862000D01*
X-410142Y-98766761D01*
X-386333Y-98719142D01*
X-338714Y-98695333D01*
X-291095Y-98695333D01*
X-243476Y-98933428D01*
X-76809Y-98266761D02*
X-576809Y-98266761D01*
X-100619Y-98266761D02*
X-76809Y-98314380D01*
X-76809Y-98409619D01*
X-100619Y-98457238D01*
X-124428Y-98481047D01*
X-172047Y-98504857D01*
X-314904Y-98504857D01*
X-362523Y-98481047D01*
X-386333Y-98457238D01*
X-410142Y-98409619D01*
X-410142Y-98314380D01*
X-386333Y-98266761D01*
X391571Y-99489000D02*
X343952Y-99465190D01*
X272523Y-99465190D01*
X201095Y-99489000D01*
X153476Y-99536619D01*
X129666Y-99584238D01*
X105857Y-99679476D01*
X105857Y-99750904D01*
X129666Y-99846142D01*
X153476Y-99893761D01*
X201095Y-99941380D01*
X272523Y-99965190D01*
X320142Y-99965190D01*
X391571Y-99941380D01*
X415380Y-99917571D01*
X415380Y-99750904D01*
X320142Y-99750904D01*
X629666Y-99631857D02*
X629666Y-99965190D01*
X629666Y-99679476D02*
X653476Y-99655666D01*
X701095Y-99631857D01*
X772523Y-99631857D01*
X820142Y-99655666D01*
X843952Y-99703285D01*
X843952Y-99965190D01*
X1296333Y-99965190D02*
X1296333Y-99465190D01*
X1296333Y-99941380D02*
X1248714Y-99965190D01*
X1153476Y-99965190D01*
X1105857Y-99941380D01*
X1082047Y-99917571D01*
X1058238Y-99869952D01*
X1058238Y-99727095D01*
X1082047Y-99679476D01*
X1105857Y-99655666D01*
X1153476Y-99631857D01*
X1248714Y-99631857D01*
X1296333Y-99655666D01*
X296333Y-96798190D02*
X391571Y-96798190D01*
X439190Y-96822000D01*
X486809Y-96869619D01*
X510619Y-96964857D01*
X510619Y-97131523D01*
X486809Y-97226761D01*
X439190Y-97274380D01*
X391571Y-97298190D01*
X296333Y-97298190D01*
X248714Y-97274380D01*
X201095Y-97226761D01*
X177285Y-97131523D01*
X177285Y-96964857D01*
X201095Y-96869619D01*
X248714Y-96822000D01*
X296333Y-96798190D01*
X939190Y-96964857D02*
X939190Y-97298190D01*
X724904Y-96964857D02*
X724904Y-97226761D01*
X748714Y-97274380D01*
X796333Y-97298190D01*
X867761Y-97298190D01*
X915380Y-97274380D01*
X939190Y-97250571D01*
X1105857Y-96964857D02*
X1296333Y-96964857D01*
X1177285Y-96798190D02*
X1177285Y-97226761D01*
X1201095Y-97274380D01*
X1248714Y-97298190D01*
X1296333Y-97298190D01*
D13*
X-6458000Y-80929000D02*
X-8758000Y-80929000D01*
X-158000Y-80929000D02*
X-2358000Y-80929000D01*
X-158000Y-85529000D02*
X-8758000Y-85529000D01*
D10*
X-42492400Y-112794600D02*
X-17092400Y-112794600D01*
X-42492400Y-74059600D02*
X-42492400Y-112794600D01*
X-17092400Y-74059600D02*
X-17092400Y-112794600D01*
X-42492400Y-74059600D02*
X-17092400Y-74059600D01*
X-16239000Y-87735000D02*
X-16239000Y-85835000D01*
X-14339000Y-87735000D02*
X-16239000Y-87735000D01*
X-14339000Y-85835000D02*
X-14339000Y-87735000D01*
X-16239000Y-85835000D02*
X-14339000Y-85835000D01*
X-54980000Y-104498000D02*
X-56310000Y-104498000D01*
X-54980000Y-103168000D02*
X-54980000Y-104498000D01*
X-54980000Y-101898000D02*
X-57640000Y-101898000D01*
X-57640000Y-101898000D02*
X-57640000Y-99298000D01*
X-54980000Y-101898000D02*
X-54980000Y-99298000D01*
X-54980000Y-99298000D02*
X-57640000Y-99298000D01*
X-5323000Y-112092600D02*
X-6653000Y-112092600D01*
X-5323000Y-110762600D02*
X-5323000Y-112092600D01*
X-5323000Y-109492600D02*
X-7983000Y-109492600D01*
X-7983000Y-109492600D02*
X-7983000Y-89112600D01*
X-5323000Y-109492600D02*
X-5323000Y-89112600D01*
X-5323000Y-89112600D02*
X-7983000Y-89112600D01*
X-4173000Y-104378000D02*
X-2843000Y-104378000D01*
X-4173000Y-105708000D02*
X-4173000Y-104378000D01*
X-4173000Y-106978000D02*
X-1513000Y-106978000D01*
X-1513000Y-106978000D02*
X-1513000Y-112118000D01*
X-4173000Y-106978000D02*
X-4173000Y-112118000D01*
X-4173000Y-112118000D02*
X-1513000Y-112118000D01*
X-15755400Y-91703400D02*
X-14425400Y-91703400D01*
X-15755400Y-93033400D02*
X-15755400Y-91703400D01*
X-15755400Y-94303400D02*
X-13095400Y-94303400D01*
X-13095400Y-94303400D02*
X-13095400Y-112143400D01*
X-15755400Y-94303400D02*
X-15755400Y-112143400D01*
X-15755400Y-112143400D02*
X-13095400Y-112143400D01*
X-4147600Y-88071200D02*
X-2817600Y-88071200D01*
X-4147600Y-89401200D02*
X-4147600Y-88071200D01*
X-4147600Y-90671200D02*
X-1487600Y-90671200D01*
X-1487600Y-90671200D02*
X-1487600Y-103431200D01*
X-4147600Y-90671200D02*
X-4147600Y-103431200D01*
X-4147600Y-103431200D02*
X-1487600Y-103431200D01*
X-18438600Y-74050400D02*
X-17108600Y-74050400D01*
X-17108600Y-74050400D02*
X-17108600Y-75380400D01*
X-17108600Y-76650400D02*
X-17108600Y-112270400D01*
X-19768600Y-112270400D02*
X-17108600Y-112270400D01*
X-19768600Y-76650400D02*
X-19768600Y-112270400D01*
X-19768600Y-76650400D02*
X-17108600Y-76650400D01*
X-39308200Y-109645000D02*
X-41968200Y-109645000D01*
X-39308200Y-109645000D02*
X-39308200Y-74025000D01*
X-39308200Y-74025000D02*
X-41968200Y-74025000D01*
X-41968200Y-109645000D02*
X-41968200Y-74025000D01*
X-41968200Y-112245000D02*
X-41968200Y-110915000D01*
X-40638200Y-112245000D02*
X-41968200Y-112245000D01*
X-3650800Y-76953200D02*
X-3650800Y-78053200D01*
X-3380800Y-76953200D02*
X-3650800Y-76953200D01*
X-3380800Y-75453200D02*
X-3380800Y-76953200D01*
X-10010800Y-76953200D02*
X-10010800Y-79783200D01*
X-10280800Y-76953200D02*
X-10010800Y-76953200D01*
X-10280800Y-75453200D02*
X-10280800Y-76953200D01*
X-49766000Y-63350000D02*
X-49766000Y-62020000D01*
X-48436000Y-63350000D02*
X-49766000Y-63350000D01*
X-47166000Y-63350000D02*
X-47166000Y-60690000D01*
X-47166000Y-60690000D02*
X-9006000Y-60690000D01*
X-47166000Y-63350000D02*
X-9006000Y-63350000D01*
X-9006000Y-63350000D02*
X-9006000Y-60690000D01*
X-24620000Y-68074400D02*
X-24620000Y-66744400D01*
X-23290000Y-68074400D02*
X-24620000Y-68074400D01*
X-22020000Y-68074400D02*
X-22020000Y-65414400D01*
X-22020000Y-65414400D02*
X-9260000Y-65414400D01*
X-22020000Y-68074400D02*
X-9260000Y-68074400D01*
X-9260000Y-68074400D02*
X-9260000Y-65414400D01*
X-40926800Y-68074400D02*
X-40926800Y-66744400D01*
X-39596800Y-68074400D02*
X-40926800Y-68074400D01*
X-38326800Y-68074400D02*
X-38326800Y-65414400D01*
X-38326800Y-65414400D02*
X-25566800Y-65414400D01*
X-38326800Y-68074400D02*
X-25566800Y-68074400D01*
X-25566800Y-68074400D02*
X-25566800Y-65414400D01*
X-26085200Y-112796878D02*
X-26085200Y-112279722D01*
X-27505200Y-112796878D02*
X-27505200Y-112279722D01*
X-12474178Y-78528800D02*
X-11957022Y-78528800D01*
X-12474178Y-77108800D02*
X-11957022Y-77108800D01*
X-20294000Y-112847678D02*
X-20294000Y-112330522D01*
X-21714000Y-112847678D02*
X-21714000Y-112330522D01*
X-12446478Y-82948400D02*
X-11929322Y-82948400D01*
X-12446478Y-81528400D02*
X-11929322Y-81528400D01*
X-12446478Y-80713200D02*
X-11929322Y-80713200D01*
X-12446478Y-79293200D02*
X-11929322Y-79293200D01*
X-22224400Y-112824578D02*
X-22224400Y-112307422D01*
X-23644400Y-112824578D02*
X-23644400Y-112307422D01*
X-24154800Y-112796878D02*
X-24154800Y-112279722D01*
X-25574800Y-112796878D02*
X-25574800Y-112279722D01*
X-24660800Y-76329600D02*
G75*
G02X-25360800Y-75629600I0J700000D01*
G01*
X-25360800Y-75029600D02*
G75*
G02X-24660800Y-74329600I700000J0D01*
G01*
X-23260800Y-74329600D02*
G75*
G02X-22560800Y-75029600I0J-700000D01*
G01*
X-22560800Y-75629600D02*
G75*
G02X-23260800Y-76329600I-700000J0D01*
G01*
X-22560800Y-75029600D02*
X-22560800Y-75629600D01*
X-24660800Y-74329600D02*
X-23260800Y-74329600D01*
X-25360800Y-75629600D02*
X-25360800Y-75029600D01*
X-23260800Y-76329600D02*
X-24660800Y-76329600D01*
X-11933922Y-70248400D02*
X-12451078Y-70248400D01*
X-11933922Y-68828400D02*
X-12451078Y-68828400D01*
X-28371200Y-96582522D02*
X-28371200Y-97099678D01*
X-29791200Y-96582522D02*
X-29791200Y-97099678D01*
D13*
X-27264200Y-84143600D02*
X-26189200Y-84143600D01*
X-27264200Y-74418600D02*
X-31914200Y-74418600D01*
X-27264200Y-84368600D02*
X-31914200Y-84368600D01*
X-27264200Y-74418600D02*
X-27264200Y-74743600D01*
X-31914200Y-74418600D02*
X-31914200Y-74743600D01*
X-31914200Y-84368600D02*
X-31914200Y-84043600D01*
X-27264200Y-84368600D02*
X-27264200Y-84143600D01*
D10*
X-11929322Y-72280400D02*
X-12446478Y-72280400D01*
X-11929322Y-70860400D02*
X-12446478Y-70860400D01*
X-37983177Y-74563801D02*
X-37466021Y-74563801D01*
X-37983177Y-75983801D02*
X-37466021Y-75983801D01*
X-11933922Y-72892400D02*
X-12451078Y-72892400D01*
X-11933922Y-74312400D02*
X-12451078Y-74312400D01*
X-37924978Y-78224000D02*
X-37407822Y-78224000D01*
X-37924978Y-76804000D02*
X-37407822Y-76804000D01*
X-11933922Y-74924400D02*
X-12451078Y-74924400D01*
X-11933922Y-76344400D02*
X-12451078Y-76344400D01*
X-13187900Y-85484400D02*
X-10502900Y-85484400D01*
X-10502900Y-85484400D02*
X-10502900Y-83564400D01*
X-10502900Y-83564400D02*
X-13187900Y-83564400D01*
X-16071200Y-68643100D02*
X-16071200Y-71328100D01*
X-14151200Y-68643100D02*
X-16071200Y-68643100D01*
X-14151200Y-71328100D02*
X-14151200Y-68643100D01*
X-26455600Y-68730800D02*
X-29140600Y-68730800D01*
X-29140600Y-68730800D02*
X-29140600Y-70650800D01*
X-29140600Y-70650800D02*
X-26455600Y-70650800D01*
X-28631100Y-73038400D02*
X-25946100Y-73038400D01*
X-25946100Y-73038400D02*
X-25946100Y-71118400D01*
X-25946100Y-71118400D02*
X-28631100Y-71118400D01*
X-38564800Y-73394000D02*
X-35879800Y-73394000D01*
X-35879800Y-73394000D02*
X-35879800Y-71474000D01*
X-35879800Y-71474000D02*
X-38564800Y-71474000D01*
X-38804864Y-68780800D02*
X-37600736Y-68780800D01*
X-38804864Y-70600800D02*
X-37600736Y-70600800D01*
X-49766000Y-65516000D02*
X-49766000Y-68176000D01*
X-47166000Y-65516000D02*
X-49766000Y-65516000D01*
X-47166000Y-68176000D02*
X-49766000Y-68176000D01*
X-47166000Y-65516000D02*
X-47166000Y-68176000D01*
X-45896000Y-65516000D02*
X-44566000Y-65516000D01*
X-44566000Y-65516000D02*
X-44566000Y-66846000D01*
X-9260000Y-89188800D02*
X-11920000Y-89188800D01*
X-9260000Y-109568800D02*
X-9260000Y-89188800D01*
X-11920000Y-109568800D02*
X-11920000Y-89188800D01*
X-9260000Y-109568800D02*
X-11920000Y-109568800D01*
X-9260000Y-110838800D02*
X-9260000Y-112168800D01*
X-9260000Y-112168800D02*
X-10590000Y-112168800D01*
X-43550000Y-116131200D02*
X-43550000Y-113471200D01*
X-51230000Y-116131200D02*
X-43550000Y-116131200D01*
X-51230000Y-113471200D02*
X-43550000Y-113471200D01*
X-51230000Y-116131200D02*
X-51230000Y-113471200D01*
X-52500000Y-116131200D02*
X-53830000Y-116131200D01*
X-53830000Y-116131200D02*
X-53830000Y-114801200D01*
X-14706000Y-83028078D02*
X-14706000Y-82510922D01*
X-16126000Y-83028078D02*
X-16126000Y-82510922D01*
X-15821200Y-74138078D02*
X-15821200Y-73620922D01*
X-14401200Y-74138078D02*
X-14401200Y-73620922D01*
X-24307200Y-97099678D02*
X-24307200Y-96582522D01*
X-25727200Y-97099678D02*
X-25727200Y-96582522D01*
X-23695200Y-97099678D02*
X-23695200Y-96582522D01*
X-22275200Y-97099678D02*
X-22275200Y-96582522D01*
X-20243200Y-97104278D02*
X-20243200Y-96587122D01*
X-21663200Y-97104278D02*
X-21663200Y-96587122D01*
X-19887600Y-82372278D02*
X-19887600Y-81855122D01*
X-21307600Y-82372278D02*
X-21307600Y-81855122D01*
X-23187200Y-82367678D02*
X-23187200Y-81850522D01*
X-21767200Y-82367678D02*
X-21767200Y-81850522D01*
X-23646800Y-82367678D02*
X-23646800Y-81850522D01*
X-25066800Y-82367678D02*
X-25066800Y-81850522D01*
X-23441200Y-78585378D02*
X-23441200Y-78068222D01*
X-22021200Y-78585378D02*
X-22021200Y-78068222D01*
X-23951600Y-78562278D02*
X-23951600Y-78045122D01*
X-25371600Y-78562278D02*
X-25371600Y-78045122D01*
X-19836800Y-78142122D02*
X-19836800Y-78659278D01*
X-21256800Y-78142122D02*
X-21256800Y-78659278D01*
X-26288400Y-97099678D02*
X-26288400Y-96582522D01*
X-27708400Y-97099678D02*
X-27708400Y-96582522D01*
X-31721600Y-97099678D02*
X-31721600Y-96582522D01*
X-30301600Y-97099678D02*
X-30301600Y-96582522D01*
X-44245200Y-76546400D02*
X-44245200Y-81131400D01*
X-44245200Y-84402400D02*
X-44245200Y-103931400D01*
X-44245200Y-107202400D02*
X-44245200Y-111786400D01*
X-53485200Y-76546400D02*
X-53485200Y-79931400D01*
X-53485200Y-83202400D02*
X-53485200Y-105131400D01*
X-53485200Y-108402400D02*
X-53485200Y-111786400D01*
X-44245200Y-76546400D02*
X-45940200Y-76546400D01*
X-48290200Y-76546400D02*
X-50160200Y-76546400D01*
X-51071200Y-76546400D02*
X-53485200Y-76546400D01*
X-44245200Y-111786400D02*
X-46659200Y-111786400D01*
X-47571200Y-111786400D02*
X-53485200Y-111786400D01*
X-47115200Y-76491400D02*
X-46615200Y-75991400D01*
X-46615200Y-75991400D02*
X-47615200Y-75991400D01*
X-47615200Y-75991400D02*
X-47115200Y-76491400D01*
X-48865200Y-84166400D02*
X-48865200Y-104166400D01*
X-47365200Y-84166400D02*
X-50365200Y-84166400D01*
X-48115200Y-84916400D02*
X-48865200Y-84166400D01*
X-48865200Y-84166400D02*
X-49615200Y-84916400D01*
X-47365200Y-104166400D02*
X-50365200Y-104166400D01*
X-48115200Y-103416400D02*
X-48865200Y-104166400D01*
X-48865200Y-104166400D02*
X-49615200Y-103416400D01*
X-21801600Y-83879200D02*
X-19901600Y-83879200D01*
X-19901600Y-83879200D02*
X-19901600Y-85779200D01*
X-19901600Y-85779200D02*
X-21801600Y-85779200D01*
X-21801600Y-85779200D02*
X-21801600Y-83879200D01*
X-47448800Y-75782400D02*
X-45948800Y-75782400D01*
X-45948800Y-75782400D02*
X-45948800Y-75512400D01*
X-45948800Y-75512400D02*
X-43118800Y-75512400D01*
X-47448800Y-68882400D02*
X-45948800Y-68882400D01*
X-45948800Y-68882400D02*
X-45948800Y-69152400D01*
X-45948800Y-69152400D02*
X-44848800Y-69152400D01*
X-38800800Y-80913000D02*
X-38800800Y-80238000D01*
X-38800800Y-80238000D02*
X-38625800Y-80238000D01*
X-35580800Y-80913000D02*
X-35580800Y-80238000D01*
X-35580800Y-80238000D02*
X-35755800Y-80238000D01*
X-35580800Y-82783000D02*
X-35580800Y-83458000D01*
X-35580800Y-83458000D02*
X-35755800Y-83458000D01*
D13*
X-38765000Y-108516200D02*
X-38515000Y-108516200D01*
X-38765000Y-100766200D02*
X-38420000Y-100766200D01*
X-20515000Y-100766200D02*
X-20860000Y-100766200D01*
X-20515000Y-108516200D02*
X-20860000Y-108516200D01*
X-38765000Y-108516200D02*
X-38765000Y-100766200D01*
X-20515000Y-108516200D02*
X-20515000Y-100766200D01*
X-38515000Y-108516200D02*
X-38515000Y-110341200D01*
X-21678200Y-94618800D02*
X-20078200Y-94618800D01*
X-21678200Y-86193800D02*
X-27428200Y-86193800D01*
X-21678200Y-94843800D02*
X-27428200Y-94843800D01*
X-21678200Y-86193800D02*
X-21678200Y-86493800D01*
X-27428200Y-86193800D02*
X-27428200Y-86493800D01*
X-27428200Y-94843800D02*
X-27428200Y-94543800D01*
X-21678200Y-94843800D02*
X-21678200Y-94618800D01*
X-37188600Y-86193800D02*
X-37188600Y-86418800D01*
X-31438600Y-86193800D02*
X-31438600Y-86493800D01*
X-31438600Y-94843800D02*
X-31438600Y-94543800D01*
X-37188600Y-94843800D02*
X-37188600Y-94543800D01*
X-37188600Y-86193800D02*
X-31438600Y-86193800D01*
X-37188600Y-94843800D02*
X-31438600Y-94843800D01*
X-37188600Y-86418800D02*
X-38788600Y-86418800D01*
D14*
X-5021000Y-86398428D02*
X-4978142Y-86412714D01*
X-4906714Y-86412714D01*
X-4878142Y-86398428D01*
X-4863857Y-86384142D01*
X-4849571Y-86355571D01*
X-4849571Y-86327000D01*
X-4863857Y-86298428D01*
X-4878142Y-86284142D01*
X-4906714Y-86269857D01*
X-4963857Y-86255571D01*
X-4992428Y-86241285D01*
X-5006714Y-86227000D01*
X-5021000Y-86198428D01*
X-5021000Y-86169857D01*
X-5006714Y-86141285D01*
X-4992428Y-86127000D01*
X-4963857Y-86112714D01*
X-4892428Y-86112714D01*
X-4849571Y-86127000D01*
X-4749571Y-86112714D02*
X-4678142Y-86412714D01*
X-4621000Y-86198428D01*
X-4563857Y-86412714D01*
X-4492428Y-86112714D01*
X-4221000Y-86412714D02*
X-4392428Y-86412714D01*
X-4306714Y-86412714D02*
X-4306714Y-86112714D01*
X-4335285Y-86155571D01*
X-4363857Y-86184142D01*
X-4392428Y-86198428D01*
X-15667571Y-84972714D02*
X-15496142Y-84972714D01*
X-15581857Y-85272714D02*
X-15581857Y-84972714D01*
X-15396142Y-85272714D02*
X-15396142Y-84972714D01*
X-15281857Y-84972714D01*
X-15253285Y-84987000D01*
X-15239000Y-85001285D01*
X-15224714Y-85029857D01*
X-15224714Y-85072714D01*
X-15239000Y-85101285D01*
X-15253285Y-85115571D01*
X-15281857Y-85129857D01*
X-15396142Y-85129857D01*
X-15110428Y-85001285D02*
X-15096142Y-84987000D01*
X-15067571Y-84972714D01*
X-14996142Y-84972714D01*
X-14967571Y-84987000D01*
X-14953285Y-85001285D01*
X-14939000Y-85029857D01*
X-14939000Y-85058428D01*
X-14953285Y-85101285D01*
X-15124714Y-85272714D01*
X-14939000Y-85272714D01*
X-56410000Y-105162714D02*
X-56410000Y-105377000D01*
X-56424285Y-105419857D01*
X-56452857Y-105448428D01*
X-56495714Y-105462714D01*
X-56524285Y-105462714D01*
X-56124285Y-105162714D02*
X-56267142Y-105162714D01*
X-56281428Y-105305571D01*
X-56267142Y-105291285D01*
X-56238571Y-105277000D01*
X-56167142Y-105277000D01*
X-56138571Y-105291285D01*
X-56124285Y-105305571D01*
X-56110000Y-105334142D01*
X-56110000Y-105405571D01*
X-56124285Y-105434142D01*
X-56138571Y-105448428D01*
X-56167142Y-105462714D01*
X-56238571Y-105462714D01*
X-56267142Y-105448428D01*
X-56281428Y-105434142D01*
X-6753000Y-112655714D02*
X-6753000Y-112870000D01*
X-6767285Y-112912857D01*
X-6795857Y-112941428D01*
X-6838714Y-112955714D01*
X-6867285Y-112955714D01*
X-6624428Y-112684285D02*
X-6610142Y-112670000D01*
X-6581571Y-112655714D01*
X-6510142Y-112655714D01*
X-6481571Y-112670000D01*
X-6467285Y-112684285D01*
X-6453000Y-112712857D01*
X-6453000Y-112741428D01*
X-6467285Y-112784285D01*
X-6638714Y-112955714D01*
X-6453000Y-112955714D01*
X-3085857Y-112782714D02*
X-3085857Y-112997000D01*
X-3100142Y-113039857D01*
X-3128714Y-113068428D01*
X-3171571Y-113082714D01*
X-3200142Y-113082714D01*
X-2785857Y-113082714D02*
X-2957285Y-113082714D01*
X-2871571Y-113082714D02*
X-2871571Y-112782714D01*
X-2900142Y-112825571D01*
X-2928714Y-112854142D01*
X-2957285Y-112868428D01*
X-2528714Y-112882714D02*
X-2528714Y-113082714D01*
X-2600142Y-112768428D02*
X-2671571Y-112982714D01*
X-2485857Y-112982714D01*
X-14500000Y-90684714D02*
X-14500000Y-90899000D01*
X-14514285Y-90941857D01*
X-14542857Y-90970428D01*
X-14585714Y-90984714D01*
X-14614285Y-90984714D01*
X-14385714Y-90684714D02*
X-14200000Y-90684714D01*
X-14300000Y-90799000D01*
X-14257142Y-90799000D01*
X-14228571Y-90813285D01*
X-14214285Y-90827571D01*
X-14200000Y-90856142D01*
X-14200000Y-90927571D01*
X-14214285Y-90956142D01*
X-14228571Y-90970428D01*
X-14257142Y-90984714D01*
X-14342857Y-90984714D01*
X-14371428Y-90970428D01*
X-14385714Y-90956142D01*
X-2917600Y-87128714D02*
X-2917600Y-87343000D01*
X-2931885Y-87385857D01*
X-2960457Y-87414428D01*
X-3003314Y-87428714D01*
X-3031885Y-87428714D01*
X-2646171Y-87228714D02*
X-2646171Y-87428714D01*
X-2717600Y-87114428D02*
X-2789028Y-87328714D01*
X-2603314Y-87328714D01*
X-37995000Y-83969571D02*
X-38095000Y-83969571D01*
X-38095000Y-84126714D02*
X-38095000Y-83826714D01*
X-37952142Y-83826714D01*
X-37680714Y-84126714D02*
X-37852142Y-84126714D01*
X-37766428Y-84126714D02*
X-37766428Y-83826714D01*
X-37795000Y-83869571D01*
X-37823571Y-83898142D01*
X-37852142Y-83912428D01*
D10*
X-233371Y-65953485D02*
X-400038Y-65953485D01*
X-400038Y-66215390D02*
X-400038Y-65715390D01*
X-161942Y-65715390D01*
D14*
X-18706857Y-113163714D02*
X-18706857Y-113378000D01*
X-18721142Y-113420857D01*
X-18749714Y-113449428D01*
X-18792571Y-113463714D01*
X-18821142Y-113463714D01*
X-18406857Y-113463714D02*
X-18578285Y-113463714D01*
X-18492571Y-113463714D02*
X-18492571Y-113163714D01*
X-18521142Y-113206571D01*
X-18549714Y-113235142D01*
X-18578285Y-113249428D01*
X-18235428Y-113292285D02*
X-18264000Y-113278000D01*
X-18278285Y-113263714D01*
X-18292571Y-113235142D01*
X-18292571Y-113220857D01*
X-18278285Y-113192285D01*
X-18264000Y-113178000D01*
X-18235428Y-113163714D01*
X-18178285Y-113163714D01*
X-18149714Y-113178000D01*
X-18135428Y-113192285D01*
X-18121142Y-113220857D01*
X-18121142Y-113235142D01*
X-18135428Y-113263714D01*
X-18149714Y-113278000D01*
X-18178285Y-113292285D01*
X-18235428Y-113292285D01*
X-18264000Y-113306571D01*
X-18278285Y-113320857D01*
X-18292571Y-113349428D01*
X-18292571Y-113406571D01*
X-18278285Y-113435142D01*
X-18264000Y-113449428D01*
X-18235428Y-113463714D01*
X-18178285Y-113463714D01*
X-18149714Y-113449428D01*
X-18135428Y-113435142D01*
X-18121142Y-113406571D01*
X-18121142Y-113349428D01*
X-18135428Y-113320857D01*
X-18149714Y-113306571D01*
X-18178285Y-113292285D01*
X-40804857Y-113036714D02*
X-40804857Y-113251000D01*
X-40819142Y-113293857D01*
X-40847714Y-113322428D01*
X-40890571Y-113336714D01*
X-40919142Y-113336714D01*
X-40504857Y-113336714D02*
X-40676285Y-113336714D01*
X-40590571Y-113336714D02*
X-40590571Y-113036714D01*
X-40619142Y-113079571D01*
X-40647714Y-113108142D01*
X-40676285Y-113122428D01*
X-40404857Y-113036714D02*
X-40204857Y-113036714D01*
X-40333428Y-113336714D01*
D10*
X-8323809Y-74864152D02*
X-7919047Y-74864152D01*
X-7871428Y-74840342D01*
X-7847619Y-74816533D01*
X-7823809Y-74768914D01*
X-7823809Y-74673676D01*
X-7847619Y-74626057D01*
X-7871428Y-74602247D01*
X-7919047Y-74578438D01*
X-8323809Y-74578438D01*
X-8323809Y-74387961D02*
X-8323809Y-74054628D01*
X-7823809Y-74268914D01*
D14*
X-50759285Y-62262857D02*
X-50545000Y-62262857D01*
X-50502142Y-62277142D01*
X-50473571Y-62305714D01*
X-50459285Y-62348571D01*
X-50459285Y-62377142D01*
X-50459285Y-61962857D02*
X-50459285Y-62134285D01*
X-50459285Y-62048571D02*
X-50759285Y-62048571D01*
X-50716428Y-62077142D01*
X-50687857Y-62105714D01*
X-50673571Y-62134285D01*
X-50459285Y-61677142D02*
X-50459285Y-61848571D01*
X-50459285Y-61762857D02*
X-50759285Y-61762857D01*
X-50716428Y-61791428D01*
X-50687857Y-61820000D01*
X-50673571Y-61848571D01*
X-8595285Y-67073000D02*
X-8381000Y-67073000D01*
X-8338142Y-67087285D01*
X-8309571Y-67115857D01*
X-8295285Y-67158714D01*
X-8295285Y-67187285D01*
X-8295285Y-66915857D02*
X-8295285Y-66858714D01*
X-8309571Y-66830142D01*
X-8323857Y-66815857D01*
X-8366714Y-66787285D01*
X-8423857Y-66773000D01*
X-8538142Y-66773000D01*
X-8566714Y-66787285D01*
X-8581000Y-66801571D01*
X-8595285Y-66830142D01*
X-8595285Y-66887285D01*
X-8581000Y-66915857D01*
X-8566714Y-66930142D01*
X-8538142Y-66944428D01*
X-8466714Y-66944428D01*
X-8438142Y-66930142D01*
X-8423857Y-66915857D01*
X-8409571Y-66887285D01*
X-8409571Y-66830142D01*
X-8423857Y-66801571D01*
X-8438142Y-66787285D01*
X-8466714Y-66773000D01*
X-41869285Y-66844400D02*
X-41655000Y-66844400D01*
X-41612142Y-66858685D01*
X-41583571Y-66887257D01*
X-41569285Y-66930114D01*
X-41569285Y-66958685D01*
X-41869285Y-66730114D02*
X-41869285Y-66530114D01*
X-41569285Y-66658685D01*
X-26911857Y-114733714D02*
X-27011857Y-114590857D01*
X-27083285Y-114733714D02*
X-27083285Y-114433714D01*
X-26969000Y-114433714D01*
X-26940428Y-114448000D01*
X-26926142Y-114462285D01*
X-26911857Y-114490857D01*
X-26911857Y-114533714D01*
X-26926142Y-114562285D01*
X-26940428Y-114576571D01*
X-26969000Y-114590857D01*
X-27083285Y-114590857D01*
X-26626142Y-114733714D02*
X-26797571Y-114733714D01*
X-26711857Y-114733714D02*
X-26711857Y-114433714D01*
X-26740428Y-114476571D01*
X-26769000Y-114505142D01*
X-26797571Y-114519428D01*
X-26526142Y-114433714D02*
X-26340428Y-114433714D01*
X-26440428Y-114548000D01*
X-26397571Y-114548000D01*
X-26369000Y-114562285D01*
X-26354714Y-114576571D01*
X-26340428Y-114605142D01*
X-26340428Y-114676571D01*
X-26354714Y-114705142D01*
X-26369000Y-114719428D01*
X-26397571Y-114733714D01*
X-26483285Y-114733714D01*
X-26511857Y-114719428D01*
X-26526142Y-114705142D01*
X-14010285Y-77960857D02*
X-14153142Y-78060857D01*
X-14010285Y-78132285D02*
X-14310285Y-78132285D01*
X-14310285Y-78018000D01*
X-14296000Y-77989428D01*
X-14281714Y-77975142D01*
X-14253142Y-77960857D01*
X-14210285Y-77960857D01*
X-14181714Y-77975142D01*
X-14167428Y-77989428D01*
X-14153142Y-78018000D01*
X-14153142Y-78132285D01*
X-14010285Y-77675142D02*
X-14010285Y-77846571D01*
X-14010285Y-77760857D02*
X-14310285Y-77760857D01*
X-14267428Y-77789428D01*
X-14238857Y-77818000D01*
X-14224571Y-77846571D01*
X-14281714Y-77560857D02*
X-14296000Y-77546571D01*
X-14310285Y-77518000D01*
X-14310285Y-77446571D01*
X-14296000Y-77418000D01*
X-14281714Y-77403714D01*
X-14253142Y-77389428D01*
X-14224571Y-77389428D01*
X-14181714Y-77403714D01*
X-14010285Y-77575142D01*
X-14010285Y-77389428D01*
X-21196857Y-114733714D02*
X-21296857Y-114590857D01*
X-21368285Y-114733714D02*
X-21368285Y-114433714D01*
X-21254000Y-114433714D01*
X-21225428Y-114448000D01*
X-21211142Y-114462285D01*
X-21196857Y-114490857D01*
X-21196857Y-114533714D01*
X-21211142Y-114562285D01*
X-21225428Y-114576571D01*
X-21254000Y-114590857D01*
X-21368285Y-114590857D01*
X-20911142Y-114733714D02*
X-21082571Y-114733714D01*
X-20996857Y-114733714D02*
X-20996857Y-114433714D01*
X-21025428Y-114476571D01*
X-21054000Y-114505142D01*
X-21082571Y-114519428D01*
X-20739714Y-114562285D02*
X-20768285Y-114548000D01*
X-20782571Y-114533714D01*
X-20796857Y-114505142D01*
X-20796857Y-114490857D01*
X-20782571Y-114462285D01*
X-20768285Y-114448000D01*
X-20739714Y-114433714D01*
X-20682571Y-114433714D01*
X-20654000Y-114448000D01*
X-20639714Y-114462285D01*
X-20625428Y-114490857D01*
X-20625428Y-114505142D01*
X-20639714Y-114533714D01*
X-20654000Y-114548000D01*
X-20682571Y-114562285D01*
X-20739714Y-114562285D01*
X-20768285Y-114576571D01*
X-20782571Y-114590857D01*
X-20796857Y-114619428D01*
X-20796857Y-114676571D01*
X-20782571Y-114705142D01*
X-20768285Y-114719428D01*
X-20739714Y-114733714D01*
X-20682571Y-114733714D01*
X-20654000Y-114719428D01*
X-20639714Y-114705142D01*
X-20625428Y-114676571D01*
X-20625428Y-114619428D01*
X-20639714Y-114590857D01*
X-20654000Y-114576571D01*
X-20682571Y-114562285D01*
X-14010285Y-82405857D02*
X-14153142Y-82505857D01*
X-14010285Y-82577285D02*
X-14310285Y-82577285D01*
X-14310285Y-82463000D01*
X-14296000Y-82434428D01*
X-14281714Y-82420142D01*
X-14253142Y-82405857D01*
X-14210285Y-82405857D01*
X-14181714Y-82420142D01*
X-14167428Y-82434428D01*
X-14153142Y-82463000D01*
X-14153142Y-82577285D01*
X-14010285Y-82120142D02*
X-14010285Y-82291571D01*
X-14010285Y-82205857D02*
X-14310285Y-82205857D01*
X-14267428Y-82234428D01*
X-14238857Y-82263000D01*
X-14224571Y-82291571D01*
X-14310285Y-82020142D02*
X-14310285Y-81820142D01*
X-14010285Y-81948714D01*
X-14010285Y-80246857D02*
X-14153142Y-80346857D01*
X-14010285Y-80418285D02*
X-14310285Y-80418285D01*
X-14310285Y-80304000D01*
X-14296000Y-80275428D01*
X-14281714Y-80261142D01*
X-14253142Y-80246857D01*
X-14210285Y-80246857D01*
X-14181714Y-80261142D01*
X-14167428Y-80275428D01*
X-14153142Y-80304000D01*
X-14153142Y-80418285D01*
X-14010285Y-79961142D02*
X-14010285Y-80132571D01*
X-14010285Y-80046857D02*
X-14310285Y-80046857D01*
X-14267428Y-80075428D01*
X-14238857Y-80104000D01*
X-14224571Y-80132571D01*
X-14310285Y-79689714D02*
X-14310285Y-79832571D01*
X-14167428Y-79846857D01*
X-14181714Y-79832571D01*
X-14196000Y-79804000D01*
X-14196000Y-79732571D01*
X-14181714Y-79704000D01*
X-14167428Y-79689714D01*
X-14138857Y-79675428D01*
X-14067428Y-79675428D01*
X-14038857Y-79689714D01*
X-14024571Y-79704000D01*
X-14010285Y-79732571D01*
X-14010285Y-79804000D01*
X-14024571Y-79832571D01*
X-14038857Y-79846857D01*
X-23101857Y-114733714D02*
X-23201857Y-114590857D01*
X-23273285Y-114733714D02*
X-23273285Y-114433714D01*
X-23159000Y-114433714D01*
X-23130428Y-114448000D01*
X-23116142Y-114462285D01*
X-23101857Y-114490857D01*
X-23101857Y-114533714D01*
X-23116142Y-114562285D01*
X-23130428Y-114576571D01*
X-23159000Y-114590857D01*
X-23273285Y-114590857D01*
X-22816142Y-114733714D02*
X-22987571Y-114733714D01*
X-22901857Y-114733714D02*
X-22901857Y-114433714D01*
X-22930428Y-114476571D01*
X-22959000Y-114505142D01*
X-22987571Y-114519428D01*
X-22559000Y-114533714D02*
X-22559000Y-114733714D01*
X-22630428Y-114419428D02*
X-22701857Y-114633714D01*
X-22516142Y-114633714D01*
X-25006857Y-114733714D02*
X-25106857Y-114590857D01*
X-25178285Y-114733714D02*
X-25178285Y-114433714D01*
X-25064000Y-114433714D01*
X-25035428Y-114448000D01*
X-25021142Y-114462285D01*
X-25006857Y-114490857D01*
X-25006857Y-114533714D01*
X-25021142Y-114562285D01*
X-25035428Y-114576571D01*
X-25064000Y-114590857D01*
X-25178285Y-114590857D01*
X-24721142Y-114733714D02*
X-24892571Y-114733714D01*
X-24806857Y-114733714D02*
X-24806857Y-114433714D01*
X-24835428Y-114476571D01*
X-24864000Y-114505142D01*
X-24892571Y-114519428D01*
X-24464000Y-114433714D02*
X-24521142Y-114433714D01*
X-24549714Y-114448000D01*
X-24564000Y-114462285D01*
X-24592571Y-114505142D01*
X-24606857Y-114562285D01*
X-24606857Y-114676571D01*
X-24592571Y-114705142D01*
X-24578285Y-114719428D01*
X-24549714Y-114733714D01*
X-24492571Y-114733714D01*
X-24464000Y-114719428D01*
X-24449714Y-114705142D01*
X-24435428Y-114676571D01*
X-24435428Y-114605142D01*
X-24449714Y-114576571D01*
X-24464000Y-114562285D01*
X-24492571Y-114548000D01*
X-24549714Y-114548000D01*
X-24578285Y-114562285D01*
X-24592571Y-114576571D01*
X-24606857Y-114605142D01*
X-22184285Y-75605000D02*
X-21970000Y-75605000D01*
X-21927142Y-75619285D01*
X-21898571Y-75647857D01*
X-21884285Y-75690714D01*
X-21884285Y-75719285D01*
X-21884285Y-75462142D02*
X-22184285Y-75462142D01*
X-22184285Y-75347857D01*
X-22170000Y-75319285D01*
X-22155714Y-75305000D01*
X-22127142Y-75290714D01*
X-22084285Y-75290714D01*
X-22055714Y-75305000D01*
X-22041428Y-75319285D01*
X-22027142Y-75347857D01*
X-22027142Y-75462142D01*
X-21884285Y-75005000D02*
X-21884285Y-75176428D01*
X-21884285Y-75090714D02*
X-22184285Y-75090714D01*
X-22141428Y-75119285D01*
X-22112857Y-75147857D01*
X-22098571Y-75176428D01*
X-10101857Y-68928000D02*
X-10087571Y-68942285D01*
X-10073285Y-68985142D01*
X-10073285Y-69013714D01*
X-10087571Y-69056571D01*
X-10116142Y-69085142D01*
X-10144714Y-69099428D01*
X-10201857Y-69113714D01*
X-10244714Y-69113714D01*
X-10301857Y-69099428D01*
X-10330428Y-69085142D01*
X-10359000Y-69056571D01*
X-10373285Y-69013714D01*
X-10373285Y-68985142D01*
X-10359000Y-68942285D01*
X-10344714Y-68928000D01*
X-10273285Y-68670857D02*
X-10073285Y-68670857D01*
X-10387571Y-68742285D02*
X-10173285Y-68813714D01*
X-10173285Y-68628000D01*
X-29868571Y-84715714D02*
X-29868571Y-84958571D01*
X-29854285Y-84987142D01*
X-29840000Y-85001428D01*
X-29811428Y-85015714D01*
X-29754285Y-85015714D01*
X-29725714Y-85001428D01*
X-29711428Y-84987142D01*
X-29697142Y-84958571D01*
X-29697142Y-84715714D01*
X-29425714Y-84815714D02*
X-29425714Y-85015714D01*
X-29497142Y-84701428D02*
X-29568571Y-84915714D01*
X-29382857Y-84915714D01*
X-13784857Y-71595000D02*
X-13770571Y-71609285D01*
X-13756285Y-71652142D01*
X-13756285Y-71680714D01*
X-13770571Y-71723571D01*
X-13799142Y-71752142D01*
X-13827714Y-71766428D01*
X-13884857Y-71780714D01*
X-13927714Y-71780714D01*
X-13984857Y-71766428D01*
X-14013428Y-71752142D01*
X-14042000Y-71723571D01*
X-14056285Y-71680714D01*
X-14056285Y-71652142D01*
X-14042000Y-71609285D01*
X-14027714Y-71595000D01*
X-13756285Y-71309285D02*
X-13756285Y-71480714D01*
X-13756285Y-71395000D02*
X-14056285Y-71395000D01*
X-14013428Y-71423571D01*
X-13984857Y-71452142D01*
X-13970571Y-71480714D01*
X-35628857Y-75278000D02*
X-35614571Y-75292285D01*
X-35600285Y-75335142D01*
X-35600285Y-75363714D01*
X-35614571Y-75406571D01*
X-35643142Y-75435142D01*
X-35671714Y-75449428D01*
X-35728857Y-75463714D01*
X-35771714Y-75463714D01*
X-35828857Y-75449428D01*
X-35857428Y-75435142D01*
X-35886000Y-75406571D01*
X-35900285Y-75363714D01*
X-35900285Y-75335142D01*
X-35886000Y-75292285D01*
X-35871714Y-75278000D01*
X-35900285Y-75006571D02*
X-35900285Y-75149428D01*
X-35757428Y-75163714D01*
X-35771714Y-75149428D01*
X-35786000Y-75120857D01*
X-35786000Y-75049428D01*
X-35771714Y-75020857D01*
X-35757428Y-75006571D01*
X-35728857Y-74992285D01*
X-35657428Y-74992285D01*
X-35628857Y-75006571D01*
X-35614571Y-75020857D01*
X-35600285Y-75049428D01*
X-35600285Y-75120857D01*
X-35614571Y-75149428D01*
X-35628857Y-75163714D01*
X-13784857Y-73754000D02*
X-13770571Y-73768285D01*
X-13756285Y-73811142D01*
X-13756285Y-73839714D01*
X-13770571Y-73882571D01*
X-13799142Y-73911142D01*
X-13827714Y-73925428D01*
X-13884857Y-73939714D01*
X-13927714Y-73939714D01*
X-13984857Y-73925428D01*
X-14013428Y-73911142D01*
X-14042000Y-73882571D01*
X-14056285Y-73839714D01*
X-14056285Y-73811142D01*
X-14042000Y-73768285D01*
X-14027714Y-73754000D01*
X-14027714Y-73639714D02*
X-14042000Y-73625428D01*
X-14056285Y-73596857D01*
X-14056285Y-73525428D01*
X-14042000Y-73496857D01*
X-14027714Y-73482571D01*
X-13999142Y-73468285D01*
X-13970571Y-73468285D01*
X-13927714Y-73482571D01*
X-13756285Y-73654000D01*
X-13756285Y-73468285D01*
X-35628857Y-77564000D02*
X-35614571Y-77578285D01*
X-35600285Y-77621142D01*
X-35600285Y-77649714D01*
X-35614571Y-77692571D01*
X-35643142Y-77721142D01*
X-35671714Y-77735428D01*
X-35728857Y-77749714D01*
X-35771714Y-77749714D01*
X-35828857Y-77735428D01*
X-35857428Y-77721142D01*
X-35886000Y-77692571D01*
X-35900285Y-77649714D01*
X-35900285Y-77621142D01*
X-35886000Y-77578285D01*
X-35871714Y-77564000D01*
X-35900285Y-77306857D02*
X-35900285Y-77364000D01*
X-35886000Y-77392571D01*
X-35871714Y-77406857D01*
X-35828857Y-77435428D01*
X-35771714Y-77449714D01*
X-35657428Y-77449714D01*
X-35628857Y-77435428D01*
X-35614571Y-77421142D01*
X-35600285Y-77392571D01*
X-35600285Y-77335428D01*
X-35614571Y-77306857D01*
X-35628857Y-77292571D01*
X-35657428Y-77278285D01*
X-35728857Y-77278285D01*
X-35757428Y-77292571D01*
X-35771714Y-77306857D01*
X-35786000Y-77335428D01*
X-35786000Y-77392571D01*
X-35771714Y-77421142D01*
X-35757428Y-77435428D01*
X-35728857Y-77449714D01*
X-14038857Y-76040000D02*
X-14024571Y-76054285D01*
X-14010285Y-76097142D01*
X-14010285Y-76125714D01*
X-14024571Y-76168571D01*
X-14053142Y-76197142D01*
X-14081714Y-76211428D01*
X-14138857Y-76225714D01*
X-14181714Y-76225714D01*
X-14238857Y-76211428D01*
X-14267428Y-76197142D01*
X-14296000Y-76168571D01*
X-14310285Y-76125714D01*
X-14310285Y-76097142D01*
X-14296000Y-76054285D01*
X-14281714Y-76040000D01*
X-14310285Y-75940000D02*
X-14310285Y-75754285D01*
X-14196000Y-75854285D01*
X-14196000Y-75811428D01*
X-14181714Y-75782857D01*
X-14167428Y-75768571D01*
X-14138857Y-75754285D01*
X-14067428Y-75754285D01*
X-14038857Y-75768571D01*
X-14024571Y-75782857D01*
X-14010285Y-75811428D01*
X-14010285Y-75897142D01*
X-14024571Y-75925714D01*
X-14038857Y-75940000D01*
X-14010285Y-84720428D02*
X-14310285Y-84720428D01*
X-14310285Y-84649000D01*
X-14296000Y-84606142D01*
X-14267428Y-84577571D01*
X-14238857Y-84563285D01*
X-14181714Y-84549000D01*
X-14138857Y-84549000D01*
X-14081714Y-84563285D01*
X-14053142Y-84577571D01*
X-14024571Y-84606142D01*
X-14010285Y-84649000D01*
X-14010285Y-84720428D01*
X-14010285Y-84263285D02*
X-14010285Y-84434714D01*
X-14010285Y-84349000D02*
X-14310285Y-84349000D01*
X-14267428Y-84377571D01*
X-14238857Y-84406142D01*
X-14224571Y-84434714D01*
X-16296285Y-70572628D02*
X-16596285Y-70572628D01*
X-16596285Y-70501200D01*
X-16582000Y-70458342D01*
X-16553428Y-70429771D01*
X-16524857Y-70415485D01*
X-16467714Y-70401200D01*
X-16424857Y-70401200D01*
X-16367714Y-70415485D01*
X-16339142Y-70429771D01*
X-16310571Y-70458342D01*
X-16296285Y-70501200D01*
X-16296285Y-70572628D01*
X-16567714Y-70286914D02*
X-16582000Y-70272628D01*
X-16596285Y-70244057D01*
X-16596285Y-70172628D01*
X-16582000Y-70144057D01*
X-16567714Y-70129771D01*
X-16539142Y-70115485D01*
X-16510571Y-70115485D01*
X-16467714Y-70129771D01*
X-16296285Y-70301200D01*
X-16296285Y-70115485D01*
X-29377285Y-69861428D02*
X-29677285Y-69861428D01*
X-29677285Y-69790000D01*
X-29663000Y-69747142D01*
X-29634428Y-69718571D01*
X-29605857Y-69704285D01*
X-29548714Y-69690000D01*
X-29505857Y-69690000D01*
X-29448714Y-69704285D01*
X-29420142Y-69718571D01*
X-29391571Y-69747142D01*
X-29377285Y-69790000D01*
X-29377285Y-69861428D01*
X-29677285Y-69590000D02*
X-29677285Y-69404285D01*
X-29563000Y-69504285D01*
X-29563000Y-69461428D01*
X-29548714Y-69432857D01*
X-29534428Y-69418571D01*
X-29505857Y-69404285D01*
X-29434428Y-69404285D01*
X-29405857Y-69418571D01*
X-29391571Y-69432857D01*
X-29377285Y-69461428D01*
X-29377285Y-69547142D01*
X-29391571Y-69575714D01*
X-29405857Y-69590000D01*
X-29504285Y-72274428D02*
X-29804285Y-72274428D01*
X-29804285Y-72203000D01*
X-29790000Y-72160142D01*
X-29761428Y-72131571D01*
X-29732857Y-72117285D01*
X-29675714Y-72103000D01*
X-29632857Y-72103000D01*
X-29575714Y-72117285D01*
X-29547142Y-72131571D01*
X-29518571Y-72160142D01*
X-29504285Y-72203000D01*
X-29504285Y-72274428D01*
X-29804285Y-71831571D02*
X-29804285Y-71974428D01*
X-29661428Y-71988714D01*
X-29675714Y-71974428D01*
X-29690000Y-71945857D01*
X-29690000Y-71874428D01*
X-29675714Y-71845857D01*
X-29661428Y-71831571D01*
X-29632857Y-71817285D01*
X-29561428Y-71817285D01*
X-29532857Y-71831571D01*
X-29518571Y-71845857D01*
X-29504285Y-71874428D01*
X-29504285Y-71945857D01*
X-29518571Y-71974428D01*
X-29532857Y-71988714D01*
X-39410285Y-72655428D02*
X-39710285Y-72655428D01*
X-39710285Y-72584000D01*
X-39696000Y-72541142D01*
X-39667428Y-72512571D01*
X-39638857Y-72498285D01*
X-39581714Y-72484000D01*
X-39538857Y-72484000D01*
X-39481714Y-72498285D01*
X-39453142Y-72512571D01*
X-39424571Y-72541142D01*
X-39410285Y-72584000D01*
X-39410285Y-72655428D01*
X-39610285Y-72226857D02*
X-39410285Y-72226857D01*
X-39724571Y-72298285D02*
X-39510285Y-72369714D01*
X-39510285Y-72184000D01*
X-40837428Y-69740000D02*
X-40837428Y-69840000D01*
X-40680285Y-69840000D02*
X-40980285Y-69840000D01*
X-40980285Y-69697142D01*
X-40680285Y-69425714D02*
X-40680285Y-69597142D01*
X-40680285Y-69511428D02*
X-40980285Y-69511428D01*
X-40937428Y-69540000D01*
X-40908857Y-69568571D01*
X-40894571Y-69597142D01*
X-50759285Y-66946000D02*
X-50545000Y-66946000D01*
X-50502142Y-66960285D01*
X-50473571Y-66988857D01*
X-50459285Y-67031714D01*
X-50459285Y-67060285D01*
X-50459285Y-66646000D02*
X-50459285Y-66817428D01*
X-50459285Y-66731714D02*
X-50759285Y-66731714D01*
X-50716428Y-66760285D01*
X-50687857Y-66788857D01*
X-50673571Y-66817428D01*
X-10690000Y-88271714D02*
X-10690000Y-88486000D01*
X-10704285Y-88528857D01*
X-10732857Y-88557428D01*
X-10775714Y-88571714D01*
X-10804285Y-88571714D01*
X-10418571Y-88271714D02*
X-10475714Y-88271714D01*
X-10504285Y-88286000D01*
X-10518571Y-88300285D01*
X-10547142Y-88343142D01*
X-10561428Y-88400285D01*
X-10561428Y-88514571D01*
X-10547142Y-88543142D01*
X-10532857Y-88557428D01*
X-10504285Y-88571714D01*
X-10447142Y-88571714D01*
X-10418571Y-88557428D01*
X-10404285Y-88543142D01*
X-10390000Y-88514571D01*
X-10390000Y-88443142D01*
X-10404285Y-88414571D01*
X-10418571Y-88400285D01*
X-10447142Y-88386000D01*
X-10504285Y-88386000D01*
X-10532857Y-88400285D01*
X-10547142Y-88414571D01*
X-10561428Y-88443142D01*
X-54823285Y-114952000D02*
X-54609000Y-114952000D01*
X-54566142Y-114966285D01*
X-54537571Y-114994857D01*
X-54523285Y-115037714D01*
X-54523285Y-115066285D01*
X-54694714Y-114766285D02*
X-54709000Y-114794857D01*
X-54723285Y-114809142D01*
X-54751857Y-114823428D01*
X-54766142Y-114823428D01*
X-54794714Y-114809142D01*
X-54809000Y-114794857D01*
X-54823285Y-114766285D01*
X-54823285Y-114709142D01*
X-54809000Y-114680571D01*
X-54794714Y-114666285D01*
X-54766142Y-114652000D01*
X-54751857Y-114652000D01*
X-54723285Y-114666285D01*
X-54709000Y-114680571D01*
X-54694714Y-114709142D01*
X-54694714Y-114766285D01*
X-54680428Y-114794857D01*
X-54666142Y-114809142D01*
X-54637571Y-114823428D01*
X-54580428Y-114823428D01*
X-54551857Y-114809142D01*
X-54537571Y-114794857D01*
X-54523285Y-114766285D01*
X-54523285Y-114709142D01*
X-54537571Y-114680571D01*
X-54551857Y-114666285D01*
X-54580428Y-114652000D01*
X-54637571Y-114652000D01*
X-54666142Y-114666285D01*
X-54680428Y-114680571D01*
X-54694714Y-114709142D01*
X-15466000Y-80824714D02*
X-15566000Y-80681857D01*
X-15637428Y-80824714D02*
X-15637428Y-80524714D01*
X-15523142Y-80524714D01*
X-15494571Y-80539000D01*
X-15480285Y-80553285D01*
X-15466000Y-80581857D01*
X-15466000Y-80624714D01*
X-15480285Y-80653285D01*
X-15494571Y-80667571D01*
X-15523142Y-80681857D01*
X-15637428Y-80681857D01*
X-15180285Y-80824714D02*
X-15351714Y-80824714D01*
X-15266000Y-80824714D02*
X-15266000Y-80524714D01*
X-15294571Y-80567571D01*
X-15323142Y-80596142D01*
X-15351714Y-80610428D01*
X-15212000Y-75998714D02*
X-15312000Y-75855857D01*
X-15383428Y-75998714D02*
X-15383428Y-75698714D01*
X-15269142Y-75698714D01*
X-15240571Y-75713000D01*
X-15226285Y-75727285D01*
X-15212000Y-75755857D01*
X-15212000Y-75798714D01*
X-15226285Y-75827285D01*
X-15240571Y-75841571D01*
X-15269142Y-75855857D01*
X-15383428Y-75855857D01*
X-15097714Y-75727285D02*
X-15083428Y-75713000D01*
X-15054857Y-75698714D01*
X-14983428Y-75698714D01*
X-14954857Y-75713000D01*
X-14940571Y-75727285D01*
X-14926285Y-75755857D01*
X-14926285Y-75784428D01*
X-14940571Y-75827285D01*
X-15112000Y-75998714D01*
X-14926285Y-75998714D01*
X-22451000Y-84253714D02*
X-22551000Y-84110857D01*
X-22622428Y-84253714D02*
X-22622428Y-83953714D01*
X-22508142Y-83953714D01*
X-22479571Y-83968000D01*
X-22465285Y-83982285D01*
X-22451000Y-84010857D01*
X-22451000Y-84053714D01*
X-22465285Y-84082285D01*
X-22479571Y-84096571D01*
X-22508142Y-84110857D01*
X-22622428Y-84110857D01*
X-22193857Y-84053714D02*
X-22193857Y-84253714D01*
X-22265285Y-83939428D02*
X-22336714Y-84153714D01*
X-22151000Y-84153714D01*
X-24483000Y-84253714D02*
X-24583000Y-84110857D01*
X-24654428Y-84253714D02*
X-24654428Y-83953714D01*
X-24540142Y-83953714D01*
X-24511571Y-83968000D01*
X-24497285Y-83982285D01*
X-24483000Y-84010857D01*
X-24483000Y-84053714D01*
X-24497285Y-84082285D01*
X-24511571Y-84096571D01*
X-24540142Y-84110857D01*
X-24654428Y-84110857D01*
X-24211571Y-83953714D02*
X-24354428Y-83953714D01*
X-24368714Y-84096571D01*
X-24354428Y-84082285D01*
X-24325857Y-84068000D01*
X-24254428Y-84068000D01*
X-24225857Y-84082285D01*
X-24211571Y-84096571D01*
X-24197285Y-84125142D01*
X-24197285Y-84196571D01*
X-24211571Y-84225142D01*
X-24225857Y-84239428D01*
X-24254428Y-84253714D01*
X-24325857Y-84253714D01*
X-24354428Y-84239428D01*
X-24368714Y-84225142D01*
X-20546000Y-76633714D02*
X-20646000Y-76490857D01*
X-20717428Y-76633714D02*
X-20717428Y-76333714D01*
X-20603142Y-76333714D01*
X-20574571Y-76348000D01*
X-20560285Y-76362285D01*
X-20546000Y-76390857D01*
X-20546000Y-76433714D01*
X-20560285Y-76462285D01*
X-20574571Y-76476571D01*
X-20603142Y-76490857D01*
X-20717428Y-76490857D01*
X-20374571Y-76462285D02*
X-20403142Y-76448000D01*
X-20417428Y-76433714D01*
X-20431714Y-76405142D01*
X-20431714Y-76390857D01*
X-20417428Y-76362285D01*
X-20403142Y-76348000D01*
X-20374571Y-76333714D01*
X-20317428Y-76333714D01*
X-20288857Y-76348000D01*
X-20274571Y-76362285D01*
X-20260285Y-76390857D01*
X-20260285Y-76405142D01*
X-20274571Y-76433714D01*
X-20288857Y-76448000D01*
X-20317428Y-76462285D01*
X-20374571Y-76462285D01*
X-20403142Y-76476571D01*
X-20417428Y-76490857D01*
X-20431714Y-76519428D01*
X-20431714Y-76576571D01*
X-20417428Y-76605142D01*
X-20403142Y-76619428D01*
X-20374571Y-76633714D01*
X-20317428Y-76633714D01*
X-20288857Y-76619428D01*
X-20274571Y-76605142D01*
X-20260285Y-76576571D01*
X-20260285Y-76519428D01*
X-20274571Y-76490857D01*
X-20288857Y-76476571D01*
X-20317428Y-76462285D01*
D15*
X-32193904Y-96978714D02*
X-32312952Y-97062047D01*
X-32193904Y-97121571D02*
X-32443904Y-97121571D01*
X-32443904Y-97026333D01*
X-32432000Y-97002523D01*
X-32420095Y-96990619D01*
X-32396285Y-96978714D01*
X-32360571Y-96978714D01*
X-32336761Y-96990619D01*
X-32324857Y-97002523D01*
X-32312952Y-97026333D01*
X-32312952Y-97121571D01*
X-32193904Y-96740619D02*
X-32193904Y-96883476D01*
X-32193904Y-96812047D02*
X-32443904Y-96812047D01*
X-32408190Y-96835857D01*
X-32384380Y-96859666D01*
X-32372476Y-96883476D01*
X-32193904Y-96621571D02*
X-32193904Y-96573952D01*
X-32205809Y-96550142D01*
X-32217714Y-96538238D01*
X-32253428Y-96514428D01*
X-32301047Y-96502523D01*
X-32396285Y-96502523D01*
X-32420095Y-96514428D01*
X-32432000Y-96526333D01*
X-32443904Y-96550142D01*
X-32443904Y-96597761D01*
X-32432000Y-96621571D01*
X-32420095Y-96633476D01*
X-32396285Y-96645380D01*
X-32336761Y-96645380D01*
X-32312952Y-96633476D01*
X-32301047Y-96621571D01*
X-32289142Y-96597761D01*
X-32289142Y-96550142D01*
X-32301047Y-96526333D01*
X-32312952Y-96514428D01*
X-32336761Y-96502523D01*
D10*
X-43129809Y-93940619D02*
X-43367904Y-94107285D01*
X-43129809Y-94226333D02*
X-43629809Y-94226333D01*
X-43629809Y-94035857D01*
X-43606000Y-93988238D01*
X-43582190Y-93964428D01*
X-43534571Y-93940619D01*
X-43463142Y-93940619D01*
X-43415523Y-93964428D01*
X-43391714Y-93988238D01*
X-43367904Y-94035857D01*
X-43367904Y-94226333D01*
X-43629809Y-93797761D02*
X-43129809Y-93631095D01*
X-43629809Y-93464428D01*
X-43129809Y-93035857D02*
X-43129809Y-93321571D01*
X-43129809Y-93178714D02*
X-43629809Y-93178714D01*
X-43558380Y-93226333D01*
X-43510761Y-93273952D01*
X-43486952Y-93321571D01*
D14*
X-22565285Y-85639571D02*
X-22565285Y-85468142D01*
X-22265285Y-85553857D02*
X-22565285Y-85553857D01*
X-22265285Y-85368142D02*
X-22565285Y-85368142D01*
X-22565285Y-85253857D01*
X-22551000Y-85225285D01*
X-22536714Y-85211000D01*
X-22508142Y-85196714D01*
X-22465285Y-85196714D01*
X-22436714Y-85211000D01*
X-22422428Y-85225285D01*
X-22408142Y-85253857D01*
X-22408142Y-85368142D01*
X-22265285Y-84911000D02*
X-22265285Y-85082428D01*
X-22265285Y-84996714D02*
X-22565285Y-84996714D01*
X-22522428Y-85025285D01*
X-22493857Y-85053857D01*
X-22479571Y-85082428D01*
D10*
X-49070952Y-74065190D02*
X-49070952Y-74469952D01*
X-49047142Y-74517571D01*
X-49023333Y-74541380D01*
X-48975714Y-74565190D01*
X-48880476Y-74565190D01*
X-48832857Y-74541380D01*
X-48809047Y-74517571D01*
X-48785238Y-74469952D01*
X-48785238Y-74065190D01*
X-48285238Y-74565190D02*
X-48570952Y-74565190D01*
X-48428095Y-74565190D02*
X-48428095Y-74065190D01*
X-48475714Y-74136619D01*
X-48523333Y-74184238D01*
X-48570952Y-74208047D01*
D14*
X-37361571Y-79635714D02*
X-37361571Y-79878571D01*
X-37347285Y-79907142D01*
X-37333000Y-79921428D01*
X-37304428Y-79935714D01*
X-37247285Y-79935714D01*
X-37218714Y-79921428D01*
X-37204428Y-79907142D01*
X-37190142Y-79878571D01*
X-37190142Y-79635714D01*
X-37061571Y-79664285D02*
X-37047285Y-79650000D01*
X-37018714Y-79635714D01*
X-36947285Y-79635714D01*
X-36918714Y-79650000D01*
X-36904428Y-79664285D01*
X-36890142Y-79692857D01*
X-36890142Y-79721428D01*
X-36904428Y-79764285D01*
X-37075857Y-79935714D01*
X-36890142Y-79935714D01*
X-34694571Y-98177714D02*
X-34694571Y-98420571D01*
X-34680285Y-98449142D01*
X-34666000Y-98463428D01*
X-34637428Y-98477714D01*
X-34580285Y-98477714D01*
X-34551714Y-98463428D01*
X-34537428Y-98449142D01*
X-34523142Y-98420571D01*
X-34523142Y-98177714D01*
X-34251714Y-98177714D02*
X-34308857Y-98177714D01*
X-34337428Y-98192000D01*
X-34351714Y-98206285D01*
X-34380285Y-98249142D01*
X-34394571Y-98306285D01*
X-34394571Y-98420571D01*
X-34380285Y-98449142D01*
X-34366000Y-98463428D01*
X-34337428Y-98477714D01*
X-34280285Y-98477714D01*
X-34251714Y-98463428D01*
X-34237428Y-98449142D01*
X-34223142Y-98420571D01*
X-34223142Y-98349142D01*
X-34237428Y-98320571D01*
X-34251714Y-98306285D01*
X-34280285Y-98292000D01*
X-34337428Y-98292000D01*
X-34366000Y-98306285D01*
X-34380285Y-98320571D01*
X-34394571Y-98349142D01*
X-24534571Y-85604714D02*
X-24534571Y-85847571D01*
X-24520285Y-85876142D01*
X-24506000Y-85890428D01*
X-24477428Y-85904714D01*
X-24420285Y-85904714D01*
X-24391714Y-85890428D01*
X-24377428Y-85876142D01*
X-24363142Y-85847571D01*
X-24363142Y-85604714D01*
X-24248857Y-85604714D02*
X-24063142Y-85604714D01*
X-24163142Y-85719000D01*
X-24120285Y-85719000D01*
X-24091714Y-85733285D01*
X-24077428Y-85747571D01*
X-24063142Y-85776142D01*
X-24063142Y-85847571D01*
X-24077428Y-85876142D01*
X-24091714Y-85890428D01*
X-24120285Y-85904714D01*
X-24206000Y-85904714D01*
X-24234571Y-85890428D01*
X-24248857Y-85876142D01*
X-34745371Y-85604714D02*
X-34745371Y-85847571D01*
X-34731085Y-85876142D01*
X-34716800Y-85890428D01*
X-34688228Y-85904714D01*
X-34631085Y-85904714D01*
X-34602514Y-85890428D01*
X-34588228Y-85876142D01*
X-34573942Y-85847571D01*
X-34573942Y-85604714D01*
X-34288228Y-85604714D02*
X-34431085Y-85604714D01*
X-34445371Y-85747571D01*
X-34431085Y-85733285D01*
X-34402514Y-85719000D01*
X-34331085Y-85719000D01*
X-34302514Y-85733285D01*
X-34288228Y-85747571D01*
X-34273942Y-85776142D01*
X-34273942Y-85847571D01*
X-34288228Y-85876142D01*
X-34302514Y-85890428D01*
X-34331085Y-85904714D01*
X-34402514Y-85904714D01*
X-34431085Y-85890428D01*
X-34445371Y-85876142D01*
M02*
