G04 #@! TF.GenerationSoftware,KiCad,Pcbnew,(5.1.0)-1*
G04 #@! TF.CreationDate,2019-05-22T15:11:18+05:30*
G04 #@! TF.ProjectId,Console,436f6e73-6f6c-4652-9e6b-696361645f70,2.0.1*
G04 #@! TF.SameCoordinates,Original*
G04 #@! TF.FileFunction,Paste,Top*
G04 #@! TF.FilePolarity,Positive*
%FSLAX46Y46*%
G04 Gerber Fmt 4.6, Leading zero omitted, Abs format (unit mm)*
G04 Created by KiCad (PCBNEW (5.1.0)-1) date 2019-05-22 15:11:18*
%MOMM*%
%LPD*%
G04 APERTURE LIST*
%ADD10R,2.750000X3.050000*%
%ADD11R,1.200000X2.200000*%
%ADD12C,0.100000*%
%ADD13C,0.975000*%
%ADD14R,1.100000X0.400000*%
%ADD15C,1.250000*%
%ADD16R,2.200000X1.200000*%
%ADD17R,3.050000X2.750000*%
%ADD18R,0.350000X0.600000*%
%ADD19R,0.600000X0.350000*%
%ADD20R,0.600000X2.000000*%
%ADD21R,1.750000X0.450000*%
G04 APERTURE END LIST*
D10*
X-5305800Y-74058200D03*
X-8355800Y-70708200D03*
X-8355800Y-74058200D03*
X-5305800Y-70708200D03*
D11*
X-4550800Y-78683200D03*
X-6830800Y-78683200D03*
X-9110800Y-78683200D03*
D12*
G36*
X-26315058Y-111114474D02*
G01*
X-26291397Y-111117984D01*
X-26268193Y-111123796D01*
X-26245671Y-111131854D01*
X-26224047Y-111142082D01*
X-26203530Y-111154379D01*
X-26184317Y-111168629D01*
X-26166593Y-111184693D01*
X-26150529Y-111202417D01*
X-26136279Y-111221630D01*
X-26123982Y-111242147D01*
X-26113754Y-111263771D01*
X-26105696Y-111286293D01*
X-26099884Y-111309497D01*
X-26096374Y-111333158D01*
X-26095200Y-111357050D01*
X-26095200Y-111844550D01*
X-26096374Y-111868442D01*
X-26099884Y-111892103D01*
X-26105696Y-111915307D01*
X-26113754Y-111937829D01*
X-26123982Y-111959453D01*
X-26136279Y-111979970D01*
X-26150529Y-111999183D01*
X-26166593Y-112016907D01*
X-26184317Y-112032971D01*
X-26203530Y-112047221D01*
X-26224047Y-112059518D01*
X-26245671Y-112069746D01*
X-26268193Y-112077804D01*
X-26291397Y-112083616D01*
X-26315058Y-112087126D01*
X-26338950Y-112088300D01*
X-27251450Y-112088300D01*
X-27275342Y-112087126D01*
X-27299003Y-112083616D01*
X-27322207Y-112077804D01*
X-27344729Y-112069746D01*
X-27366353Y-112059518D01*
X-27386870Y-112047221D01*
X-27406083Y-112032971D01*
X-27423807Y-112016907D01*
X-27439871Y-111999183D01*
X-27454121Y-111979970D01*
X-27466418Y-111959453D01*
X-27476646Y-111937829D01*
X-27484704Y-111915307D01*
X-27490516Y-111892103D01*
X-27494026Y-111868442D01*
X-27495200Y-111844550D01*
X-27495200Y-111357050D01*
X-27494026Y-111333158D01*
X-27490516Y-111309497D01*
X-27484704Y-111286293D01*
X-27476646Y-111263771D01*
X-27466418Y-111242147D01*
X-27454121Y-111221630D01*
X-27439871Y-111202417D01*
X-27423807Y-111184693D01*
X-27406083Y-111168629D01*
X-27386870Y-111154379D01*
X-27366353Y-111142082D01*
X-27344729Y-111131854D01*
X-27322207Y-111123796D01*
X-27299003Y-111117984D01*
X-27275342Y-111114474D01*
X-27251450Y-111113300D01*
X-26338950Y-111113300D01*
X-26315058Y-111114474D01*
X-26315058Y-111114474D01*
G37*
D13*
X-26795200Y-111600800D03*
D12*
G36*
X-26315058Y-112989474D02*
G01*
X-26291397Y-112992984D01*
X-26268193Y-112998796D01*
X-26245671Y-113006854D01*
X-26224047Y-113017082D01*
X-26203530Y-113029379D01*
X-26184317Y-113043629D01*
X-26166593Y-113059693D01*
X-26150529Y-113077417D01*
X-26136279Y-113096630D01*
X-26123982Y-113117147D01*
X-26113754Y-113138771D01*
X-26105696Y-113161293D01*
X-26099884Y-113184497D01*
X-26096374Y-113208158D01*
X-26095200Y-113232050D01*
X-26095200Y-113719550D01*
X-26096374Y-113743442D01*
X-26099884Y-113767103D01*
X-26105696Y-113790307D01*
X-26113754Y-113812829D01*
X-26123982Y-113834453D01*
X-26136279Y-113854970D01*
X-26150529Y-113874183D01*
X-26166593Y-113891907D01*
X-26184317Y-113907971D01*
X-26203530Y-113922221D01*
X-26224047Y-113934518D01*
X-26245671Y-113944746D01*
X-26268193Y-113952804D01*
X-26291397Y-113958616D01*
X-26315058Y-113962126D01*
X-26338950Y-113963300D01*
X-27251450Y-113963300D01*
X-27275342Y-113962126D01*
X-27299003Y-113958616D01*
X-27322207Y-113952804D01*
X-27344729Y-113944746D01*
X-27366353Y-113934518D01*
X-27386870Y-113922221D01*
X-27406083Y-113907971D01*
X-27423807Y-113891907D01*
X-27439871Y-113874183D01*
X-27454121Y-113854970D01*
X-27466418Y-113834453D01*
X-27476646Y-113812829D01*
X-27484704Y-113790307D01*
X-27490516Y-113767103D01*
X-27494026Y-113743442D01*
X-27495200Y-113719550D01*
X-27495200Y-113232050D01*
X-27494026Y-113208158D01*
X-27490516Y-113184497D01*
X-27484704Y-113161293D01*
X-27476646Y-113138771D01*
X-27466418Y-113117147D01*
X-27454121Y-113096630D01*
X-27439871Y-113077417D01*
X-27423807Y-113059693D01*
X-27406083Y-113043629D01*
X-27386870Y-113029379D01*
X-27366353Y-113017082D01*
X-27344729Y-113006854D01*
X-27322207Y-112998796D01*
X-27299003Y-112992984D01*
X-27275342Y-112989474D01*
X-27251450Y-112988300D01*
X-26338950Y-112988300D01*
X-26315058Y-112989474D01*
X-26315058Y-112989474D01*
G37*
D13*
X-26795200Y-113475800D03*
D12*
G36*
X-11010458Y-77119974D02*
G01*
X-10986797Y-77123484D01*
X-10963593Y-77129296D01*
X-10941071Y-77137354D01*
X-10919447Y-77147582D01*
X-10898930Y-77159879D01*
X-10879717Y-77174129D01*
X-10861993Y-77190193D01*
X-10845929Y-77207917D01*
X-10831679Y-77227130D01*
X-10819382Y-77247647D01*
X-10809154Y-77269271D01*
X-10801096Y-77291793D01*
X-10795284Y-77314997D01*
X-10791774Y-77338658D01*
X-10790600Y-77362550D01*
X-10790600Y-78275050D01*
X-10791774Y-78298942D01*
X-10795284Y-78322603D01*
X-10801096Y-78345807D01*
X-10809154Y-78368329D01*
X-10819382Y-78389953D01*
X-10831679Y-78410470D01*
X-10845929Y-78429683D01*
X-10861993Y-78447407D01*
X-10879717Y-78463471D01*
X-10898930Y-78477721D01*
X-10919447Y-78490018D01*
X-10941071Y-78500246D01*
X-10963593Y-78508304D01*
X-10986797Y-78514116D01*
X-11010458Y-78517626D01*
X-11034350Y-78518800D01*
X-11521850Y-78518800D01*
X-11545742Y-78517626D01*
X-11569403Y-78514116D01*
X-11592607Y-78508304D01*
X-11615129Y-78500246D01*
X-11636753Y-78490018D01*
X-11657270Y-78477721D01*
X-11676483Y-78463471D01*
X-11694207Y-78447407D01*
X-11710271Y-78429683D01*
X-11724521Y-78410470D01*
X-11736818Y-78389953D01*
X-11747046Y-78368329D01*
X-11755104Y-78345807D01*
X-11760916Y-78322603D01*
X-11764426Y-78298942D01*
X-11765600Y-78275050D01*
X-11765600Y-77362550D01*
X-11764426Y-77338658D01*
X-11760916Y-77314997D01*
X-11755104Y-77291793D01*
X-11747046Y-77269271D01*
X-11736818Y-77247647D01*
X-11724521Y-77227130D01*
X-11710271Y-77207917D01*
X-11694207Y-77190193D01*
X-11676483Y-77174129D01*
X-11657270Y-77159879D01*
X-11636753Y-77147582D01*
X-11615129Y-77137354D01*
X-11592607Y-77129296D01*
X-11569403Y-77123484D01*
X-11545742Y-77119974D01*
X-11521850Y-77118800D01*
X-11034350Y-77118800D01*
X-11010458Y-77119974D01*
X-11010458Y-77119974D01*
G37*
D13*
X-11278100Y-77818800D03*
D12*
G36*
X-12885458Y-77119974D02*
G01*
X-12861797Y-77123484D01*
X-12838593Y-77129296D01*
X-12816071Y-77137354D01*
X-12794447Y-77147582D01*
X-12773930Y-77159879D01*
X-12754717Y-77174129D01*
X-12736993Y-77190193D01*
X-12720929Y-77207917D01*
X-12706679Y-77227130D01*
X-12694382Y-77247647D01*
X-12684154Y-77269271D01*
X-12676096Y-77291793D01*
X-12670284Y-77314997D01*
X-12666774Y-77338658D01*
X-12665600Y-77362550D01*
X-12665600Y-78275050D01*
X-12666774Y-78298942D01*
X-12670284Y-78322603D01*
X-12676096Y-78345807D01*
X-12684154Y-78368329D01*
X-12694382Y-78389953D01*
X-12706679Y-78410470D01*
X-12720929Y-78429683D01*
X-12736993Y-78447407D01*
X-12754717Y-78463471D01*
X-12773930Y-78477721D01*
X-12794447Y-78490018D01*
X-12816071Y-78500246D01*
X-12838593Y-78508304D01*
X-12861797Y-78514116D01*
X-12885458Y-78517626D01*
X-12909350Y-78518800D01*
X-13396850Y-78518800D01*
X-13420742Y-78517626D01*
X-13444403Y-78514116D01*
X-13467607Y-78508304D01*
X-13490129Y-78500246D01*
X-13511753Y-78490018D01*
X-13532270Y-78477721D01*
X-13551483Y-78463471D01*
X-13569207Y-78447407D01*
X-13585271Y-78429683D01*
X-13599521Y-78410470D01*
X-13611818Y-78389953D01*
X-13622046Y-78368329D01*
X-13630104Y-78345807D01*
X-13635916Y-78322603D01*
X-13639426Y-78298942D01*
X-13640600Y-78275050D01*
X-13640600Y-77362550D01*
X-13639426Y-77338658D01*
X-13635916Y-77314997D01*
X-13630104Y-77291793D01*
X-13622046Y-77269271D01*
X-13611818Y-77247647D01*
X-13599521Y-77227130D01*
X-13585271Y-77207917D01*
X-13569207Y-77190193D01*
X-13551483Y-77174129D01*
X-13532270Y-77159879D01*
X-13511753Y-77147582D01*
X-13490129Y-77137354D01*
X-13467607Y-77129296D01*
X-13444403Y-77123484D01*
X-13420742Y-77119974D01*
X-13396850Y-77118800D01*
X-12909350Y-77118800D01*
X-12885458Y-77119974D01*
X-12885458Y-77119974D01*
G37*
D13*
X-13153100Y-77818800D03*
D12*
G36*
X-20523858Y-111165274D02*
G01*
X-20500197Y-111168784D01*
X-20476993Y-111174596D01*
X-20454471Y-111182654D01*
X-20432847Y-111192882D01*
X-20412330Y-111205179D01*
X-20393117Y-111219429D01*
X-20375393Y-111235493D01*
X-20359329Y-111253217D01*
X-20345079Y-111272430D01*
X-20332782Y-111292947D01*
X-20322554Y-111314571D01*
X-20314496Y-111337093D01*
X-20308684Y-111360297D01*
X-20305174Y-111383958D01*
X-20304000Y-111407850D01*
X-20304000Y-111895350D01*
X-20305174Y-111919242D01*
X-20308684Y-111942903D01*
X-20314496Y-111966107D01*
X-20322554Y-111988629D01*
X-20332782Y-112010253D01*
X-20345079Y-112030770D01*
X-20359329Y-112049983D01*
X-20375393Y-112067707D01*
X-20393117Y-112083771D01*
X-20412330Y-112098021D01*
X-20432847Y-112110318D01*
X-20454471Y-112120546D01*
X-20476993Y-112128604D01*
X-20500197Y-112134416D01*
X-20523858Y-112137926D01*
X-20547750Y-112139100D01*
X-21460250Y-112139100D01*
X-21484142Y-112137926D01*
X-21507803Y-112134416D01*
X-21531007Y-112128604D01*
X-21553529Y-112120546D01*
X-21575153Y-112110318D01*
X-21595670Y-112098021D01*
X-21614883Y-112083771D01*
X-21632607Y-112067707D01*
X-21648671Y-112049983D01*
X-21662921Y-112030770D01*
X-21675218Y-112010253D01*
X-21685446Y-111988629D01*
X-21693504Y-111966107D01*
X-21699316Y-111942903D01*
X-21702826Y-111919242D01*
X-21704000Y-111895350D01*
X-21704000Y-111407850D01*
X-21702826Y-111383958D01*
X-21699316Y-111360297D01*
X-21693504Y-111337093D01*
X-21685446Y-111314571D01*
X-21675218Y-111292947D01*
X-21662921Y-111272430D01*
X-21648671Y-111253217D01*
X-21632607Y-111235493D01*
X-21614883Y-111219429D01*
X-21595670Y-111205179D01*
X-21575153Y-111192882D01*
X-21553529Y-111182654D01*
X-21531007Y-111174596D01*
X-21507803Y-111168784D01*
X-21484142Y-111165274D01*
X-21460250Y-111164100D01*
X-20547750Y-111164100D01*
X-20523858Y-111165274D01*
X-20523858Y-111165274D01*
G37*
D13*
X-21004000Y-111651600D03*
D12*
G36*
X-20523858Y-113040274D02*
G01*
X-20500197Y-113043784D01*
X-20476993Y-113049596D01*
X-20454471Y-113057654D01*
X-20432847Y-113067882D01*
X-20412330Y-113080179D01*
X-20393117Y-113094429D01*
X-20375393Y-113110493D01*
X-20359329Y-113128217D01*
X-20345079Y-113147430D01*
X-20332782Y-113167947D01*
X-20322554Y-113189571D01*
X-20314496Y-113212093D01*
X-20308684Y-113235297D01*
X-20305174Y-113258958D01*
X-20304000Y-113282850D01*
X-20304000Y-113770350D01*
X-20305174Y-113794242D01*
X-20308684Y-113817903D01*
X-20314496Y-113841107D01*
X-20322554Y-113863629D01*
X-20332782Y-113885253D01*
X-20345079Y-113905770D01*
X-20359329Y-113924983D01*
X-20375393Y-113942707D01*
X-20393117Y-113958771D01*
X-20412330Y-113973021D01*
X-20432847Y-113985318D01*
X-20454471Y-113995546D01*
X-20476993Y-114003604D01*
X-20500197Y-114009416D01*
X-20523858Y-114012926D01*
X-20547750Y-114014100D01*
X-21460250Y-114014100D01*
X-21484142Y-114012926D01*
X-21507803Y-114009416D01*
X-21531007Y-114003604D01*
X-21553529Y-113995546D01*
X-21575153Y-113985318D01*
X-21595670Y-113973021D01*
X-21614883Y-113958771D01*
X-21632607Y-113942707D01*
X-21648671Y-113924983D01*
X-21662921Y-113905770D01*
X-21675218Y-113885253D01*
X-21685446Y-113863629D01*
X-21693504Y-113841107D01*
X-21699316Y-113817903D01*
X-21702826Y-113794242D01*
X-21704000Y-113770350D01*
X-21704000Y-113282850D01*
X-21702826Y-113258958D01*
X-21699316Y-113235297D01*
X-21693504Y-113212093D01*
X-21685446Y-113189571D01*
X-21675218Y-113167947D01*
X-21662921Y-113147430D01*
X-21648671Y-113128217D01*
X-21632607Y-113110493D01*
X-21614883Y-113094429D01*
X-21595670Y-113080179D01*
X-21575153Y-113067882D01*
X-21553529Y-113057654D01*
X-21531007Y-113049596D01*
X-21507803Y-113043784D01*
X-21484142Y-113040274D01*
X-21460250Y-113039100D01*
X-20547750Y-113039100D01*
X-20523858Y-113040274D01*
X-20523858Y-113040274D01*
G37*
D13*
X-21004000Y-113526600D03*
D12*
G36*
X-10982758Y-81539574D02*
G01*
X-10959097Y-81543084D01*
X-10935893Y-81548896D01*
X-10913371Y-81556954D01*
X-10891747Y-81567182D01*
X-10871230Y-81579479D01*
X-10852017Y-81593729D01*
X-10834293Y-81609793D01*
X-10818229Y-81627517D01*
X-10803979Y-81646730D01*
X-10791682Y-81667247D01*
X-10781454Y-81688871D01*
X-10773396Y-81711393D01*
X-10767584Y-81734597D01*
X-10764074Y-81758258D01*
X-10762900Y-81782150D01*
X-10762900Y-82694650D01*
X-10764074Y-82718542D01*
X-10767584Y-82742203D01*
X-10773396Y-82765407D01*
X-10781454Y-82787929D01*
X-10791682Y-82809553D01*
X-10803979Y-82830070D01*
X-10818229Y-82849283D01*
X-10834293Y-82867007D01*
X-10852017Y-82883071D01*
X-10871230Y-82897321D01*
X-10891747Y-82909618D01*
X-10913371Y-82919846D01*
X-10935893Y-82927904D01*
X-10959097Y-82933716D01*
X-10982758Y-82937226D01*
X-11006650Y-82938400D01*
X-11494150Y-82938400D01*
X-11518042Y-82937226D01*
X-11541703Y-82933716D01*
X-11564907Y-82927904D01*
X-11587429Y-82919846D01*
X-11609053Y-82909618D01*
X-11629570Y-82897321D01*
X-11648783Y-82883071D01*
X-11666507Y-82867007D01*
X-11682571Y-82849283D01*
X-11696821Y-82830070D01*
X-11709118Y-82809553D01*
X-11719346Y-82787929D01*
X-11727404Y-82765407D01*
X-11733216Y-82742203D01*
X-11736726Y-82718542D01*
X-11737900Y-82694650D01*
X-11737900Y-81782150D01*
X-11736726Y-81758258D01*
X-11733216Y-81734597D01*
X-11727404Y-81711393D01*
X-11719346Y-81688871D01*
X-11709118Y-81667247D01*
X-11696821Y-81646730D01*
X-11682571Y-81627517D01*
X-11666507Y-81609793D01*
X-11648783Y-81593729D01*
X-11629570Y-81579479D01*
X-11609053Y-81567182D01*
X-11587429Y-81556954D01*
X-11564907Y-81548896D01*
X-11541703Y-81543084D01*
X-11518042Y-81539574D01*
X-11494150Y-81538400D01*
X-11006650Y-81538400D01*
X-10982758Y-81539574D01*
X-10982758Y-81539574D01*
G37*
D13*
X-11250400Y-82238400D03*
D12*
G36*
X-12857758Y-81539574D02*
G01*
X-12834097Y-81543084D01*
X-12810893Y-81548896D01*
X-12788371Y-81556954D01*
X-12766747Y-81567182D01*
X-12746230Y-81579479D01*
X-12727017Y-81593729D01*
X-12709293Y-81609793D01*
X-12693229Y-81627517D01*
X-12678979Y-81646730D01*
X-12666682Y-81667247D01*
X-12656454Y-81688871D01*
X-12648396Y-81711393D01*
X-12642584Y-81734597D01*
X-12639074Y-81758258D01*
X-12637900Y-81782150D01*
X-12637900Y-82694650D01*
X-12639074Y-82718542D01*
X-12642584Y-82742203D01*
X-12648396Y-82765407D01*
X-12656454Y-82787929D01*
X-12666682Y-82809553D01*
X-12678979Y-82830070D01*
X-12693229Y-82849283D01*
X-12709293Y-82867007D01*
X-12727017Y-82883071D01*
X-12746230Y-82897321D01*
X-12766747Y-82909618D01*
X-12788371Y-82919846D01*
X-12810893Y-82927904D01*
X-12834097Y-82933716D01*
X-12857758Y-82937226D01*
X-12881650Y-82938400D01*
X-13369150Y-82938400D01*
X-13393042Y-82937226D01*
X-13416703Y-82933716D01*
X-13439907Y-82927904D01*
X-13462429Y-82919846D01*
X-13484053Y-82909618D01*
X-13504570Y-82897321D01*
X-13523783Y-82883071D01*
X-13541507Y-82867007D01*
X-13557571Y-82849283D01*
X-13571821Y-82830070D01*
X-13584118Y-82809553D01*
X-13594346Y-82787929D01*
X-13602404Y-82765407D01*
X-13608216Y-82742203D01*
X-13611726Y-82718542D01*
X-13612900Y-82694650D01*
X-13612900Y-81782150D01*
X-13611726Y-81758258D01*
X-13608216Y-81734597D01*
X-13602404Y-81711393D01*
X-13594346Y-81688871D01*
X-13584118Y-81667247D01*
X-13571821Y-81646730D01*
X-13557571Y-81627517D01*
X-13541507Y-81609793D01*
X-13523783Y-81593729D01*
X-13504570Y-81579479D01*
X-13484053Y-81567182D01*
X-13462429Y-81556954D01*
X-13439907Y-81548896D01*
X-13416703Y-81543084D01*
X-13393042Y-81539574D01*
X-13369150Y-81538400D01*
X-12881650Y-81538400D01*
X-12857758Y-81539574D01*
X-12857758Y-81539574D01*
G37*
D13*
X-13125400Y-82238400D03*
D12*
G36*
X-10982758Y-79304374D02*
G01*
X-10959097Y-79307884D01*
X-10935893Y-79313696D01*
X-10913371Y-79321754D01*
X-10891747Y-79331982D01*
X-10871230Y-79344279D01*
X-10852017Y-79358529D01*
X-10834293Y-79374593D01*
X-10818229Y-79392317D01*
X-10803979Y-79411530D01*
X-10791682Y-79432047D01*
X-10781454Y-79453671D01*
X-10773396Y-79476193D01*
X-10767584Y-79499397D01*
X-10764074Y-79523058D01*
X-10762900Y-79546950D01*
X-10762900Y-80459450D01*
X-10764074Y-80483342D01*
X-10767584Y-80507003D01*
X-10773396Y-80530207D01*
X-10781454Y-80552729D01*
X-10791682Y-80574353D01*
X-10803979Y-80594870D01*
X-10818229Y-80614083D01*
X-10834293Y-80631807D01*
X-10852017Y-80647871D01*
X-10871230Y-80662121D01*
X-10891747Y-80674418D01*
X-10913371Y-80684646D01*
X-10935893Y-80692704D01*
X-10959097Y-80698516D01*
X-10982758Y-80702026D01*
X-11006650Y-80703200D01*
X-11494150Y-80703200D01*
X-11518042Y-80702026D01*
X-11541703Y-80698516D01*
X-11564907Y-80692704D01*
X-11587429Y-80684646D01*
X-11609053Y-80674418D01*
X-11629570Y-80662121D01*
X-11648783Y-80647871D01*
X-11666507Y-80631807D01*
X-11682571Y-80614083D01*
X-11696821Y-80594870D01*
X-11709118Y-80574353D01*
X-11719346Y-80552729D01*
X-11727404Y-80530207D01*
X-11733216Y-80507003D01*
X-11736726Y-80483342D01*
X-11737900Y-80459450D01*
X-11737900Y-79546950D01*
X-11736726Y-79523058D01*
X-11733216Y-79499397D01*
X-11727404Y-79476193D01*
X-11719346Y-79453671D01*
X-11709118Y-79432047D01*
X-11696821Y-79411530D01*
X-11682571Y-79392317D01*
X-11666507Y-79374593D01*
X-11648783Y-79358529D01*
X-11629570Y-79344279D01*
X-11609053Y-79331982D01*
X-11587429Y-79321754D01*
X-11564907Y-79313696D01*
X-11541703Y-79307884D01*
X-11518042Y-79304374D01*
X-11494150Y-79303200D01*
X-11006650Y-79303200D01*
X-10982758Y-79304374D01*
X-10982758Y-79304374D01*
G37*
D13*
X-11250400Y-80003200D03*
D12*
G36*
X-12857758Y-79304374D02*
G01*
X-12834097Y-79307884D01*
X-12810893Y-79313696D01*
X-12788371Y-79321754D01*
X-12766747Y-79331982D01*
X-12746230Y-79344279D01*
X-12727017Y-79358529D01*
X-12709293Y-79374593D01*
X-12693229Y-79392317D01*
X-12678979Y-79411530D01*
X-12666682Y-79432047D01*
X-12656454Y-79453671D01*
X-12648396Y-79476193D01*
X-12642584Y-79499397D01*
X-12639074Y-79523058D01*
X-12637900Y-79546950D01*
X-12637900Y-80459450D01*
X-12639074Y-80483342D01*
X-12642584Y-80507003D01*
X-12648396Y-80530207D01*
X-12656454Y-80552729D01*
X-12666682Y-80574353D01*
X-12678979Y-80594870D01*
X-12693229Y-80614083D01*
X-12709293Y-80631807D01*
X-12727017Y-80647871D01*
X-12746230Y-80662121D01*
X-12766747Y-80674418D01*
X-12788371Y-80684646D01*
X-12810893Y-80692704D01*
X-12834097Y-80698516D01*
X-12857758Y-80702026D01*
X-12881650Y-80703200D01*
X-13369150Y-80703200D01*
X-13393042Y-80702026D01*
X-13416703Y-80698516D01*
X-13439907Y-80692704D01*
X-13462429Y-80684646D01*
X-13484053Y-80674418D01*
X-13504570Y-80662121D01*
X-13523783Y-80647871D01*
X-13541507Y-80631807D01*
X-13557571Y-80614083D01*
X-13571821Y-80594870D01*
X-13584118Y-80574353D01*
X-13594346Y-80552729D01*
X-13602404Y-80530207D01*
X-13608216Y-80507003D01*
X-13611726Y-80483342D01*
X-13612900Y-80459450D01*
X-13612900Y-79546950D01*
X-13611726Y-79523058D01*
X-13608216Y-79499397D01*
X-13602404Y-79476193D01*
X-13594346Y-79453671D01*
X-13584118Y-79432047D01*
X-13571821Y-79411530D01*
X-13557571Y-79392317D01*
X-13541507Y-79374593D01*
X-13523783Y-79358529D01*
X-13504570Y-79344279D01*
X-13484053Y-79331982D01*
X-13462429Y-79321754D01*
X-13439907Y-79313696D01*
X-13416703Y-79307884D01*
X-13393042Y-79304374D01*
X-13369150Y-79303200D01*
X-12881650Y-79303200D01*
X-12857758Y-79304374D01*
X-12857758Y-79304374D01*
G37*
D13*
X-13125400Y-80003200D03*
D12*
G36*
X-22454258Y-111142174D02*
G01*
X-22430597Y-111145684D01*
X-22407393Y-111151496D01*
X-22384871Y-111159554D01*
X-22363247Y-111169782D01*
X-22342730Y-111182079D01*
X-22323517Y-111196329D01*
X-22305793Y-111212393D01*
X-22289729Y-111230117D01*
X-22275479Y-111249330D01*
X-22263182Y-111269847D01*
X-22252954Y-111291471D01*
X-22244896Y-111313993D01*
X-22239084Y-111337197D01*
X-22235574Y-111360858D01*
X-22234400Y-111384750D01*
X-22234400Y-111872250D01*
X-22235574Y-111896142D01*
X-22239084Y-111919803D01*
X-22244896Y-111943007D01*
X-22252954Y-111965529D01*
X-22263182Y-111987153D01*
X-22275479Y-112007670D01*
X-22289729Y-112026883D01*
X-22305793Y-112044607D01*
X-22323517Y-112060671D01*
X-22342730Y-112074921D01*
X-22363247Y-112087218D01*
X-22384871Y-112097446D01*
X-22407393Y-112105504D01*
X-22430597Y-112111316D01*
X-22454258Y-112114826D01*
X-22478150Y-112116000D01*
X-23390650Y-112116000D01*
X-23414542Y-112114826D01*
X-23438203Y-112111316D01*
X-23461407Y-112105504D01*
X-23483929Y-112097446D01*
X-23505553Y-112087218D01*
X-23526070Y-112074921D01*
X-23545283Y-112060671D01*
X-23563007Y-112044607D01*
X-23579071Y-112026883D01*
X-23593321Y-112007670D01*
X-23605618Y-111987153D01*
X-23615846Y-111965529D01*
X-23623904Y-111943007D01*
X-23629716Y-111919803D01*
X-23633226Y-111896142D01*
X-23634400Y-111872250D01*
X-23634400Y-111384750D01*
X-23633226Y-111360858D01*
X-23629716Y-111337197D01*
X-23623904Y-111313993D01*
X-23615846Y-111291471D01*
X-23605618Y-111269847D01*
X-23593321Y-111249330D01*
X-23579071Y-111230117D01*
X-23563007Y-111212393D01*
X-23545283Y-111196329D01*
X-23526070Y-111182079D01*
X-23505553Y-111169782D01*
X-23483929Y-111159554D01*
X-23461407Y-111151496D01*
X-23438203Y-111145684D01*
X-23414542Y-111142174D01*
X-23390650Y-111141000D01*
X-22478150Y-111141000D01*
X-22454258Y-111142174D01*
X-22454258Y-111142174D01*
G37*
D13*
X-22934400Y-111628500D03*
D12*
G36*
X-22454258Y-113017174D02*
G01*
X-22430597Y-113020684D01*
X-22407393Y-113026496D01*
X-22384871Y-113034554D01*
X-22363247Y-113044782D01*
X-22342730Y-113057079D01*
X-22323517Y-113071329D01*
X-22305793Y-113087393D01*
X-22289729Y-113105117D01*
X-22275479Y-113124330D01*
X-22263182Y-113144847D01*
X-22252954Y-113166471D01*
X-22244896Y-113188993D01*
X-22239084Y-113212197D01*
X-22235574Y-113235858D01*
X-22234400Y-113259750D01*
X-22234400Y-113747250D01*
X-22235574Y-113771142D01*
X-22239084Y-113794803D01*
X-22244896Y-113818007D01*
X-22252954Y-113840529D01*
X-22263182Y-113862153D01*
X-22275479Y-113882670D01*
X-22289729Y-113901883D01*
X-22305793Y-113919607D01*
X-22323517Y-113935671D01*
X-22342730Y-113949921D01*
X-22363247Y-113962218D01*
X-22384871Y-113972446D01*
X-22407393Y-113980504D01*
X-22430597Y-113986316D01*
X-22454258Y-113989826D01*
X-22478150Y-113991000D01*
X-23390650Y-113991000D01*
X-23414542Y-113989826D01*
X-23438203Y-113986316D01*
X-23461407Y-113980504D01*
X-23483929Y-113972446D01*
X-23505553Y-113962218D01*
X-23526070Y-113949921D01*
X-23545283Y-113935671D01*
X-23563007Y-113919607D01*
X-23579071Y-113901883D01*
X-23593321Y-113882670D01*
X-23605618Y-113862153D01*
X-23615846Y-113840529D01*
X-23623904Y-113818007D01*
X-23629716Y-113794803D01*
X-23633226Y-113771142D01*
X-23634400Y-113747250D01*
X-23634400Y-113259750D01*
X-23633226Y-113235858D01*
X-23629716Y-113212197D01*
X-23623904Y-113188993D01*
X-23615846Y-113166471D01*
X-23605618Y-113144847D01*
X-23593321Y-113124330D01*
X-23579071Y-113105117D01*
X-23563007Y-113087393D01*
X-23545283Y-113071329D01*
X-23526070Y-113057079D01*
X-23505553Y-113044782D01*
X-23483929Y-113034554D01*
X-23461407Y-113026496D01*
X-23438203Y-113020684D01*
X-23414542Y-113017174D01*
X-23390650Y-113016000D01*
X-22478150Y-113016000D01*
X-22454258Y-113017174D01*
X-22454258Y-113017174D01*
G37*
D13*
X-22934400Y-113503500D03*
D12*
G36*
X-24384658Y-111114474D02*
G01*
X-24360997Y-111117984D01*
X-24337793Y-111123796D01*
X-24315271Y-111131854D01*
X-24293647Y-111142082D01*
X-24273130Y-111154379D01*
X-24253917Y-111168629D01*
X-24236193Y-111184693D01*
X-24220129Y-111202417D01*
X-24205879Y-111221630D01*
X-24193582Y-111242147D01*
X-24183354Y-111263771D01*
X-24175296Y-111286293D01*
X-24169484Y-111309497D01*
X-24165974Y-111333158D01*
X-24164800Y-111357050D01*
X-24164800Y-111844550D01*
X-24165974Y-111868442D01*
X-24169484Y-111892103D01*
X-24175296Y-111915307D01*
X-24183354Y-111937829D01*
X-24193582Y-111959453D01*
X-24205879Y-111979970D01*
X-24220129Y-111999183D01*
X-24236193Y-112016907D01*
X-24253917Y-112032971D01*
X-24273130Y-112047221D01*
X-24293647Y-112059518D01*
X-24315271Y-112069746D01*
X-24337793Y-112077804D01*
X-24360997Y-112083616D01*
X-24384658Y-112087126D01*
X-24408550Y-112088300D01*
X-25321050Y-112088300D01*
X-25344942Y-112087126D01*
X-25368603Y-112083616D01*
X-25391807Y-112077804D01*
X-25414329Y-112069746D01*
X-25435953Y-112059518D01*
X-25456470Y-112047221D01*
X-25475683Y-112032971D01*
X-25493407Y-112016907D01*
X-25509471Y-111999183D01*
X-25523721Y-111979970D01*
X-25536018Y-111959453D01*
X-25546246Y-111937829D01*
X-25554304Y-111915307D01*
X-25560116Y-111892103D01*
X-25563626Y-111868442D01*
X-25564800Y-111844550D01*
X-25564800Y-111357050D01*
X-25563626Y-111333158D01*
X-25560116Y-111309497D01*
X-25554304Y-111286293D01*
X-25546246Y-111263771D01*
X-25536018Y-111242147D01*
X-25523721Y-111221630D01*
X-25509471Y-111202417D01*
X-25493407Y-111184693D01*
X-25475683Y-111168629D01*
X-25456470Y-111154379D01*
X-25435953Y-111142082D01*
X-25414329Y-111131854D01*
X-25391807Y-111123796D01*
X-25368603Y-111117984D01*
X-25344942Y-111114474D01*
X-25321050Y-111113300D01*
X-24408550Y-111113300D01*
X-24384658Y-111114474D01*
X-24384658Y-111114474D01*
G37*
D13*
X-24864800Y-111600800D03*
D12*
G36*
X-24384658Y-112989474D02*
G01*
X-24360997Y-112992984D01*
X-24337793Y-112998796D01*
X-24315271Y-113006854D01*
X-24293647Y-113017082D01*
X-24273130Y-113029379D01*
X-24253917Y-113043629D01*
X-24236193Y-113059693D01*
X-24220129Y-113077417D01*
X-24205879Y-113096630D01*
X-24193582Y-113117147D01*
X-24183354Y-113138771D01*
X-24175296Y-113161293D01*
X-24169484Y-113184497D01*
X-24165974Y-113208158D01*
X-24164800Y-113232050D01*
X-24164800Y-113719550D01*
X-24165974Y-113743442D01*
X-24169484Y-113767103D01*
X-24175296Y-113790307D01*
X-24183354Y-113812829D01*
X-24193582Y-113834453D01*
X-24205879Y-113854970D01*
X-24220129Y-113874183D01*
X-24236193Y-113891907D01*
X-24253917Y-113907971D01*
X-24273130Y-113922221D01*
X-24293647Y-113934518D01*
X-24315271Y-113944746D01*
X-24337793Y-113952804D01*
X-24360997Y-113958616D01*
X-24384658Y-113962126D01*
X-24408550Y-113963300D01*
X-25321050Y-113963300D01*
X-25344942Y-113962126D01*
X-25368603Y-113958616D01*
X-25391807Y-113952804D01*
X-25414329Y-113944746D01*
X-25435953Y-113934518D01*
X-25456470Y-113922221D01*
X-25475683Y-113907971D01*
X-25493407Y-113891907D01*
X-25509471Y-113874183D01*
X-25523721Y-113854970D01*
X-25536018Y-113834453D01*
X-25546246Y-113812829D01*
X-25554304Y-113790307D01*
X-25560116Y-113767103D01*
X-25563626Y-113743442D01*
X-25564800Y-113719550D01*
X-25564800Y-113232050D01*
X-25563626Y-113208158D01*
X-25560116Y-113184497D01*
X-25554304Y-113161293D01*
X-25546246Y-113138771D01*
X-25536018Y-113117147D01*
X-25523721Y-113096630D01*
X-25509471Y-113077417D01*
X-25493407Y-113059693D01*
X-25475683Y-113043629D01*
X-25456470Y-113029379D01*
X-25435953Y-113017082D01*
X-25414329Y-113006854D01*
X-25391807Y-112998796D01*
X-25368603Y-112992984D01*
X-25344942Y-112989474D01*
X-25321050Y-112988300D01*
X-24408550Y-112988300D01*
X-24384658Y-112989474D01*
X-24384658Y-112989474D01*
G37*
D13*
X-24864800Y-113475800D03*
D12*
G36*
X-10987358Y-68839574D02*
G01*
X-10963697Y-68843084D01*
X-10940493Y-68848896D01*
X-10917971Y-68856954D01*
X-10896347Y-68867182D01*
X-10875830Y-68879479D01*
X-10856617Y-68893729D01*
X-10838893Y-68909793D01*
X-10822829Y-68927517D01*
X-10808579Y-68946730D01*
X-10796282Y-68967247D01*
X-10786054Y-68988871D01*
X-10777996Y-69011393D01*
X-10772184Y-69034597D01*
X-10768674Y-69058258D01*
X-10767500Y-69082150D01*
X-10767500Y-69994650D01*
X-10768674Y-70018542D01*
X-10772184Y-70042203D01*
X-10777996Y-70065407D01*
X-10786054Y-70087929D01*
X-10796282Y-70109553D01*
X-10808579Y-70130070D01*
X-10822829Y-70149283D01*
X-10838893Y-70167007D01*
X-10856617Y-70183071D01*
X-10875830Y-70197321D01*
X-10896347Y-70209618D01*
X-10917971Y-70219846D01*
X-10940493Y-70227904D01*
X-10963697Y-70233716D01*
X-10987358Y-70237226D01*
X-11011250Y-70238400D01*
X-11498750Y-70238400D01*
X-11522642Y-70237226D01*
X-11546303Y-70233716D01*
X-11569507Y-70227904D01*
X-11592029Y-70219846D01*
X-11613653Y-70209618D01*
X-11634170Y-70197321D01*
X-11653383Y-70183071D01*
X-11671107Y-70167007D01*
X-11687171Y-70149283D01*
X-11701421Y-70130070D01*
X-11713718Y-70109553D01*
X-11723946Y-70087929D01*
X-11732004Y-70065407D01*
X-11737816Y-70042203D01*
X-11741326Y-70018542D01*
X-11742500Y-69994650D01*
X-11742500Y-69082150D01*
X-11741326Y-69058258D01*
X-11737816Y-69034597D01*
X-11732004Y-69011393D01*
X-11723946Y-68988871D01*
X-11713718Y-68967247D01*
X-11701421Y-68946730D01*
X-11687171Y-68927517D01*
X-11671107Y-68909793D01*
X-11653383Y-68893729D01*
X-11634170Y-68879479D01*
X-11613653Y-68867182D01*
X-11592029Y-68856954D01*
X-11569507Y-68848896D01*
X-11546303Y-68843084D01*
X-11522642Y-68839574D01*
X-11498750Y-68838400D01*
X-11011250Y-68838400D01*
X-10987358Y-68839574D01*
X-10987358Y-68839574D01*
G37*
D13*
X-11255000Y-69538400D03*
D12*
G36*
X-12862358Y-68839574D02*
G01*
X-12838697Y-68843084D01*
X-12815493Y-68848896D01*
X-12792971Y-68856954D01*
X-12771347Y-68867182D01*
X-12750830Y-68879479D01*
X-12731617Y-68893729D01*
X-12713893Y-68909793D01*
X-12697829Y-68927517D01*
X-12683579Y-68946730D01*
X-12671282Y-68967247D01*
X-12661054Y-68988871D01*
X-12652996Y-69011393D01*
X-12647184Y-69034597D01*
X-12643674Y-69058258D01*
X-12642500Y-69082150D01*
X-12642500Y-69994650D01*
X-12643674Y-70018542D01*
X-12647184Y-70042203D01*
X-12652996Y-70065407D01*
X-12661054Y-70087929D01*
X-12671282Y-70109553D01*
X-12683579Y-70130070D01*
X-12697829Y-70149283D01*
X-12713893Y-70167007D01*
X-12731617Y-70183071D01*
X-12750830Y-70197321D01*
X-12771347Y-70209618D01*
X-12792971Y-70219846D01*
X-12815493Y-70227904D01*
X-12838697Y-70233716D01*
X-12862358Y-70237226D01*
X-12886250Y-70238400D01*
X-13373750Y-70238400D01*
X-13397642Y-70237226D01*
X-13421303Y-70233716D01*
X-13444507Y-70227904D01*
X-13467029Y-70219846D01*
X-13488653Y-70209618D01*
X-13509170Y-70197321D01*
X-13528383Y-70183071D01*
X-13546107Y-70167007D01*
X-13562171Y-70149283D01*
X-13576421Y-70130070D01*
X-13588718Y-70109553D01*
X-13598946Y-70087929D01*
X-13607004Y-70065407D01*
X-13612816Y-70042203D01*
X-13616326Y-70018542D01*
X-13617500Y-69994650D01*
X-13617500Y-69082150D01*
X-13616326Y-69058258D01*
X-13612816Y-69034597D01*
X-13607004Y-69011393D01*
X-13598946Y-68988871D01*
X-13588718Y-68967247D01*
X-13576421Y-68946730D01*
X-13562171Y-68927517D01*
X-13546107Y-68909793D01*
X-13528383Y-68893729D01*
X-13509170Y-68879479D01*
X-13488653Y-68867182D01*
X-13467029Y-68856954D01*
X-13444507Y-68848896D01*
X-13421303Y-68843084D01*
X-13397642Y-68839574D01*
X-13373750Y-68838400D01*
X-12886250Y-68838400D01*
X-12862358Y-68839574D01*
X-12862358Y-68839574D01*
G37*
D13*
X-13130000Y-69538400D03*
D12*
G36*
X-28601058Y-95417274D02*
G01*
X-28577397Y-95420784D01*
X-28554193Y-95426596D01*
X-28531671Y-95434654D01*
X-28510047Y-95444882D01*
X-28489530Y-95457179D01*
X-28470317Y-95471429D01*
X-28452593Y-95487493D01*
X-28436529Y-95505217D01*
X-28422279Y-95524430D01*
X-28409982Y-95544947D01*
X-28399754Y-95566571D01*
X-28391696Y-95589093D01*
X-28385884Y-95612297D01*
X-28382374Y-95635958D01*
X-28381200Y-95659850D01*
X-28381200Y-96147350D01*
X-28382374Y-96171242D01*
X-28385884Y-96194903D01*
X-28391696Y-96218107D01*
X-28399754Y-96240629D01*
X-28409982Y-96262253D01*
X-28422279Y-96282770D01*
X-28436529Y-96301983D01*
X-28452593Y-96319707D01*
X-28470317Y-96335771D01*
X-28489530Y-96350021D01*
X-28510047Y-96362318D01*
X-28531671Y-96372546D01*
X-28554193Y-96380604D01*
X-28577397Y-96386416D01*
X-28601058Y-96389926D01*
X-28624950Y-96391100D01*
X-29537450Y-96391100D01*
X-29561342Y-96389926D01*
X-29585003Y-96386416D01*
X-29608207Y-96380604D01*
X-29630729Y-96372546D01*
X-29652353Y-96362318D01*
X-29672870Y-96350021D01*
X-29692083Y-96335771D01*
X-29709807Y-96319707D01*
X-29725871Y-96301983D01*
X-29740121Y-96282770D01*
X-29752418Y-96262253D01*
X-29762646Y-96240629D01*
X-29770704Y-96218107D01*
X-29776516Y-96194903D01*
X-29780026Y-96171242D01*
X-29781200Y-96147350D01*
X-29781200Y-95659850D01*
X-29780026Y-95635958D01*
X-29776516Y-95612297D01*
X-29770704Y-95589093D01*
X-29762646Y-95566571D01*
X-29752418Y-95544947D01*
X-29740121Y-95524430D01*
X-29725871Y-95505217D01*
X-29709807Y-95487493D01*
X-29692083Y-95471429D01*
X-29672870Y-95457179D01*
X-29652353Y-95444882D01*
X-29630729Y-95434654D01*
X-29608207Y-95426596D01*
X-29585003Y-95420784D01*
X-29561342Y-95417274D01*
X-29537450Y-95416100D01*
X-28624950Y-95416100D01*
X-28601058Y-95417274D01*
X-28601058Y-95417274D01*
G37*
D13*
X-29081200Y-95903600D03*
D12*
G36*
X-28601058Y-97292274D02*
G01*
X-28577397Y-97295784D01*
X-28554193Y-97301596D01*
X-28531671Y-97309654D01*
X-28510047Y-97319882D01*
X-28489530Y-97332179D01*
X-28470317Y-97346429D01*
X-28452593Y-97362493D01*
X-28436529Y-97380217D01*
X-28422279Y-97399430D01*
X-28409982Y-97419947D01*
X-28399754Y-97441571D01*
X-28391696Y-97464093D01*
X-28385884Y-97487297D01*
X-28382374Y-97510958D01*
X-28381200Y-97534850D01*
X-28381200Y-98022350D01*
X-28382374Y-98046242D01*
X-28385884Y-98069903D01*
X-28391696Y-98093107D01*
X-28399754Y-98115629D01*
X-28409982Y-98137253D01*
X-28422279Y-98157770D01*
X-28436529Y-98176983D01*
X-28452593Y-98194707D01*
X-28470317Y-98210771D01*
X-28489530Y-98225021D01*
X-28510047Y-98237318D01*
X-28531671Y-98247546D01*
X-28554193Y-98255604D01*
X-28577397Y-98261416D01*
X-28601058Y-98264926D01*
X-28624950Y-98266100D01*
X-29537450Y-98266100D01*
X-29561342Y-98264926D01*
X-29585003Y-98261416D01*
X-29608207Y-98255604D01*
X-29630729Y-98247546D01*
X-29652353Y-98237318D01*
X-29672870Y-98225021D01*
X-29692083Y-98210771D01*
X-29709807Y-98194707D01*
X-29725871Y-98176983D01*
X-29740121Y-98157770D01*
X-29752418Y-98137253D01*
X-29762646Y-98115629D01*
X-29770704Y-98093107D01*
X-29776516Y-98069903D01*
X-29780026Y-98046242D01*
X-29781200Y-98022350D01*
X-29781200Y-97534850D01*
X-29780026Y-97510958D01*
X-29776516Y-97487297D01*
X-29770704Y-97464093D01*
X-29762646Y-97441571D01*
X-29752418Y-97419947D01*
X-29740121Y-97399430D01*
X-29725871Y-97380217D01*
X-29709807Y-97362493D01*
X-29692083Y-97346429D01*
X-29672870Y-97332179D01*
X-29652353Y-97319882D01*
X-29630729Y-97309654D01*
X-29608207Y-97301596D01*
X-29585003Y-97295784D01*
X-29561342Y-97292274D01*
X-29537450Y-97291100D01*
X-28624950Y-97291100D01*
X-28601058Y-97292274D01*
X-28601058Y-97292274D01*
G37*
D13*
X-29081200Y-97778600D03*
D14*
X-32439200Y-83618600D03*
X-32439200Y-82968600D03*
X-32439200Y-82318600D03*
X-32439200Y-81668600D03*
X-32439200Y-81018600D03*
X-32439200Y-80368600D03*
X-32439200Y-79718600D03*
X-32439200Y-79068600D03*
X-32439200Y-78418600D03*
X-32439200Y-77768600D03*
X-32439200Y-77118600D03*
X-32439200Y-76468600D03*
X-32439200Y-75818600D03*
X-32439200Y-75168600D03*
X-26739200Y-75168600D03*
X-26739200Y-75818600D03*
X-26739200Y-76468600D03*
X-26739200Y-77118600D03*
X-26739200Y-77768600D03*
X-26739200Y-78418600D03*
X-26739200Y-79068600D03*
X-26739200Y-79718600D03*
X-26739200Y-80368600D03*
X-26739200Y-81018600D03*
X-26739200Y-81668600D03*
X-26739200Y-82318600D03*
X-26739200Y-82968600D03*
X-26739200Y-83618600D03*
D12*
G36*
X-10982758Y-70871574D02*
G01*
X-10959097Y-70875084D01*
X-10935893Y-70880896D01*
X-10913371Y-70888954D01*
X-10891747Y-70899182D01*
X-10871230Y-70911479D01*
X-10852017Y-70925729D01*
X-10834293Y-70941793D01*
X-10818229Y-70959517D01*
X-10803979Y-70978730D01*
X-10791682Y-70999247D01*
X-10781454Y-71020871D01*
X-10773396Y-71043393D01*
X-10767584Y-71066597D01*
X-10764074Y-71090258D01*
X-10762900Y-71114150D01*
X-10762900Y-72026650D01*
X-10764074Y-72050542D01*
X-10767584Y-72074203D01*
X-10773396Y-72097407D01*
X-10781454Y-72119929D01*
X-10791682Y-72141553D01*
X-10803979Y-72162070D01*
X-10818229Y-72181283D01*
X-10834293Y-72199007D01*
X-10852017Y-72215071D01*
X-10871230Y-72229321D01*
X-10891747Y-72241618D01*
X-10913371Y-72251846D01*
X-10935893Y-72259904D01*
X-10959097Y-72265716D01*
X-10982758Y-72269226D01*
X-11006650Y-72270400D01*
X-11494150Y-72270400D01*
X-11518042Y-72269226D01*
X-11541703Y-72265716D01*
X-11564907Y-72259904D01*
X-11587429Y-72251846D01*
X-11609053Y-72241618D01*
X-11629570Y-72229321D01*
X-11648783Y-72215071D01*
X-11666507Y-72199007D01*
X-11682571Y-72181283D01*
X-11696821Y-72162070D01*
X-11709118Y-72141553D01*
X-11719346Y-72119929D01*
X-11727404Y-72097407D01*
X-11733216Y-72074203D01*
X-11736726Y-72050542D01*
X-11737900Y-72026650D01*
X-11737900Y-71114150D01*
X-11736726Y-71090258D01*
X-11733216Y-71066597D01*
X-11727404Y-71043393D01*
X-11719346Y-71020871D01*
X-11709118Y-70999247D01*
X-11696821Y-70978730D01*
X-11682571Y-70959517D01*
X-11666507Y-70941793D01*
X-11648783Y-70925729D01*
X-11629570Y-70911479D01*
X-11609053Y-70899182D01*
X-11587429Y-70888954D01*
X-11564907Y-70880896D01*
X-11541703Y-70875084D01*
X-11518042Y-70871574D01*
X-11494150Y-70870400D01*
X-11006650Y-70870400D01*
X-10982758Y-70871574D01*
X-10982758Y-70871574D01*
G37*
D13*
X-11250400Y-71570400D03*
D12*
G36*
X-12857758Y-70871574D02*
G01*
X-12834097Y-70875084D01*
X-12810893Y-70880896D01*
X-12788371Y-70888954D01*
X-12766747Y-70899182D01*
X-12746230Y-70911479D01*
X-12727017Y-70925729D01*
X-12709293Y-70941793D01*
X-12693229Y-70959517D01*
X-12678979Y-70978730D01*
X-12666682Y-70999247D01*
X-12656454Y-71020871D01*
X-12648396Y-71043393D01*
X-12642584Y-71066597D01*
X-12639074Y-71090258D01*
X-12637900Y-71114150D01*
X-12637900Y-72026650D01*
X-12639074Y-72050542D01*
X-12642584Y-72074203D01*
X-12648396Y-72097407D01*
X-12656454Y-72119929D01*
X-12666682Y-72141553D01*
X-12678979Y-72162070D01*
X-12693229Y-72181283D01*
X-12709293Y-72199007D01*
X-12727017Y-72215071D01*
X-12746230Y-72229321D01*
X-12766747Y-72241618D01*
X-12788371Y-72251846D01*
X-12810893Y-72259904D01*
X-12834097Y-72265716D01*
X-12857758Y-72269226D01*
X-12881650Y-72270400D01*
X-13369150Y-72270400D01*
X-13393042Y-72269226D01*
X-13416703Y-72265716D01*
X-13439907Y-72259904D01*
X-13462429Y-72251846D01*
X-13484053Y-72241618D01*
X-13504570Y-72229321D01*
X-13523783Y-72215071D01*
X-13541507Y-72199007D01*
X-13557571Y-72181283D01*
X-13571821Y-72162070D01*
X-13584118Y-72141553D01*
X-13594346Y-72119929D01*
X-13602404Y-72097407D01*
X-13608216Y-72074203D01*
X-13611726Y-72050542D01*
X-13612900Y-72026650D01*
X-13612900Y-71114150D01*
X-13611726Y-71090258D01*
X-13608216Y-71066597D01*
X-13602404Y-71043393D01*
X-13594346Y-71020871D01*
X-13584118Y-70999247D01*
X-13571821Y-70978730D01*
X-13557571Y-70959517D01*
X-13541507Y-70941793D01*
X-13523783Y-70925729D01*
X-13504570Y-70911479D01*
X-13484053Y-70899182D01*
X-13462429Y-70888954D01*
X-13439907Y-70880896D01*
X-13416703Y-70875084D01*
X-13393042Y-70871574D01*
X-13369150Y-70870400D01*
X-12881650Y-70870400D01*
X-12857758Y-70871574D01*
X-12857758Y-70871574D01*
G37*
D13*
X-13125400Y-71570400D03*
D12*
G36*
X-38394457Y-74574975D02*
G01*
X-38370796Y-74578485D01*
X-38347592Y-74584297D01*
X-38325070Y-74592355D01*
X-38303446Y-74602583D01*
X-38282929Y-74614880D01*
X-38263716Y-74629130D01*
X-38245992Y-74645194D01*
X-38229928Y-74662918D01*
X-38215678Y-74682131D01*
X-38203381Y-74702648D01*
X-38193153Y-74724272D01*
X-38185095Y-74746794D01*
X-38179283Y-74769998D01*
X-38175773Y-74793659D01*
X-38174599Y-74817551D01*
X-38174599Y-75730051D01*
X-38175773Y-75753943D01*
X-38179283Y-75777604D01*
X-38185095Y-75800808D01*
X-38193153Y-75823330D01*
X-38203381Y-75844954D01*
X-38215678Y-75865471D01*
X-38229928Y-75884684D01*
X-38245992Y-75902408D01*
X-38263716Y-75918472D01*
X-38282929Y-75932722D01*
X-38303446Y-75945019D01*
X-38325070Y-75955247D01*
X-38347592Y-75963305D01*
X-38370796Y-75969117D01*
X-38394457Y-75972627D01*
X-38418349Y-75973801D01*
X-38905849Y-75973801D01*
X-38929741Y-75972627D01*
X-38953402Y-75969117D01*
X-38976606Y-75963305D01*
X-38999128Y-75955247D01*
X-39020752Y-75945019D01*
X-39041269Y-75932722D01*
X-39060482Y-75918472D01*
X-39078206Y-75902408D01*
X-39094270Y-75884684D01*
X-39108520Y-75865471D01*
X-39120817Y-75844954D01*
X-39131045Y-75823330D01*
X-39139103Y-75800808D01*
X-39144915Y-75777604D01*
X-39148425Y-75753943D01*
X-39149599Y-75730051D01*
X-39149599Y-74817551D01*
X-39148425Y-74793659D01*
X-39144915Y-74769998D01*
X-39139103Y-74746794D01*
X-39131045Y-74724272D01*
X-39120817Y-74702648D01*
X-39108520Y-74682131D01*
X-39094270Y-74662918D01*
X-39078206Y-74645194D01*
X-39060482Y-74629130D01*
X-39041269Y-74614880D01*
X-39020752Y-74602583D01*
X-38999128Y-74592355D01*
X-38976606Y-74584297D01*
X-38953402Y-74578485D01*
X-38929741Y-74574975D01*
X-38905849Y-74573801D01*
X-38418349Y-74573801D01*
X-38394457Y-74574975D01*
X-38394457Y-74574975D01*
G37*
D13*
X-38662099Y-75273801D03*
D12*
G36*
X-36519457Y-74574975D02*
G01*
X-36495796Y-74578485D01*
X-36472592Y-74584297D01*
X-36450070Y-74592355D01*
X-36428446Y-74602583D01*
X-36407929Y-74614880D01*
X-36388716Y-74629130D01*
X-36370992Y-74645194D01*
X-36354928Y-74662918D01*
X-36340678Y-74682131D01*
X-36328381Y-74702648D01*
X-36318153Y-74724272D01*
X-36310095Y-74746794D01*
X-36304283Y-74769998D01*
X-36300773Y-74793659D01*
X-36299599Y-74817551D01*
X-36299599Y-75730051D01*
X-36300773Y-75753943D01*
X-36304283Y-75777604D01*
X-36310095Y-75800808D01*
X-36318153Y-75823330D01*
X-36328381Y-75844954D01*
X-36340678Y-75865471D01*
X-36354928Y-75884684D01*
X-36370992Y-75902408D01*
X-36388716Y-75918472D01*
X-36407929Y-75932722D01*
X-36428446Y-75945019D01*
X-36450070Y-75955247D01*
X-36472592Y-75963305D01*
X-36495796Y-75969117D01*
X-36519457Y-75972627D01*
X-36543349Y-75973801D01*
X-37030849Y-75973801D01*
X-37054741Y-75972627D01*
X-37078402Y-75969117D01*
X-37101606Y-75963305D01*
X-37124128Y-75955247D01*
X-37145752Y-75945019D01*
X-37166269Y-75932722D01*
X-37185482Y-75918472D01*
X-37203206Y-75902408D01*
X-37219270Y-75884684D01*
X-37233520Y-75865471D01*
X-37245817Y-75844954D01*
X-37256045Y-75823330D01*
X-37264103Y-75800808D01*
X-37269915Y-75777604D01*
X-37273425Y-75753943D01*
X-37274599Y-75730051D01*
X-37274599Y-74817551D01*
X-37273425Y-74793659D01*
X-37269915Y-74769998D01*
X-37264103Y-74746794D01*
X-37256045Y-74724272D01*
X-37245817Y-74702648D01*
X-37233520Y-74682131D01*
X-37219270Y-74662918D01*
X-37203206Y-74645194D01*
X-37185482Y-74629130D01*
X-37166269Y-74614880D01*
X-37145752Y-74602583D01*
X-37124128Y-74592355D01*
X-37101606Y-74584297D01*
X-37078402Y-74578485D01*
X-37054741Y-74574975D01*
X-37030849Y-74573801D01*
X-36543349Y-74573801D01*
X-36519457Y-74574975D01*
X-36519457Y-74574975D01*
G37*
D13*
X-36787099Y-75273801D03*
D12*
G36*
X-12862358Y-72903574D02*
G01*
X-12838697Y-72907084D01*
X-12815493Y-72912896D01*
X-12792971Y-72920954D01*
X-12771347Y-72931182D01*
X-12750830Y-72943479D01*
X-12731617Y-72957729D01*
X-12713893Y-72973793D01*
X-12697829Y-72991517D01*
X-12683579Y-73010730D01*
X-12671282Y-73031247D01*
X-12661054Y-73052871D01*
X-12652996Y-73075393D01*
X-12647184Y-73098597D01*
X-12643674Y-73122258D01*
X-12642500Y-73146150D01*
X-12642500Y-74058650D01*
X-12643674Y-74082542D01*
X-12647184Y-74106203D01*
X-12652996Y-74129407D01*
X-12661054Y-74151929D01*
X-12671282Y-74173553D01*
X-12683579Y-74194070D01*
X-12697829Y-74213283D01*
X-12713893Y-74231007D01*
X-12731617Y-74247071D01*
X-12750830Y-74261321D01*
X-12771347Y-74273618D01*
X-12792971Y-74283846D01*
X-12815493Y-74291904D01*
X-12838697Y-74297716D01*
X-12862358Y-74301226D01*
X-12886250Y-74302400D01*
X-13373750Y-74302400D01*
X-13397642Y-74301226D01*
X-13421303Y-74297716D01*
X-13444507Y-74291904D01*
X-13467029Y-74283846D01*
X-13488653Y-74273618D01*
X-13509170Y-74261321D01*
X-13528383Y-74247071D01*
X-13546107Y-74231007D01*
X-13562171Y-74213283D01*
X-13576421Y-74194070D01*
X-13588718Y-74173553D01*
X-13598946Y-74151929D01*
X-13607004Y-74129407D01*
X-13612816Y-74106203D01*
X-13616326Y-74082542D01*
X-13617500Y-74058650D01*
X-13617500Y-73146150D01*
X-13616326Y-73122258D01*
X-13612816Y-73098597D01*
X-13607004Y-73075393D01*
X-13598946Y-73052871D01*
X-13588718Y-73031247D01*
X-13576421Y-73010730D01*
X-13562171Y-72991517D01*
X-13546107Y-72973793D01*
X-13528383Y-72957729D01*
X-13509170Y-72943479D01*
X-13488653Y-72931182D01*
X-13467029Y-72920954D01*
X-13444507Y-72912896D01*
X-13421303Y-72907084D01*
X-13397642Y-72903574D01*
X-13373750Y-72902400D01*
X-12886250Y-72902400D01*
X-12862358Y-72903574D01*
X-12862358Y-72903574D01*
G37*
D13*
X-13130000Y-73602400D03*
D12*
G36*
X-10987358Y-72903574D02*
G01*
X-10963697Y-72907084D01*
X-10940493Y-72912896D01*
X-10917971Y-72920954D01*
X-10896347Y-72931182D01*
X-10875830Y-72943479D01*
X-10856617Y-72957729D01*
X-10838893Y-72973793D01*
X-10822829Y-72991517D01*
X-10808579Y-73010730D01*
X-10796282Y-73031247D01*
X-10786054Y-73052871D01*
X-10777996Y-73075393D01*
X-10772184Y-73098597D01*
X-10768674Y-73122258D01*
X-10767500Y-73146150D01*
X-10767500Y-74058650D01*
X-10768674Y-74082542D01*
X-10772184Y-74106203D01*
X-10777996Y-74129407D01*
X-10786054Y-74151929D01*
X-10796282Y-74173553D01*
X-10808579Y-74194070D01*
X-10822829Y-74213283D01*
X-10838893Y-74231007D01*
X-10856617Y-74247071D01*
X-10875830Y-74261321D01*
X-10896347Y-74273618D01*
X-10917971Y-74283846D01*
X-10940493Y-74291904D01*
X-10963697Y-74297716D01*
X-10987358Y-74301226D01*
X-11011250Y-74302400D01*
X-11498750Y-74302400D01*
X-11522642Y-74301226D01*
X-11546303Y-74297716D01*
X-11569507Y-74291904D01*
X-11592029Y-74283846D01*
X-11613653Y-74273618D01*
X-11634170Y-74261321D01*
X-11653383Y-74247071D01*
X-11671107Y-74231007D01*
X-11687171Y-74213283D01*
X-11701421Y-74194070D01*
X-11713718Y-74173553D01*
X-11723946Y-74151929D01*
X-11732004Y-74129407D01*
X-11737816Y-74106203D01*
X-11741326Y-74082542D01*
X-11742500Y-74058650D01*
X-11742500Y-73146150D01*
X-11741326Y-73122258D01*
X-11737816Y-73098597D01*
X-11732004Y-73075393D01*
X-11723946Y-73052871D01*
X-11713718Y-73031247D01*
X-11701421Y-73010730D01*
X-11687171Y-72991517D01*
X-11671107Y-72973793D01*
X-11653383Y-72957729D01*
X-11634170Y-72943479D01*
X-11613653Y-72931182D01*
X-11592029Y-72920954D01*
X-11569507Y-72912896D01*
X-11546303Y-72907084D01*
X-11522642Y-72903574D01*
X-11498750Y-72902400D01*
X-11011250Y-72902400D01*
X-10987358Y-72903574D01*
X-10987358Y-72903574D01*
G37*
D13*
X-11255000Y-73602400D03*
D12*
G36*
X-36461258Y-76815174D02*
G01*
X-36437597Y-76818684D01*
X-36414393Y-76824496D01*
X-36391871Y-76832554D01*
X-36370247Y-76842782D01*
X-36349730Y-76855079D01*
X-36330517Y-76869329D01*
X-36312793Y-76885393D01*
X-36296729Y-76903117D01*
X-36282479Y-76922330D01*
X-36270182Y-76942847D01*
X-36259954Y-76964471D01*
X-36251896Y-76986993D01*
X-36246084Y-77010197D01*
X-36242574Y-77033858D01*
X-36241400Y-77057750D01*
X-36241400Y-77970250D01*
X-36242574Y-77994142D01*
X-36246084Y-78017803D01*
X-36251896Y-78041007D01*
X-36259954Y-78063529D01*
X-36270182Y-78085153D01*
X-36282479Y-78105670D01*
X-36296729Y-78124883D01*
X-36312793Y-78142607D01*
X-36330517Y-78158671D01*
X-36349730Y-78172921D01*
X-36370247Y-78185218D01*
X-36391871Y-78195446D01*
X-36414393Y-78203504D01*
X-36437597Y-78209316D01*
X-36461258Y-78212826D01*
X-36485150Y-78214000D01*
X-36972650Y-78214000D01*
X-36996542Y-78212826D01*
X-37020203Y-78209316D01*
X-37043407Y-78203504D01*
X-37065929Y-78195446D01*
X-37087553Y-78185218D01*
X-37108070Y-78172921D01*
X-37127283Y-78158671D01*
X-37145007Y-78142607D01*
X-37161071Y-78124883D01*
X-37175321Y-78105670D01*
X-37187618Y-78085153D01*
X-37197846Y-78063529D01*
X-37205904Y-78041007D01*
X-37211716Y-78017803D01*
X-37215226Y-77994142D01*
X-37216400Y-77970250D01*
X-37216400Y-77057750D01*
X-37215226Y-77033858D01*
X-37211716Y-77010197D01*
X-37205904Y-76986993D01*
X-37197846Y-76964471D01*
X-37187618Y-76942847D01*
X-37175321Y-76922330D01*
X-37161071Y-76903117D01*
X-37145007Y-76885393D01*
X-37127283Y-76869329D01*
X-37108070Y-76855079D01*
X-37087553Y-76842782D01*
X-37065929Y-76832554D01*
X-37043407Y-76824496D01*
X-37020203Y-76818684D01*
X-36996542Y-76815174D01*
X-36972650Y-76814000D01*
X-36485150Y-76814000D01*
X-36461258Y-76815174D01*
X-36461258Y-76815174D01*
G37*
D13*
X-36728900Y-77514000D03*
D12*
G36*
X-38336258Y-76815174D02*
G01*
X-38312597Y-76818684D01*
X-38289393Y-76824496D01*
X-38266871Y-76832554D01*
X-38245247Y-76842782D01*
X-38224730Y-76855079D01*
X-38205517Y-76869329D01*
X-38187793Y-76885393D01*
X-38171729Y-76903117D01*
X-38157479Y-76922330D01*
X-38145182Y-76942847D01*
X-38134954Y-76964471D01*
X-38126896Y-76986993D01*
X-38121084Y-77010197D01*
X-38117574Y-77033858D01*
X-38116400Y-77057750D01*
X-38116400Y-77970250D01*
X-38117574Y-77994142D01*
X-38121084Y-78017803D01*
X-38126896Y-78041007D01*
X-38134954Y-78063529D01*
X-38145182Y-78085153D01*
X-38157479Y-78105670D01*
X-38171729Y-78124883D01*
X-38187793Y-78142607D01*
X-38205517Y-78158671D01*
X-38224730Y-78172921D01*
X-38245247Y-78185218D01*
X-38266871Y-78195446D01*
X-38289393Y-78203504D01*
X-38312597Y-78209316D01*
X-38336258Y-78212826D01*
X-38360150Y-78214000D01*
X-38847650Y-78214000D01*
X-38871542Y-78212826D01*
X-38895203Y-78209316D01*
X-38918407Y-78203504D01*
X-38940929Y-78195446D01*
X-38962553Y-78185218D01*
X-38983070Y-78172921D01*
X-39002283Y-78158671D01*
X-39020007Y-78142607D01*
X-39036071Y-78124883D01*
X-39050321Y-78105670D01*
X-39062618Y-78085153D01*
X-39072846Y-78063529D01*
X-39080904Y-78041007D01*
X-39086716Y-78017803D01*
X-39090226Y-77994142D01*
X-39091400Y-77970250D01*
X-39091400Y-77057750D01*
X-39090226Y-77033858D01*
X-39086716Y-77010197D01*
X-39080904Y-76986993D01*
X-39072846Y-76964471D01*
X-39062618Y-76942847D01*
X-39050321Y-76922330D01*
X-39036071Y-76903117D01*
X-39020007Y-76885393D01*
X-39002283Y-76869329D01*
X-38983070Y-76855079D01*
X-38962553Y-76842782D01*
X-38940929Y-76832554D01*
X-38918407Y-76824496D01*
X-38895203Y-76818684D01*
X-38871542Y-76815174D01*
X-38847650Y-76814000D01*
X-38360150Y-76814000D01*
X-38336258Y-76815174D01*
X-38336258Y-76815174D01*
G37*
D13*
X-38603900Y-77514000D03*
D12*
G36*
X-12862358Y-74935574D02*
G01*
X-12838697Y-74939084D01*
X-12815493Y-74944896D01*
X-12792971Y-74952954D01*
X-12771347Y-74963182D01*
X-12750830Y-74975479D01*
X-12731617Y-74989729D01*
X-12713893Y-75005793D01*
X-12697829Y-75023517D01*
X-12683579Y-75042730D01*
X-12671282Y-75063247D01*
X-12661054Y-75084871D01*
X-12652996Y-75107393D01*
X-12647184Y-75130597D01*
X-12643674Y-75154258D01*
X-12642500Y-75178150D01*
X-12642500Y-76090650D01*
X-12643674Y-76114542D01*
X-12647184Y-76138203D01*
X-12652996Y-76161407D01*
X-12661054Y-76183929D01*
X-12671282Y-76205553D01*
X-12683579Y-76226070D01*
X-12697829Y-76245283D01*
X-12713893Y-76263007D01*
X-12731617Y-76279071D01*
X-12750830Y-76293321D01*
X-12771347Y-76305618D01*
X-12792971Y-76315846D01*
X-12815493Y-76323904D01*
X-12838697Y-76329716D01*
X-12862358Y-76333226D01*
X-12886250Y-76334400D01*
X-13373750Y-76334400D01*
X-13397642Y-76333226D01*
X-13421303Y-76329716D01*
X-13444507Y-76323904D01*
X-13467029Y-76315846D01*
X-13488653Y-76305618D01*
X-13509170Y-76293321D01*
X-13528383Y-76279071D01*
X-13546107Y-76263007D01*
X-13562171Y-76245283D01*
X-13576421Y-76226070D01*
X-13588718Y-76205553D01*
X-13598946Y-76183929D01*
X-13607004Y-76161407D01*
X-13612816Y-76138203D01*
X-13616326Y-76114542D01*
X-13617500Y-76090650D01*
X-13617500Y-75178150D01*
X-13616326Y-75154258D01*
X-13612816Y-75130597D01*
X-13607004Y-75107393D01*
X-13598946Y-75084871D01*
X-13588718Y-75063247D01*
X-13576421Y-75042730D01*
X-13562171Y-75023517D01*
X-13546107Y-75005793D01*
X-13528383Y-74989729D01*
X-13509170Y-74975479D01*
X-13488653Y-74963182D01*
X-13467029Y-74952954D01*
X-13444507Y-74944896D01*
X-13421303Y-74939084D01*
X-13397642Y-74935574D01*
X-13373750Y-74934400D01*
X-12886250Y-74934400D01*
X-12862358Y-74935574D01*
X-12862358Y-74935574D01*
G37*
D13*
X-13130000Y-75634400D03*
D12*
G36*
X-10987358Y-74935574D02*
G01*
X-10963697Y-74939084D01*
X-10940493Y-74944896D01*
X-10917971Y-74952954D01*
X-10896347Y-74963182D01*
X-10875830Y-74975479D01*
X-10856617Y-74989729D01*
X-10838893Y-75005793D01*
X-10822829Y-75023517D01*
X-10808579Y-75042730D01*
X-10796282Y-75063247D01*
X-10786054Y-75084871D01*
X-10777996Y-75107393D01*
X-10772184Y-75130597D01*
X-10768674Y-75154258D01*
X-10767500Y-75178150D01*
X-10767500Y-76090650D01*
X-10768674Y-76114542D01*
X-10772184Y-76138203D01*
X-10777996Y-76161407D01*
X-10786054Y-76183929D01*
X-10796282Y-76205553D01*
X-10808579Y-76226070D01*
X-10822829Y-76245283D01*
X-10838893Y-76263007D01*
X-10856617Y-76279071D01*
X-10875830Y-76293321D01*
X-10896347Y-76305618D01*
X-10917971Y-76315846D01*
X-10940493Y-76323904D01*
X-10963697Y-76329716D01*
X-10987358Y-76333226D01*
X-11011250Y-76334400D01*
X-11498750Y-76334400D01*
X-11522642Y-76333226D01*
X-11546303Y-76329716D01*
X-11569507Y-76323904D01*
X-11592029Y-76315846D01*
X-11613653Y-76305618D01*
X-11634170Y-76293321D01*
X-11653383Y-76279071D01*
X-11671107Y-76263007D01*
X-11687171Y-76245283D01*
X-11701421Y-76226070D01*
X-11713718Y-76205553D01*
X-11723946Y-76183929D01*
X-11732004Y-76161407D01*
X-11737816Y-76138203D01*
X-11741326Y-76114542D01*
X-11742500Y-76090650D01*
X-11742500Y-75178150D01*
X-11741326Y-75154258D01*
X-11737816Y-75130597D01*
X-11732004Y-75107393D01*
X-11723946Y-75084871D01*
X-11713718Y-75063247D01*
X-11701421Y-75042730D01*
X-11687171Y-75023517D01*
X-11671107Y-75005793D01*
X-11653383Y-74989729D01*
X-11634170Y-74975479D01*
X-11613653Y-74963182D01*
X-11592029Y-74952954D01*
X-11569507Y-74944896D01*
X-11546303Y-74939084D01*
X-11522642Y-74935574D01*
X-11498750Y-74934400D01*
X-11011250Y-74934400D01*
X-10987358Y-74935574D01*
X-10987358Y-74935574D01*
G37*
D13*
X-11255000Y-75634400D03*
D12*
G36*
X-10982758Y-83825574D02*
G01*
X-10959097Y-83829084D01*
X-10935893Y-83834896D01*
X-10913371Y-83842954D01*
X-10891747Y-83853182D01*
X-10871230Y-83865479D01*
X-10852017Y-83879729D01*
X-10834293Y-83895793D01*
X-10818229Y-83913517D01*
X-10803979Y-83932730D01*
X-10791682Y-83953247D01*
X-10781454Y-83974871D01*
X-10773396Y-83997393D01*
X-10767584Y-84020597D01*
X-10764074Y-84044258D01*
X-10762900Y-84068150D01*
X-10762900Y-84980650D01*
X-10764074Y-85004542D01*
X-10767584Y-85028203D01*
X-10773396Y-85051407D01*
X-10781454Y-85073929D01*
X-10791682Y-85095553D01*
X-10803979Y-85116070D01*
X-10818229Y-85135283D01*
X-10834293Y-85153007D01*
X-10852017Y-85169071D01*
X-10871230Y-85183321D01*
X-10891747Y-85195618D01*
X-10913371Y-85205846D01*
X-10935893Y-85213904D01*
X-10959097Y-85219716D01*
X-10982758Y-85223226D01*
X-11006650Y-85224400D01*
X-11494150Y-85224400D01*
X-11518042Y-85223226D01*
X-11541703Y-85219716D01*
X-11564907Y-85213904D01*
X-11587429Y-85205846D01*
X-11609053Y-85195618D01*
X-11629570Y-85183321D01*
X-11648783Y-85169071D01*
X-11666507Y-85153007D01*
X-11682571Y-85135283D01*
X-11696821Y-85116070D01*
X-11709118Y-85095553D01*
X-11719346Y-85073929D01*
X-11727404Y-85051407D01*
X-11733216Y-85028203D01*
X-11736726Y-85004542D01*
X-11737900Y-84980650D01*
X-11737900Y-84068150D01*
X-11736726Y-84044258D01*
X-11733216Y-84020597D01*
X-11727404Y-83997393D01*
X-11719346Y-83974871D01*
X-11709118Y-83953247D01*
X-11696821Y-83932730D01*
X-11682571Y-83913517D01*
X-11666507Y-83895793D01*
X-11648783Y-83879729D01*
X-11629570Y-83865479D01*
X-11609053Y-83853182D01*
X-11587429Y-83842954D01*
X-11564907Y-83834896D01*
X-11541703Y-83829084D01*
X-11518042Y-83825574D01*
X-11494150Y-83824400D01*
X-11006650Y-83824400D01*
X-10982758Y-83825574D01*
X-10982758Y-83825574D01*
G37*
D13*
X-11250400Y-84524400D03*
D12*
G36*
X-12857758Y-83825574D02*
G01*
X-12834097Y-83829084D01*
X-12810893Y-83834896D01*
X-12788371Y-83842954D01*
X-12766747Y-83853182D01*
X-12746230Y-83865479D01*
X-12727017Y-83879729D01*
X-12709293Y-83895793D01*
X-12693229Y-83913517D01*
X-12678979Y-83932730D01*
X-12666682Y-83953247D01*
X-12656454Y-83974871D01*
X-12648396Y-83997393D01*
X-12642584Y-84020597D01*
X-12639074Y-84044258D01*
X-12637900Y-84068150D01*
X-12637900Y-84980650D01*
X-12639074Y-85004542D01*
X-12642584Y-85028203D01*
X-12648396Y-85051407D01*
X-12656454Y-85073929D01*
X-12666682Y-85095553D01*
X-12678979Y-85116070D01*
X-12693229Y-85135283D01*
X-12709293Y-85153007D01*
X-12727017Y-85169071D01*
X-12746230Y-85183321D01*
X-12766747Y-85195618D01*
X-12788371Y-85205846D01*
X-12810893Y-85213904D01*
X-12834097Y-85219716D01*
X-12857758Y-85223226D01*
X-12881650Y-85224400D01*
X-13369150Y-85224400D01*
X-13393042Y-85223226D01*
X-13416703Y-85219716D01*
X-13439907Y-85213904D01*
X-13462429Y-85205846D01*
X-13484053Y-85195618D01*
X-13504570Y-85183321D01*
X-13523783Y-85169071D01*
X-13541507Y-85153007D01*
X-13557571Y-85135283D01*
X-13571821Y-85116070D01*
X-13584118Y-85095553D01*
X-13594346Y-85073929D01*
X-13602404Y-85051407D01*
X-13608216Y-85028203D01*
X-13611726Y-85004542D01*
X-13612900Y-84980650D01*
X-13612900Y-84068150D01*
X-13611726Y-84044258D01*
X-13608216Y-84020597D01*
X-13602404Y-83997393D01*
X-13594346Y-83974871D01*
X-13584118Y-83953247D01*
X-13571821Y-83932730D01*
X-13557571Y-83913517D01*
X-13541507Y-83895793D01*
X-13523783Y-83879729D01*
X-13504570Y-83865479D01*
X-13484053Y-83853182D01*
X-13462429Y-83842954D01*
X-13439907Y-83834896D01*
X-13416703Y-83829084D01*
X-13393042Y-83825574D01*
X-13369150Y-83824400D01*
X-12881650Y-83824400D01*
X-12857758Y-83825574D01*
X-12857758Y-83825574D01*
G37*
D13*
X-13125400Y-84524400D03*
D12*
G36*
X-14631058Y-70779274D02*
G01*
X-14607397Y-70782784D01*
X-14584193Y-70788596D01*
X-14561671Y-70796654D01*
X-14540047Y-70806882D01*
X-14519530Y-70819179D01*
X-14500317Y-70833429D01*
X-14482593Y-70849493D01*
X-14466529Y-70867217D01*
X-14452279Y-70886430D01*
X-14439982Y-70906947D01*
X-14429754Y-70928571D01*
X-14421696Y-70951093D01*
X-14415884Y-70974297D01*
X-14412374Y-70997958D01*
X-14411200Y-71021850D01*
X-14411200Y-71509350D01*
X-14412374Y-71533242D01*
X-14415884Y-71556903D01*
X-14421696Y-71580107D01*
X-14429754Y-71602629D01*
X-14439982Y-71624253D01*
X-14452279Y-71644770D01*
X-14466529Y-71663983D01*
X-14482593Y-71681707D01*
X-14500317Y-71697771D01*
X-14519530Y-71712021D01*
X-14540047Y-71724318D01*
X-14561671Y-71734546D01*
X-14584193Y-71742604D01*
X-14607397Y-71748416D01*
X-14631058Y-71751926D01*
X-14654950Y-71753100D01*
X-15567450Y-71753100D01*
X-15591342Y-71751926D01*
X-15615003Y-71748416D01*
X-15638207Y-71742604D01*
X-15660729Y-71734546D01*
X-15682353Y-71724318D01*
X-15702870Y-71712021D01*
X-15722083Y-71697771D01*
X-15739807Y-71681707D01*
X-15755871Y-71663983D01*
X-15770121Y-71644770D01*
X-15782418Y-71624253D01*
X-15792646Y-71602629D01*
X-15800704Y-71580107D01*
X-15806516Y-71556903D01*
X-15810026Y-71533242D01*
X-15811200Y-71509350D01*
X-15811200Y-71021850D01*
X-15810026Y-70997958D01*
X-15806516Y-70974297D01*
X-15800704Y-70951093D01*
X-15792646Y-70928571D01*
X-15782418Y-70906947D01*
X-15770121Y-70886430D01*
X-15755871Y-70867217D01*
X-15739807Y-70849493D01*
X-15722083Y-70833429D01*
X-15702870Y-70819179D01*
X-15682353Y-70806882D01*
X-15660729Y-70796654D01*
X-15638207Y-70788596D01*
X-15615003Y-70782784D01*
X-15591342Y-70779274D01*
X-15567450Y-70778100D01*
X-14654950Y-70778100D01*
X-14631058Y-70779274D01*
X-14631058Y-70779274D01*
G37*
D13*
X-15111200Y-71265600D03*
D12*
G36*
X-14631058Y-68904274D02*
G01*
X-14607397Y-68907784D01*
X-14584193Y-68913596D01*
X-14561671Y-68921654D01*
X-14540047Y-68931882D01*
X-14519530Y-68944179D01*
X-14500317Y-68958429D01*
X-14482593Y-68974493D01*
X-14466529Y-68992217D01*
X-14452279Y-69011430D01*
X-14439982Y-69031947D01*
X-14429754Y-69053571D01*
X-14421696Y-69076093D01*
X-14415884Y-69099297D01*
X-14412374Y-69122958D01*
X-14411200Y-69146850D01*
X-14411200Y-69634350D01*
X-14412374Y-69658242D01*
X-14415884Y-69681903D01*
X-14421696Y-69705107D01*
X-14429754Y-69727629D01*
X-14439982Y-69749253D01*
X-14452279Y-69769770D01*
X-14466529Y-69788983D01*
X-14482593Y-69806707D01*
X-14500317Y-69822771D01*
X-14519530Y-69837021D01*
X-14540047Y-69849318D01*
X-14561671Y-69859546D01*
X-14584193Y-69867604D01*
X-14607397Y-69873416D01*
X-14631058Y-69876926D01*
X-14654950Y-69878100D01*
X-15567450Y-69878100D01*
X-15591342Y-69876926D01*
X-15615003Y-69873416D01*
X-15638207Y-69867604D01*
X-15660729Y-69859546D01*
X-15682353Y-69849318D01*
X-15702870Y-69837021D01*
X-15722083Y-69822771D01*
X-15739807Y-69806707D01*
X-15755871Y-69788983D01*
X-15770121Y-69769770D01*
X-15782418Y-69749253D01*
X-15792646Y-69727629D01*
X-15800704Y-69705107D01*
X-15806516Y-69681903D01*
X-15810026Y-69658242D01*
X-15811200Y-69634350D01*
X-15811200Y-69146850D01*
X-15810026Y-69122958D01*
X-15806516Y-69099297D01*
X-15800704Y-69076093D01*
X-15792646Y-69053571D01*
X-15782418Y-69031947D01*
X-15770121Y-69011430D01*
X-15755871Y-68992217D01*
X-15739807Y-68974493D01*
X-15722083Y-68958429D01*
X-15702870Y-68944179D01*
X-15682353Y-68931882D01*
X-15660729Y-68921654D01*
X-15638207Y-68913596D01*
X-15615003Y-68907784D01*
X-15591342Y-68904274D01*
X-15567450Y-68903100D01*
X-14654950Y-68903100D01*
X-14631058Y-68904274D01*
X-14631058Y-68904274D01*
G37*
D13*
X-15111200Y-69390600D03*
D12*
G36*
X-28125458Y-68991974D02*
G01*
X-28101797Y-68995484D01*
X-28078593Y-69001296D01*
X-28056071Y-69009354D01*
X-28034447Y-69019582D01*
X-28013930Y-69031879D01*
X-27994717Y-69046129D01*
X-27976993Y-69062193D01*
X-27960929Y-69079917D01*
X-27946679Y-69099130D01*
X-27934382Y-69119647D01*
X-27924154Y-69141271D01*
X-27916096Y-69163793D01*
X-27910284Y-69186997D01*
X-27906774Y-69210658D01*
X-27905600Y-69234550D01*
X-27905600Y-70147050D01*
X-27906774Y-70170942D01*
X-27910284Y-70194603D01*
X-27916096Y-70217807D01*
X-27924154Y-70240329D01*
X-27934382Y-70261953D01*
X-27946679Y-70282470D01*
X-27960929Y-70301683D01*
X-27976993Y-70319407D01*
X-27994717Y-70335471D01*
X-28013930Y-70349721D01*
X-28034447Y-70362018D01*
X-28056071Y-70372246D01*
X-28078593Y-70380304D01*
X-28101797Y-70386116D01*
X-28125458Y-70389626D01*
X-28149350Y-70390800D01*
X-28636850Y-70390800D01*
X-28660742Y-70389626D01*
X-28684403Y-70386116D01*
X-28707607Y-70380304D01*
X-28730129Y-70372246D01*
X-28751753Y-70362018D01*
X-28772270Y-70349721D01*
X-28791483Y-70335471D01*
X-28809207Y-70319407D01*
X-28825271Y-70301683D01*
X-28839521Y-70282470D01*
X-28851818Y-70261953D01*
X-28862046Y-70240329D01*
X-28870104Y-70217807D01*
X-28875916Y-70194603D01*
X-28879426Y-70170942D01*
X-28880600Y-70147050D01*
X-28880600Y-69234550D01*
X-28879426Y-69210658D01*
X-28875916Y-69186997D01*
X-28870104Y-69163793D01*
X-28862046Y-69141271D01*
X-28851818Y-69119647D01*
X-28839521Y-69099130D01*
X-28825271Y-69079917D01*
X-28809207Y-69062193D01*
X-28791483Y-69046129D01*
X-28772270Y-69031879D01*
X-28751753Y-69019582D01*
X-28730129Y-69009354D01*
X-28707607Y-69001296D01*
X-28684403Y-68995484D01*
X-28660742Y-68991974D01*
X-28636850Y-68990800D01*
X-28149350Y-68990800D01*
X-28125458Y-68991974D01*
X-28125458Y-68991974D01*
G37*
D13*
X-28393100Y-69690800D03*
D12*
G36*
X-26250458Y-68991974D02*
G01*
X-26226797Y-68995484D01*
X-26203593Y-69001296D01*
X-26181071Y-69009354D01*
X-26159447Y-69019582D01*
X-26138930Y-69031879D01*
X-26119717Y-69046129D01*
X-26101993Y-69062193D01*
X-26085929Y-69079917D01*
X-26071679Y-69099130D01*
X-26059382Y-69119647D01*
X-26049154Y-69141271D01*
X-26041096Y-69163793D01*
X-26035284Y-69186997D01*
X-26031774Y-69210658D01*
X-26030600Y-69234550D01*
X-26030600Y-70147050D01*
X-26031774Y-70170942D01*
X-26035284Y-70194603D01*
X-26041096Y-70217807D01*
X-26049154Y-70240329D01*
X-26059382Y-70261953D01*
X-26071679Y-70282470D01*
X-26085929Y-70301683D01*
X-26101993Y-70319407D01*
X-26119717Y-70335471D01*
X-26138930Y-70349721D01*
X-26159447Y-70362018D01*
X-26181071Y-70372246D01*
X-26203593Y-70380304D01*
X-26226797Y-70386116D01*
X-26250458Y-70389626D01*
X-26274350Y-70390800D01*
X-26761850Y-70390800D01*
X-26785742Y-70389626D01*
X-26809403Y-70386116D01*
X-26832607Y-70380304D01*
X-26855129Y-70372246D01*
X-26876753Y-70362018D01*
X-26897270Y-70349721D01*
X-26916483Y-70335471D01*
X-26934207Y-70319407D01*
X-26950271Y-70301683D01*
X-26964521Y-70282470D01*
X-26976818Y-70261953D01*
X-26987046Y-70240329D01*
X-26995104Y-70217807D01*
X-27000916Y-70194603D01*
X-27004426Y-70170942D01*
X-27005600Y-70147050D01*
X-27005600Y-69234550D01*
X-27004426Y-69210658D01*
X-27000916Y-69186997D01*
X-26995104Y-69163793D01*
X-26987046Y-69141271D01*
X-26976818Y-69119647D01*
X-26964521Y-69099130D01*
X-26950271Y-69079917D01*
X-26934207Y-69062193D01*
X-26916483Y-69046129D01*
X-26897270Y-69031879D01*
X-26876753Y-69019582D01*
X-26855129Y-69009354D01*
X-26832607Y-69001296D01*
X-26809403Y-68995484D01*
X-26785742Y-68991974D01*
X-26761850Y-68990800D01*
X-26274350Y-68990800D01*
X-26250458Y-68991974D01*
X-26250458Y-68991974D01*
G37*
D13*
X-26518100Y-69690800D03*
D12*
G36*
X-26425958Y-71379574D02*
G01*
X-26402297Y-71383084D01*
X-26379093Y-71388896D01*
X-26356571Y-71396954D01*
X-26334947Y-71407182D01*
X-26314430Y-71419479D01*
X-26295217Y-71433729D01*
X-26277493Y-71449793D01*
X-26261429Y-71467517D01*
X-26247179Y-71486730D01*
X-26234882Y-71507247D01*
X-26224654Y-71528871D01*
X-26216596Y-71551393D01*
X-26210784Y-71574597D01*
X-26207274Y-71598258D01*
X-26206100Y-71622150D01*
X-26206100Y-72534650D01*
X-26207274Y-72558542D01*
X-26210784Y-72582203D01*
X-26216596Y-72605407D01*
X-26224654Y-72627929D01*
X-26234882Y-72649553D01*
X-26247179Y-72670070D01*
X-26261429Y-72689283D01*
X-26277493Y-72707007D01*
X-26295217Y-72723071D01*
X-26314430Y-72737321D01*
X-26334947Y-72749618D01*
X-26356571Y-72759846D01*
X-26379093Y-72767904D01*
X-26402297Y-72773716D01*
X-26425958Y-72777226D01*
X-26449850Y-72778400D01*
X-26937350Y-72778400D01*
X-26961242Y-72777226D01*
X-26984903Y-72773716D01*
X-27008107Y-72767904D01*
X-27030629Y-72759846D01*
X-27052253Y-72749618D01*
X-27072770Y-72737321D01*
X-27091983Y-72723071D01*
X-27109707Y-72707007D01*
X-27125771Y-72689283D01*
X-27140021Y-72670070D01*
X-27152318Y-72649553D01*
X-27162546Y-72627929D01*
X-27170604Y-72605407D01*
X-27176416Y-72582203D01*
X-27179926Y-72558542D01*
X-27181100Y-72534650D01*
X-27181100Y-71622150D01*
X-27179926Y-71598258D01*
X-27176416Y-71574597D01*
X-27170604Y-71551393D01*
X-27162546Y-71528871D01*
X-27152318Y-71507247D01*
X-27140021Y-71486730D01*
X-27125771Y-71467517D01*
X-27109707Y-71449793D01*
X-27091983Y-71433729D01*
X-27072770Y-71419479D01*
X-27052253Y-71407182D01*
X-27030629Y-71396954D01*
X-27008107Y-71388896D01*
X-26984903Y-71383084D01*
X-26961242Y-71379574D01*
X-26937350Y-71378400D01*
X-26449850Y-71378400D01*
X-26425958Y-71379574D01*
X-26425958Y-71379574D01*
G37*
D13*
X-26693600Y-72078400D03*
D12*
G36*
X-28300958Y-71379574D02*
G01*
X-28277297Y-71383084D01*
X-28254093Y-71388896D01*
X-28231571Y-71396954D01*
X-28209947Y-71407182D01*
X-28189430Y-71419479D01*
X-28170217Y-71433729D01*
X-28152493Y-71449793D01*
X-28136429Y-71467517D01*
X-28122179Y-71486730D01*
X-28109882Y-71507247D01*
X-28099654Y-71528871D01*
X-28091596Y-71551393D01*
X-28085784Y-71574597D01*
X-28082274Y-71598258D01*
X-28081100Y-71622150D01*
X-28081100Y-72534650D01*
X-28082274Y-72558542D01*
X-28085784Y-72582203D01*
X-28091596Y-72605407D01*
X-28099654Y-72627929D01*
X-28109882Y-72649553D01*
X-28122179Y-72670070D01*
X-28136429Y-72689283D01*
X-28152493Y-72707007D01*
X-28170217Y-72723071D01*
X-28189430Y-72737321D01*
X-28209947Y-72749618D01*
X-28231571Y-72759846D01*
X-28254093Y-72767904D01*
X-28277297Y-72773716D01*
X-28300958Y-72777226D01*
X-28324850Y-72778400D01*
X-28812350Y-72778400D01*
X-28836242Y-72777226D01*
X-28859903Y-72773716D01*
X-28883107Y-72767904D01*
X-28905629Y-72759846D01*
X-28927253Y-72749618D01*
X-28947770Y-72737321D01*
X-28966983Y-72723071D01*
X-28984707Y-72707007D01*
X-29000771Y-72689283D01*
X-29015021Y-72670070D01*
X-29027318Y-72649553D01*
X-29037546Y-72627929D01*
X-29045604Y-72605407D01*
X-29051416Y-72582203D01*
X-29054926Y-72558542D01*
X-29056100Y-72534650D01*
X-29056100Y-71622150D01*
X-29054926Y-71598258D01*
X-29051416Y-71574597D01*
X-29045604Y-71551393D01*
X-29037546Y-71528871D01*
X-29027318Y-71507247D01*
X-29015021Y-71486730D01*
X-29000771Y-71467517D01*
X-28984707Y-71449793D01*
X-28966983Y-71433729D01*
X-28947770Y-71419479D01*
X-28927253Y-71407182D01*
X-28905629Y-71396954D01*
X-28883107Y-71388896D01*
X-28859903Y-71383084D01*
X-28836242Y-71379574D01*
X-28812350Y-71378400D01*
X-28324850Y-71378400D01*
X-28300958Y-71379574D01*
X-28300958Y-71379574D01*
G37*
D13*
X-28568600Y-72078400D03*
D12*
G36*
X-36359658Y-71735174D02*
G01*
X-36335997Y-71738684D01*
X-36312793Y-71744496D01*
X-36290271Y-71752554D01*
X-36268647Y-71762782D01*
X-36248130Y-71775079D01*
X-36228917Y-71789329D01*
X-36211193Y-71805393D01*
X-36195129Y-71823117D01*
X-36180879Y-71842330D01*
X-36168582Y-71862847D01*
X-36158354Y-71884471D01*
X-36150296Y-71906993D01*
X-36144484Y-71930197D01*
X-36140974Y-71953858D01*
X-36139800Y-71977750D01*
X-36139800Y-72890250D01*
X-36140974Y-72914142D01*
X-36144484Y-72937803D01*
X-36150296Y-72961007D01*
X-36158354Y-72983529D01*
X-36168582Y-73005153D01*
X-36180879Y-73025670D01*
X-36195129Y-73044883D01*
X-36211193Y-73062607D01*
X-36228917Y-73078671D01*
X-36248130Y-73092921D01*
X-36268647Y-73105218D01*
X-36290271Y-73115446D01*
X-36312793Y-73123504D01*
X-36335997Y-73129316D01*
X-36359658Y-73132826D01*
X-36383550Y-73134000D01*
X-36871050Y-73134000D01*
X-36894942Y-73132826D01*
X-36918603Y-73129316D01*
X-36941807Y-73123504D01*
X-36964329Y-73115446D01*
X-36985953Y-73105218D01*
X-37006470Y-73092921D01*
X-37025683Y-73078671D01*
X-37043407Y-73062607D01*
X-37059471Y-73044883D01*
X-37073721Y-73025670D01*
X-37086018Y-73005153D01*
X-37096246Y-72983529D01*
X-37104304Y-72961007D01*
X-37110116Y-72937803D01*
X-37113626Y-72914142D01*
X-37114800Y-72890250D01*
X-37114800Y-71977750D01*
X-37113626Y-71953858D01*
X-37110116Y-71930197D01*
X-37104304Y-71906993D01*
X-37096246Y-71884471D01*
X-37086018Y-71862847D01*
X-37073721Y-71842330D01*
X-37059471Y-71823117D01*
X-37043407Y-71805393D01*
X-37025683Y-71789329D01*
X-37006470Y-71775079D01*
X-36985953Y-71762782D01*
X-36964329Y-71752554D01*
X-36941807Y-71744496D01*
X-36918603Y-71738684D01*
X-36894942Y-71735174D01*
X-36871050Y-71734000D01*
X-36383550Y-71734000D01*
X-36359658Y-71735174D01*
X-36359658Y-71735174D01*
G37*
D13*
X-36627300Y-72434000D03*
D12*
G36*
X-38234658Y-71735174D02*
G01*
X-38210997Y-71738684D01*
X-38187793Y-71744496D01*
X-38165271Y-71752554D01*
X-38143647Y-71762782D01*
X-38123130Y-71775079D01*
X-38103917Y-71789329D01*
X-38086193Y-71805393D01*
X-38070129Y-71823117D01*
X-38055879Y-71842330D01*
X-38043582Y-71862847D01*
X-38033354Y-71884471D01*
X-38025296Y-71906993D01*
X-38019484Y-71930197D01*
X-38015974Y-71953858D01*
X-38014800Y-71977750D01*
X-38014800Y-72890250D01*
X-38015974Y-72914142D01*
X-38019484Y-72937803D01*
X-38025296Y-72961007D01*
X-38033354Y-72983529D01*
X-38043582Y-73005153D01*
X-38055879Y-73025670D01*
X-38070129Y-73044883D01*
X-38086193Y-73062607D01*
X-38103917Y-73078671D01*
X-38123130Y-73092921D01*
X-38143647Y-73105218D01*
X-38165271Y-73115446D01*
X-38187793Y-73123504D01*
X-38210997Y-73129316D01*
X-38234658Y-73132826D01*
X-38258550Y-73134000D01*
X-38746050Y-73134000D01*
X-38769942Y-73132826D01*
X-38793603Y-73129316D01*
X-38816807Y-73123504D01*
X-38839329Y-73115446D01*
X-38860953Y-73105218D01*
X-38881470Y-73092921D01*
X-38900683Y-73078671D01*
X-38918407Y-73062607D01*
X-38934471Y-73044883D01*
X-38948721Y-73025670D01*
X-38961018Y-73005153D01*
X-38971246Y-72983529D01*
X-38979304Y-72961007D01*
X-38985116Y-72937803D01*
X-38988626Y-72914142D01*
X-38989800Y-72890250D01*
X-38989800Y-71977750D01*
X-38988626Y-71953858D01*
X-38985116Y-71930197D01*
X-38979304Y-71906993D01*
X-38971246Y-71884471D01*
X-38961018Y-71862847D01*
X-38948721Y-71842330D01*
X-38934471Y-71823117D01*
X-38918407Y-71805393D01*
X-38900683Y-71789329D01*
X-38881470Y-71775079D01*
X-38860953Y-71762782D01*
X-38839329Y-71752554D01*
X-38816807Y-71744496D01*
X-38793603Y-71738684D01*
X-38769942Y-71735174D01*
X-38746050Y-71734000D01*
X-38258550Y-71734000D01*
X-38234658Y-71735174D01*
X-38234658Y-71735174D01*
G37*
D13*
X-38502300Y-72434000D03*
D12*
G36*
X-39203296Y-68817004D02*
G01*
X-39179027Y-68820604D01*
X-39155229Y-68826565D01*
X-39132129Y-68834830D01*
X-39109951Y-68845320D01*
X-39088907Y-68857933D01*
X-39069202Y-68872547D01*
X-39051023Y-68889023D01*
X-39034547Y-68907202D01*
X-39019933Y-68926907D01*
X-39007320Y-68947951D01*
X-38996830Y-68970129D01*
X-38988565Y-68993229D01*
X-38982604Y-69017027D01*
X-38979004Y-69041296D01*
X-38977800Y-69065800D01*
X-38977800Y-70315800D01*
X-38979004Y-70340304D01*
X-38982604Y-70364573D01*
X-38988565Y-70388371D01*
X-38996830Y-70411471D01*
X-39007320Y-70433649D01*
X-39019933Y-70454693D01*
X-39034547Y-70474398D01*
X-39051023Y-70492577D01*
X-39069202Y-70509053D01*
X-39088907Y-70523667D01*
X-39109951Y-70536280D01*
X-39132129Y-70546770D01*
X-39155229Y-70555035D01*
X-39179027Y-70560996D01*
X-39203296Y-70564596D01*
X-39227800Y-70565800D01*
X-39977800Y-70565800D01*
X-40002304Y-70564596D01*
X-40026573Y-70560996D01*
X-40050371Y-70555035D01*
X-40073471Y-70546770D01*
X-40095649Y-70536280D01*
X-40116693Y-70523667D01*
X-40136398Y-70509053D01*
X-40154577Y-70492577D01*
X-40171053Y-70474398D01*
X-40185667Y-70454693D01*
X-40198280Y-70433649D01*
X-40208770Y-70411471D01*
X-40217035Y-70388371D01*
X-40222996Y-70364573D01*
X-40226596Y-70340304D01*
X-40227800Y-70315800D01*
X-40227800Y-69065800D01*
X-40226596Y-69041296D01*
X-40222996Y-69017027D01*
X-40217035Y-68993229D01*
X-40208770Y-68970129D01*
X-40198280Y-68947951D01*
X-40185667Y-68926907D01*
X-40171053Y-68907202D01*
X-40154577Y-68889023D01*
X-40136398Y-68872547D01*
X-40116693Y-68857933D01*
X-40095649Y-68845320D01*
X-40073471Y-68834830D01*
X-40050371Y-68826565D01*
X-40026573Y-68820604D01*
X-40002304Y-68817004D01*
X-39977800Y-68815800D01*
X-39227800Y-68815800D01*
X-39203296Y-68817004D01*
X-39203296Y-68817004D01*
G37*
D15*
X-39602800Y-69690800D03*
D12*
G36*
X-36403296Y-68817004D02*
G01*
X-36379027Y-68820604D01*
X-36355229Y-68826565D01*
X-36332129Y-68834830D01*
X-36309951Y-68845320D01*
X-36288907Y-68857933D01*
X-36269202Y-68872547D01*
X-36251023Y-68889023D01*
X-36234547Y-68907202D01*
X-36219933Y-68926907D01*
X-36207320Y-68947951D01*
X-36196830Y-68970129D01*
X-36188565Y-68993229D01*
X-36182604Y-69017027D01*
X-36179004Y-69041296D01*
X-36177800Y-69065800D01*
X-36177800Y-70315800D01*
X-36179004Y-70340304D01*
X-36182604Y-70364573D01*
X-36188565Y-70388371D01*
X-36196830Y-70411471D01*
X-36207320Y-70433649D01*
X-36219933Y-70454693D01*
X-36234547Y-70474398D01*
X-36251023Y-70492577D01*
X-36269202Y-70509053D01*
X-36288907Y-70523667D01*
X-36309951Y-70536280D01*
X-36332129Y-70546770D01*
X-36355229Y-70555035D01*
X-36379027Y-70560996D01*
X-36403296Y-70564596D01*
X-36427800Y-70565800D01*
X-37177800Y-70565800D01*
X-37202304Y-70564596D01*
X-37226573Y-70560996D01*
X-37250371Y-70555035D01*
X-37273471Y-70546770D01*
X-37295649Y-70536280D01*
X-37316693Y-70523667D01*
X-37336398Y-70509053D01*
X-37354577Y-70492577D01*
X-37371053Y-70474398D01*
X-37385667Y-70454693D01*
X-37398280Y-70433649D01*
X-37408770Y-70411471D01*
X-37417035Y-70388371D01*
X-37422996Y-70364573D01*
X-37426596Y-70340304D01*
X-37427800Y-70315800D01*
X-37427800Y-69065800D01*
X-37426596Y-69041296D01*
X-37422996Y-69017027D01*
X-37417035Y-68993229D01*
X-37408770Y-68970129D01*
X-37398280Y-68947951D01*
X-37385667Y-68926907D01*
X-37371053Y-68907202D01*
X-37354577Y-68889023D01*
X-37336398Y-68872547D01*
X-37316693Y-68857933D01*
X-37295649Y-68845320D01*
X-37273471Y-68834830D01*
X-37250371Y-68826565D01*
X-37226573Y-68820604D01*
X-37202304Y-68817004D01*
X-37177800Y-68815800D01*
X-36427800Y-68815800D01*
X-36403296Y-68817004D01*
X-36403296Y-68817004D01*
G37*
D15*
X-36802800Y-69690800D03*
D12*
G36*
X-14935858Y-81345674D02*
G01*
X-14912197Y-81349184D01*
X-14888993Y-81354996D01*
X-14866471Y-81363054D01*
X-14844847Y-81373282D01*
X-14824330Y-81385579D01*
X-14805117Y-81399829D01*
X-14787393Y-81415893D01*
X-14771329Y-81433617D01*
X-14757079Y-81452830D01*
X-14744782Y-81473347D01*
X-14734554Y-81494971D01*
X-14726496Y-81517493D01*
X-14720684Y-81540697D01*
X-14717174Y-81564358D01*
X-14716000Y-81588250D01*
X-14716000Y-82075750D01*
X-14717174Y-82099642D01*
X-14720684Y-82123303D01*
X-14726496Y-82146507D01*
X-14734554Y-82169029D01*
X-14744782Y-82190653D01*
X-14757079Y-82211170D01*
X-14771329Y-82230383D01*
X-14787393Y-82248107D01*
X-14805117Y-82264171D01*
X-14824330Y-82278421D01*
X-14844847Y-82290718D01*
X-14866471Y-82300946D01*
X-14888993Y-82309004D01*
X-14912197Y-82314816D01*
X-14935858Y-82318326D01*
X-14959750Y-82319500D01*
X-15872250Y-82319500D01*
X-15896142Y-82318326D01*
X-15919803Y-82314816D01*
X-15943007Y-82309004D01*
X-15965529Y-82300946D01*
X-15987153Y-82290718D01*
X-16007670Y-82278421D01*
X-16026883Y-82264171D01*
X-16044607Y-82248107D01*
X-16060671Y-82230383D01*
X-16074921Y-82211170D01*
X-16087218Y-82190653D01*
X-16097446Y-82169029D01*
X-16105504Y-82146507D01*
X-16111316Y-82123303D01*
X-16114826Y-82099642D01*
X-16116000Y-82075750D01*
X-16116000Y-81588250D01*
X-16114826Y-81564358D01*
X-16111316Y-81540697D01*
X-16105504Y-81517493D01*
X-16097446Y-81494971D01*
X-16087218Y-81473347D01*
X-16074921Y-81452830D01*
X-16060671Y-81433617D01*
X-16044607Y-81415893D01*
X-16026883Y-81399829D01*
X-16007670Y-81385579D01*
X-15987153Y-81373282D01*
X-15965529Y-81363054D01*
X-15943007Y-81354996D01*
X-15919803Y-81349184D01*
X-15896142Y-81345674D01*
X-15872250Y-81344500D01*
X-14959750Y-81344500D01*
X-14935858Y-81345674D01*
X-14935858Y-81345674D01*
G37*
D13*
X-15416000Y-81832000D03*
D12*
G36*
X-14935858Y-83220674D02*
G01*
X-14912197Y-83224184D01*
X-14888993Y-83229996D01*
X-14866471Y-83238054D01*
X-14844847Y-83248282D01*
X-14824330Y-83260579D01*
X-14805117Y-83274829D01*
X-14787393Y-83290893D01*
X-14771329Y-83308617D01*
X-14757079Y-83327830D01*
X-14744782Y-83348347D01*
X-14734554Y-83369971D01*
X-14726496Y-83392493D01*
X-14720684Y-83415697D01*
X-14717174Y-83439358D01*
X-14716000Y-83463250D01*
X-14716000Y-83950750D01*
X-14717174Y-83974642D01*
X-14720684Y-83998303D01*
X-14726496Y-84021507D01*
X-14734554Y-84044029D01*
X-14744782Y-84065653D01*
X-14757079Y-84086170D01*
X-14771329Y-84105383D01*
X-14787393Y-84123107D01*
X-14805117Y-84139171D01*
X-14824330Y-84153421D01*
X-14844847Y-84165718D01*
X-14866471Y-84175946D01*
X-14888993Y-84184004D01*
X-14912197Y-84189816D01*
X-14935858Y-84193326D01*
X-14959750Y-84194500D01*
X-15872250Y-84194500D01*
X-15896142Y-84193326D01*
X-15919803Y-84189816D01*
X-15943007Y-84184004D01*
X-15965529Y-84175946D01*
X-15987153Y-84165718D01*
X-16007670Y-84153421D01*
X-16026883Y-84139171D01*
X-16044607Y-84123107D01*
X-16060671Y-84105383D01*
X-16074921Y-84086170D01*
X-16087218Y-84065653D01*
X-16097446Y-84044029D01*
X-16105504Y-84021507D01*
X-16111316Y-83998303D01*
X-16114826Y-83974642D01*
X-16116000Y-83950750D01*
X-16116000Y-83463250D01*
X-16114826Y-83439358D01*
X-16111316Y-83415697D01*
X-16105504Y-83392493D01*
X-16097446Y-83369971D01*
X-16087218Y-83348347D01*
X-16074921Y-83327830D01*
X-16060671Y-83308617D01*
X-16044607Y-83290893D01*
X-16026883Y-83274829D01*
X-16007670Y-83260579D01*
X-15987153Y-83248282D01*
X-15965529Y-83238054D01*
X-15943007Y-83229996D01*
X-15919803Y-83224184D01*
X-15896142Y-83220674D01*
X-15872250Y-83219500D01*
X-14959750Y-83219500D01*
X-14935858Y-83220674D01*
X-14935858Y-83220674D01*
G37*
D13*
X-15416000Y-83707000D03*
D12*
G36*
X-14631058Y-74330674D02*
G01*
X-14607397Y-74334184D01*
X-14584193Y-74339996D01*
X-14561671Y-74348054D01*
X-14540047Y-74358282D01*
X-14519530Y-74370579D01*
X-14500317Y-74384829D01*
X-14482593Y-74400893D01*
X-14466529Y-74418617D01*
X-14452279Y-74437830D01*
X-14439982Y-74458347D01*
X-14429754Y-74479971D01*
X-14421696Y-74502493D01*
X-14415884Y-74525697D01*
X-14412374Y-74549358D01*
X-14411200Y-74573250D01*
X-14411200Y-75060750D01*
X-14412374Y-75084642D01*
X-14415884Y-75108303D01*
X-14421696Y-75131507D01*
X-14429754Y-75154029D01*
X-14439982Y-75175653D01*
X-14452279Y-75196170D01*
X-14466529Y-75215383D01*
X-14482593Y-75233107D01*
X-14500317Y-75249171D01*
X-14519530Y-75263421D01*
X-14540047Y-75275718D01*
X-14561671Y-75285946D01*
X-14584193Y-75294004D01*
X-14607397Y-75299816D01*
X-14631058Y-75303326D01*
X-14654950Y-75304500D01*
X-15567450Y-75304500D01*
X-15591342Y-75303326D01*
X-15615003Y-75299816D01*
X-15638207Y-75294004D01*
X-15660729Y-75285946D01*
X-15682353Y-75275718D01*
X-15702870Y-75263421D01*
X-15722083Y-75249171D01*
X-15739807Y-75233107D01*
X-15755871Y-75215383D01*
X-15770121Y-75196170D01*
X-15782418Y-75175653D01*
X-15792646Y-75154029D01*
X-15800704Y-75131507D01*
X-15806516Y-75108303D01*
X-15810026Y-75084642D01*
X-15811200Y-75060750D01*
X-15811200Y-74573250D01*
X-15810026Y-74549358D01*
X-15806516Y-74525697D01*
X-15800704Y-74502493D01*
X-15792646Y-74479971D01*
X-15782418Y-74458347D01*
X-15770121Y-74437830D01*
X-15755871Y-74418617D01*
X-15739807Y-74400893D01*
X-15722083Y-74384829D01*
X-15702870Y-74370579D01*
X-15682353Y-74358282D01*
X-15660729Y-74348054D01*
X-15638207Y-74339996D01*
X-15615003Y-74334184D01*
X-15591342Y-74330674D01*
X-15567450Y-74329500D01*
X-14654950Y-74329500D01*
X-14631058Y-74330674D01*
X-14631058Y-74330674D01*
G37*
D13*
X-15111200Y-74817000D03*
D12*
G36*
X-14631058Y-72455674D02*
G01*
X-14607397Y-72459184D01*
X-14584193Y-72464996D01*
X-14561671Y-72473054D01*
X-14540047Y-72483282D01*
X-14519530Y-72495579D01*
X-14500317Y-72509829D01*
X-14482593Y-72525893D01*
X-14466529Y-72543617D01*
X-14452279Y-72562830D01*
X-14439982Y-72583347D01*
X-14429754Y-72604971D01*
X-14421696Y-72627493D01*
X-14415884Y-72650697D01*
X-14412374Y-72674358D01*
X-14411200Y-72698250D01*
X-14411200Y-73185750D01*
X-14412374Y-73209642D01*
X-14415884Y-73233303D01*
X-14421696Y-73256507D01*
X-14429754Y-73279029D01*
X-14439982Y-73300653D01*
X-14452279Y-73321170D01*
X-14466529Y-73340383D01*
X-14482593Y-73358107D01*
X-14500317Y-73374171D01*
X-14519530Y-73388421D01*
X-14540047Y-73400718D01*
X-14561671Y-73410946D01*
X-14584193Y-73419004D01*
X-14607397Y-73424816D01*
X-14631058Y-73428326D01*
X-14654950Y-73429500D01*
X-15567450Y-73429500D01*
X-15591342Y-73428326D01*
X-15615003Y-73424816D01*
X-15638207Y-73419004D01*
X-15660729Y-73410946D01*
X-15682353Y-73400718D01*
X-15702870Y-73388421D01*
X-15722083Y-73374171D01*
X-15739807Y-73358107D01*
X-15755871Y-73340383D01*
X-15770121Y-73321170D01*
X-15782418Y-73300653D01*
X-15792646Y-73279029D01*
X-15800704Y-73256507D01*
X-15806516Y-73233303D01*
X-15810026Y-73209642D01*
X-15811200Y-73185750D01*
X-15811200Y-72698250D01*
X-15810026Y-72674358D01*
X-15806516Y-72650697D01*
X-15800704Y-72627493D01*
X-15792646Y-72604971D01*
X-15782418Y-72583347D01*
X-15770121Y-72562830D01*
X-15755871Y-72543617D01*
X-15739807Y-72525893D01*
X-15722083Y-72509829D01*
X-15702870Y-72495579D01*
X-15682353Y-72483282D01*
X-15660729Y-72473054D01*
X-15638207Y-72464996D01*
X-15615003Y-72459184D01*
X-15591342Y-72455674D01*
X-15567450Y-72454500D01*
X-14654950Y-72454500D01*
X-14631058Y-72455674D01*
X-14631058Y-72455674D01*
G37*
D13*
X-15111200Y-72942000D03*
D12*
G36*
X-24537058Y-95417274D02*
G01*
X-24513397Y-95420784D01*
X-24490193Y-95426596D01*
X-24467671Y-95434654D01*
X-24446047Y-95444882D01*
X-24425530Y-95457179D01*
X-24406317Y-95471429D01*
X-24388593Y-95487493D01*
X-24372529Y-95505217D01*
X-24358279Y-95524430D01*
X-24345982Y-95544947D01*
X-24335754Y-95566571D01*
X-24327696Y-95589093D01*
X-24321884Y-95612297D01*
X-24318374Y-95635958D01*
X-24317200Y-95659850D01*
X-24317200Y-96147350D01*
X-24318374Y-96171242D01*
X-24321884Y-96194903D01*
X-24327696Y-96218107D01*
X-24335754Y-96240629D01*
X-24345982Y-96262253D01*
X-24358279Y-96282770D01*
X-24372529Y-96301983D01*
X-24388593Y-96319707D01*
X-24406317Y-96335771D01*
X-24425530Y-96350021D01*
X-24446047Y-96362318D01*
X-24467671Y-96372546D01*
X-24490193Y-96380604D01*
X-24513397Y-96386416D01*
X-24537058Y-96389926D01*
X-24560950Y-96391100D01*
X-25473450Y-96391100D01*
X-25497342Y-96389926D01*
X-25521003Y-96386416D01*
X-25544207Y-96380604D01*
X-25566729Y-96372546D01*
X-25588353Y-96362318D01*
X-25608870Y-96350021D01*
X-25628083Y-96335771D01*
X-25645807Y-96319707D01*
X-25661871Y-96301983D01*
X-25676121Y-96282770D01*
X-25688418Y-96262253D01*
X-25698646Y-96240629D01*
X-25706704Y-96218107D01*
X-25712516Y-96194903D01*
X-25716026Y-96171242D01*
X-25717200Y-96147350D01*
X-25717200Y-95659850D01*
X-25716026Y-95635958D01*
X-25712516Y-95612297D01*
X-25706704Y-95589093D01*
X-25698646Y-95566571D01*
X-25688418Y-95544947D01*
X-25676121Y-95524430D01*
X-25661871Y-95505217D01*
X-25645807Y-95487493D01*
X-25628083Y-95471429D01*
X-25608870Y-95457179D01*
X-25588353Y-95444882D01*
X-25566729Y-95434654D01*
X-25544207Y-95426596D01*
X-25521003Y-95420784D01*
X-25497342Y-95417274D01*
X-25473450Y-95416100D01*
X-24560950Y-95416100D01*
X-24537058Y-95417274D01*
X-24537058Y-95417274D01*
G37*
D13*
X-25017200Y-95903600D03*
D12*
G36*
X-24537058Y-97292274D02*
G01*
X-24513397Y-97295784D01*
X-24490193Y-97301596D01*
X-24467671Y-97309654D01*
X-24446047Y-97319882D01*
X-24425530Y-97332179D01*
X-24406317Y-97346429D01*
X-24388593Y-97362493D01*
X-24372529Y-97380217D01*
X-24358279Y-97399430D01*
X-24345982Y-97419947D01*
X-24335754Y-97441571D01*
X-24327696Y-97464093D01*
X-24321884Y-97487297D01*
X-24318374Y-97510958D01*
X-24317200Y-97534850D01*
X-24317200Y-98022350D01*
X-24318374Y-98046242D01*
X-24321884Y-98069903D01*
X-24327696Y-98093107D01*
X-24335754Y-98115629D01*
X-24345982Y-98137253D01*
X-24358279Y-98157770D01*
X-24372529Y-98176983D01*
X-24388593Y-98194707D01*
X-24406317Y-98210771D01*
X-24425530Y-98225021D01*
X-24446047Y-98237318D01*
X-24467671Y-98247546D01*
X-24490193Y-98255604D01*
X-24513397Y-98261416D01*
X-24537058Y-98264926D01*
X-24560950Y-98266100D01*
X-25473450Y-98266100D01*
X-25497342Y-98264926D01*
X-25521003Y-98261416D01*
X-25544207Y-98255604D01*
X-25566729Y-98247546D01*
X-25588353Y-98237318D01*
X-25608870Y-98225021D01*
X-25628083Y-98210771D01*
X-25645807Y-98194707D01*
X-25661871Y-98176983D01*
X-25676121Y-98157770D01*
X-25688418Y-98137253D01*
X-25698646Y-98115629D01*
X-25706704Y-98093107D01*
X-25712516Y-98069903D01*
X-25716026Y-98046242D01*
X-25717200Y-98022350D01*
X-25717200Y-97534850D01*
X-25716026Y-97510958D01*
X-25712516Y-97487297D01*
X-25706704Y-97464093D01*
X-25698646Y-97441571D01*
X-25688418Y-97419947D01*
X-25676121Y-97399430D01*
X-25661871Y-97380217D01*
X-25645807Y-97362493D01*
X-25628083Y-97346429D01*
X-25608870Y-97332179D01*
X-25588353Y-97319882D01*
X-25566729Y-97309654D01*
X-25544207Y-97301596D01*
X-25521003Y-97295784D01*
X-25497342Y-97292274D01*
X-25473450Y-97291100D01*
X-24560950Y-97291100D01*
X-24537058Y-97292274D01*
X-24537058Y-97292274D01*
G37*
D13*
X-25017200Y-97778600D03*
D12*
G36*
X-22505058Y-97292274D02*
G01*
X-22481397Y-97295784D01*
X-22458193Y-97301596D01*
X-22435671Y-97309654D01*
X-22414047Y-97319882D01*
X-22393530Y-97332179D01*
X-22374317Y-97346429D01*
X-22356593Y-97362493D01*
X-22340529Y-97380217D01*
X-22326279Y-97399430D01*
X-22313982Y-97419947D01*
X-22303754Y-97441571D01*
X-22295696Y-97464093D01*
X-22289884Y-97487297D01*
X-22286374Y-97510958D01*
X-22285200Y-97534850D01*
X-22285200Y-98022350D01*
X-22286374Y-98046242D01*
X-22289884Y-98069903D01*
X-22295696Y-98093107D01*
X-22303754Y-98115629D01*
X-22313982Y-98137253D01*
X-22326279Y-98157770D01*
X-22340529Y-98176983D01*
X-22356593Y-98194707D01*
X-22374317Y-98210771D01*
X-22393530Y-98225021D01*
X-22414047Y-98237318D01*
X-22435671Y-98247546D01*
X-22458193Y-98255604D01*
X-22481397Y-98261416D01*
X-22505058Y-98264926D01*
X-22528950Y-98266100D01*
X-23441450Y-98266100D01*
X-23465342Y-98264926D01*
X-23489003Y-98261416D01*
X-23512207Y-98255604D01*
X-23534729Y-98247546D01*
X-23556353Y-98237318D01*
X-23576870Y-98225021D01*
X-23596083Y-98210771D01*
X-23613807Y-98194707D01*
X-23629871Y-98176983D01*
X-23644121Y-98157770D01*
X-23656418Y-98137253D01*
X-23666646Y-98115629D01*
X-23674704Y-98093107D01*
X-23680516Y-98069903D01*
X-23684026Y-98046242D01*
X-23685200Y-98022350D01*
X-23685200Y-97534850D01*
X-23684026Y-97510958D01*
X-23680516Y-97487297D01*
X-23674704Y-97464093D01*
X-23666646Y-97441571D01*
X-23656418Y-97419947D01*
X-23644121Y-97399430D01*
X-23629871Y-97380217D01*
X-23613807Y-97362493D01*
X-23596083Y-97346429D01*
X-23576870Y-97332179D01*
X-23556353Y-97319882D01*
X-23534729Y-97309654D01*
X-23512207Y-97301596D01*
X-23489003Y-97295784D01*
X-23465342Y-97292274D01*
X-23441450Y-97291100D01*
X-22528950Y-97291100D01*
X-22505058Y-97292274D01*
X-22505058Y-97292274D01*
G37*
D13*
X-22985200Y-97778600D03*
D12*
G36*
X-22505058Y-95417274D02*
G01*
X-22481397Y-95420784D01*
X-22458193Y-95426596D01*
X-22435671Y-95434654D01*
X-22414047Y-95444882D01*
X-22393530Y-95457179D01*
X-22374317Y-95471429D01*
X-22356593Y-95487493D01*
X-22340529Y-95505217D01*
X-22326279Y-95524430D01*
X-22313982Y-95544947D01*
X-22303754Y-95566571D01*
X-22295696Y-95589093D01*
X-22289884Y-95612297D01*
X-22286374Y-95635958D01*
X-22285200Y-95659850D01*
X-22285200Y-96147350D01*
X-22286374Y-96171242D01*
X-22289884Y-96194903D01*
X-22295696Y-96218107D01*
X-22303754Y-96240629D01*
X-22313982Y-96262253D01*
X-22326279Y-96282770D01*
X-22340529Y-96301983D01*
X-22356593Y-96319707D01*
X-22374317Y-96335771D01*
X-22393530Y-96350021D01*
X-22414047Y-96362318D01*
X-22435671Y-96372546D01*
X-22458193Y-96380604D01*
X-22481397Y-96386416D01*
X-22505058Y-96389926D01*
X-22528950Y-96391100D01*
X-23441450Y-96391100D01*
X-23465342Y-96389926D01*
X-23489003Y-96386416D01*
X-23512207Y-96380604D01*
X-23534729Y-96372546D01*
X-23556353Y-96362318D01*
X-23576870Y-96350021D01*
X-23596083Y-96335771D01*
X-23613807Y-96319707D01*
X-23629871Y-96301983D01*
X-23644121Y-96282770D01*
X-23656418Y-96262253D01*
X-23666646Y-96240629D01*
X-23674704Y-96218107D01*
X-23680516Y-96194903D01*
X-23684026Y-96171242D01*
X-23685200Y-96147350D01*
X-23685200Y-95659850D01*
X-23684026Y-95635958D01*
X-23680516Y-95612297D01*
X-23674704Y-95589093D01*
X-23666646Y-95566571D01*
X-23656418Y-95544947D01*
X-23644121Y-95524430D01*
X-23629871Y-95505217D01*
X-23613807Y-95487493D01*
X-23596083Y-95471429D01*
X-23576870Y-95457179D01*
X-23556353Y-95444882D01*
X-23534729Y-95434654D01*
X-23512207Y-95426596D01*
X-23489003Y-95420784D01*
X-23465342Y-95417274D01*
X-23441450Y-95416100D01*
X-22528950Y-95416100D01*
X-22505058Y-95417274D01*
X-22505058Y-95417274D01*
G37*
D13*
X-22985200Y-95903600D03*
D12*
G36*
X-20473058Y-95421874D02*
G01*
X-20449397Y-95425384D01*
X-20426193Y-95431196D01*
X-20403671Y-95439254D01*
X-20382047Y-95449482D01*
X-20361530Y-95461779D01*
X-20342317Y-95476029D01*
X-20324593Y-95492093D01*
X-20308529Y-95509817D01*
X-20294279Y-95529030D01*
X-20281982Y-95549547D01*
X-20271754Y-95571171D01*
X-20263696Y-95593693D01*
X-20257884Y-95616897D01*
X-20254374Y-95640558D01*
X-20253200Y-95664450D01*
X-20253200Y-96151950D01*
X-20254374Y-96175842D01*
X-20257884Y-96199503D01*
X-20263696Y-96222707D01*
X-20271754Y-96245229D01*
X-20281982Y-96266853D01*
X-20294279Y-96287370D01*
X-20308529Y-96306583D01*
X-20324593Y-96324307D01*
X-20342317Y-96340371D01*
X-20361530Y-96354621D01*
X-20382047Y-96366918D01*
X-20403671Y-96377146D01*
X-20426193Y-96385204D01*
X-20449397Y-96391016D01*
X-20473058Y-96394526D01*
X-20496950Y-96395700D01*
X-21409450Y-96395700D01*
X-21433342Y-96394526D01*
X-21457003Y-96391016D01*
X-21480207Y-96385204D01*
X-21502729Y-96377146D01*
X-21524353Y-96366918D01*
X-21544870Y-96354621D01*
X-21564083Y-96340371D01*
X-21581807Y-96324307D01*
X-21597871Y-96306583D01*
X-21612121Y-96287370D01*
X-21624418Y-96266853D01*
X-21634646Y-96245229D01*
X-21642704Y-96222707D01*
X-21648516Y-96199503D01*
X-21652026Y-96175842D01*
X-21653200Y-96151950D01*
X-21653200Y-95664450D01*
X-21652026Y-95640558D01*
X-21648516Y-95616897D01*
X-21642704Y-95593693D01*
X-21634646Y-95571171D01*
X-21624418Y-95549547D01*
X-21612121Y-95529030D01*
X-21597871Y-95509817D01*
X-21581807Y-95492093D01*
X-21564083Y-95476029D01*
X-21544870Y-95461779D01*
X-21524353Y-95449482D01*
X-21502729Y-95439254D01*
X-21480207Y-95431196D01*
X-21457003Y-95425384D01*
X-21433342Y-95421874D01*
X-21409450Y-95420700D01*
X-20496950Y-95420700D01*
X-20473058Y-95421874D01*
X-20473058Y-95421874D01*
G37*
D13*
X-20953200Y-95908200D03*
D12*
G36*
X-20473058Y-97296874D02*
G01*
X-20449397Y-97300384D01*
X-20426193Y-97306196D01*
X-20403671Y-97314254D01*
X-20382047Y-97324482D01*
X-20361530Y-97336779D01*
X-20342317Y-97351029D01*
X-20324593Y-97367093D01*
X-20308529Y-97384817D01*
X-20294279Y-97404030D01*
X-20281982Y-97424547D01*
X-20271754Y-97446171D01*
X-20263696Y-97468693D01*
X-20257884Y-97491897D01*
X-20254374Y-97515558D01*
X-20253200Y-97539450D01*
X-20253200Y-98026950D01*
X-20254374Y-98050842D01*
X-20257884Y-98074503D01*
X-20263696Y-98097707D01*
X-20271754Y-98120229D01*
X-20281982Y-98141853D01*
X-20294279Y-98162370D01*
X-20308529Y-98181583D01*
X-20324593Y-98199307D01*
X-20342317Y-98215371D01*
X-20361530Y-98229621D01*
X-20382047Y-98241918D01*
X-20403671Y-98252146D01*
X-20426193Y-98260204D01*
X-20449397Y-98266016D01*
X-20473058Y-98269526D01*
X-20496950Y-98270700D01*
X-21409450Y-98270700D01*
X-21433342Y-98269526D01*
X-21457003Y-98266016D01*
X-21480207Y-98260204D01*
X-21502729Y-98252146D01*
X-21524353Y-98241918D01*
X-21544870Y-98229621D01*
X-21564083Y-98215371D01*
X-21581807Y-98199307D01*
X-21597871Y-98181583D01*
X-21612121Y-98162370D01*
X-21624418Y-98141853D01*
X-21634646Y-98120229D01*
X-21642704Y-98097707D01*
X-21648516Y-98074503D01*
X-21652026Y-98050842D01*
X-21653200Y-98026950D01*
X-21653200Y-97539450D01*
X-21652026Y-97515558D01*
X-21648516Y-97491897D01*
X-21642704Y-97468693D01*
X-21634646Y-97446171D01*
X-21624418Y-97424547D01*
X-21612121Y-97404030D01*
X-21597871Y-97384817D01*
X-21581807Y-97367093D01*
X-21564083Y-97351029D01*
X-21544870Y-97336779D01*
X-21524353Y-97324482D01*
X-21502729Y-97314254D01*
X-21480207Y-97306196D01*
X-21457003Y-97300384D01*
X-21433342Y-97296874D01*
X-21409450Y-97295700D01*
X-20496950Y-97295700D01*
X-20473058Y-97296874D01*
X-20473058Y-97296874D01*
G37*
D13*
X-20953200Y-97783200D03*
D12*
G36*
X-20117458Y-80689874D02*
G01*
X-20093797Y-80693384D01*
X-20070593Y-80699196D01*
X-20048071Y-80707254D01*
X-20026447Y-80717482D01*
X-20005930Y-80729779D01*
X-19986717Y-80744029D01*
X-19968993Y-80760093D01*
X-19952929Y-80777817D01*
X-19938679Y-80797030D01*
X-19926382Y-80817547D01*
X-19916154Y-80839171D01*
X-19908096Y-80861693D01*
X-19902284Y-80884897D01*
X-19898774Y-80908558D01*
X-19897600Y-80932450D01*
X-19897600Y-81419950D01*
X-19898774Y-81443842D01*
X-19902284Y-81467503D01*
X-19908096Y-81490707D01*
X-19916154Y-81513229D01*
X-19926382Y-81534853D01*
X-19938679Y-81555370D01*
X-19952929Y-81574583D01*
X-19968993Y-81592307D01*
X-19986717Y-81608371D01*
X-20005930Y-81622621D01*
X-20026447Y-81634918D01*
X-20048071Y-81645146D01*
X-20070593Y-81653204D01*
X-20093797Y-81659016D01*
X-20117458Y-81662526D01*
X-20141350Y-81663700D01*
X-21053850Y-81663700D01*
X-21077742Y-81662526D01*
X-21101403Y-81659016D01*
X-21124607Y-81653204D01*
X-21147129Y-81645146D01*
X-21168753Y-81634918D01*
X-21189270Y-81622621D01*
X-21208483Y-81608371D01*
X-21226207Y-81592307D01*
X-21242271Y-81574583D01*
X-21256521Y-81555370D01*
X-21268818Y-81534853D01*
X-21279046Y-81513229D01*
X-21287104Y-81490707D01*
X-21292916Y-81467503D01*
X-21296426Y-81443842D01*
X-21297600Y-81419950D01*
X-21297600Y-80932450D01*
X-21296426Y-80908558D01*
X-21292916Y-80884897D01*
X-21287104Y-80861693D01*
X-21279046Y-80839171D01*
X-21268818Y-80817547D01*
X-21256521Y-80797030D01*
X-21242271Y-80777817D01*
X-21226207Y-80760093D01*
X-21208483Y-80744029D01*
X-21189270Y-80729779D01*
X-21168753Y-80717482D01*
X-21147129Y-80707254D01*
X-21124607Y-80699196D01*
X-21101403Y-80693384D01*
X-21077742Y-80689874D01*
X-21053850Y-80688700D01*
X-20141350Y-80688700D01*
X-20117458Y-80689874D01*
X-20117458Y-80689874D01*
G37*
D13*
X-20597600Y-81176200D03*
D12*
G36*
X-20117458Y-82564874D02*
G01*
X-20093797Y-82568384D01*
X-20070593Y-82574196D01*
X-20048071Y-82582254D01*
X-20026447Y-82592482D01*
X-20005930Y-82604779D01*
X-19986717Y-82619029D01*
X-19968993Y-82635093D01*
X-19952929Y-82652817D01*
X-19938679Y-82672030D01*
X-19926382Y-82692547D01*
X-19916154Y-82714171D01*
X-19908096Y-82736693D01*
X-19902284Y-82759897D01*
X-19898774Y-82783558D01*
X-19897600Y-82807450D01*
X-19897600Y-83294950D01*
X-19898774Y-83318842D01*
X-19902284Y-83342503D01*
X-19908096Y-83365707D01*
X-19916154Y-83388229D01*
X-19926382Y-83409853D01*
X-19938679Y-83430370D01*
X-19952929Y-83449583D01*
X-19968993Y-83467307D01*
X-19986717Y-83483371D01*
X-20005930Y-83497621D01*
X-20026447Y-83509918D01*
X-20048071Y-83520146D01*
X-20070593Y-83528204D01*
X-20093797Y-83534016D01*
X-20117458Y-83537526D01*
X-20141350Y-83538700D01*
X-21053850Y-83538700D01*
X-21077742Y-83537526D01*
X-21101403Y-83534016D01*
X-21124607Y-83528204D01*
X-21147129Y-83520146D01*
X-21168753Y-83509918D01*
X-21189270Y-83497621D01*
X-21208483Y-83483371D01*
X-21226207Y-83467307D01*
X-21242271Y-83449583D01*
X-21256521Y-83430370D01*
X-21268818Y-83409853D01*
X-21279046Y-83388229D01*
X-21287104Y-83365707D01*
X-21292916Y-83342503D01*
X-21296426Y-83318842D01*
X-21297600Y-83294950D01*
X-21297600Y-82807450D01*
X-21296426Y-82783558D01*
X-21292916Y-82759897D01*
X-21287104Y-82736693D01*
X-21279046Y-82714171D01*
X-21268818Y-82692547D01*
X-21256521Y-82672030D01*
X-21242271Y-82652817D01*
X-21226207Y-82635093D01*
X-21208483Y-82619029D01*
X-21189270Y-82604779D01*
X-21168753Y-82592482D01*
X-21147129Y-82582254D01*
X-21124607Y-82574196D01*
X-21101403Y-82568384D01*
X-21077742Y-82564874D01*
X-21053850Y-82563700D01*
X-20141350Y-82563700D01*
X-20117458Y-82564874D01*
X-20117458Y-82564874D01*
G37*
D13*
X-20597600Y-83051200D03*
D12*
G36*
X-21997058Y-82560274D02*
G01*
X-21973397Y-82563784D01*
X-21950193Y-82569596D01*
X-21927671Y-82577654D01*
X-21906047Y-82587882D01*
X-21885530Y-82600179D01*
X-21866317Y-82614429D01*
X-21848593Y-82630493D01*
X-21832529Y-82648217D01*
X-21818279Y-82667430D01*
X-21805982Y-82687947D01*
X-21795754Y-82709571D01*
X-21787696Y-82732093D01*
X-21781884Y-82755297D01*
X-21778374Y-82778958D01*
X-21777200Y-82802850D01*
X-21777200Y-83290350D01*
X-21778374Y-83314242D01*
X-21781884Y-83337903D01*
X-21787696Y-83361107D01*
X-21795754Y-83383629D01*
X-21805982Y-83405253D01*
X-21818279Y-83425770D01*
X-21832529Y-83444983D01*
X-21848593Y-83462707D01*
X-21866317Y-83478771D01*
X-21885530Y-83493021D01*
X-21906047Y-83505318D01*
X-21927671Y-83515546D01*
X-21950193Y-83523604D01*
X-21973397Y-83529416D01*
X-21997058Y-83532926D01*
X-22020950Y-83534100D01*
X-22933450Y-83534100D01*
X-22957342Y-83532926D01*
X-22981003Y-83529416D01*
X-23004207Y-83523604D01*
X-23026729Y-83515546D01*
X-23048353Y-83505318D01*
X-23068870Y-83493021D01*
X-23088083Y-83478771D01*
X-23105807Y-83462707D01*
X-23121871Y-83444983D01*
X-23136121Y-83425770D01*
X-23148418Y-83405253D01*
X-23158646Y-83383629D01*
X-23166704Y-83361107D01*
X-23172516Y-83337903D01*
X-23176026Y-83314242D01*
X-23177200Y-83290350D01*
X-23177200Y-82802850D01*
X-23176026Y-82778958D01*
X-23172516Y-82755297D01*
X-23166704Y-82732093D01*
X-23158646Y-82709571D01*
X-23148418Y-82687947D01*
X-23136121Y-82667430D01*
X-23121871Y-82648217D01*
X-23105807Y-82630493D01*
X-23088083Y-82614429D01*
X-23068870Y-82600179D01*
X-23048353Y-82587882D01*
X-23026729Y-82577654D01*
X-23004207Y-82569596D01*
X-22981003Y-82563784D01*
X-22957342Y-82560274D01*
X-22933450Y-82559100D01*
X-22020950Y-82559100D01*
X-21997058Y-82560274D01*
X-21997058Y-82560274D01*
G37*
D13*
X-22477200Y-83046600D03*
D12*
G36*
X-21997058Y-80685274D02*
G01*
X-21973397Y-80688784D01*
X-21950193Y-80694596D01*
X-21927671Y-80702654D01*
X-21906047Y-80712882D01*
X-21885530Y-80725179D01*
X-21866317Y-80739429D01*
X-21848593Y-80755493D01*
X-21832529Y-80773217D01*
X-21818279Y-80792430D01*
X-21805982Y-80812947D01*
X-21795754Y-80834571D01*
X-21787696Y-80857093D01*
X-21781884Y-80880297D01*
X-21778374Y-80903958D01*
X-21777200Y-80927850D01*
X-21777200Y-81415350D01*
X-21778374Y-81439242D01*
X-21781884Y-81462903D01*
X-21787696Y-81486107D01*
X-21795754Y-81508629D01*
X-21805982Y-81530253D01*
X-21818279Y-81550770D01*
X-21832529Y-81569983D01*
X-21848593Y-81587707D01*
X-21866317Y-81603771D01*
X-21885530Y-81618021D01*
X-21906047Y-81630318D01*
X-21927671Y-81640546D01*
X-21950193Y-81648604D01*
X-21973397Y-81654416D01*
X-21997058Y-81657926D01*
X-22020950Y-81659100D01*
X-22933450Y-81659100D01*
X-22957342Y-81657926D01*
X-22981003Y-81654416D01*
X-23004207Y-81648604D01*
X-23026729Y-81640546D01*
X-23048353Y-81630318D01*
X-23068870Y-81618021D01*
X-23088083Y-81603771D01*
X-23105807Y-81587707D01*
X-23121871Y-81569983D01*
X-23136121Y-81550770D01*
X-23148418Y-81530253D01*
X-23158646Y-81508629D01*
X-23166704Y-81486107D01*
X-23172516Y-81462903D01*
X-23176026Y-81439242D01*
X-23177200Y-81415350D01*
X-23177200Y-80927850D01*
X-23176026Y-80903958D01*
X-23172516Y-80880297D01*
X-23166704Y-80857093D01*
X-23158646Y-80834571D01*
X-23148418Y-80812947D01*
X-23136121Y-80792430D01*
X-23121871Y-80773217D01*
X-23105807Y-80755493D01*
X-23088083Y-80739429D01*
X-23068870Y-80725179D01*
X-23048353Y-80712882D01*
X-23026729Y-80702654D01*
X-23004207Y-80694596D01*
X-22981003Y-80688784D01*
X-22957342Y-80685274D01*
X-22933450Y-80684100D01*
X-22020950Y-80684100D01*
X-21997058Y-80685274D01*
X-21997058Y-80685274D01*
G37*
D13*
X-22477200Y-81171600D03*
D12*
G36*
X-23876658Y-80685274D02*
G01*
X-23852997Y-80688784D01*
X-23829793Y-80694596D01*
X-23807271Y-80702654D01*
X-23785647Y-80712882D01*
X-23765130Y-80725179D01*
X-23745917Y-80739429D01*
X-23728193Y-80755493D01*
X-23712129Y-80773217D01*
X-23697879Y-80792430D01*
X-23685582Y-80812947D01*
X-23675354Y-80834571D01*
X-23667296Y-80857093D01*
X-23661484Y-80880297D01*
X-23657974Y-80903958D01*
X-23656800Y-80927850D01*
X-23656800Y-81415350D01*
X-23657974Y-81439242D01*
X-23661484Y-81462903D01*
X-23667296Y-81486107D01*
X-23675354Y-81508629D01*
X-23685582Y-81530253D01*
X-23697879Y-81550770D01*
X-23712129Y-81569983D01*
X-23728193Y-81587707D01*
X-23745917Y-81603771D01*
X-23765130Y-81618021D01*
X-23785647Y-81630318D01*
X-23807271Y-81640546D01*
X-23829793Y-81648604D01*
X-23852997Y-81654416D01*
X-23876658Y-81657926D01*
X-23900550Y-81659100D01*
X-24813050Y-81659100D01*
X-24836942Y-81657926D01*
X-24860603Y-81654416D01*
X-24883807Y-81648604D01*
X-24906329Y-81640546D01*
X-24927953Y-81630318D01*
X-24948470Y-81618021D01*
X-24967683Y-81603771D01*
X-24985407Y-81587707D01*
X-25001471Y-81569983D01*
X-25015721Y-81550770D01*
X-25028018Y-81530253D01*
X-25038246Y-81508629D01*
X-25046304Y-81486107D01*
X-25052116Y-81462903D01*
X-25055626Y-81439242D01*
X-25056800Y-81415350D01*
X-25056800Y-80927850D01*
X-25055626Y-80903958D01*
X-25052116Y-80880297D01*
X-25046304Y-80857093D01*
X-25038246Y-80834571D01*
X-25028018Y-80812947D01*
X-25015721Y-80792430D01*
X-25001471Y-80773217D01*
X-24985407Y-80755493D01*
X-24967683Y-80739429D01*
X-24948470Y-80725179D01*
X-24927953Y-80712882D01*
X-24906329Y-80702654D01*
X-24883807Y-80694596D01*
X-24860603Y-80688784D01*
X-24836942Y-80685274D01*
X-24813050Y-80684100D01*
X-23900550Y-80684100D01*
X-23876658Y-80685274D01*
X-23876658Y-80685274D01*
G37*
D13*
X-24356800Y-81171600D03*
D12*
G36*
X-23876658Y-82560274D02*
G01*
X-23852997Y-82563784D01*
X-23829793Y-82569596D01*
X-23807271Y-82577654D01*
X-23785647Y-82587882D01*
X-23765130Y-82600179D01*
X-23745917Y-82614429D01*
X-23728193Y-82630493D01*
X-23712129Y-82648217D01*
X-23697879Y-82667430D01*
X-23685582Y-82687947D01*
X-23675354Y-82709571D01*
X-23667296Y-82732093D01*
X-23661484Y-82755297D01*
X-23657974Y-82778958D01*
X-23656800Y-82802850D01*
X-23656800Y-83290350D01*
X-23657974Y-83314242D01*
X-23661484Y-83337903D01*
X-23667296Y-83361107D01*
X-23675354Y-83383629D01*
X-23685582Y-83405253D01*
X-23697879Y-83425770D01*
X-23712129Y-83444983D01*
X-23728193Y-83462707D01*
X-23745917Y-83478771D01*
X-23765130Y-83493021D01*
X-23785647Y-83505318D01*
X-23807271Y-83515546D01*
X-23829793Y-83523604D01*
X-23852997Y-83529416D01*
X-23876658Y-83532926D01*
X-23900550Y-83534100D01*
X-24813050Y-83534100D01*
X-24836942Y-83532926D01*
X-24860603Y-83529416D01*
X-24883807Y-83523604D01*
X-24906329Y-83515546D01*
X-24927953Y-83505318D01*
X-24948470Y-83493021D01*
X-24967683Y-83478771D01*
X-24985407Y-83462707D01*
X-25001471Y-83444983D01*
X-25015721Y-83425770D01*
X-25028018Y-83405253D01*
X-25038246Y-83383629D01*
X-25046304Y-83361107D01*
X-25052116Y-83337903D01*
X-25055626Y-83314242D01*
X-25056800Y-83290350D01*
X-25056800Y-82802850D01*
X-25055626Y-82778958D01*
X-25052116Y-82755297D01*
X-25046304Y-82732093D01*
X-25038246Y-82709571D01*
X-25028018Y-82687947D01*
X-25015721Y-82667430D01*
X-25001471Y-82648217D01*
X-24985407Y-82630493D01*
X-24967683Y-82614429D01*
X-24948470Y-82600179D01*
X-24927953Y-82587882D01*
X-24906329Y-82577654D01*
X-24883807Y-82569596D01*
X-24860603Y-82563784D01*
X-24836942Y-82560274D01*
X-24813050Y-82559100D01*
X-23900550Y-82559100D01*
X-23876658Y-82560274D01*
X-23876658Y-82560274D01*
G37*
D13*
X-24356800Y-83046600D03*
D12*
G36*
X-22251058Y-78777974D02*
G01*
X-22227397Y-78781484D01*
X-22204193Y-78787296D01*
X-22181671Y-78795354D01*
X-22160047Y-78805582D01*
X-22139530Y-78817879D01*
X-22120317Y-78832129D01*
X-22102593Y-78848193D01*
X-22086529Y-78865917D01*
X-22072279Y-78885130D01*
X-22059982Y-78905647D01*
X-22049754Y-78927271D01*
X-22041696Y-78949793D01*
X-22035884Y-78972997D01*
X-22032374Y-78996658D01*
X-22031200Y-79020550D01*
X-22031200Y-79508050D01*
X-22032374Y-79531942D01*
X-22035884Y-79555603D01*
X-22041696Y-79578807D01*
X-22049754Y-79601329D01*
X-22059982Y-79622953D01*
X-22072279Y-79643470D01*
X-22086529Y-79662683D01*
X-22102593Y-79680407D01*
X-22120317Y-79696471D01*
X-22139530Y-79710721D01*
X-22160047Y-79723018D01*
X-22181671Y-79733246D01*
X-22204193Y-79741304D01*
X-22227397Y-79747116D01*
X-22251058Y-79750626D01*
X-22274950Y-79751800D01*
X-23187450Y-79751800D01*
X-23211342Y-79750626D01*
X-23235003Y-79747116D01*
X-23258207Y-79741304D01*
X-23280729Y-79733246D01*
X-23302353Y-79723018D01*
X-23322870Y-79710721D01*
X-23342083Y-79696471D01*
X-23359807Y-79680407D01*
X-23375871Y-79662683D01*
X-23390121Y-79643470D01*
X-23402418Y-79622953D01*
X-23412646Y-79601329D01*
X-23420704Y-79578807D01*
X-23426516Y-79555603D01*
X-23430026Y-79531942D01*
X-23431200Y-79508050D01*
X-23431200Y-79020550D01*
X-23430026Y-78996658D01*
X-23426516Y-78972997D01*
X-23420704Y-78949793D01*
X-23412646Y-78927271D01*
X-23402418Y-78905647D01*
X-23390121Y-78885130D01*
X-23375871Y-78865917D01*
X-23359807Y-78848193D01*
X-23342083Y-78832129D01*
X-23322870Y-78817879D01*
X-23302353Y-78805582D01*
X-23280729Y-78795354D01*
X-23258207Y-78787296D01*
X-23235003Y-78781484D01*
X-23211342Y-78777974D01*
X-23187450Y-78776800D01*
X-22274950Y-78776800D01*
X-22251058Y-78777974D01*
X-22251058Y-78777974D01*
G37*
D13*
X-22731200Y-79264300D03*
D12*
G36*
X-22251058Y-76902974D02*
G01*
X-22227397Y-76906484D01*
X-22204193Y-76912296D01*
X-22181671Y-76920354D01*
X-22160047Y-76930582D01*
X-22139530Y-76942879D01*
X-22120317Y-76957129D01*
X-22102593Y-76973193D01*
X-22086529Y-76990917D01*
X-22072279Y-77010130D01*
X-22059982Y-77030647D01*
X-22049754Y-77052271D01*
X-22041696Y-77074793D01*
X-22035884Y-77097997D01*
X-22032374Y-77121658D01*
X-22031200Y-77145550D01*
X-22031200Y-77633050D01*
X-22032374Y-77656942D01*
X-22035884Y-77680603D01*
X-22041696Y-77703807D01*
X-22049754Y-77726329D01*
X-22059982Y-77747953D01*
X-22072279Y-77768470D01*
X-22086529Y-77787683D01*
X-22102593Y-77805407D01*
X-22120317Y-77821471D01*
X-22139530Y-77835721D01*
X-22160047Y-77848018D01*
X-22181671Y-77858246D01*
X-22204193Y-77866304D01*
X-22227397Y-77872116D01*
X-22251058Y-77875626D01*
X-22274950Y-77876800D01*
X-23187450Y-77876800D01*
X-23211342Y-77875626D01*
X-23235003Y-77872116D01*
X-23258207Y-77866304D01*
X-23280729Y-77858246D01*
X-23302353Y-77848018D01*
X-23322870Y-77835721D01*
X-23342083Y-77821471D01*
X-23359807Y-77805407D01*
X-23375871Y-77787683D01*
X-23390121Y-77768470D01*
X-23402418Y-77747953D01*
X-23412646Y-77726329D01*
X-23420704Y-77703807D01*
X-23426516Y-77680603D01*
X-23430026Y-77656942D01*
X-23431200Y-77633050D01*
X-23431200Y-77145550D01*
X-23430026Y-77121658D01*
X-23426516Y-77097997D01*
X-23420704Y-77074793D01*
X-23412646Y-77052271D01*
X-23402418Y-77030647D01*
X-23390121Y-77010130D01*
X-23375871Y-76990917D01*
X-23359807Y-76973193D01*
X-23342083Y-76957129D01*
X-23322870Y-76942879D01*
X-23302353Y-76930582D01*
X-23280729Y-76920354D01*
X-23258207Y-76912296D01*
X-23235003Y-76906484D01*
X-23211342Y-76902974D01*
X-23187450Y-76901800D01*
X-22274950Y-76901800D01*
X-22251058Y-76902974D01*
X-22251058Y-76902974D01*
G37*
D13*
X-22731200Y-77389300D03*
D12*
G36*
X-24181458Y-76879874D02*
G01*
X-24157797Y-76883384D01*
X-24134593Y-76889196D01*
X-24112071Y-76897254D01*
X-24090447Y-76907482D01*
X-24069930Y-76919779D01*
X-24050717Y-76934029D01*
X-24032993Y-76950093D01*
X-24016929Y-76967817D01*
X-24002679Y-76987030D01*
X-23990382Y-77007547D01*
X-23980154Y-77029171D01*
X-23972096Y-77051693D01*
X-23966284Y-77074897D01*
X-23962774Y-77098558D01*
X-23961600Y-77122450D01*
X-23961600Y-77609950D01*
X-23962774Y-77633842D01*
X-23966284Y-77657503D01*
X-23972096Y-77680707D01*
X-23980154Y-77703229D01*
X-23990382Y-77724853D01*
X-24002679Y-77745370D01*
X-24016929Y-77764583D01*
X-24032993Y-77782307D01*
X-24050717Y-77798371D01*
X-24069930Y-77812621D01*
X-24090447Y-77824918D01*
X-24112071Y-77835146D01*
X-24134593Y-77843204D01*
X-24157797Y-77849016D01*
X-24181458Y-77852526D01*
X-24205350Y-77853700D01*
X-25117850Y-77853700D01*
X-25141742Y-77852526D01*
X-25165403Y-77849016D01*
X-25188607Y-77843204D01*
X-25211129Y-77835146D01*
X-25232753Y-77824918D01*
X-25253270Y-77812621D01*
X-25272483Y-77798371D01*
X-25290207Y-77782307D01*
X-25306271Y-77764583D01*
X-25320521Y-77745370D01*
X-25332818Y-77724853D01*
X-25343046Y-77703229D01*
X-25351104Y-77680707D01*
X-25356916Y-77657503D01*
X-25360426Y-77633842D01*
X-25361600Y-77609950D01*
X-25361600Y-77122450D01*
X-25360426Y-77098558D01*
X-25356916Y-77074897D01*
X-25351104Y-77051693D01*
X-25343046Y-77029171D01*
X-25332818Y-77007547D01*
X-25320521Y-76987030D01*
X-25306271Y-76967817D01*
X-25290207Y-76950093D01*
X-25272483Y-76934029D01*
X-25253270Y-76919779D01*
X-25232753Y-76907482D01*
X-25211129Y-76897254D01*
X-25188607Y-76889196D01*
X-25165403Y-76883384D01*
X-25141742Y-76879874D01*
X-25117850Y-76878700D01*
X-24205350Y-76878700D01*
X-24181458Y-76879874D01*
X-24181458Y-76879874D01*
G37*
D13*
X-24661600Y-77366200D03*
D12*
G36*
X-24181458Y-78754874D02*
G01*
X-24157797Y-78758384D01*
X-24134593Y-78764196D01*
X-24112071Y-78772254D01*
X-24090447Y-78782482D01*
X-24069930Y-78794779D01*
X-24050717Y-78809029D01*
X-24032993Y-78825093D01*
X-24016929Y-78842817D01*
X-24002679Y-78862030D01*
X-23990382Y-78882547D01*
X-23980154Y-78904171D01*
X-23972096Y-78926693D01*
X-23966284Y-78949897D01*
X-23962774Y-78973558D01*
X-23961600Y-78997450D01*
X-23961600Y-79484950D01*
X-23962774Y-79508842D01*
X-23966284Y-79532503D01*
X-23972096Y-79555707D01*
X-23980154Y-79578229D01*
X-23990382Y-79599853D01*
X-24002679Y-79620370D01*
X-24016929Y-79639583D01*
X-24032993Y-79657307D01*
X-24050717Y-79673371D01*
X-24069930Y-79687621D01*
X-24090447Y-79699918D01*
X-24112071Y-79710146D01*
X-24134593Y-79718204D01*
X-24157797Y-79724016D01*
X-24181458Y-79727526D01*
X-24205350Y-79728700D01*
X-25117850Y-79728700D01*
X-25141742Y-79727526D01*
X-25165403Y-79724016D01*
X-25188607Y-79718204D01*
X-25211129Y-79710146D01*
X-25232753Y-79699918D01*
X-25253270Y-79687621D01*
X-25272483Y-79673371D01*
X-25290207Y-79657307D01*
X-25306271Y-79639583D01*
X-25320521Y-79620370D01*
X-25332818Y-79599853D01*
X-25343046Y-79578229D01*
X-25351104Y-79555707D01*
X-25356916Y-79532503D01*
X-25360426Y-79508842D01*
X-25361600Y-79484950D01*
X-25361600Y-78997450D01*
X-25360426Y-78973558D01*
X-25356916Y-78949897D01*
X-25351104Y-78926693D01*
X-25343046Y-78904171D01*
X-25332818Y-78882547D01*
X-25320521Y-78862030D01*
X-25306271Y-78842817D01*
X-25290207Y-78825093D01*
X-25272483Y-78809029D01*
X-25253270Y-78794779D01*
X-25232753Y-78782482D01*
X-25211129Y-78772254D01*
X-25188607Y-78764196D01*
X-25165403Y-78758384D01*
X-25141742Y-78754874D01*
X-25117850Y-78753700D01*
X-24205350Y-78753700D01*
X-24181458Y-78754874D01*
X-24181458Y-78754874D01*
G37*
D13*
X-24661600Y-79241200D03*
D12*
G36*
X-20066658Y-76976874D02*
G01*
X-20042997Y-76980384D01*
X-20019793Y-76986196D01*
X-19997271Y-76994254D01*
X-19975647Y-77004482D01*
X-19955130Y-77016779D01*
X-19935917Y-77031029D01*
X-19918193Y-77047093D01*
X-19902129Y-77064817D01*
X-19887879Y-77084030D01*
X-19875582Y-77104547D01*
X-19865354Y-77126171D01*
X-19857296Y-77148693D01*
X-19851484Y-77171897D01*
X-19847974Y-77195558D01*
X-19846800Y-77219450D01*
X-19846800Y-77706950D01*
X-19847974Y-77730842D01*
X-19851484Y-77754503D01*
X-19857296Y-77777707D01*
X-19865354Y-77800229D01*
X-19875582Y-77821853D01*
X-19887879Y-77842370D01*
X-19902129Y-77861583D01*
X-19918193Y-77879307D01*
X-19935917Y-77895371D01*
X-19955130Y-77909621D01*
X-19975647Y-77921918D01*
X-19997271Y-77932146D01*
X-20019793Y-77940204D01*
X-20042997Y-77946016D01*
X-20066658Y-77949526D01*
X-20090550Y-77950700D01*
X-21003050Y-77950700D01*
X-21026942Y-77949526D01*
X-21050603Y-77946016D01*
X-21073807Y-77940204D01*
X-21096329Y-77932146D01*
X-21117953Y-77921918D01*
X-21138470Y-77909621D01*
X-21157683Y-77895371D01*
X-21175407Y-77879307D01*
X-21191471Y-77861583D01*
X-21205721Y-77842370D01*
X-21218018Y-77821853D01*
X-21228246Y-77800229D01*
X-21236304Y-77777707D01*
X-21242116Y-77754503D01*
X-21245626Y-77730842D01*
X-21246800Y-77706950D01*
X-21246800Y-77219450D01*
X-21245626Y-77195558D01*
X-21242116Y-77171897D01*
X-21236304Y-77148693D01*
X-21228246Y-77126171D01*
X-21218018Y-77104547D01*
X-21205721Y-77084030D01*
X-21191471Y-77064817D01*
X-21175407Y-77047093D01*
X-21157683Y-77031029D01*
X-21138470Y-77016779D01*
X-21117953Y-77004482D01*
X-21096329Y-76994254D01*
X-21073807Y-76986196D01*
X-21050603Y-76980384D01*
X-21026942Y-76976874D01*
X-21003050Y-76975700D01*
X-20090550Y-76975700D01*
X-20066658Y-76976874D01*
X-20066658Y-76976874D01*
G37*
D13*
X-20546800Y-77463200D03*
D12*
G36*
X-20066658Y-78851874D02*
G01*
X-20042997Y-78855384D01*
X-20019793Y-78861196D01*
X-19997271Y-78869254D01*
X-19975647Y-78879482D01*
X-19955130Y-78891779D01*
X-19935917Y-78906029D01*
X-19918193Y-78922093D01*
X-19902129Y-78939817D01*
X-19887879Y-78959030D01*
X-19875582Y-78979547D01*
X-19865354Y-79001171D01*
X-19857296Y-79023693D01*
X-19851484Y-79046897D01*
X-19847974Y-79070558D01*
X-19846800Y-79094450D01*
X-19846800Y-79581950D01*
X-19847974Y-79605842D01*
X-19851484Y-79629503D01*
X-19857296Y-79652707D01*
X-19865354Y-79675229D01*
X-19875582Y-79696853D01*
X-19887879Y-79717370D01*
X-19902129Y-79736583D01*
X-19918193Y-79754307D01*
X-19935917Y-79770371D01*
X-19955130Y-79784621D01*
X-19975647Y-79796918D01*
X-19997271Y-79807146D01*
X-20019793Y-79815204D01*
X-20042997Y-79821016D01*
X-20066658Y-79824526D01*
X-20090550Y-79825700D01*
X-21003050Y-79825700D01*
X-21026942Y-79824526D01*
X-21050603Y-79821016D01*
X-21073807Y-79815204D01*
X-21096329Y-79807146D01*
X-21117953Y-79796918D01*
X-21138470Y-79784621D01*
X-21157683Y-79770371D01*
X-21175407Y-79754307D01*
X-21191471Y-79736583D01*
X-21205721Y-79717370D01*
X-21218018Y-79696853D01*
X-21228246Y-79675229D01*
X-21236304Y-79652707D01*
X-21242116Y-79629503D01*
X-21245626Y-79605842D01*
X-21246800Y-79581950D01*
X-21246800Y-79094450D01*
X-21245626Y-79070558D01*
X-21242116Y-79046897D01*
X-21236304Y-79023693D01*
X-21228246Y-79001171D01*
X-21218018Y-78979547D01*
X-21205721Y-78959030D01*
X-21191471Y-78939817D01*
X-21175407Y-78922093D01*
X-21157683Y-78906029D01*
X-21138470Y-78891779D01*
X-21117953Y-78879482D01*
X-21096329Y-78869254D01*
X-21073807Y-78861196D01*
X-21050603Y-78855384D01*
X-21026942Y-78851874D01*
X-21003050Y-78850700D01*
X-20090550Y-78850700D01*
X-20066658Y-78851874D01*
X-20066658Y-78851874D01*
G37*
D13*
X-20546800Y-79338200D03*
D12*
G36*
X-26518258Y-95417274D02*
G01*
X-26494597Y-95420784D01*
X-26471393Y-95426596D01*
X-26448871Y-95434654D01*
X-26427247Y-95444882D01*
X-26406730Y-95457179D01*
X-26387517Y-95471429D01*
X-26369793Y-95487493D01*
X-26353729Y-95505217D01*
X-26339479Y-95524430D01*
X-26327182Y-95544947D01*
X-26316954Y-95566571D01*
X-26308896Y-95589093D01*
X-26303084Y-95612297D01*
X-26299574Y-95635958D01*
X-26298400Y-95659850D01*
X-26298400Y-96147350D01*
X-26299574Y-96171242D01*
X-26303084Y-96194903D01*
X-26308896Y-96218107D01*
X-26316954Y-96240629D01*
X-26327182Y-96262253D01*
X-26339479Y-96282770D01*
X-26353729Y-96301983D01*
X-26369793Y-96319707D01*
X-26387517Y-96335771D01*
X-26406730Y-96350021D01*
X-26427247Y-96362318D01*
X-26448871Y-96372546D01*
X-26471393Y-96380604D01*
X-26494597Y-96386416D01*
X-26518258Y-96389926D01*
X-26542150Y-96391100D01*
X-27454650Y-96391100D01*
X-27478542Y-96389926D01*
X-27502203Y-96386416D01*
X-27525407Y-96380604D01*
X-27547929Y-96372546D01*
X-27569553Y-96362318D01*
X-27590070Y-96350021D01*
X-27609283Y-96335771D01*
X-27627007Y-96319707D01*
X-27643071Y-96301983D01*
X-27657321Y-96282770D01*
X-27669618Y-96262253D01*
X-27679846Y-96240629D01*
X-27687904Y-96218107D01*
X-27693716Y-96194903D01*
X-27697226Y-96171242D01*
X-27698400Y-96147350D01*
X-27698400Y-95659850D01*
X-27697226Y-95635958D01*
X-27693716Y-95612297D01*
X-27687904Y-95589093D01*
X-27679846Y-95566571D01*
X-27669618Y-95544947D01*
X-27657321Y-95524430D01*
X-27643071Y-95505217D01*
X-27627007Y-95487493D01*
X-27609283Y-95471429D01*
X-27590070Y-95457179D01*
X-27569553Y-95444882D01*
X-27547929Y-95434654D01*
X-27525407Y-95426596D01*
X-27502203Y-95420784D01*
X-27478542Y-95417274D01*
X-27454650Y-95416100D01*
X-26542150Y-95416100D01*
X-26518258Y-95417274D01*
X-26518258Y-95417274D01*
G37*
D13*
X-26998400Y-95903600D03*
D12*
G36*
X-26518258Y-97292274D02*
G01*
X-26494597Y-97295784D01*
X-26471393Y-97301596D01*
X-26448871Y-97309654D01*
X-26427247Y-97319882D01*
X-26406730Y-97332179D01*
X-26387517Y-97346429D01*
X-26369793Y-97362493D01*
X-26353729Y-97380217D01*
X-26339479Y-97399430D01*
X-26327182Y-97419947D01*
X-26316954Y-97441571D01*
X-26308896Y-97464093D01*
X-26303084Y-97487297D01*
X-26299574Y-97510958D01*
X-26298400Y-97534850D01*
X-26298400Y-98022350D01*
X-26299574Y-98046242D01*
X-26303084Y-98069903D01*
X-26308896Y-98093107D01*
X-26316954Y-98115629D01*
X-26327182Y-98137253D01*
X-26339479Y-98157770D01*
X-26353729Y-98176983D01*
X-26369793Y-98194707D01*
X-26387517Y-98210771D01*
X-26406730Y-98225021D01*
X-26427247Y-98237318D01*
X-26448871Y-98247546D01*
X-26471393Y-98255604D01*
X-26494597Y-98261416D01*
X-26518258Y-98264926D01*
X-26542150Y-98266100D01*
X-27454650Y-98266100D01*
X-27478542Y-98264926D01*
X-27502203Y-98261416D01*
X-27525407Y-98255604D01*
X-27547929Y-98247546D01*
X-27569553Y-98237318D01*
X-27590070Y-98225021D01*
X-27609283Y-98210771D01*
X-27627007Y-98194707D01*
X-27643071Y-98176983D01*
X-27657321Y-98157770D01*
X-27669618Y-98137253D01*
X-27679846Y-98115629D01*
X-27687904Y-98093107D01*
X-27693716Y-98069903D01*
X-27697226Y-98046242D01*
X-27698400Y-98022350D01*
X-27698400Y-97534850D01*
X-27697226Y-97510958D01*
X-27693716Y-97487297D01*
X-27687904Y-97464093D01*
X-27679846Y-97441571D01*
X-27669618Y-97419947D01*
X-27657321Y-97399430D01*
X-27643071Y-97380217D01*
X-27627007Y-97362493D01*
X-27609283Y-97346429D01*
X-27590070Y-97332179D01*
X-27569553Y-97319882D01*
X-27547929Y-97309654D01*
X-27525407Y-97301596D01*
X-27502203Y-97295784D01*
X-27478542Y-97292274D01*
X-27454650Y-97291100D01*
X-26542150Y-97291100D01*
X-26518258Y-97292274D01*
X-26518258Y-97292274D01*
G37*
D13*
X-26998400Y-97778600D03*
D12*
G36*
X-30531458Y-97292274D02*
G01*
X-30507797Y-97295784D01*
X-30484593Y-97301596D01*
X-30462071Y-97309654D01*
X-30440447Y-97319882D01*
X-30419930Y-97332179D01*
X-30400717Y-97346429D01*
X-30382993Y-97362493D01*
X-30366929Y-97380217D01*
X-30352679Y-97399430D01*
X-30340382Y-97419947D01*
X-30330154Y-97441571D01*
X-30322096Y-97464093D01*
X-30316284Y-97487297D01*
X-30312774Y-97510958D01*
X-30311600Y-97534850D01*
X-30311600Y-98022350D01*
X-30312774Y-98046242D01*
X-30316284Y-98069903D01*
X-30322096Y-98093107D01*
X-30330154Y-98115629D01*
X-30340382Y-98137253D01*
X-30352679Y-98157770D01*
X-30366929Y-98176983D01*
X-30382993Y-98194707D01*
X-30400717Y-98210771D01*
X-30419930Y-98225021D01*
X-30440447Y-98237318D01*
X-30462071Y-98247546D01*
X-30484593Y-98255604D01*
X-30507797Y-98261416D01*
X-30531458Y-98264926D01*
X-30555350Y-98266100D01*
X-31467850Y-98266100D01*
X-31491742Y-98264926D01*
X-31515403Y-98261416D01*
X-31538607Y-98255604D01*
X-31561129Y-98247546D01*
X-31582753Y-98237318D01*
X-31603270Y-98225021D01*
X-31622483Y-98210771D01*
X-31640207Y-98194707D01*
X-31656271Y-98176983D01*
X-31670521Y-98157770D01*
X-31682818Y-98137253D01*
X-31693046Y-98115629D01*
X-31701104Y-98093107D01*
X-31706916Y-98069903D01*
X-31710426Y-98046242D01*
X-31711600Y-98022350D01*
X-31711600Y-97534850D01*
X-31710426Y-97510958D01*
X-31706916Y-97487297D01*
X-31701104Y-97464093D01*
X-31693046Y-97441571D01*
X-31682818Y-97419947D01*
X-31670521Y-97399430D01*
X-31656271Y-97380217D01*
X-31640207Y-97362493D01*
X-31622483Y-97346429D01*
X-31603270Y-97332179D01*
X-31582753Y-97319882D01*
X-31561129Y-97309654D01*
X-31538607Y-97301596D01*
X-31515403Y-97295784D01*
X-31491742Y-97292274D01*
X-31467850Y-97291100D01*
X-30555350Y-97291100D01*
X-30531458Y-97292274D01*
X-30531458Y-97292274D01*
G37*
D13*
X-31011600Y-97778600D03*
D12*
G36*
X-30531458Y-95417274D02*
G01*
X-30507797Y-95420784D01*
X-30484593Y-95426596D01*
X-30462071Y-95434654D01*
X-30440447Y-95444882D01*
X-30419930Y-95457179D01*
X-30400717Y-95471429D01*
X-30382993Y-95487493D01*
X-30366929Y-95505217D01*
X-30352679Y-95524430D01*
X-30340382Y-95544947D01*
X-30330154Y-95566571D01*
X-30322096Y-95589093D01*
X-30316284Y-95612297D01*
X-30312774Y-95635958D01*
X-30311600Y-95659850D01*
X-30311600Y-96147350D01*
X-30312774Y-96171242D01*
X-30316284Y-96194903D01*
X-30322096Y-96218107D01*
X-30330154Y-96240629D01*
X-30340382Y-96262253D01*
X-30352679Y-96282770D01*
X-30366929Y-96301983D01*
X-30382993Y-96319707D01*
X-30400717Y-96335771D01*
X-30419930Y-96350021D01*
X-30440447Y-96362318D01*
X-30462071Y-96372546D01*
X-30484593Y-96380604D01*
X-30507797Y-96386416D01*
X-30531458Y-96389926D01*
X-30555350Y-96391100D01*
X-31467850Y-96391100D01*
X-31491742Y-96389926D01*
X-31515403Y-96386416D01*
X-31538607Y-96380604D01*
X-31561129Y-96372546D01*
X-31582753Y-96362318D01*
X-31603270Y-96350021D01*
X-31622483Y-96335771D01*
X-31640207Y-96319707D01*
X-31656271Y-96301983D01*
X-31670521Y-96282770D01*
X-31682818Y-96262253D01*
X-31693046Y-96240629D01*
X-31701104Y-96218107D01*
X-31706916Y-96194903D01*
X-31710426Y-96171242D01*
X-31711600Y-96147350D01*
X-31711600Y-95659850D01*
X-31710426Y-95635958D01*
X-31706916Y-95612297D01*
X-31701104Y-95589093D01*
X-31693046Y-95566571D01*
X-31682818Y-95544947D01*
X-31670521Y-95524430D01*
X-31656271Y-95505217D01*
X-31640207Y-95487493D01*
X-31622483Y-95471429D01*
X-31603270Y-95457179D01*
X-31582753Y-95444882D01*
X-31561129Y-95434654D01*
X-31538607Y-95426596D01*
X-31515403Y-95420784D01*
X-31491742Y-95417274D01*
X-31467850Y-95416100D01*
X-30555350Y-95416100D01*
X-30531458Y-95417274D01*
X-30531458Y-95417274D01*
G37*
D13*
X-31011600Y-95903600D03*
D16*
X-44218800Y-74612400D03*
X-44218800Y-72332400D03*
X-44218800Y-70052400D03*
D17*
X-52193800Y-70807400D03*
X-48843800Y-73857400D03*
X-52193800Y-73857400D03*
X-48843800Y-70807400D03*
D18*
X-38190800Y-82998000D03*
X-37690800Y-82998000D03*
X-37190800Y-82998000D03*
X-36690800Y-82998000D03*
X-36190800Y-82998000D03*
D19*
X-36040800Y-82348000D03*
X-36040800Y-81848000D03*
X-36040800Y-81348000D03*
D18*
X-36190800Y-80698000D03*
X-36690800Y-80698000D03*
X-37190800Y-80698000D03*
X-37690800Y-80698000D03*
X-38190800Y-80698000D03*
D19*
X-38340800Y-81348000D03*
X-38340800Y-81848000D03*
X-38340800Y-82348000D03*
D20*
X-37895000Y-109341200D03*
X-36625000Y-109341200D03*
X-35355000Y-109341200D03*
X-34085000Y-109341200D03*
X-32815000Y-109341200D03*
X-31545000Y-109341200D03*
X-30275000Y-109341200D03*
X-29005000Y-109341200D03*
X-27735000Y-109341200D03*
X-26465000Y-109341200D03*
X-25195000Y-109341200D03*
X-23925000Y-109341200D03*
X-22655000Y-109341200D03*
X-21385000Y-109341200D03*
X-21385000Y-99941200D03*
X-22655000Y-99941200D03*
X-23925000Y-99941200D03*
X-25195000Y-99941200D03*
X-26465000Y-99941200D03*
X-27735000Y-99941200D03*
X-29005000Y-99941200D03*
X-30275000Y-99941200D03*
X-31545000Y-99941200D03*
X-32815000Y-99941200D03*
X-34085000Y-99941200D03*
X-35355000Y-99941200D03*
X-36625000Y-99941200D03*
X-37895000Y-99941200D03*
D21*
X-28153200Y-94093800D03*
X-28153200Y-93443800D03*
X-28153200Y-92793800D03*
X-28153200Y-92143800D03*
X-28153200Y-91493800D03*
X-28153200Y-90843800D03*
X-28153200Y-90193800D03*
X-28153200Y-89543800D03*
X-28153200Y-88893800D03*
X-28153200Y-88243800D03*
X-28153200Y-87593800D03*
X-28153200Y-86943800D03*
X-20953200Y-86943800D03*
X-20953200Y-87593800D03*
X-20953200Y-88243800D03*
X-20953200Y-88893800D03*
X-20953200Y-89543800D03*
X-20953200Y-90193800D03*
X-20953200Y-90843800D03*
X-20953200Y-91493800D03*
X-20953200Y-92143800D03*
X-20953200Y-92793800D03*
X-20953200Y-93443800D03*
X-20953200Y-94093800D03*
X-37913600Y-86943800D03*
X-37913600Y-87593800D03*
X-37913600Y-88243800D03*
X-37913600Y-88893800D03*
X-37913600Y-89543800D03*
X-37913600Y-90193800D03*
X-37913600Y-90843800D03*
X-37913600Y-91493800D03*
X-37913600Y-92143800D03*
X-37913600Y-92793800D03*
X-37913600Y-93443800D03*
X-37913600Y-94093800D03*
X-30713600Y-94093800D03*
X-30713600Y-93443800D03*
X-30713600Y-92793800D03*
X-30713600Y-92143800D03*
X-30713600Y-91493800D03*
X-30713600Y-90843800D03*
X-30713600Y-90193800D03*
X-30713600Y-89543800D03*
X-30713600Y-88893800D03*
X-30713600Y-88243800D03*
X-30713600Y-87593800D03*
X-30713600Y-86943800D03*
M02*
