M48
; DRILL file {KiCad (5.1.0)-1} date 04/28/19 14:03:53
; FORMAT={-:-/ absolute / inch / decimal}
; #@! TF.CreationDate,2019-04-28T14:03:53+05:30
; #@! TF.GenerationSoftware,Kicad,Pcbnew,(5.1.0)-1
; #@! TF.FileFunction,Plated,1,2,PTH
FMAT,2
INCH
T1C0.0157
T2C0.0394
T3C0.0472
T4C0.0669
T5C0.1378
%
G90
G05
T1
X2.3182Y-1.4857
X2.4976Y-3.225
X2.5768Y-1.5346
X2.5883Y-3.1335
X2.6041Y-3.0951
X2.6286Y-3.0643
X2.6356Y-3.0256
X2.746Y-1.754
X2.826Y-1.7958
X2.8476Y-1.6635
X2.905Y-1.555
X2.9182Y-1.3807
X2.985Y-3.415
X3.037Y-2.1103
X3.0784Y-1.9842
X3.092Y-2.0865
X3.1Y-2.178
X3.12Y-3.4078
X3.1249Y-1.71
X3.1332Y-2.2016
X3.1545Y-1.9975
X3.1858Y-2.2267
X3.19Y-2.545
X3.2203Y-1.9098
X3.225Y-2.793
X3.228Y-1.9484
X3.238Y-2.364
X3.2436Y-1.872
X3.2451Y-2.1075
X3.2451Y-2.0682
X3.2503Y-1.9947
X3.2531Y-2.3187
X3.2719Y-2.1953
X3.275Y-2.793
X3.28Y-2.416
X3.28Y-3.245
X3.298Y-2.558
X3.298Y-2.1562
X3.325Y-2.793
X3.325Y-3.468
X3.3271Y-2.194
X3.346Y-2.634
X3.3482Y-1.922
X3.351Y-3.2591
X3.3711Y-3.468
X3.3729Y-3.226
X3.375Y-2.793
X3.4062Y-3.2499
X3.4179Y-3.4717
X3.4422Y-1.696
X3.4704Y-3.4468
X3.475Y-3.163
X3.504Y-2.634
X3.504Y-2.7078
X3.5148Y-2.4154
X3.5158Y-3.4319
X3.516Y-1.774
X3.5229Y-1.602
X3.5322Y-2.3801
X3.5547Y-2.4689
X3.575Y-2.793
X3.596Y-1.9056
X3.598Y-1.824
X3.625Y-1.225
X3.6346Y-2.353
X3.646Y-3.4169
X3.6517Y-2.2751
X3.668Y-2.33
X3.7143Y-3.4484
X3.7384Y-3.0
X3.742Y-2.3511
X3.742Y-2.5047
X3.742Y-2.6342
X3.756Y-2.0542
X3.758Y-1.908
X3.758Y-1.9818
X3.771Y-3.4563
X3.804Y-2.571
X3.8055Y-1.3605
X3.8119Y-2.7751
X3.91Y-1.715
X3.9117Y-1.9867
X3.9138Y-2.026
X3.9185Y-2.408
X3.972Y-1.5902
X4.01Y-3.3645
X4.024Y-2.366
X4.078Y-1.806
X4.1035Y-2.2465
X4.1229Y-1.922
X4.124Y-2.096
X4.14Y-1.3974
X4.2082Y-1.956
X4.213Y-3.2917
X4.262Y-3.3074
X4.298Y-1.708
X4.33Y-3.3645
X4.3845Y-3.3015
X4.535Y-2.25
X4.538Y-3.29
T2
X2.967Y-1.825
X2.967Y-1.925
X2.967Y-2.025
X2.967Y-2.125
X2.967Y-2.225
X2.967Y-2.325
X2.967Y-2.425
X2.967Y-2.525
X2.967Y-2.625
X2.967Y-2.725
X2.967Y-2.825
X2.967Y-2.925
X2.967Y-3.025
X2.967Y-3.125
X2.967Y-3.225
X3.841Y-1.826
X3.841Y-1.926
X3.841Y-2.026
X3.841Y-2.126
X3.841Y-2.226
X3.841Y-2.326
X3.841Y-2.426
X3.841Y-2.526
X3.841Y-2.626
X3.841Y-2.726
X3.841Y-2.826
X3.841Y-2.926
X3.841Y-3.026
X3.841Y-3.126
X3.841Y-3.226
X4.455Y-3.02
X4.455Y-3.12
X4.455Y-3.22
X4.305Y-2.419
X4.305Y-2.519
X4.305Y-2.619
X4.305Y-2.719
X4.305Y-2.819
X4.305Y-2.919
X4.305Y-3.019
X4.305Y-3.119
X4.305Y-3.219
X2.66Y-1.49
X2.76Y-1.49
X3.65Y-1.486
X3.75Y-1.486
X3.85Y-1.486
X3.95Y-1.486
X4.05Y-1.486
X4.15Y-1.486
X2.66Y-1.3
X2.76Y-1.3
X2.86Y-1.3
X2.96Y-1.3
X3.06Y-1.3
X3.16Y-1.3
X3.26Y-1.3
X3.36Y-1.3
X3.46Y-1.3
X3.56Y-1.3
X3.66Y-1.3
X3.76Y-1.3
X3.86Y-1.3
X3.96Y-1.3
X4.06Y-1.3
X4.16Y-1.3
X3.841Y-1.826
X3.841Y-1.926
X3.841Y-2.026
X3.841Y-2.126
X3.841Y-2.226
X3.841Y-2.326
X3.841Y-2.426
X3.841Y-2.526
X3.841Y-2.626
X3.841Y-2.726
X3.841Y-2.826
X3.841Y-2.926
X3.841Y-3.026
X3.841Y-3.126
X3.841Y-3.226
X3.008Y-1.486
X3.108Y-1.486
X3.208Y-1.486
X3.308Y-1.486
X3.408Y-1.486
X3.508Y-1.486
X2.5Y-3.378
X2.6Y-3.378
X2.7Y-3.378
X2.8Y-3.378
X2.35Y-2.82
X2.35Y-2.92
X2.967Y-1.825
X2.967Y-1.925
X2.967Y-2.025
X2.967Y-2.125
X2.967Y-2.225
X2.967Y-2.325
X2.967Y-2.425
X2.967Y-2.525
X2.967Y-2.625
X2.967Y-2.725
X2.967Y-2.825
X2.967Y-2.925
X2.967Y-3.025
X2.967Y-3.125
X2.967Y-3.225
X4.456Y-2.378
X4.456Y-2.478
X4.456Y-2.578
X4.456Y-2.678
X4.456Y-2.778
X4.456Y-2.878
X4.15Y-2.422
X4.15Y-2.522
X4.15Y-2.622
X4.15Y-2.722
X4.15Y-2.822
X4.15Y-2.922
X4.15Y-3.022
X4.15Y-3.122
X4.15Y-3.222
X3.999Y-2.521
X3.999Y-2.621
X3.999Y-2.721
X3.999Y-2.821
X3.999Y-2.921
X3.999Y-3.021
X3.999Y-3.121
X3.999Y-3.221
T3
X2.5742Y-1.916
X2.712Y-1.916
X2.712Y-3.2152
T4
X2.4777Y-2.0695
X2.4777Y-3.0617
X2.8085Y-2.1168
X2.8085Y-3.0144
T5
X2.37Y-1.29
X4.535Y-1.29
X4.535Y-3.457
T0
M30
