M48
; DRILL file {KiCad (5.1.0)-1} date 05/22/19 15:11:36
; FORMAT={-:-/ absolute / inch / decimal}
; #@! TF.CreationDate,2019-05-22T15:11:36+05:30
; #@! TF.GenerationSoftware,Kicad,Pcbnew,(5.1.0)-1
; #@! TF.FileFunction,Plated,1,2,PTH
FMAT,2
INCH
T1C0.0157
T2C0.0354
T3C0.0394
T4C0.0472
T5C0.0591
T6C0.0669
T7C0.1378
%
G90
G05
T1
X-2.2488Y-2.6275
X-2.1719Y-4.3117
X-2.1007Y-4.3343
X-2.0319Y-4.4467
X-1.9901Y-2.6763
X-1.979Y-4.2748
X-1.9694Y-4.4467
X-1.9629Y-4.2368
X-1.9383Y-4.2061
X-1.9313Y-4.1673
X-1.8623Y-3.6813
X-1.8209Y-2.8957
X-1.7409Y-2.9375
X-1.7194Y-2.8052
X-1.6619Y-2.6967
X-1.6487Y-2.5225
X-1.5819Y-4.5567
X-1.5369Y-3.9467
X-1.5369Y-4.3392
X-1.5367Y-3.2453
X-1.4885Y-3.1259
X-1.4749Y-3.2283
X-1.4469Y-3.3117
X-1.4469Y-4.5495
X-1.442Y-2.8517
X-1.4313Y-3.3479
X-1.4124Y-3.1392
X-1.3811Y-3.3685
X-1.3769Y-3.6943
X-1.3466Y-3.0516
X-1.3419Y-3.9347
X-1.339Y-3.0902
X-1.3289Y-3.5057
X-1.3234Y-3.0137
X-1.3219Y-3.2493
X-1.3218Y-3.2099
X-1.3167Y-3.1365
X-1.3138Y-3.4604
X-1.2983Y-3.695
X-1.295Y-3.337
X-1.2919Y-3.9347
X-1.2869Y-3.5577
X-1.2869Y-4.3867
X-1.2689Y-3.298
X-1.2419Y-3.9347
X-1.2419Y-4.6097
X-1.2399Y-3.3357
X-1.2209Y-3.7757
X-1.2188Y-3.0637
X-1.2159Y-4.4008
X-1.1959Y-4.6097
X-1.194Y-4.3678
X-1.1491Y-4.6134
X-1.1247Y-2.8377
X-1.0965Y-4.5886
X-1.0919Y-4.3048
X-1.0629Y-3.7757
X-1.0629Y-3.8496
X-1.0521Y-3.5572
X-1.0511Y-4.5736
X-1.0509Y-2.9157
X-1.044Y-2.7437
X-1.0347Y-3.5218
X-1.0122Y-3.6107
X-0.9919Y-3.9347
X-0.9709Y-3.0473
X-0.9689Y-2.9657
X-0.9419Y-2.3667
X-0.9323Y-3.4947
X-0.9153Y-3.4168
X-0.8989Y-3.4717
X-0.8619Y-2.3403
X-0.8527Y-4.5902
X-0.8285Y-4.1417
X-0.8249Y-3.4929
X-0.8249Y-3.6464
X-0.8249Y-3.7759
X-0.8109Y-3.1959
X-0.8089Y-3.0497
X-0.8089Y-3.1236
X-0.796Y-4.5981
X-0.7629Y-3.7127
X-0.7614Y-2.5022
X-0.755Y-3.9169
X-0.6569Y-2.8567
X-0.6552Y-3.1284
X-0.6531Y-3.1677
X-0.6484Y-3.5497
X-0.5949Y-2.7319
X-0.5384Y-3.5122
X-0.5369Y-3.4217
X-0.5202Y-3.3825
X-0.4889Y-2.9477
X-0.4667Y-3.1699
X-0.456Y-3.0637
X-0.4269Y-2.5391
X-0.3827Y-4.4227
X-0.3694Y-3.0957
X-0.3423Y-4.4227
X-0.3369Y-3.4447
X-0.3269Y-3.4017
X-0.3116Y-3.1721
X-0.2919Y-4.5017
X-0.2689Y-2.8497
X-0.2519Y-3.4767
X-0.2369Y-3.4317
X-0.1839Y-3.3997
X-0.1379Y-3.4362
X-0.0819Y-3.4567
T2
X-0.2543Y-3.2767
X-0.1755Y-3.2767
X-0.0968Y-3.2767
T3
X-1.9069Y-2.4417
X-1.8069Y-2.4417
X-1.7069Y-2.4417
X-1.6069Y-2.4417
X-1.5069Y-2.4417
X-1.4069Y-2.4417
X-1.3069Y-2.4417
X-1.2069Y-2.4417
X-1.1069Y-2.4417
X-1.0069Y-2.4417
X-0.9069Y-2.4417
X-0.8069Y-2.4417
X-0.7069Y-2.4417
X-0.6069Y-2.4417
X-0.5069Y-2.4417
X-0.4069Y-2.4417
X-1.5999Y-2.9667
X-1.5999Y-3.0667
X-1.5999Y-3.1667
X-1.5999Y-3.2667
X-1.5999Y-3.3667
X-1.5999Y-3.4667
X-1.5999Y-3.5667
X-1.5999Y-3.6667
X-1.5999Y-3.7667
X-1.5999Y-3.8667
X-1.5999Y-3.9667
X-1.5999Y-4.0667
X-1.5999Y-4.1667
X-1.5999Y-4.2667
X-1.5999Y-4.3667
X-0.7259Y-2.9677
X-0.7259Y-3.0677
X-0.7259Y-3.1677
X-0.7259Y-3.2677
X-0.7259Y-3.3677
X-0.7259Y-3.4677
X-0.7259Y-3.5677
X-0.7259Y-3.6677
X-0.7259Y-3.7677
X-0.7259Y-3.8677
X-0.7259Y-3.9677
X-0.7259Y-4.0677
X-0.7259Y-4.1677
X-0.7259Y-4.2677
X-0.7259Y-4.3677
X-1.9069Y-2.6317
X-1.8069Y-2.6317
X-0.1119Y-4.1617
X-0.1119Y-4.2617
X-0.1119Y-4.3617
X-2.2169Y-3.9617
X-2.2169Y-4.0617
X-0.7259Y-2.9677
X-0.7259Y-3.0677
X-0.7259Y-3.1677
X-0.7259Y-3.2677
X-0.7259Y-3.3677
X-0.7259Y-3.4677
X-0.7259Y-3.5677
X-0.7259Y-3.6677
X-0.7259Y-3.7677
X-0.7259Y-3.8677
X-0.7259Y-3.9677
X-0.7259Y-4.0677
X-0.7259Y-4.1677
X-0.7259Y-4.2677
X-0.7259Y-4.3677
X-1.5589Y-2.6277
X-1.4589Y-2.6277
X-1.3589Y-2.6277
X-1.2589Y-2.6277
X-1.1589Y-2.6277
X-1.0589Y-2.6277
X-2.0669Y-4.5197
X-1.9669Y-4.5197
X-1.8669Y-4.5197
X-1.7669Y-4.5197
X-0.5679Y-3.6627
X-0.5679Y-3.7627
X-0.5679Y-3.8627
X-0.5679Y-3.9627
X-0.5679Y-4.0627
X-0.5679Y-4.1627
X-0.5679Y-4.2627
X-0.5679Y-4.3627
X-1.5999Y-2.9667
X-1.5999Y-3.0667
X-1.5999Y-3.1667
X-1.5999Y-3.2667
X-1.5999Y-3.3667
X-1.5999Y-3.4667
X-1.5999Y-3.5667
X-1.5999Y-3.6667
X-1.5999Y-3.7667
X-1.5999Y-3.8667
X-1.5999Y-3.9667
X-1.5999Y-4.0667
X-1.5999Y-4.1667
X-1.5999Y-4.2667
X-1.5999Y-4.3667
X-0.1109Y-3.5197
X-0.1109Y-3.6197
X-0.1109Y-3.7197
X-0.1109Y-3.8197
X-0.1109Y-3.9197
X-0.1109Y-4.0197
X-0.9169Y-2.6277
X-0.8169Y-2.6277
X-0.7169Y-2.6277
X-0.6169Y-2.6277
X-0.5169Y-2.6277
X-0.4169Y-2.6277
X-0.4169Y-3.5637
X-0.4169Y-3.6637
X-0.4169Y-3.7637
X-0.4169Y-3.8637
X-0.4169Y-3.9637
X-0.4169Y-4.0637
X-0.4169Y-4.1637
X-0.4169Y-4.2637
X-0.4169Y-4.3637
X-0.2619Y-3.5607
X-0.2619Y-3.6607
X-0.2619Y-3.7607
X-0.2619Y-3.8607
X-0.2619Y-3.9607
X-0.2619Y-4.0607
X-0.2619Y-4.1607
X-0.2619Y-4.2607
X-0.2619Y-4.3607
T4
X-1.9927Y-3.0577
X-1.8549Y-3.0577
X-1.8549Y-4.3569
T5
X-0.3369Y-3.2767
X-0.0141Y-3.2767
T6
X-2.0892Y-3.2113
X-2.0892Y-4.2034
X-1.7585Y-3.2585
X-1.7585Y-4.1562
T7
X-2.2047Y-2.4409
X-2.2047Y-4.6457
X0.0Y-2.4409
X0.0Y-4.6457
T0
M30
