G04 #@! TF.GenerationSoftware,KiCad,Pcbnew,(5.1.0)-1*
G04 #@! TF.CreationDate,2019-05-21T17:29:50+05:30*
G04 #@! TF.ProjectId,Console,436f6e73-6f6c-4652-9e6b-696361645f70,2.0.1*
G04 #@! TF.SameCoordinates,Original*
G04 #@! TF.FileFunction,Copper,L2,Bot*
G04 #@! TF.FilePolarity,Positive*
%FSLAX46Y46*%
G04 Gerber Fmt 4.6, Leading zero omitted, Abs format (unit mm)*
G04 Created by KiCad (PCBNEW (5.1.0)-1) date 2019-05-21 17:29:50*
%MOMM*%
%LPD*%
G04 APERTURE LIST*
%ADD10O,2.200000X3.500000*%
%ADD11O,1.500000X2.500000*%
%ADD12R,1.500000X2.500000*%
%ADD13O,1.700000X1.700000*%
%ADD14R,1.700000X1.700000*%
%ADD15R,1.750000X1.750000*%
%ADD16C,1.750000*%
%ADD17C,2.700000*%
%ADD18C,4.000000*%
%ADD19C,0.800000*%
%ADD20C,0.200000*%
G04 APERTURE END LIST*
D10*
X107442000Y-54229000D03*
X115642000Y-54229000D03*
D11*
X109542000Y-54229000D03*
X111542000Y-54229000D03*
D12*
X113542000Y-54229000D03*
D13*
X97561400Y-46380400D03*
X97561400Y-69240400D03*
X97561400Y-76860400D03*
X97561400Y-59080400D03*
X97561400Y-56540400D03*
X97561400Y-71780400D03*
X97561400Y-64160400D03*
X97561400Y-74320400D03*
X97561400Y-81940400D03*
X97561400Y-54000400D03*
X97561400Y-61620400D03*
X97561400Y-51460400D03*
X97561400Y-66700400D03*
X97561400Y-48920400D03*
X97561400Y-79400400D03*
X75361800Y-66675000D03*
X75361800Y-74295000D03*
X75361800Y-51435000D03*
X75361800Y-71755000D03*
X75361800Y-79375000D03*
D14*
X75361800Y-46355000D03*
D13*
X75361800Y-61595000D03*
X75361800Y-69215000D03*
X75361800Y-81915000D03*
X75361800Y-76835000D03*
X75361800Y-59055000D03*
X75361800Y-56515000D03*
X75361800Y-48895000D03*
X75361800Y-53975000D03*
X75361800Y-64135000D03*
X59690000Y-71628000D03*
D14*
X59690000Y-74168000D03*
D13*
X109347000Y-61442600D03*
X109347000Y-63982600D03*
X109347000Y-66522600D03*
X109347000Y-69062600D03*
X109347000Y-71602600D03*
X109347000Y-74142600D03*
X109347000Y-76682600D03*
X109347000Y-79222600D03*
D14*
X109347000Y-81762600D03*
D13*
X113157000Y-81788000D03*
X113157000Y-79248000D03*
D14*
X113157000Y-76708000D03*
D13*
X101574600Y-81813400D03*
X101574600Y-79273400D03*
X101574600Y-76733400D03*
X101574600Y-74193400D03*
X101574600Y-71653400D03*
X101574600Y-69113400D03*
X101574600Y-66573400D03*
D14*
X101574600Y-64033400D03*
D13*
X113182400Y-73101200D03*
X113182400Y-70561200D03*
X113182400Y-68021200D03*
X113182400Y-65481200D03*
X113182400Y-62941200D03*
D14*
X113182400Y-60401200D03*
D13*
X97561400Y-81940400D03*
X97561400Y-79400400D03*
X97561400Y-76860400D03*
X97561400Y-74320400D03*
X97561400Y-71780400D03*
X97561400Y-69240400D03*
X97561400Y-66700400D03*
X97561400Y-64160400D03*
X97561400Y-61620400D03*
X97561400Y-59080400D03*
X97561400Y-56540400D03*
X97561400Y-54000400D03*
X97561400Y-51460400D03*
X97561400Y-48920400D03*
D14*
X97561400Y-46380400D03*
X75361800Y-81915000D03*
D13*
X75361800Y-79375000D03*
X75361800Y-76835000D03*
X75361800Y-74295000D03*
X75361800Y-71755000D03*
X75361800Y-69215000D03*
X75361800Y-66675000D03*
X75361800Y-64135000D03*
X75361800Y-61595000D03*
X75361800Y-59055000D03*
X75361800Y-56515000D03*
X75361800Y-53975000D03*
X75361800Y-51435000D03*
X75361800Y-48895000D03*
X75361800Y-46355000D03*
X105664000Y-33020000D03*
X103124000Y-33020000D03*
X100584000Y-33020000D03*
X98044000Y-33020000D03*
X95504000Y-33020000D03*
X92964000Y-33020000D03*
X90424000Y-33020000D03*
X87884000Y-33020000D03*
X85344000Y-33020000D03*
X82804000Y-33020000D03*
X80264000Y-33020000D03*
X77724000Y-33020000D03*
X75184000Y-33020000D03*
X72644000Y-33020000D03*
X70104000Y-33020000D03*
D14*
X67564000Y-33020000D03*
D13*
X105410000Y-37744400D03*
X102870000Y-37744400D03*
X100330000Y-37744400D03*
X97790000Y-37744400D03*
X95250000Y-37744400D03*
D14*
X92710000Y-37744400D03*
D13*
X89103200Y-37744400D03*
X86563200Y-37744400D03*
X84023200Y-37744400D03*
X81483200Y-37744400D03*
X78943200Y-37744400D03*
D14*
X76403200Y-37744400D03*
X70104000Y-37846000D03*
D13*
X67564000Y-37846000D03*
D14*
X105410000Y-81838800D03*
D13*
X105410000Y-79298800D03*
X105410000Y-76758800D03*
X105410000Y-74218800D03*
X105410000Y-71678800D03*
X105410000Y-69138800D03*
X105410000Y-66598800D03*
X105410000Y-64058800D03*
X105410000Y-61518800D03*
D14*
X63500000Y-85801200D03*
D13*
X66040000Y-85801200D03*
X68580000Y-85801200D03*
X71120000Y-85801200D03*
D15*
X68884800Y-48666400D03*
D16*
X65384800Y-48666400D03*
X68884800Y-81666400D03*
D17*
X71334800Y-53766400D03*
X71334800Y-76566400D03*
X62934800Y-52566400D03*
X62934800Y-77766400D03*
D18*
X60198000Y-32766000D03*
X115189000Y-32766000D03*
X115189000Y-87807800D03*
D19*
X91389200Y-46329600D03*
X88265000Y-80341200D03*
X90805000Y-70941200D03*
X89001600Y-68778600D03*
X83770409Y-54768612D03*
X89718412Y-60454814D03*
X82628439Y-58893842D03*
X78536801Y-52998011D03*
X72328010Y-42252412D03*
X76968361Y-53431041D03*
X69748400Y-44551600D03*
X95046800Y-59718798D03*
X95402400Y-52176200D03*
X95453200Y-50338200D03*
X89306400Y-45059600D03*
X91338400Y-48401210D03*
X100888800Y-40390600D03*
X103581200Y-45872400D03*
X95046800Y-63618798D03*
X95046800Y-66908200D03*
X71781200Y-45612400D03*
X92318456Y-59766330D03*
X89276737Y-61352003D03*
X82245200Y-60045600D03*
X82426326Y-52531131D03*
X80124625Y-50736175D03*
X94956390Y-76200000D03*
X99530938Y-61162696D03*
X79643933Y-56036293D03*
X106618010Y-49631924D03*
X102785979Y-56916015D03*
X102362000Y-57912000D03*
X107442002Y-58496391D03*
X109601000Y-59309000D03*
X76962000Y-81215000D03*
X76962000Y-71247000D03*
X92075000Y-31115000D03*
X96659476Y-34556476D03*
X89481900Y-40690800D03*
X58881123Y-37737953D03*
X99314000Y-43561000D03*
X73787000Y-39497000D03*
X74122923Y-35071027D03*
X79372700Y-43434000D03*
X78192390Y-50397985D03*
X83022040Y-64852005D03*
X82386410Y-47548800D03*
X81796028Y-48509403D03*
X81990156Y-49490392D03*
X99411401Y-51460400D03*
X99357518Y-50461851D03*
X106279078Y-83337470D03*
X65450199Y-38978313D03*
X81026000Y-64835010D03*
X94107000Y-30444600D03*
X65978000Y-83947000D03*
X64389000Y-83947000D03*
X60833000Y-80518000D03*
X84455000Y-70941200D03*
X85672447Y-81941212D03*
X89300792Y-87170440D03*
X111328518Y-57353518D03*
X113919000Y-58801000D03*
X83185000Y-70941200D03*
X85116419Y-82780857D03*
X88148048Y-87549194D03*
X108085151Y-51570151D03*
X109982000Y-58166000D03*
X112496307Y-58278538D03*
X107696000Y-57404000D03*
X81915000Y-70941200D03*
X83312000Y-82423000D03*
X85625060Y-88086951D03*
X75819000Y-86741000D03*
X79248000Y-86558087D03*
X80919671Y-56559020D03*
X83107125Y-55759522D03*
X84507136Y-55727724D03*
X92752355Y-57786443D03*
X104417969Y-48818800D03*
X104144957Y-51516576D03*
X105156000Y-35494389D03*
X82424432Y-53531141D03*
X79248000Y-55118000D03*
X68696975Y-64505975D03*
X95453200Y-48463200D03*
X85043276Y-48818610D03*
X89001600Y-66903600D03*
X90290550Y-62710864D03*
X84988400Y-66903600D03*
X83312000Y-61366400D03*
X109169200Y-43383200D03*
X94342282Y-87590390D03*
X95782829Y-87790525D03*
X86813596Y-88180979D03*
X84455000Y-88086951D03*
X62642046Y-81091593D03*
X82556582Y-50666418D03*
X87431400Y-43078400D03*
X66767416Y-77833820D03*
X66944084Y-76849537D03*
X66143032Y-78614953D03*
X65733022Y-79581014D03*
X93167200Y-59182000D03*
X102323582Y-60210382D03*
X96621600Y-65303400D03*
X96822884Y-70488238D03*
X107306354Y-83337470D03*
X108585000Y-85344000D03*
D20*
X69133400Y-81915000D02*
X75361800Y-81915000D01*
X68884800Y-81666400D02*
X69133400Y-81915000D01*
X88265000Y-74345800D02*
X88265000Y-80341200D01*
X89001600Y-73609200D02*
X88265000Y-74345800D01*
X89306400Y-73609200D02*
X89001600Y-73609200D01*
X90805000Y-70941200D02*
X90805000Y-72110600D01*
X90805000Y-72110600D02*
X89306400Y-73609200D01*
X86823913Y-83249093D02*
X85990169Y-83249093D01*
X81767996Y-81915000D02*
X76563881Y-81915000D01*
X85990169Y-83249093D02*
X85758395Y-83480867D01*
X85758395Y-83480867D02*
X83333863Y-83480867D01*
X76563881Y-81915000D02*
X75361800Y-81915000D01*
X83333863Y-83480867D02*
X81767996Y-81915000D01*
X88265000Y-80341200D02*
X88265000Y-81808006D01*
X88265000Y-81808006D02*
X86823913Y-83249093D01*
X86496284Y-46329600D02*
X83770409Y-49055475D01*
X83770409Y-49055475D02*
X83770409Y-54202927D01*
X91389200Y-46329600D02*
X86496284Y-46329600D01*
X83770409Y-54202927D02*
X83770409Y-54768612D01*
X91618450Y-58583599D02*
X90156597Y-60045452D01*
X92729599Y-58583599D02*
X91618450Y-58583599D01*
X89727775Y-60445451D02*
X89718412Y-60454814D01*
X89001600Y-68778600D02*
X93867201Y-63912999D01*
X93503201Y-58481999D02*
X92831199Y-58481999D01*
X89756598Y-60445451D02*
X89727775Y-60445451D01*
X92831199Y-58481999D02*
X92729599Y-58583599D01*
X90156597Y-60045452D02*
X89756598Y-60445451D01*
X93867201Y-58845999D02*
X93503201Y-58481999D01*
X93867201Y-63912999D02*
X93867201Y-58845999D01*
X88157440Y-58893842D02*
X83194124Y-58893842D01*
X89718412Y-60454814D02*
X88157440Y-58893842D01*
X83194124Y-58893842D02*
X82628439Y-58893842D01*
X72201010Y-36202310D02*
X72201010Y-42125412D01*
X70104000Y-33020000D02*
X70953999Y-33869999D01*
X72201010Y-42125412D02*
X72328010Y-42252412D01*
X70953999Y-33869999D02*
X70953999Y-34955299D01*
X70953999Y-34955299D02*
X72201010Y-36202310D01*
X78936800Y-49706798D02*
X78822001Y-49591999D01*
X78536801Y-53418265D02*
X78536801Y-52998011D01*
X78536801Y-52998011D02*
X78936800Y-52598012D01*
X77394378Y-54560688D02*
X78536801Y-53418265D01*
X77962374Y-49591999D02*
X76968361Y-50586012D01*
X78822001Y-49591999D02*
X77962374Y-49591999D01*
X81055530Y-58893842D02*
X77394378Y-55232690D01*
X77394378Y-55232690D02*
X77394378Y-54560688D01*
X76968361Y-52865356D02*
X76968361Y-53431041D01*
X76968361Y-50586012D02*
X76968361Y-52865356D01*
X82628439Y-58893842D02*
X81055530Y-58893842D01*
X78936800Y-52598012D02*
X78936800Y-49706798D01*
X97561400Y-61620400D02*
X95659798Y-59718798D01*
X95659798Y-59718798D02*
X95046800Y-59718798D01*
X95046800Y-59718798D02*
X95046800Y-52531800D01*
X95046800Y-52531800D02*
X95402400Y-52176200D01*
X95402400Y-52176200D02*
X95402400Y-50389000D01*
X95402400Y-50389000D02*
X95453200Y-50338200D01*
X91338400Y-47712390D02*
X91338400Y-48401210D01*
X91155202Y-45059600D02*
X92089201Y-45993599D01*
X92089201Y-46961589D02*
X91338400Y-47712390D01*
X92089201Y-45993599D02*
X92089201Y-46961589D01*
X89306400Y-45059600D02*
X91155202Y-45059600D01*
X100888800Y-38303200D02*
X100330000Y-37744400D01*
X100888800Y-40390600D02*
X100888800Y-38303200D01*
X95046800Y-63618798D02*
X95046800Y-66908200D01*
X78093201Y-36894401D02*
X78943200Y-37744400D01*
X77793199Y-36594399D02*
X78093201Y-36894401D01*
X75313199Y-36594399D02*
X77793199Y-36594399D01*
X75253199Y-36654399D02*
X75313199Y-36594399D01*
X75253199Y-42640401D02*
X75253199Y-36654399D01*
X72281200Y-45612400D02*
X75253199Y-42640401D01*
X71781200Y-45612400D02*
X72281200Y-45612400D01*
X89306751Y-61321989D02*
X90762797Y-61321989D01*
X91918457Y-60166329D02*
X92318456Y-59766330D01*
X90762797Y-61321989D02*
X91918457Y-60166329D01*
X89276737Y-61352003D02*
X89306751Y-61321989D01*
X89276737Y-61352003D02*
X87970334Y-60045600D01*
X82810885Y-60045600D02*
X82245200Y-60045600D01*
X87970334Y-60045600D02*
X82810885Y-60045600D01*
X95046800Y-76109590D02*
X94956390Y-76200000D01*
X97561400Y-79400400D02*
X94956390Y-76795390D01*
X94956390Y-76795390D02*
X94956390Y-76765685D01*
X95046800Y-66908200D02*
X95046800Y-76109590D01*
X94956390Y-76765685D02*
X94956390Y-76200000D01*
X112307001Y-69762001D02*
X113157000Y-70612000D01*
X112006999Y-66981999D02*
X112006999Y-69461999D01*
X112579599Y-66921999D02*
X112066999Y-66921999D01*
X112066999Y-66921999D02*
X112006999Y-66981999D01*
X112630399Y-66871199D02*
X112579599Y-66921999D01*
X113182400Y-62941200D02*
X114707011Y-64465811D01*
X114707011Y-66461989D02*
X114247001Y-66921999D01*
X114247001Y-66921999D02*
X113785201Y-66921999D01*
X114707011Y-64465811D02*
X114707011Y-66461989D01*
X113785201Y-66921999D02*
X113734401Y-66871199D01*
X112006999Y-69461999D02*
X112307001Y-69762001D01*
X113734401Y-66871199D02*
X112630399Y-66871199D01*
X67564000Y-36643919D02*
X67564000Y-33020000D01*
X67564000Y-37846000D02*
X67564000Y-36643919D01*
X71628000Y-42672000D02*
X69748400Y-44551600D01*
X71628000Y-36194998D02*
X71628000Y-42672000D01*
X70553989Y-35120988D02*
X71628000Y-36194998D01*
X70553989Y-34993989D02*
X70553989Y-35120988D01*
X67564000Y-33274000D02*
X67862001Y-33572001D01*
X67862001Y-33572001D02*
X67862001Y-34334001D01*
X67862001Y-34334001D02*
X68453000Y-34925000D01*
X68453000Y-34925000D02*
X70485000Y-34925000D01*
X67564000Y-33020000D02*
X67564000Y-33274000D01*
X70485000Y-34925000D02*
X70553989Y-34993989D01*
X100781303Y-60762697D02*
X99930937Y-60762697D01*
X99930937Y-60762697D02*
X99530938Y-61162696D01*
X102762317Y-58781683D02*
X100781303Y-60762697D01*
X102762317Y-57931317D02*
X102762317Y-58781683D01*
X80245663Y-55359512D02*
X80021322Y-55583853D01*
X80043932Y-55606463D02*
X80043932Y-55636294D01*
X80442764Y-55162411D02*
X80021322Y-55583853D01*
X80043932Y-55636294D02*
X79643933Y-56036293D01*
X83124433Y-53867142D02*
X81632063Y-55359512D01*
X80021322Y-55583853D02*
X80043932Y-55606463D01*
X82426326Y-52531131D02*
X83124434Y-53229239D01*
X80124625Y-50736175D02*
X80690310Y-50736175D01*
X80690310Y-50736175D02*
X83124433Y-53170298D01*
X83124433Y-53170298D02*
X83124433Y-53867142D01*
X81632063Y-55359512D02*
X80245663Y-55359512D01*
X81829166Y-55162411D02*
X80442764Y-55162411D01*
X83124434Y-53229239D02*
X83124434Y-53867143D01*
X83124434Y-53867143D02*
X81829166Y-55162411D01*
X106618010Y-49066239D02*
X106618010Y-49631924D01*
X103581200Y-45872400D02*
X106618010Y-48909210D01*
X106618010Y-48909210D02*
X106618010Y-49066239D01*
X103039979Y-57653655D02*
X102957934Y-57653655D01*
X102957934Y-57653655D02*
X102785979Y-57481700D01*
X102785979Y-57481700D02*
X102785979Y-56916015D01*
X102762317Y-57931317D02*
X103039979Y-57653655D01*
X102927685Y-57912000D02*
X102362000Y-57912000D01*
X103039979Y-57653655D02*
X103039979Y-57799706D01*
X103039979Y-57799706D02*
X102927685Y-57912000D01*
X107442002Y-58496391D02*
X108254611Y-59309000D01*
X108254611Y-59309000D02*
X109601000Y-59309000D01*
X75361800Y-79375000D02*
X76962000Y-80975200D01*
X76962000Y-80975200D02*
X76962000Y-81215000D01*
X75361800Y-79375000D02*
X76962000Y-77774800D01*
X76962000Y-77774800D02*
X76962000Y-71247000D01*
X92003602Y-40690800D02*
X89481900Y-40690800D01*
X93860001Y-38834401D02*
X92003602Y-40690800D01*
X93860001Y-37355951D02*
X93860001Y-38834401D01*
X96659476Y-34556476D02*
X93860001Y-37355951D01*
X59281122Y-37337954D02*
X58881123Y-37737953D01*
X61214046Y-37337954D02*
X59281122Y-37337954D01*
X92075000Y-31115000D02*
X67437000Y-31115000D01*
X67437000Y-31115000D02*
X66682001Y-31869999D01*
X66682001Y-31869999D02*
X66473999Y-31869999D01*
X66473999Y-31869999D02*
X66413999Y-31929999D01*
X66413999Y-31929999D02*
X66413999Y-32138001D01*
X66413999Y-32138001D02*
X61214046Y-37337954D01*
X73787000Y-39497000D02*
X73787000Y-35406950D01*
X73787000Y-35406950D02*
X74122923Y-35071027D01*
X107360023Y-61157625D02*
X108794999Y-62592601D01*
X104374989Y-53428311D02*
X104374989Y-57650387D01*
X109899001Y-62592601D02*
X110497001Y-61994601D01*
X110497001Y-61994601D02*
X110497001Y-59174999D01*
X103980369Y-49996967D02*
X104877969Y-49996967D01*
X99314000Y-45330598D02*
X103980369Y-49996967D01*
X110497001Y-59174999D02*
X112470995Y-57201005D01*
X108794999Y-62592601D02*
X109899001Y-62592601D01*
X107360023Y-60635421D02*
X107360023Y-61157625D01*
X104374989Y-57650387D02*
X107360023Y-60635421D01*
X105644989Y-52158311D02*
X104374989Y-53428311D01*
X105644989Y-50763987D02*
X105644989Y-52158311D01*
X104877969Y-49996967D02*
X105644989Y-50763987D01*
X99314000Y-43561000D02*
X99314000Y-45330598D01*
X112470995Y-56607995D02*
X112470995Y-57201005D01*
X111542000Y-55679000D02*
X112470995Y-56607995D01*
X111542000Y-54229000D02*
X111542000Y-55679000D01*
X91660000Y-37744400D02*
X92710000Y-37744400D01*
X90509999Y-36594399D02*
X91660000Y-37744400D01*
X80931199Y-36594399D02*
X90509999Y-36594399D01*
X80093201Y-37432397D02*
X80931199Y-36594399D01*
X80093201Y-42713499D02*
X80093201Y-37432397D01*
X79372700Y-43434000D02*
X80093201Y-42713499D01*
X104775000Y-56870600D02*
X109347000Y-61442600D01*
X104775000Y-53594000D02*
X104775000Y-56870600D01*
X106045000Y-52324000D02*
X104775000Y-53594000D01*
X106045000Y-50598298D02*
X106045000Y-52324000D01*
X105913034Y-50466332D02*
X106045000Y-50598298D01*
X105913034Y-49240236D02*
X105913034Y-50466332D01*
X102881199Y-46208401D02*
X105913034Y-49240236D01*
X107180999Y-41236599D02*
X102881199Y-45536399D01*
X107180999Y-34170001D02*
X107180999Y-41236599D01*
X97491999Y-34170001D02*
X107180999Y-34170001D01*
X96976998Y-33655000D02*
X97491999Y-34170001D01*
X96571002Y-33655000D02*
X96976998Y-33655000D01*
X92710000Y-37516002D02*
X96571002Y-33655000D01*
X102881199Y-45536399D02*
X102881199Y-46208401D01*
X92710000Y-37744400D02*
X92710000Y-37516002D01*
X78192390Y-50397985D02*
X77792391Y-50797984D01*
X77792391Y-53596975D02*
X76994367Y-54394999D01*
X83022040Y-64180003D02*
X83022040Y-64852005D01*
X76994367Y-58152330D02*
X83022040Y-64180003D01*
X76994367Y-54394999D02*
X76994367Y-58152330D01*
X77792391Y-50797984D02*
X77792391Y-53596975D01*
X86563200Y-43372010D02*
X82786409Y-47148801D01*
X82786409Y-47148801D02*
X82386410Y-47548800D01*
X86563200Y-37744400D02*
X86563200Y-43372010D01*
X81396029Y-48109404D02*
X81796028Y-48509403D01*
X81483200Y-37744400D02*
X83293601Y-39554801D01*
X83293601Y-39554801D02*
X83293601Y-41903201D01*
X83293601Y-41903201D02*
X81396029Y-43800773D01*
X81396029Y-43800773D02*
X81396029Y-48109404D01*
X76403200Y-37744400D02*
X76403200Y-44469121D01*
X76403200Y-44469121D02*
X81424471Y-49490392D01*
X81424471Y-49490392D02*
X81990156Y-49490392D01*
X104844967Y-51826933D02*
X103574967Y-53096933D01*
X103211178Y-51460400D02*
X103874589Y-50796989D01*
X104546591Y-50796989D02*
X104844967Y-51095365D01*
X104844967Y-51095365D02*
X104844967Y-51826933D01*
X103574967Y-57981765D02*
X106560001Y-60966799D01*
X106560001Y-60966799D02*
X106560001Y-78148799D01*
X106560001Y-78148799D02*
X106259999Y-78448801D01*
X103874589Y-50796989D02*
X104546591Y-50796989D01*
X103574967Y-53096933D02*
X103574967Y-57981765D01*
X106259999Y-78448801D02*
X105410000Y-79298800D01*
X99411401Y-51460400D02*
X103211178Y-51460400D01*
X103974978Y-53262622D02*
X103974978Y-57816076D01*
X106960012Y-79450790D02*
X105962001Y-80448801D01*
X106960012Y-60801110D02*
X106960012Y-79450790D01*
X99923203Y-50461851D02*
X99988076Y-50396978D01*
X104712280Y-50396978D02*
X105244978Y-50929676D01*
X104857999Y-80448801D02*
X104259999Y-79850801D01*
X104560001Y-77608799D02*
X105410000Y-76758800D01*
X104259999Y-79850801D02*
X104259999Y-77908801D01*
X99988076Y-50396978D02*
X104712280Y-50396978D01*
X103974978Y-57816076D02*
X106960012Y-60801110D01*
X105244978Y-50929676D02*
X105244978Y-51992622D01*
X99357518Y-50461851D02*
X99923203Y-50461851D01*
X104259999Y-77908801D02*
X104560001Y-77608799D01*
X105962001Y-80448801D02*
X104857999Y-80448801D01*
X105244978Y-51992622D02*
X103974978Y-53262622D01*
X89259412Y-85090456D02*
X99832832Y-85090456D01*
X61549977Y-83219666D02*
X61549977Y-87222574D01*
X75361800Y-56515000D02*
X67575101Y-56515000D01*
X61284799Y-62805302D02*
X61284799Y-78698342D01*
X87166609Y-86280944D02*
X87398383Y-86049170D01*
X100359843Y-84563445D02*
X105053103Y-84563445D01*
X75044711Y-85841291D02*
X81734387Y-85841291D01*
X62878648Y-88551245D02*
X72334757Y-88551245D01*
X105879079Y-83737469D02*
X106279078Y-83337470D01*
X88300698Y-86049170D02*
X89259412Y-85090456D01*
X105053103Y-84563445D02*
X105879079Y-83737469D01*
X87398383Y-86049170D02*
X88300698Y-86049170D01*
X61549977Y-87222574D02*
X62878648Y-88551245D01*
X63342048Y-81427595D02*
X61549977Y-83219666D01*
X63342048Y-80755591D02*
X63342048Y-81427595D01*
X67575101Y-56515000D02*
X61284799Y-62805302D01*
X72334757Y-88551245D02*
X75044711Y-85841291D01*
X99832832Y-85090456D02*
X100359843Y-84563445D01*
X81734387Y-85841291D02*
X82174040Y-86280944D01*
X82174040Y-86280944D02*
X87166609Y-86280944D01*
X61284799Y-78698342D02*
X63342048Y-80755591D01*
X70376698Y-55962999D02*
X74211799Y-55962999D01*
X63809788Y-40618724D02*
X63809788Y-49396090D01*
X63809788Y-49396090D02*
X70376698Y-55962999D01*
X74211799Y-55962999D02*
X74809799Y-55364999D01*
X76511801Y-55962999D02*
X76511801Y-59682791D01*
X76511801Y-59682791D02*
X81026000Y-64196990D01*
X74809799Y-55364999D02*
X75913801Y-55364999D01*
X65450199Y-38978313D02*
X63809788Y-40618724D01*
X75913801Y-55364999D02*
X76511801Y-55962999D01*
X81026000Y-64196990D02*
X81026000Y-64835010D01*
X93511714Y-30414999D02*
X64962001Y-30414999D01*
X94107000Y-30444600D02*
X93541315Y-30444600D01*
X93541315Y-30444600D02*
X93511714Y-30414999D01*
X65978000Y-83947000D02*
X64389000Y-83947000D01*
X64962001Y-31406001D02*
X64962001Y-30414999D01*
X61302001Y-35066001D02*
X64962001Y-31406001D01*
X60517073Y-35066001D02*
X61302001Y-35066001D01*
X58181122Y-37401952D02*
X60517073Y-35066001D01*
X58181122Y-77866122D02*
X58181122Y-37401952D01*
X60833000Y-80518000D02*
X58181122Y-77866122D01*
X84455000Y-70941200D02*
X84455000Y-80723765D01*
X85272448Y-81541213D02*
X85672447Y-81941212D01*
X84455000Y-80723765D02*
X85272448Y-81541213D01*
X114318999Y-59200999D02*
X113919000Y-58801000D01*
X116293978Y-61175978D02*
X114318999Y-59200999D01*
X116293978Y-81913822D02*
X116293978Y-61175978D01*
X110850511Y-87357289D02*
X116293978Y-81913822D01*
X96284520Y-86490377D02*
X97151432Y-87357289D01*
X89300792Y-87170440D02*
X89980855Y-86490377D01*
X89980855Y-86490377D02*
X96284520Y-86490377D01*
X97151432Y-87357289D02*
X110850511Y-87357289D01*
X106902031Y-51763320D02*
X106902031Y-52032667D01*
X106902031Y-52032667D02*
X106041990Y-52892708D01*
X110928519Y-56953519D02*
X111328518Y-57353518D01*
X98044000Y-33020000D02*
X99594009Y-31469991D01*
X106381690Y-31469991D02*
X116293978Y-41382279D01*
X116293978Y-41382279D02*
X116293978Y-42371371D01*
X106041990Y-52892708D02*
X106041990Y-55475988D01*
X116293978Y-42371371D02*
X106902031Y-51763320D01*
X106041990Y-55475988D02*
X107270001Y-56703999D01*
X110678999Y-56703999D02*
X110928519Y-56953519D01*
X107270001Y-56703999D02*
X110678999Y-56703999D01*
X99594009Y-31469991D02*
X106381690Y-31469991D01*
X83185000Y-70941200D02*
X83185000Y-80849438D01*
X83185000Y-80849438D02*
X84716420Y-82380858D01*
X84716420Y-82380858D02*
X85116419Y-82780857D01*
X92947475Y-87949193D02*
X88548047Y-87949193D01*
X94006280Y-86890388D02*
X92947475Y-87949193D01*
X88548047Y-87949193D02*
X88148048Y-87549194D01*
X96936120Y-87757300D02*
X96069208Y-86890388D01*
X116693989Y-82079511D02*
X111016200Y-87757300D01*
X95504000Y-33020000D02*
X97454020Y-31069980D01*
X112496307Y-58278538D02*
X112896306Y-57878539D01*
X112896306Y-57878539D02*
X114032541Y-57878539D01*
X111016200Y-87757300D02*
X96936120Y-87757300D01*
X114032541Y-57878539D02*
X116693989Y-60539987D01*
X116693989Y-42961313D02*
X108485150Y-51170152D01*
X108485150Y-51170152D02*
X108085151Y-51570151D01*
X106547379Y-31069980D02*
X116693989Y-41216590D01*
X97454020Y-31069980D02*
X106547379Y-31069980D01*
X116693989Y-41216590D02*
X116693989Y-42961313D01*
X96069208Y-86890388D02*
X94006280Y-86890388D01*
X116693989Y-60539987D02*
X116693989Y-82079511D01*
X108458000Y-58166000D02*
X108095999Y-57803999D01*
X109982000Y-58166000D02*
X108458000Y-58166000D01*
X108095999Y-57803999D02*
X107696000Y-57404000D01*
X81915000Y-70941200D02*
X81915000Y-81026000D01*
X82912001Y-82023001D02*
X83312000Y-82423000D01*
X81915000Y-81026000D02*
X82912001Y-82023001D01*
X85871620Y-88086951D02*
X85625060Y-88086951D01*
X87149598Y-87480977D02*
X86477594Y-87480977D01*
X88032148Y-88490527D02*
X87513598Y-87971977D01*
X111122517Y-88490527D02*
X88032148Y-88490527D01*
X114547021Y-85066023D02*
X111122517Y-88490527D01*
X115932579Y-85066023D02*
X114547021Y-85066023D01*
X117124590Y-83874012D02*
X115932579Y-85066023D01*
X117124590Y-41081491D02*
X117124590Y-83874012D01*
X106713068Y-30669969D02*
X117124590Y-41081491D01*
X95314031Y-30669969D02*
X106713068Y-30669969D01*
X92964000Y-33020000D02*
X95314031Y-30669969D01*
X87513598Y-87971977D02*
X87513598Y-87844977D01*
X87513598Y-87844977D02*
X87149598Y-87480977D01*
X86477594Y-87480977D02*
X85871620Y-88086951D01*
X87812046Y-86849192D02*
X87580272Y-87080966D01*
X115316000Y-61484800D02*
X115316000Y-81896702D01*
X87580272Y-87080966D02*
X86311905Y-87080966D01*
X86311905Y-87080966D02*
X86057905Y-87334966D01*
X88632076Y-86849192D02*
X87812046Y-86849192D01*
X86057905Y-87334966D02*
X76412966Y-87334966D01*
X97831565Y-86906022D02*
X96816021Y-85890478D01*
X76218999Y-87140999D02*
X75819000Y-86741000D01*
X76412966Y-87334966D02*
X76218999Y-87140999D01*
X89590790Y-85890478D02*
X88632076Y-86849192D01*
X96816021Y-85890478D02*
X89590790Y-85890478D01*
X110306680Y-86906022D02*
X97831565Y-86906022D01*
X115316000Y-81896702D02*
X110306680Y-86906022D01*
X114232400Y-60401200D02*
X115316000Y-61484800D01*
X113182400Y-60401200D02*
X114232400Y-60401200D01*
X88466387Y-86449181D02*
X87564072Y-86449181D01*
X113157000Y-68072000D02*
X114731800Y-69646800D01*
X114731800Y-69646800D02*
X114731800Y-81915202D01*
X114731800Y-81915202D02*
X110140991Y-86506011D01*
X110140991Y-86506011D02*
X97997254Y-86506011D01*
X97997254Y-86506011D02*
X96981710Y-85490467D01*
X96981710Y-85490467D02*
X89425101Y-85490467D01*
X89425101Y-85490467D02*
X88466387Y-86449181D01*
X87564072Y-86449181D02*
X87332298Y-86680955D01*
X87332298Y-86680955D02*
X79936553Y-86680955D01*
X79936553Y-86680955D02*
X79813685Y-86558087D01*
X79813685Y-86558087D02*
X79248000Y-86558087D01*
X66259799Y-47791401D02*
X65384800Y-48666400D01*
X74311800Y-46355000D02*
X73841980Y-46824820D01*
X67226380Y-46824820D02*
X66259799Y-47791401D01*
X73841980Y-46824820D02*
X67226380Y-46824820D01*
X75361800Y-46355000D02*
X74311800Y-46355000D01*
X81319670Y-56159021D02*
X80919671Y-56559020D01*
X83107125Y-55759522D02*
X81719169Y-55759522D01*
X81719169Y-55759522D02*
X81319670Y-56159021D01*
X92352356Y-57386444D02*
X92752355Y-57786443D01*
X84507136Y-55727724D02*
X90693636Y-55727724D01*
X90693636Y-55727724D02*
X92352356Y-57386444D01*
X102870000Y-37744400D02*
X102020001Y-38594399D01*
X102020001Y-46420832D02*
X104017970Y-48418801D01*
X104017970Y-48418801D02*
X104417969Y-48818800D01*
X102020001Y-38594399D02*
X102020001Y-46420832D01*
X103744958Y-51916575D02*
X104144957Y-51516576D01*
X99121133Y-56540400D02*
X103744958Y-51916575D01*
X97561400Y-56540400D02*
X99121133Y-56540400D01*
X105156000Y-37490400D02*
X105410000Y-37744400D01*
X105156000Y-35494389D02*
X105156000Y-37490400D01*
X82424432Y-53531141D02*
X80834859Y-53531141D01*
X80834859Y-53531141D02*
X79647999Y-54718001D01*
X79647999Y-54718001D02*
X79248000Y-55118000D01*
X91141001Y-70241199D02*
X91948000Y-71048198D01*
X81578999Y-70241199D02*
X91141001Y-70241199D01*
X81335198Y-70485000D02*
X81578999Y-70241199D01*
X74110315Y-70485000D02*
X81335198Y-70485000D01*
X68696975Y-64505975D02*
X68696975Y-65071660D01*
X68696975Y-65071660D02*
X74110315Y-70485000D01*
X95746801Y-75045801D02*
X96711401Y-76010401D01*
X96711401Y-76010401D02*
X97561400Y-76860400D01*
X95746801Y-63282797D02*
X95746801Y-75045801D01*
X95382801Y-62918797D02*
X95746801Y-63282797D01*
X94710799Y-62918797D02*
X95382801Y-62918797D01*
X94346799Y-63282797D02*
X94710799Y-62918797D01*
X94346799Y-68649399D02*
X94346799Y-63282797D01*
X91948000Y-71048198D02*
X94346799Y-68649399D01*
X95453200Y-48463200D02*
X94697791Y-49218609D01*
X94697791Y-49218609D02*
X85443275Y-49218609D01*
X85443275Y-49218609D02*
X85043276Y-48818610D01*
X89890551Y-63110863D02*
X90290550Y-62710864D01*
X89001600Y-63999814D02*
X89890551Y-63110863D01*
X89001600Y-66903600D02*
X89001600Y-63999814D01*
X84988400Y-66903600D02*
X84988400Y-63042800D01*
X84988400Y-63042800D02*
X83711999Y-61766399D01*
X83711999Y-61766399D02*
X83312000Y-61366400D01*
X109169200Y-34823198D02*
X109169200Y-43383200D01*
X106216001Y-31869999D02*
X109169200Y-34823198D01*
X104274001Y-31869999D02*
X106216001Y-31869999D01*
X103124000Y-33020000D02*
X104274001Y-31869999D01*
X112332401Y-66331199D02*
X113182400Y-65481200D01*
X112092100Y-66331199D02*
X112332401Y-66331199D01*
X110210698Y-68212601D02*
X112092100Y-66331199D01*
X110196999Y-68212601D02*
X110210698Y-68212601D01*
X109347000Y-69062600D02*
X110196999Y-68212601D01*
X109347000Y-70264681D02*
X109347000Y-71602600D01*
X109347000Y-69062600D02*
X109347000Y-70264681D01*
X109347000Y-74142600D02*
X109347000Y-71602600D01*
X112141000Y-74142600D02*
X113182400Y-73101200D01*
X109347000Y-74142600D02*
X112141000Y-74142600D01*
X95582694Y-87590390D02*
X95782829Y-87790525D01*
X94342282Y-87590390D02*
X95582694Y-87590390D01*
X86733999Y-31869999D02*
X72091999Y-31869999D01*
X72091999Y-31869999D02*
X71493999Y-32467999D01*
X71493999Y-32467999D02*
X71493999Y-34929599D01*
X72647012Y-41535410D02*
X73028012Y-41916410D01*
X73028012Y-41916410D02*
X73028012Y-42745188D01*
X69720522Y-46024800D02*
X66150200Y-42454478D01*
X66150200Y-42454478D02*
X66150200Y-38645421D01*
X66150200Y-38645421D02*
X65119179Y-37614400D01*
X87884000Y-33020000D02*
X86733999Y-31869999D01*
X85643308Y-89351267D02*
X86813596Y-88180979D01*
X60749955Y-81998045D02*
X60749955Y-87553952D01*
X73028012Y-42745188D02*
X69748400Y-46024800D01*
X60749955Y-87553952D02*
X62547270Y-89351267D01*
X62547270Y-89351267D02*
X85643308Y-89351267D01*
X62103000Y-80645000D02*
X60749955Y-81998045D01*
X60884788Y-79045788D02*
X62103000Y-80264000D01*
X60884788Y-41848791D02*
X60884788Y-79045788D01*
X72647012Y-36082612D02*
X72647012Y-41535410D01*
X65119179Y-37614400D02*
X60884788Y-41848791D01*
X71493999Y-34929599D02*
X72647012Y-36082612D01*
X69748400Y-46024800D02*
X69720522Y-46024800D01*
X62103000Y-80264000D02*
X62103000Y-80645000D01*
X62242047Y-81491592D02*
X62642046Y-81091593D01*
X83590695Y-88951256D02*
X62712954Y-88951256D01*
X61149966Y-87388268D02*
X61149966Y-82583673D01*
X62712954Y-88951256D02*
X61149966Y-87388268D01*
X61149966Y-82583673D02*
X62242047Y-81491592D01*
X84455000Y-88086951D02*
X83590695Y-88951256D01*
X73428023Y-41750721D02*
X73428023Y-42910877D01*
X69914091Y-46424809D02*
X65887389Y-46424809D01*
X73047023Y-41369721D02*
X73428023Y-41750721D01*
X65887389Y-46424809D02*
X64209799Y-48102399D01*
X64209799Y-49230401D02*
X64820799Y-49841401D01*
X73428023Y-42910877D02*
X69914091Y-46424809D01*
X73047023Y-34625104D02*
X73047023Y-41369721D01*
X64820799Y-49841401D02*
X71935399Y-49841401D01*
X64209799Y-48102399D02*
X64209799Y-49230401D01*
X81990897Y-50666418D02*
X82556582Y-50666418D01*
X71935399Y-49841401D02*
X74271799Y-47505001D01*
X72644000Y-33020000D02*
X72644000Y-34222081D01*
X78043672Y-47505001D02*
X81205089Y-50666418D01*
X74271799Y-47505001D02*
X78043672Y-47505001D01*
X81205089Y-50666418D02*
X81990897Y-50666418D01*
X72644000Y-34222081D02*
X73047023Y-34625104D01*
X98831400Y-80670400D02*
X98411399Y-81090401D01*
X97561400Y-59918398D02*
X98831400Y-61188398D01*
X97561400Y-59080400D02*
X97561400Y-59918398D01*
X98411399Y-81090401D02*
X97561400Y-81940400D01*
X98831400Y-61188398D02*
X98831400Y-80670400D01*
X91104402Y-43078400D02*
X88018900Y-43078400D01*
X96153201Y-55680897D02*
X96153201Y-48127199D01*
X96011388Y-57530388D02*
X96011388Y-55822710D01*
X96011388Y-55822710D02*
X96153201Y-55680897D01*
X97561400Y-59080400D02*
X96011388Y-57530388D01*
X96153201Y-48127199D02*
X91104402Y-43078400D01*
X88018900Y-43078400D02*
X87431400Y-43078400D01*
X74159719Y-71755000D02*
X75361800Y-71755000D01*
X74038126Y-78361874D02*
X74159719Y-78240281D01*
X67867428Y-78361874D02*
X74038126Y-78361874D01*
X67709799Y-82230401D02*
X67709799Y-78519503D01*
X68920621Y-83441223D02*
X67709799Y-82230401D01*
X89015268Y-81940400D02*
X87306564Y-83649104D01*
X74159719Y-78240281D02*
X74159719Y-71755000D01*
X97561400Y-81940400D02*
X89015268Y-81940400D01*
X67709799Y-78519503D02*
X67867428Y-78361874D01*
X87306564Y-83649104D02*
X86404248Y-83649104D01*
X82728519Y-83441223D02*
X68920621Y-83441223D01*
X86404248Y-83649104D02*
X86172474Y-83880878D01*
X86172474Y-83880878D02*
X83168174Y-83880878D01*
X83168174Y-83880878D02*
X82728519Y-83441223D01*
X101650800Y-79298800D02*
X101625400Y-79273400D01*
X101625400Y-79273400D02*
X101574600Y-79273400D01*
X82836796Y-84680900D02*
X82397143Y-84241247D01*
X96843710Y-83490412D02*
X96643587Y-83290289D01*
X101574600Y-79273400D02*
X102424599Y-80123399D01*
X86503852Y-84680900D02*
X82836796Y-84680900D01*
X86735627Y-84449126D02*
X86503852Y-84680900D01*
X102424599Y-80123399D02*
X102424599Y-80910597D01*
X100660154Y-82600956D02*
X99168546Y-82600956D01*
X87637942Y-84449126D02*
X86735627Y-84449126D01*
X96643587Y-83290289D02*
X88796779Y-83290289D01*
X74381955Y-84241247D02*
X71672001Y-86951201D01*
X82397143Y-84241247D02*
X74381955Y-84241247D01*
X102126601Y-82963401D02*
X101022599Y-82963401D01*
X88796779Y-83290289D02*
X87637942Y-84449126D01*
X101022599Y-82963401D02*
X100660154Y-82600956D01*
X66843034Y-77909438D02*
X66767416Y-77833820D01*
X66843034Y-84572234D02*
X66843034Y-77909438D01*
X67429999Y-85159199D02*
X66843034Y-84572234D01*
X67429999Y-86353201D02*
X67429999Y-85159199D01*
X68027999Y-86951201D02*
X67429999Y-86353201D01*
X71672001Y-86951201D02*
X68027999Y-86951201D01*
X98279090Y-83490412D02*
X96843710Y-83490412D01*
X99168546Y-82600956D02*
X98279090Y-83490412D01*
X102870000Y-82220002D02*
X102126601Y-82963401D01*
X102870000Y-81355998D02*
X102870000Y-82220002D01*
X102424599Y-80910597D02*
X102870000Y-81355998D01*
X96809276Y-82890278D02*
X88631090Y-82890278D01*
X99365002Y-81838800D02*
X98113401Y-83090401D01*
X86569937Y-84049115D02*
X86338163Y-84280889D01*
X101650800Y-81838800D02*
X99365002Y-81838800D01*
X98113401Y-83090401D02*
X97009399Y-83090401D01*
X97009399Y-83090401D02*
X96809276Y-82890278D01*
X68322036Y-83841234D02*
X67298801Y-82817999D01*
X67298801Y-82817999D02*
X67298801Y-78338437D01*
X67467417Y-77372870D02*
X67344083Y-77249536D01*
X67344083Y-77249536D02*
X66944084Y-76849537D01*
X67467417Y-78169821D02*
X67467417Y-77372870D01*
X67298801Y-78338437D02*
X67467417Y-78169821D01*
X82562830Y-83841234D02*
X68322036Y-83841234D01*
X83002485Y-84280889D02*
X82562830Y-83841234D01*
X86338163Y-84280889D02*
X83002485Y-84280889D01*
X87472253Y-84049115D02*
X86569937Y-84049115D01*
X88631090Y-82890278D02*
X87472253Y-84049115D01*
X63627000Y-84651199D02*
X63627000Y-82839743D01*
X64650001Y-86113203D02*
X64650001Y-84711199D01*
X101574600Y-76733400D02*
X103016011Y-78174811D01*
X64590001Y-84651199D02*
X63627000Y-84651199D01*
X65888010Y-87351212D02*
X64650001Y-86113203D01*
X86901316Y-84849137D02*
X86669541Y-85080911D01*
X63627000Y-82839743D02*
X66443023Y-80023720D01*
X103270011Y-80775511D02*
X103270011Y-82385691D01*
X64650001Y-84711199D02*
X64590001Y-84651199D01*
X66443023Y-78914944D02*
X66143032Y-78614953D01*
X82231454Y-84641258D02*
X74547644Y-84641258D01*
X102292290Y-83363412D02*
X98971790Y-83363412D01*
X87803631Y-84849137D02*
X86901316Y-84849137D01*
X74547644Y-84641258D02*
X71837690Y-87351212D01*
X98444779Y-83890423D02*
X88762345Y-83890423D01*
X98971790Y-83363412D02*
X98444779Y-83890423D01*
X103270011Y-82385691D02*
X102292290Y-83363412D01*
X66443023Y-80023720D02*
X66443023Y-78914944D01*
X103016011Y-80521511D02*
X103270011Y-80775511D01*
X103016011Y-78174811D02*
X103016011Y-80521511D01*
X71837690Y-87351212D02*
X65888010Y-87351212D01*
X88762345Y-83890423D02*
X87803631Y-84849137D01*
X86669541Y-85080911D02*
X82671107Y-85080911D01*
X82671107Y-85080911D02*
X82231454Y-84641258D01*
X103670022Y-82551380D02*
X102457979Y-83763423D01*
X98610468Y-84290434D02*
X88928034Y-84290434D01*
X87969320Y-85249148D02*
X87067005Y-85249148D01*
X65733022Y-80146699D02*
X65733022Y-79581014D01*
X62349999Y-83551044D02*
X65733022Y-80168021D01*
X65733022Y-80168021D02*
X65733022Y-80146699D01*
X99137479Y-83763423D02*
X98610468Y-84290434D01*
X103416022Y-76034822D02*
X103416022Y-80355822D01*
X103416022Y-80355822D02*
X103670022Y-80609822D01*
X103670022Y-80609822D02*
X103670022Y-82551380D01*
X86835230Y-85480922D02*
X82505418Y-85480922D01*
X82505418Y-85480922D02*
X82065765Y-85041269D01*
X72003379Y-87751223D02*
X63210026Y-87751223D01*
X63210026Y-87751223D02*
X62349999Y-86891196D01*
X88928034Y-84290434D02*
X87969320Y-85249148D01*
X102457979Y-83763423D02*
X99137479Y-83763423D01*
X101574600Y-74193400D02*
X103416022Y-76034822D01*
X82065765Y-85041269D02*
X74713333Y-85041269D01*
X74713333Y-85041269D02*
X72003379Y-87751223D01*
X87067005Y-85249148D02*
X86835230Y-85480922D01*
X62349999Y-86891196D02*
X62349999Y-83551044D01*
X89612739Y-62052005D02*
X89942744Y-61722000D01*
X88940735Y-62052005D02*
X89612739Y-62052005D01*
X82975999Y-60666399D02*
X87555129Y-60666399D01*
X84469201Y-64637199D02*
X82365681Y-62533679D01*
X84469201Y-65309201D02*
X84469201Y-64637199D01*
X83722041Y-64562041D02*
X84469201Y-65309201D01*
X83358041Y-65552006D02*
X83722041Y-65188006D01*
X82686039Y-65552006D02*
X83358041Y-65552006D01*
X82322039Y-65188006D02*
X82686039Y-65552006D01*
X82322039Y-64516004D02*
X82322039Y-65188006D01*
X82557191Y-64280852D02*
X82322039Y-64516004D01*
X81726001Y-64499009D02*
X81426008Y-64199016D01*
X81726001Y-65171011D02*
X81726001Y-64499009D01*
X81362001Y-65535011D02*
X81726001Y-65171011D01*
X80689999Y-65535011D02*
X81362001Y-65535011D01*
X80325999Y-65171011D02*
X80689999Y-65535011D01*
X80544159Y-64280849D02*
X80325999Y-64499009D01*
X76334311Y-60071000D02*
X80544159Y-64280849D01*
X74809799Y-60205001D02*
X75913801Y-60205001D01*
X74675798Y-60071000D02*
X74809799Y-60205001D01*
X64584801Y-60071000D02*
X74675798Y-60071000D01*
X61949988Y-83385355D02*
X64584801Y-80750542D01*
X61949988Y-87056885D02*
X61949988Y-83385355D01*
X63044337Y-88151234D02*
X61949988Y-87056885D01*
X72169068Y-88151234D02*
X63044337Y-88151234D01*
X81900076Y-85441280D02*
X74879022Y-85441280D01*
X87000919Y-85880933D02*
X82339729Y-85880933D01*
X87232694Y-85649159D02*
X87000919Y-85880933D01*
X89093723Y-84690445D02*
X88135009Y-85649159D01*
X99303168Y-84163434D02*
X98776157Y-84690445D01*
X104070033Y-82717069D02*
X102623668Y-84163434D01*
X104070033Y-80444133D02*
X104070033Y-82717069D01*
X103816033Y-80190133D02*
X104070033Y-80444133D01*
X89942744Y-61722000D02*
X91400224Y-61722000D01*
X74879022Y-85441280D02*
X72169068Y-88151234D01*
X78347339Y-60071000D02*
X82557191Y-64280852D01*
X82365681Y-62533679D02*
X82365681Y-61276717D01*
X81426008Y-64199016D02*
X81426008Y-64031300D01*
X81426008Y-64031300D02*
X77465708Y-60071000D01*
X82339729Y-85880933D02*
X81900076Y-85441280D01*
X83722041Y-65188006D02*
X83722041Y-64562041D01*
X91400224Y-61722000D02*
X93167200Y-59955024D01*
X103816033Y-73894833D02*
X103816033Y-80190133D01*
X102623668Y-84163434D02*
X99303168Y-84163434D01*
X76047802Y-60071000D02*
X76334311Y-60071000D01*
X82365681Y-61276717D02*
X82975999Y-60666399D01*
X77465708Y-60071000D02*
X78347339Y-60071000D01*
X87555129Y-60666399D02*
X88940735Y-62052005D01*
X64584801Y-80750542D02*
X64584801Y-60071000D01*
X88135009Y-85649159D02*
X87232694Y-85649159D01*
X101574600Y-71653400D02*
X103816033Y-73894833D01*
X93167200Y-59955024D02*
X93167200Y-59747685D01*
X93167200Y-59747685D02*
X93167200Y-59182000D01*
X75913801Y-60205001D02*
X76047802Y-60071000D01*
X98776157Y-84690445D02*
X89093723Y-84690445D01*
X80325999Y-64499009D02*
X80325999Y-65171011D01*
X101923583Y-60610381D02*
X102323582Y-60210382D01*
X101574600Y-64033400D02*
X101574600Y-60959364D01*
X101574600Y-60959364D02*
X101923583Y-60610381D01*
X96221601Y-69886955D02*
X96822884Y-70488238D01*
X96621600Y-65303400D02*
X96221601Y-65703399D01*
X96221601Y-65703399D02*
X96221601Y-69886955D01*
X107306354Y-83337470D02*
X107306354Y-84065354D01*
X107306354Y-84065354D02*
X108585000Y-85344000D01*
M02*
