G04 #@! TF.GenerationSoftware,KiCad,Pcbnew,(5.1.0)-1*
G04 #@! TF.CreationDate,2019-04-28T14:02:46+05:30*
G04 #@! TF.ProjectId,Console,436f6e73-6f6c-4652-9e6b-696361645f70,2.0.1*
G04 #@! TF.SameCoordinates,Original*
G04 #@! TF.FileFunction,Legend,Top*
G04 #@! TF.FilePolarity,Positive*
%FSLAX46Y46*%
G04 Gerber Fmt 4.6, Leading zero omitted, Abs format (unit mm)*
G04 Created by KiCad (PCBNEW (5.1.0)-1) date 2019-04-28 14:02:46*
%MOMM*%
%LPD*%
G04 APERTURE LIST*
%ADD10C,0.120000*%
%ADD11C,0.150000*%
%ADD12C,0.375000*%
%ADD13C,1.000000*%
%ADD14C,0.125000*%
G04 APERTURE END LIST*
D10*
X99540190Y-42683714D02*
X99040190Y-42683714D01*
X99040190Y-42493238D01*
X99064000Y-42445619D01*
X99087809Y-42421809D01*
X99135428Y-42398000D01*
X99206857Y-42398000D01*
X99254476Y-42421809D01*
X99278285Y-42445619D01*
X99302095Y-42493238D01*
X99302095Y-42683714D01*
X99040190Y-42231333D02*
X99540190Y-42112285D01*
X99183047Y-42017047D01*
X99540190Y-41921809D01*
X99040190Y-41802761D01*
X99540190Y-41326571D02*
X99302095Y-41493238D01*
X99540190Y-41612285D02*
X99040190Y-41612285D01*
X99040190Y-41421809D01*
X99064000Y-41374190D01*
X99087809Y-41350380D01*
X99135428Y-41326571D01*
X99206857Y-41326571D01*
X99254476Y-41350380D01*
X99278285Y-41374190D01*
X99302095Y-41421809D01*
X99302095Y-41612285D01*
X99587809Y-41231333D02*
X99587809Y-40850380D01*
X99540190Y-40493238D02*
X99540190Y-40731333D01*
X99040190Y-40731333D01*
X99278285Y-40326571D02*
X99278285Y-40159904D01*
X99540190Y-40088476D02*
X99540190Y-40326571D01*
X99040190Y-40326571D01*
X99040190Y-40088476D01*
X99540190Y-39874190D02*
X99040190Y-39874190D01*
X99040190Y-39755142D01*
X99064000Y-39683714D01*
X99111619Y-39636095D01*
X99159238Y-39612285D01*
X99254476Y-39588476D01*
X99325904Y-39588476D01*
X99421142Y-39612285D01*
X99468761Y-39636095D01*
X99516380Y-39683714D01*
X99540190Y-39755142D01*
X99540190Y-39874190D01*
X103207428Y-56987285D02*
X103278857Y-57011095D01*
X103302666Y-57034904D01*
X103326476Y-57082523D01*
X103326476Y-57153952D01*
X103302666Y-57201571D01*
X103278857Y-57225380D01*
X103231238Y-57249190D01*
X103040761Y-57249190D01*
X103040761Y-56749190D01*
X103207428Y-56749190D01*
X103255047Y-56773000D01*
X103278857Y-56796809D01*
X103302666Y-56844428D01*
X103302666Y-56892047D01*
X103278857Y-56939666D01*
X103255047Y-56963476D01*
X103207428Y-56987285D01*
X103040761Y-56987285D01*
X103540761Y-56749190D02*
X103540761Y-57153952D01*
X103564571Y-57201571D01*
X103588380Y-57225380D01*
X103636000Y-57249190D01*
X103731238Y-57249190D01*
X103778857Y-57225380D01*
X103802666Y-57201571D01*
X103826476Y-57153952D01*
X103826476Y-56749190D01*
X104040761Y-57225380D02*
X104112190Y-57249190D01*
X104231238Y-57249190D01*
X104278857Y-57225380D01*
X104302666Y-57201571D01*
X104326476Y-57153952D01*
X104326476Y-57106333D01*
X104302666Y-57058714D01*
X104278857Y-57034904D01*
X104231238Y-57011095D01*
X104136000Y-56987285D01*
X104088380Y-56963476D01*
X104064571Y-56939666D01*
X104040761Y-56892047D01*
X104040761Y-56844428D01*
X104064571Y-56796809D01*
X104088380Y-56773000D01*
X104136000Y-56749190D01*
X104255047Y-56749190D01*
X104326476Y-56773000D01*
X104636000Y-57011095D02*
X104636000Y-57249190D01*
X104469333Y-56749190D02*
X104636000Y-57011095D01*
X104802666Y-56749190D01*
X100635714Y-84300190D02*
X100635714Y-83966857D01*
X100635714Y-84014476D02*
X100659523Y-83990666D01*
X100707142Y-83966857D01*
X100778571Y-83966857D01*
X100826190Y-83990666D01*
X100850000Y-84038285D01*
X100850000Y-84300190D01*
X100850000Y-84038285D02*
X100873809Y-83990666D01*
X100921428Y-83966857D01*
X100992857Y-83966857D01*
X101040476Y-83990666D01*
X101064285Y-84038285D01*
X101064285Y-84300190D01*
X101373809Y-84300190D02*
X101326190Y-84276380D01*
X101302380Y-84252571D01*
X101278571Y-84204952D01*
X101278571Y-84062095D01*
X101302380Y-84014476D01*
X101326190Y-83990666D01*
X101373809Y-83966857D01*
X101445238Y-83966857D01*
X101492857Y-83990666D01*
X101516666Y-84014476D01*
X101540476Y-84062095D01*
X101540476Y-84204952D01*
X101516666Y-84252571D01*
X101492857Y-84276380D01*
X101445238Y-84300190D01*
X101373809Y-84300190D01*
X101683333Y-83966857D02*
X101873809Y-83966857D01*
X101754761Y-83800190D02*
X101754761Y-84228761D01*
X101778571Y-84276380D01*
X101826190Y-84300190D01*
X101873809Y-84300190D01*
X102111904Y-84300190D02*
X102064285Y-84276380D01*
X102040476Y-84252571D01*
X102016666Y-84204952D01*
X102016666Y-84062095D01*
X102040476Y-84014476D01*
X102064285Y-83990666D01*
X102111904Y-83966857D01*
X102183333Y-83966857D01*
X102230952Y-83990666D01*
X102254761Y-84014476D01*
X102278571Y-84062095D01*
X102278571Y-84204952D01*
X102254761Y-84252571D01*
X102230952Y-84276380D01*
X102183333Y-84300190D01*
X102111904Y-84300190D01*
X102492857Y-84300190D02*
X102492857Y-83966857D01*
X102492857Y-84062095D02*
X102516666Y-84014476D01*
X102540476Y-83990666D01*
X102588095Y-83966857D01*
X102635714Y-83966857D01*
X104691714Y-83966857D02*
X104691714Y-84371619D01*
X104667904Y-84419238D01*
X104644095Y-84443047D01*
X104596476Y-84466857D01*
X104525047Y-84466857D01*
X104477428Y-84443047D01*
X104691714Y-84276380D02*
X104644095Y-84300190D01*
X104548857Y-84300190D01*
X104501238Y-84276380D01*
X104477428Y-84252571D01*
X104453619Y-84204952D01*
X104453619Y-84062095D01*
X104477428Y-84014476D01*
X104501238Y-83990666D01*
X104548857Y-83966857D01*
X104644095Y-83966857D01*
X104691714Y-83990666D01*
X104929809Y-83966857D02*
X104929809Y-84466857D01*
X104929809Y-83990666D02*
X104977428Y-83966857D01*
X105072666Y-83966857D01*
X105120285Y-83990666D01*
X105144095Y-84014476D01*
X105167904Y-84062095D01*
X105167904Y-84204952D01*
X105144095Y-84252571D01*
X105120285Y-84276380D01*
X105072666Y-84300190D01*
X104977428Y-84300190D01*
X104929809Y-84276380D01*
X105382190Y-84300190D02*
X105382190Y-83966857D01*
X105382190Y-83800190D02*
X105358380Y-83824000D01*
X105382190Y-83847809D01*
X105406000Y-83824000D01*
X105382190Y-83800190D01*
X105382190Y-83847809D01*
X105691714Y-84300190D02*
X105644095Y-84276380D01*
X105620285Y-84252571D01*
X105596476Y-84204952D01*
X105596476Y-84062095D01*
X105620285Y-84014476D01*
X105644095Y-83990666D01*
X105691714Y-83966857D01*
X105763142Y-83966857D01*
X105810761Y-83990666D01*
X105834571Y-84014476D01*
X105858380Y-84062095D01*
X105858380Y-84204952D01*
X105834571Y-84252571D01*
X105810761Y-84276380D01*
X105763142Y-84300190D01*
X105691714Y-84300190D01*
X110632952Y-83800190D02*
X110942476Y-83800190D01*
X110775809Y-83990666D01*
X110847238Y-83990666D01*
X110894857Y-84014476D01*
X110918666Y-84038285D01*
X110942476Y-84085904D01*
X110942476Y-84204952D01*
X110918666Y-84252571D01*
X110894857Y-84276380D01*
X110847238Y-84300190D01*
X110704380Y-84300190D01*
X110656761Y-84276380D01*
X110632952Y-84252571D01*
X111085333Y-83800190D02*
X111252000Y-84300190D01*
X111418666Y-83800190D01*
X111537714Y-83800190D02*
X111847238Y-83800190D01*
X111680571Y-83990666D01*
X111752000Y-83990666D01*
X111799619Y-84014476D01*
X111823428Y-84038285D01*
X111847238Y-84085904D01*
X111847238Y-84204952D01*
X111823428Y-84252571D01*
X111799619Y-84276380D01*
X111752000Y-84300190D01*
X111609142Y-84300190D01*
X111561523Y-84276380D01*
X111537714Y-84252571D01*
X115447000Y-79950428D02*
X115423190Y-79998047D01*
X115423190Y-80069476D01*
X115447000Y-80140904D01*
X115494619Y-80188523D01*
X115542238Y-80212333D01*
X115637476Y-80236142D01*
X115708904Y-80236142D01*
X115804142Y-80212333D01*
X115851761Y-80188523D01*
X115899380Y-80140904D01*
X115923190Y-80069476D01*
X115923190Y-80021857D01*
X115899380Y-79950428D01*
X115875571Y-79926619D01*
X115708904Y-79926619D01*
X115708904Y-80021857D01*
X115589857Y-79712333D02*
X115923190Y-79712333D01*
X115637476Y-79712333D02*
X115613666Y-79688523D01*
X115589857Y-79640904D01*
X115589857Y-79569476D01*
X115613666Y-79521857D01*
X115661285Y-79498047D01*
X115923190Y-79498047D01*
X115923190Y-79045666D02*
X115423190Y-79045666D01*
X115899380Y-79045666D02*
X115923190Y-79093285D01*
X115923190Y-79188523D01*
X115899380Y-79236142D01*
X115875571Y-79259952D01*
X115827952Y-79283761D01*
X115685095Y-79283761D01*
X115637476Y-79259952D01*
X115613666Y-79236142D01*
X115589857Y-79188523D01*
X115589857Y-79093285D01*
X115613666Y-79045666D01*
D11*
X59444380Y-66673476D02*
X58777714Y-66673476D01*
X58872952Y-66673476D02*
X58825333Y-66625857D01*
X58777714Y-66530619D01*
X58777714Y-66387761D01*
X58825333Y-66292523D01*
X58920571Y-66244904D01*
X59444380Y-66244904D01*
X58920571Y-66244904D02*
X58825333Y-66197285D01*
X58777714Y-66102047D01*
X58777714Y-65959190D01*
X58825333Y-65863952D01*
X58920571Y-65816333D01*
X59444380Y-65816333D01*
X59444380Y-65197285D02*
X59396761Y-65292523D01*
X59349142Y-65340142D01*
X59253904Y-65387761D01*
X58968190Y-65387761D01*
X58872952Y-65340142D01*
X58825333Y-65292523D01*
X58777714Y-65197285D01*
X58777714Y-65054428D01*
X58825333Y-64959190D01*
X58872952Y-64911571D01*
X58968190Y-64863952D01*
X59253904Y-64863952D01*
X59349142Y-64911571D01*
X59396761Y-64959190D01*
X59444380Y-65054428D01*
X59444380Y-65197285D01*
X58777714Y-64578238D02*
X58777714Y-64197285D01*
X58444380Y-64435380D02*
X59301523Y-64435380D01*
X59396761Y-64387761D01*
X59444380Y-64292523D01*
X59444380Y-64197285D01*
X59444380Y-63721095D02*
X59396761Y-63816333D01*
X59349142Y-63863952D01*
X59253904Y-63911571D01*
X58968190Y-63911571D01*
X58872952Y-63863952D01*
X58825333Y-63816333D01*
X58777714Y-63721095D01*
X58777714Y-63578238D01*
X58825333Y-63483000D01*
X58872952Y-63435380D01*
X58968190Y-63387761D01*
X59253904Y-63387761D01*
X59349142Y-63435380D01*
X59396761Y-63483000D01*
X59444380Y-63578238D01*
X59444380Y-63721095D01*
X59444380Y-62959190D02*
X58777714Y-62959190D01*
X58968190Y-62959190D02*
X58872952Y-62911571D01*
X58825333Y-62863952D01*
X58777714Y-62768714D01*
X58777714Y-62673476D01*
X59444380Y-61054428D02*
X59444380Y-61625857D01*
X59444380Y-61340142D02*
X58444380Y-61340142D01*
X58587238Y-61435380D01*
X58682476Y-61530619D01*
X58730095Y-61625857D01*
X59063428Y-59863952D02*
X59063428Y-59102047D01*
X59444380Y-59483000D02*
X58682476Y-59483000D01*
X59444380Y-57863952D02*
X58777714Y-57863952D01*
X58872952Y-57863952D02*
X58825333Y-57816333D01*
X58777714Y-57721095D01*
X58777714Y-57578238D01*
X58825333Y-57483000D01*
X58920571Y-57435380D01*
X59444380Y-57435380D01*
X58920571Y-57435380D02*
X58825333Y-57387761D01*
X58777714Y-57292523D01*
X58777714Y-57149666D01*
X58825333Y-57054428D01*
X58920571Y-57006809D01*
X59444380Y-57006809D01*
X59444380Y-56387761D02*
X59396761Y-56483000D01*
X59349142Y-56530619D01*
X59253904Y-56578238D01*
X58968190Y-56578238D01*
X58872952Y-56530619D01*
X58825333Y-56483000D01*
X58777714Y-56387761D01*
X58777714Y-56244904D01*
X58825333Y-56149666D01*
X58872952Y-56102047D01*
X58968190Y-56054428D01*
X59253904Y-56054428D01*
X59349142Y-56102047D01*
X59396761Y-56149666D01*
X59444380Y-56244904D01*
X59444380Y-56387761D01*
X58777714Y-55768714D02*
X58777714Y-55387761D01*
X58444380Y-55625857D02*
X59301523Y-55625857D01*
X59396761Y-55578238D01*
X59444380Y-55483000D01*
X59444380Y-55387761D01*
X59444380Y-54911571D02*
X59396761Y-55006809D01*
X59349142Y-55054428D01*
X59253904Y-55102047D01*
X58968190Y-55102047D01*
X58872952Y-55054428D01*
X58825333Y-55006809D01*
X58777714Y-54911571D01*
X58777714Y-54768714D01*
X58825333Y-54673476D01*
X58872952Y-54625857D01*
X58968190Y-54578238D01*
X59253904Y-54578238D01*
X59349142Y-54625857D01*
X59396761Y-54673476D01*
X59444380Y-54768714D01*
X59444380Y-54911571D01*
X59444380Y-54149666D02*
X58777714Y-54149666D01*
X58968190Y-54149666D02*
X58872952Y-54102047D01*
X58825333Y-54054428D01*
X58777714Y-53959190D01*
X58777714Y-53863952D01*
X58539619Y-52816333D02*
X58492000Y-52768714D01*
X58444380Y-52673476D01*
X58444380Y-52435380D01*
X58492000Y-52340142D01*
X58539619Y-52292523D01*
X58634857Y-52244904D01*
X58730095Y-52244904D01*
X58872952Y-52292523D01*
X59444380Y-52863952D01*
X59444380Y-52244904D01*
X59063428Y-51054428D02*
X59063428Y-50292523D01*
X59396761Y-49102047D02*
X59444380Y-49006809D01*
X59444380Y-48816333D01*
X59396761Y-48721095D01*
X59301523Y-48673476D01*
X59253904Y-48673476D01*
X59158666Y-48721095D01*
X59111047Y-48816333D01*
X59111047Y-48959190D01*
X59063428Y-49054428D01*
X58968190Y-49102047D01*
X58920571Y-49102047D01*
X58825333Y-49054428D01*
X58777714Y-48959190D01*
X58777714Y-48816333D01*
X58825333Y-48721095D01*
X58777714Y-48387761D02*
X58777714Y-48006809D01*
X58444380Y-48244904D02*
X59301523Y-48244904D01*
X59396761Y-48197285D01*
X59444380Y-48102047D01*
X59444380Y-48006809D01*
X59396761Y-47292523D02*
X59444380Y-47387761D01*
X59444380Y-47578238D01*
X59396761Y-47673476D01*
X59301523Y-47721095D01*
X58920571Y-47721095D01*
X58825333Y-47673476D01*
X58777714Y-47578238D01*
X58777714Y-47387761D01*
X58825333Y-47292523D01*
X58920571Y-47244904D01*
X59015809Y-47244904D01*
X59111047Y-47721095D01*
X58777714Y-46816333D02*
X59777714Y-46816333D01*
X58825333Y-46816333D02*
X58777714Y-46721095D01*
X58777714Y-46530619D01*
X58825333Y-46435380D01*
X58872952Y-46387761D01*
X58968190Y-46340142D01*
X59253904Y-46340142D01*
X59349142Y-46387761D01*
X59396761Y-46435380D01*
X59444380Y-46530619D01*
X59444380Y-46721095D01*
X59396761Y-46816333D01*
X58777714Y-45911571D02*
X59777714Y-45911571D01*
X58825333Y-45911571D02*
X58777714Y-45816333D01*
X58777714Y-45625857D01*
X58825333Y-45530619D01*
X58872952Y-45483000D01*
X58968190Y-45435380D01*
X59253904Y-45435380D01*
X59349142Y-45483000D01*
X59396761Y-45530619D01*
X59444380Y-45625857D01*
X59444380Y-45816333D01*
X59396761Y-45911571D01*
X59396761Y-44625857D02*
X59444380Y-44721095D01*
X59444380Y-44911571D01*
X59396761Y-45006809D01*
X59301523Y-45054428D01*
X58920571Y-45054428D01*
X58825333Y-45006809D01*
X58777714Y-44911571D01*
X58777714Y-44721095D01*
X58825333Y-44625857D01*
X58920571Y-44578238D01*
X59015809Y-44578238D01*
X59111047Y-45054428D01*
X59444380Y-44149666D02*
X58777714Y-44149666D01*
X58968190Y-44149666D02*
X58872952Y-44102047D01*
X58825333Y-44054428D01*
X58777714Y-43959190D01*
X58777714Y-43863952D01*
X59444380Y-42244904D02*
X59444380Y-42816333D01*
X59444380Y-42530619D02*
X58444380Y-42530619D01*
X58587238Y-42625857D01*
X58682476Y-42721095D01*
X58730095Y-42816333D01*
X61094380Y-66673476D02*
X60427714Y-66673476D01*
X60522952Y-66673476D02*
X60475333Y-66625857D01*
X60427714Y-66530619D01*
X60427714Y-66387761D01*
X60475333Y-66292523D01*
X60570571Y-66244904D01*
X61094380Y-66244904D01*
X60570571Y-66244904D02*
X60475333Y-66197285D01*
X60427714Y-66102047D01*
X60427714Y-65959190D01*
X60475333Y-65863952D01*
X60570571Y-65816333D01*
X61094380Y-65816333D01*
X61094380Y-65197285D02*
X61046761Y-65292523D01*
X60999142Y-65340142D01*
X60903904Y-65387761D01*
X60618190Y-65387761D01*
X60522952Y-65340142D01*
X60475333Y-65292523D01*
X60427714Y-65197285D01*
X60427714Y-65054428D01*
X60475333Y-64959190D01*
X60522952Y-64911571D01*
X60618190Y-64863952D01*
X60903904Y-64863952D01*
X60999142Y-64911571D01*
X61046761Y-64959190D01*
X61094380Y-65054428D01*
X61094380Y-65197285D01*
X60427714Y-64578238D02*
X60427714Y-64197285D01*
X60094380Y-64435380D02*
X60951523Y-64435380D01*
X61046761Y-64387761D01*
X61094380Y-64292523D01*
X61094380Y-64197285D01*
X61094380Y-63721095D02*
X61046761Y-63816333D01*
X60999142Y-63863952D01*
X60903904Y-63911571D01*
X60618190Y-63911571D01*
X60522952Y-63863952D01*
X60475333Y-63816333D01*
X60427714Y-63721095D01*
X60427714Y-63578238D01*
X60475333Y-63483000D01*
X60522952Y-63435380D01*
X60618190Y-63387761D01*
X60903904Y-63387761D01*
X60999142Y-63435380D01*
X61046761Y-63483000D01*
X61094380Y-63578238D01*
X61094380Y-63721095D01*
X61094380Y-62959190D02*
X60427714Y-62959190D01*
X60618190Y-62959190D02*
X60522952Y-62911571D01*
X60475333Y-62863952D01*
X60427714Y-62768714D01*
X60427714Y-62673476D01*
X60094380Y-61673476D02*
X60094380Y-61054428D01*
X60475333Y-61387761D01*
X60475333Y-61244904D01*
X60522952Y-61149666D01*
X60570571Y-61102047D01*
X60665809Y-61054428D01*
X60903904Y-61054428D01*
X60999142Y-61102047D01*
X61046761Y-61149666D01*
X61094380Y-61244904D01*
X61094380Y-61530619D01*
X61046761Y-61625857D01*
X60999142Y-61673476D01*
X60713428Y-59863952D02*
X60713428Y-59102047D01*
X61094380Y-59483000D02*
X60332476Y-59483000D01*
X61094380Y-57863952D02*
X60427714Y-57863952D01*
X60522952Y-57863952D02*
X60475333Y-57816333D01*
X60427714Y-57721095D01*
X60427714Y-57578238D01*
X60475333Y-57483000D01*
X60570571Y-57435380D01*
X61094380Y-57435380D01*
X60570571Y-57435380D02*
X60475333Y-57387761D01*
X60427714Y-57292523D01*
X60427714Y-57149666D01*
X60475333Y-57054428D01*
X60570571Y-57006809D01*
X61094380Y-57006809D01*
X61094380Y-56387761D02*
X61046761Y-56483000D01*
X60999142Y-56530619D01*
X60903904Y-56578238D01*
X60618190Y-56578238D01*
X60522952Y-56530619D01*
X60475333Y-56483000D01*
X60427714Y-56387761D01*
X60427714Y-56244904D01*
X60475333Y-56149666D01*
X60522952Y-56102047D01*
X60618190Y-56054428D01*
X60903904Y-56054428D01*
X60999142Y-56102047D01*
X61046761Y-56149666D01*
X61094380Y-56244904D01*
X61094380Y-56387761D01*
X60427714Y-55768714D02*
X60427714Y-55387761D01*
X60094380Y-55625857D02*
X60951523Y-55625857D01*
X61046761Y-55578238D01*
X61094380Y-55483000D01*
X61094380Y-55387761D01*
X61094380Y-54911571D02*
X61046761Y-55006809D01*
X60999142Y-55054428D01*
X60903904Y-55102047D01*
X60618190Y-55102047D01*
X60522952Y-55054428D01*
X60475333Y-55006809D01*
X60427714Y-54911571D01*
X60427714Y-54768714D01*
X60475333Y-54673476D01*
X60522952Y-54625857D01*
X60618190Y-54578238D01*
X60903904Y-54578238D01*
X60999142Y-54625857D01*
X61046761Y-54673476D01*
X61094380Y-54768714D01*
X61094380Y-54911571D01*
X61094380Y-54149666D02*
X60427714Y-54149666D01*
X60618190Y-54149666D02*
X60522952Y-54102047D01*
X60475333Y-54054428D01*
X60427714Y-53959190D01*
X60427714Y-53863952D01*
X60427714Y-52340142D02*
X61094380Y-52340142D01*
X60046761Y-52578238D02*
X60761047Y-52816333D01*
X60761047Y-52197285D01*
X60713428Y-51054428D02*
X60713428Y-50292523D01*
X61046761Y-49102047D02*
X61094380Y-49006809D01*
X61094380Y-48816333D01*
X61046761Y-48721095D01*
X60951523Y-48673476D01*
X60903904Y-48673476D01*
X60808666Y-48721095D01*
X60761047Y-48816333D01*
X60761047Y-48959190D01*
X60713428Y-49054428D01*
X60618190Y-49102047D01*
X60570571Y-49102047D01*
X60475333Y-49054428D01*
X60427714Y-48959190D01*
X60427714Y-48816333D01*
X60475333Y-48721095D01*
X60427714Y-48387761D02*
X60427714Y-48006809D01*
X60094380Y-48244904D02*
X60951523Y-48244904D01*
X61046761Y-48197285D01*
X61094380Y-48102047D01*
X61094380Y-48006809D01*
X61046761Y-47292523D02*
X61094380Y-47387761D01*
X61094380Y-47578238D01*
X61046761Y-47673476D01*
X60951523Y-47721095D01*
X60570571Y-47721095D01*
X60475333Y-47673476D01*
X60427714Y-47578238D01*
X60427714Y-47387761D01*
X60475333Y-47292523D01*
X60570571Y-47244904D01*
X60665809Y-47244904D01*
X60761047Y-47721095D01*
X60427714Y-46816333D02*
X61427714Y-46816333D01*
X60475333Y-46816333D02*
X60427714Y-46721095D01*
X60427714Y-46530619D01*
X60475333Y-46435380D01*
X60522952Y-46387761D01*
X60618190Y-46340142D01*
X60903904Y-46340142D01*
X60999142Y-46387761D01*
X61046761Y-46435380D01*
X61094380Y-46530619D01*
X61094380Y-46721095D01*
X61046761Y-46816333D01*
X60427714Y-45911571D02*
X61427714Y-45911571D01*
X60475333Y-45911571D02*
X60427714Y-45816333D01*
X60427714Y-45625857D01*
X60475333Y-45530619D01*
X60522952Y-45483000D01*
X60618190Y-45435380D01*
X60903904Y-45435380D01*
X60999142Y-45483000D01*
X61046761Y-45530619D01*
X61094380Y-45625857D01*
X61094380Y-45816333D01*
X61046761Y-45911571D01*
X61046761Y-44625857D02*
X61094380Y-44721095D01*
X61094380Y-44911571D01*
X61046761Y-45006809D01*
X60951523Y-45054428D01*
X60570571Y-45054428D01*
X60475333Y-45006809D01*
X60427714Y-44911571D01*
X60427714Y-44721095D01*
X60475333Y-44625857D01*
X60570571Y-44578238D01*
X60665809Y-44578238D01*
X60761047Y-45054428D01*
X61094380Y-44149666D02*
X60427714Y-44149666D01*
X60618190Y-44149666D02*
X60522952Y-44102047D01*
X60475333Y-44054428D01*
X60427714Y-43959190D01*
X60427714Y-43863952D01*
X60189619Y-42816333D02*
X60142000Y-42768714D01*
X60094380Y-42673476D01*
X60094380Y-42435380D01*
X60142000Y-42340142D01*
X60189619Y-42292523D01*
X60284857Y-42244904D01*
X60380095Y-42244904D01*
X60522952Y-42292523D01*
X61094380Y-42863952D01*
X61094380Y-42244904D01*
D12*
X108565571Y-58138142D02*
X108422714Y-58209571D01*
X108137000Y-58209571D01*
X107994142Y-58138142D01*
X107922714Y-58066714D01*
X107851285Y-57923857D01*
X107851285Y-57495285D01*
X107922714Y-57352428D01*
X107994142Y-57281000D01*
X108137000Y-57209571D01*
X108422714Y-57209571D01*
X108565571Y-57281000D01*
X109422714Y-58209571D02*
X109279857Y-58138142D01*
X109208428Y-58066714D01*
X109137000Y-57923857D01*
X109137000Y-57495285D01*
X109208428Y-57352428D01*
X109279857Y-57281000D01*
X109422714Y-57209571D01*
X109637000Y-57209571D01*
X109779857Y-57281000D01*
X109851285Y-57352428D01*
X109922714Y-57495285D01*
X109922714Y-57923857D01*
X109851285Y-58066714D01*
X109779857Y-58138142D01*
X109637000Y-58209571D01*
X109422714Y-58209571D01*
X110565571Y-57209571D02*
X110565571Y-58209571D01*
X110565571Y-57352428D02*
X110637000Y-57281000D01*
X110779857Y-57209571D01*
X110994142Y-57209571D01*
X111137000Y-57281000D01*
X111208428Y-57423857D01*
X111208428Y-58209571D01*
X111851285Y-58138142D02*
X111994142Y-58209571D01*
X112279857Y-58209571D01*
X112422714Y-58138142D01*
X112494142Y-57995285D01*
X112494142Y-57923857D01*
X112422714Y-57781000D01*
X112279857Y-57709571D01*
X112065571Y-57709571D01*
X111922714Y-57638142D01*
X111851285Y-57495285D01*
X111851285Y-57423857D01*
X111922714Y-57281000D01*
X112065571Y-57209571D01*
X112279857Y-57209571D01*
X112422714Y-57281000D01*
X113351285Y-58209571D02*
X113208428Y-58138142D01*
X113137000Y-58066714D01*
X113065571Y-57923857D01*
X113065571Y-57495285D01*
X113137000Y-57352428D01*
X113208428Y-57281000D01*
X113351285Y-57209571D01*
X113565571Y-57209571D01*
X113708428Y-57281000D01*
X113779857Y-57352428D01*
X113851285Y-57495285D01*
X113851285Y-57923857D01*
X113779857Y-58066714D01*
X113708428Y-58138142D01*
X113565571Y-58209571D01*
X113351285Y-58209571D01*
X114708428Y-58209571D02*
X114565571Y-58138142D01*
X114494142Y-57995285D01*
X114494142Y-56709571D01*
X115851285Y-58138142D02*
X115708428Y-58209571D01*
X115422714Y-58209571D01*
X115279857Y-58138142D01*
X115208428Y-57995285D01*
X115208428Y-57423857D01*
X115279857Y-57281000D01*
X115422714Y-57209571D01*
X115708428Y-57209571D01*
X115851285Y-57281000D01*
X115922714Y-57423857D01*
X115922714Y-57566714D01*
X115208428Y-57709571D01*
D13*
X106902857Y-55784523D02*
X106902857Y-51784523D01*
X106902857Y-53689285D02*
X109188571Y-53689285D01*
X109188571Y-55784523D02*
X109188571Y-51784523D01*
X111855238Y-53879761D02*
X111855238Y-55784523D01*
X110521904Y-51784523D02*
X111855238Y-53879761D01*
X113188571Y-51784523D01*
X114521904Y-55784523D02*
X114521904Y-51784523D01*
X116045714Y-51784523D01*
X116426666Y-51975000D01*
X116617142Y-52165476D01*
X116807619Y-52546428D01*
X116807619Y-53117857D01*
X116617142Y-53498809D01*
X116426666Y-53689285D01*
X116045714Y-53879761D01*
X114521904Y-53879761D01*
D10*
X67115571Y-35437000D02*
X67067952Y-35413190D01*
X66996523Y-35413190D01*
X66925095Y-35437000D01*
X66877476Y-35484619D01*
X66853666Y-35532238D01*
X66829857Y-35627476D01*
X66829857Y-35698904D01*
X66853666Y-35794142D01*
X66877476Y-35841761D01*
X66925095Y-35889380D01*
X66996523Y-35913190D01*
X67044142Y-35913190D01*
X67115571Y-35889380D01*
X67139380Y-35865571D01*
X67139380Y-35698904D01*
X67044142Y-35698904D01*
X67353666Y-35579857D02*
X67353666Y-35913190D01*
X67353666Y-35627476D02*
X67377476Y-35603666D01*
X67425095Y-35579857D01*
X67496523Y-35579857D01*
X67544142Y-35603666D01*
X67567952Y-35651285D01*
X67567952Y-35913190D01*
X68020333Y-35913190D02*
X68020333Y-35413190D01*
X68020333Y-35889380D02*
X67972714Y-35913190D01*
X67877476Y-35913190D01*
X67829857Y-35889380D01*
X67806047Y-35865571D01*
X67782238Y-35817952D01*
X67782238Y-35675095D01*
X67806047Y-35627476D01*
X67829857Y-35603666D01*
X67877476Y-35579857D01*
X67972714Y-35579857D01*
X68020333Y-35603666D01*
X69508761Y-35413190D02*
X69675428Y-35913190D01*
X69842095Y-35413190D01*
X70223047Y-35889380D02*
X70175428Y-35913190D01*
X70080190Y-35913190D01*
X70032571Y-35889380D01*
X70008761Y-35865571D01*
X69984952Y-35817952D01*
X69984952Y-35675095D01*
X70008761Y-35627476D01*
X70032571Y-35603666D01*
X70080190Y-35579857D01*
X70175428Y-35579857D01*
X70223047Y-35603666D01*
X70651619Y-35889380D02*
X70604000Y-35913190D01*
X70508761Y-35913190D01*
X70461142Y-35889380D01*
X70437333Y-35865571D01*
X70413523Y-35817952D01*
X70413523Y-35675095D01*
X70437333Y-35627476D01*
X70461142Y-35603666D01*
X70508761Y-35579857D01*
X70604000Y-35579857D01*
X70651619Y-35603666D01*
X68274476Y-39588285D02*
X68345904Y-39612095D01*
X68369714Y-39635904D01*
X68393523Y-39683523D01*
X68393523Y-39754952D01*
X68369714Y-39802571D01*
X68345904Y-39826380D01*
X68298285Y-39850190D01*
X68107809Y-39850190D01*
X68107809Y-39350190D01*
X68274476Y-39350190D01*
X68322095Y-39374000D01*
X68345904Y-39397809D01*
X68369714Y-39445428D01*
X68369714Y-39493047D01*
X68345904Y-39540666D01*
X68322095Y-39564476D01*
X68274476Y-39588285D01*
X68107809Y-39588285D01*
X68584000Y-39707333D02*
X68822095Y-39707333D01*
X68536380Y-39850190D02*
X68703047Y-39350190D01*
X68869714Y-39850190D01*
X68964952Y-39350190D02*
X69250666Y-39350190D01*
X69107809Y-39850190D02*
X69107809Y-39350190D01*
X69345904Y-39350190D02*
X69631619Y-39350190D01*
X69488761Y-39850190D02*
X69488761Y-39350190D01*
X105410000Y-35560000D02*
X105410000Y-35687000D01*
X105410000Y-35433000D02*
X105410000Y-35560000D01*
X101854000Y-35433000D02*
X105410000Y-35433000D01*
X92710000Y-35433000D02*
X92710000Y-35687000D01*
X92710000Y-35433000D02*
X96520000Y-35433000D01*
X96806047Y-35659190D02*
X96806047Y-35159190D01*
X97020333Y-35206809D02*
X97044142Y-35183000D01*
X97091761Y-35159190D01*
X97210809Y-35159190D01*
X97258428Y-35183000D01*
X97282238Y-35206809D01*
X97306047Y-35254428D01*
X97306047Y-35302047D01*
X97282238Y-35373476D01*
X96996523Y-35659190D01*
X97306047Y-35659190D01*
X97806047Y-35611571D02*
X97782238Y-35635380D01*
X97710809Y-35659190D01*
X97663190Y-35659190D01*
X97591761Y-35635380D01*
X97544142Y-35587761D01*
X97520333Y-35540142D01*
X97496523Y-35444904D01*
X97496523Y-35373476D01*
X97520333Y-35278238D01*
X97544142Y-35230619D01*
X97591761Y-35183000D01*
X97663190Y-35159190D01*
X97710809Y-35159190D01*
X97782238Y-35183000D01*
X97806047Y-35206809D01*
X98401285Y-35397285D02*
X98567952Y-35397285D01*
X98639380Y-35659190D02*
X98401285Y-35659190D01*
X98401285Y-35159190D01*
X98639380Y-35159190D01*
X98806047Y-35659190D02*
X99067952Y-35325857D01*
X98806047Y-35325857D02*
X99067952Y-35659190D01*
X99258428Y-35325857D02*
X99258428Y-35825857D01*
X99258428Y-35349666D02*
X99306047Y-35325857D01*
X99401285Y-35325857D01*
X99448904Y-35349666D01*
X99472714Y-35373476D01*
X99496523Y-35421095D01*
X99496523Y-35563952D01*
X99472714Y-35611571D01*
X99448904Y-35635380D01*
X99401285Y-35659190D01*
X99306047Y-35659190D01*
X99258428Y-35635380D01*
X99925095Y-35659190D02*
X99925095Y-35397285D01*
X99901285Y-35349666D01*
X99853666Y-35325857D01*
X99758428Y-35325857D01*
X99710809Y-35349666D01*
X99925095Y-35635380D02*
X99877476Y-35659190D01*
X99758428Y-35659190D01*
X99710809Y-35635380D01*
X99687000Y-35587761D01*
X99687000Y-35540142D01*
X99710809Y-35492523D01*
X99758428Y-35468714D01*
X99877476Y-35468714D01*
X99925095Y-35444904D01*
X100163190Y-35325857D02*
X100163190Y-35659190D01*
X100163190Y-35373476D02*
X100187000Y-35349666D01*
X100234619Y-35325857D01*
X100306047Y-35325857D01*
X100353666Y-35349666D01*
X100377476Y-35397285D01*
X100377476Y-35659190D01*
X100829857Y-35659190D02*
X100829857Y-35159190D01*
X100829857Y-35635380D02*
X100782238Y-35659190D01*
X100687000Y-35659190D01*
X100639380Y-35635380D01*
X100615571Y-35611571D01*
X100591761Y-35563952D01*
X100591761Y-35421095D01*
X100615571Y-35373476D01*
X100639380Y-35349666D01*
X100687000Y-35325857D01*
X100782238Y-35325857D01*
X100829857Y-35349666D01*
X101258428Y-35635380D02*
X101210809Y-35659190D01*
X101115571Y-35659190D01*
X101067952Y-35635380D01*
X101044142Y-35587761D01*
X101044142Y-35397285D01*
X101067952Y-35349666D01*
X101115571Y-35325857D01*
X101210809Y-35325857D01*
X101258428Y-35349666D01*
X101282238Y-35397285D01*
X101282238Y-35444904D01*
X101044142Y-35492523D01*
X101496523Y-35659190D02*
X101496523Y-35325857D01*
X101496523Y-35421095D02*
X101520333Y-35373476D01*
X101544142Y-35349666D01*
X101591761Y-35325857D01*
X101639380Y-35325857D01*
X74295000Y-38862000D02*
X74168000Y-38989000D01*
X74295000Y-38862000D02*
X74168000Y-38735000D01*
X73533000Y-38862000D02*
X74295000Y-38862000D01*
X74295000Y-36576000D02*
X74168000Y-36703000D01*
X74295000Y-36576000D02*
X74168000Y-36449000D01*
X73533000Y-36576000D02*
X74295000Y-36576000D01*
X74013190Y-38040428D02*
X74013190Y-38278523D01*
X73513190Y-38278523D01*
X73751285Y-37873761D02*
X73751285Y-37707095D01*
X74013190Y-37635666D02*
X74013190Y-37873761D01*
X73513190Y-37873761D01*
X73513190Y-37635666D01*
X74013190Y-37421380D02*
X73513190Y-37421380D01*
X73513190Y-37302333D01*
X73537000Y-37230904D01*
X73584619Y-37183285D01*
X73632238Y-37159476D01*
X73727476Y-37135666D01*
X73798904Y-37135666D01*
X73894142Y-37159476D01*
X73941761Y-37183285D01*
X73989380Y-37230904D01*
X74013190Y-37302333D01*
X74013190Y-37421380D01*
X88963523Y-35468714D02*
X89344476Y-35468714D01*
X84010523Y-35468714D02*
X84391476Y-35468714D01*
X78803523Y-35468714D02*
X79184476Y-35468714D01*
X86423523Y-35468714D02*
X86804476Y-35468714D01*
X86614000Y-35659190D02*
X86614000Y-35278238D01*
X81343523Y-35468714D02*
X81724476Y-35468714D01*
X81534000Y-35659190D02*
X81534000Y-35278238D01*
X76263523Y-35468714D02*
X76644476Y-35468714D01*
X76454000Y-35659190D02*
X76454000Y-35278238D01*
X105695761Y-31214190D02*
X105410047Y-31214190D01*
X105552904Y-31214190D02*
X105552904Y-30714190D01*
X105505285Y-30785619D01*
X105457666Y-30833238D01*
X105410047Y-30857047D01*
X106124333Y-30714190D02*
X106029095Y-30714190D01*
X105981476Y-30738000D01*
X105957666Y-30761809D01*
X105910047Y-30833238D01*
X105886238Y-30928476D01*
X105886238Y-31118952D01*
X105910047Y-31166571D01*
X105933857Y-31190380D01*
X105981476Y-31214190D01*
X106076714Y-31214190D01*
X106124333Y-31190380D01*
X106148142Y-31166571D01*
X106171952Y-31118952D01*
X106171952Y-30999904D01*
X106148142Y-30952285D01*
X106124333Y-30928476D01*
X106076714Y-30904666D01*
X105981476Y-30904666D01*
X105933857Y-30928476D01*
X105910047Y-30952285D01*
X105886238Y-30999904D01*
X67706857Y-31214190D02*
X67421142Y-31214190D01*
X67564000Y-31214190D02*
X67564000Y-30714190D01*
X67516380Y-30785619D01*
X67468761Y-30833238D01*
X67421142Y-30857047D01*
X88519000Y-31115000D02*
X88392000Y-31242000D01*
X88392000Y-30988000D02*
X88519000Y-31115000D01*
X88519000Y-31115000D02*
X88392000Y-30988000D01*
X87376000Y-31115000D02*
X88519000Y-31115000D01*
X84328000Y-31115000D02*
X84455000Y-30988000D01*
X84455000Y-31242000D02*
X84328000Y-31115000D01*
X84328000Y-31115000D02*
X84455000Y-31242000D01*
X85852000Y-31115000D02*
X84328000Y-31115000D01*
X86268761Y-31341190D02*
X86030666Y-31341190D01*
X86030666Y-30841190D01*
X86721142Y-31293571D02*
X86697333Y-31317380D01*
X86625904Y-31341190D01*
X86578285Y-31341190D01*
X86506857Y-31317380D01*
X86459238Y-31269761D01*
X86435428Y-31222142D01*
X86411619Y-31126904D01*
X86411619Y-31055476D01*
X86435428Y-30960238D01*
X86459238Y-30912619D01*
X86506857Y-30865000D01*
X86578285Y-30841190D01*
X86625904Y-30841190D01*
X86697333Y-30865000D01*
X86721142Y-30888809D01*
X86935428Y-31341190D02*
X86935428Y-30841190D01*
X87054476Y-30841190D01*
X87125904Y-30865000D01*
X87173523Y-30912619D01*
X87197333Y-30960238D01*
X87221142Y-31055476D01*
X87221142Y-31126904D01*
X87197333Y-31222142D01*
X87173523Y-31269761D01*
X87125904Y-31317380D01*
X87054476Y-31341190D01*
X86935428Y-31341190D01*
X71247000Y-88011000D02*
X71247000Y-87630000D01*
X69723000Y-88011000D02*
X71247000Y-88011000D01*
X63373000Y-88011000D02*
X65278000Y-88011000D01*
X63373000Y-87630000D02*
X63373000Y-88011000D01*
X68742714Y-88860380D02*
X68742714Y-89027047D01*
X68480809Y-89098476D02*
X68480809Y-88860380D01*
X68980809Y-88860380D01*
X68980809Y-89098476D01*
X68504619Y-89527047D02*
X68480809Y-89479428D01*
X68480809Y-89384190D01*
X68504619Y-89336571D01*
X68528428Y-89312761D01*
X68576047Y-89288952D01*
X68718904Y-89288952D01*
X68766523Y-89312761D01*
X68790333Y-89336571D01*
X68814142Y-89384190D01*
X68814142Y-89479428D01*
X68790333Y-89527047D01*
X68480809Y-89741333D02*
X68980809Y-89741333D01*
X68480809Y-89955619D02*
X68742714Y-89955619D01*
X68790333Y-89931809D01*
X68814142Y-89884190D01*
X68814142Y-89812761D01*
X68790333Y-89765142D01*
X68766523Y-89741333D01*
X66313809Y-88765142D02*
X66313809Y-89050857D01*
X65813809Y-88908000D02*
X66313809Y-88908000D01*
X65813809Y-89217523D02*
X66147142Y-89217523D01*
X66051904Y-89217523D02*
X66099523Y-89241333D01*
X66123333Y-89265142D01*
X66147142Y-89312761D01*
X66147142Y-89360380D01*
X65813809Y-89527047D02*
X66147142Y-89527047D01*
X66313809Y-89527047D02*
X66290000Y-89503238D01*
X66266190Y-89527047D01*
X66290000Y-89550857D01*
X66313809Y-89527047D01*
X66266190Y-89527047D01*
X66147142Y-89979428D02*
X65742380Y-89979428D01*
X65694761Y-89955619D01*
X65670952Y-89931809D01*
X65647142Y-89884190D01*
X65647142Y-89812761D01*
X65670952Y-89765142D01*
X65837619Y-89979428D02*
X65813809Y-89931809D01*
X65813809Y-89836571D01*
X65837619Y-89788952D01*
X65861428Y-89765142D01*
X65909047Y-89741333D01*
X66051904Y-89741333D01*
X66099523Y-89765142D01*
X66123333Y-89788952D01*
X66147142Y-89836571D01*
X66147142Y-89931809D01*
X66123333Y-89979428D01*
X71624000Y-89086571D02*
X71647809Y-89038952D01*
X71647809Y-88967523D01*
X71624000Y-88896095D01*
X71576380Y-88848476D01*
X71528761Y-88824666D01*
X71433523Y-88800857D01*
X71362095Y-88800857D01*
X71266857Y-88824666D01*
X71219238Y-88848476D01*
X71171619Y-88896095D01*
X71147809Y-88967523D01*
X71147809Y-89015142D01*
X71171619Y-89086571D01*
X71195428Y-89110380D01*
X71362095Y-89110380D01*
X71362095Y-89015142D01*
X71481142Y-89324666D02*
X71147809Y-89324666D01*
X71433523Y-89324666D02*
X71457333Y-89348476D01*
X71481142Y-89396095D01*
X71481142Y-89467523D01*
X71457333Y-89515142D01*
X71409714Y-89538952D01*
X71147809Y-89538952D01*
X71147809Y-89991333D02*
X71647809Y-89991333D01*
X71171619Y-89991333D02*
X71147809Y-89943714D01*
X71147809Y-89848476D01*
X71171619Y-89800857D01*
X71195428Y-89777047D01*
X71243047Y-89753238D01*
X71385904Y-89753238D01*
X71433523Y-89777047D01*
X71457333Y-89800857D01*
X71481142Y-89848476D01*
X71481142Y-89943714D01*
X71457333Y-89991333D01*
X65659238Y-87737190D02*
X65659238Y-88141952D01*
X65683047Y-88189571D01*
X65706857Y-88213380D01*
X65754476Y-88237190D01*
X65849714Y-88237190D01*
X65897333Y-88213380D01*
X65921142Y-88189571D01*
X65944952Y-88141952D01*
X65944952Y-87737190D01*
X66254476Y-88237190D02*
X66206857Y-88213380D01*
X66183047Y-88165761D01*
X66183047Y-87737190D01*
X66373523Y-87903857D02*
X66564000Y-87903857D01*
X66444952Y-87737190D02*
X66444952Y-88165761D01*
X66468761Y-88213380D01*
X66516380Y-88237190D01*
X66564000Y-88237190D01*
X66730666Y-88237190D02*
X66730666Y-87903857D01*
X66730666Y-87999095D02*
X66754476Y-87951476D01*
X66778285Y-87927666D01*
X66825904Y-87903857D01*
X66873523Y-87903857D01*
X67254476Y-88237190D02*
X67254476Y-87975285D01*
X67230666Y-87927666D01*
X67183047Y-87903857D01*
X67087809Y-87903857D01*
X67040190Y-87927666D01*
X67254476Y-88213380D02*
X67206857Y-88237190D01*
X67087809Y-88237190D01*
X67040190Y-88213380D01*
X67016380Y-88165761D01*
X67016380Y-88118142D01*
X67040190Y-88070523D01*
X67087809Y-88046714D01*
X67206857Y-88046714D01*
X67254476Y-88022904D01*
X67468761Y-88213380D02*
X67516380Y-88237190D01*
X67611619Y-88237190D01*
X67659238Y-88213380D01*
X67683047Y-88165761D01*
X67683047Y-88141952D01*
X67659238Y-88094333D01*
X67611619Y-88070523D01*
X67540190Y-88070523D01*
X67492571Y-88046714D01*
X67468761Y-87999095D01*
X67468761Y-87975285D01*
X67492571Y-87927666D01*
X67540190Y-87903857D01*
X67611619Y-87903857D01*
X67659238Y-87927666D01*
X67968761Y-88237190D02*
X67921142Y-88213380D01*
X67897333Y-88189571D01*
X67873523Y-88141952D01*
X67873523Y-87999095D01*
X67897333Y-87951476D01*
X67921142Y-87927666D01*
X67968761Y-87903857D01*
X68040190Y-87903857D01*
X68087809Y-87927666D01*
X68111619Y-87951476D01*
X68135428Y-87999095D01*
X68135428Y-88141952D01*
X68111619Y-88189571D01*
X68087809Y-88213380D01*
X68040190Y-88237190D01*
X67968761Y-88237190D01*
X68564000Y-87903857D02*
X68564000Y-88237190D01*
X68349714Y-87903857D02*
X68349714Y-88165761D01*
X68373523Y-88213380D01*
X68421142Y-88237190D01*
X68492571Y-88237190D01*
X68540190Y-88213380D01*
X68564000Y-88189571D01*
X68802095Y-87903857D02*
X68802095Y-88237190D01*
X68802095Y-87951476D02*
X68825904Y-87927666D01*
X68873523Y-87903857D01*
X68944952Y-87903857D01*
X68992571Y-87927666D01*
X69016380Y-87975285D01*
X69016380Y-88237190D01*
X69468761Y-88237190D02*
X69468761Y-87737190D01*
X69468761Y-88213380D02*
X69421142Y-88237190D01*
X69325904Y-88237190D01*
X69278285Y-88213380D01*
X69254476Y-88189571D01*
X69230666Y-88141952D01*
X69230666Y-87999095D01*
X69254476Y-87951476D01*
X69278285Y-87927666D01*
X69325904Y-87903857D01*
X69421142Y-87903857D01*
X69468761Y-87927666D01*
X63646809Y-88812761D02*
X63146809Y-88979428D01*
X63646809Y-89146095D01*
X63170619Y-89527047D02*
X63146809Y-89479428D01*
X63146809Y-89384190D01*
X63170619Y-89336571D01*
X63194428Y-89312761D01*
X63242047Y-89288952D01*
X63384904Y-89288952D01*
X63432523Y-89312761D01*
X63456333Y-89336571D01*
X63480142Y-89384190D01*
X63480142Y-89479428D01*
X63456333Y-89527047D01*
X63170619Y-89955619D02*
X63146809Y-89908000D01*
X63146809Y-89812761D01*
X63170619Y-89765142D01*
X63194428Y-89741333D01*
X63242047Y-89717523D01*
X63384904Y-89717523D01*
X63432523Y-89741333D01*
X63456333Y-89765142D01*
X63480142Y-89812761D01*
X63480142Y-89908000D01*
X63456333Y-89955619D01*
X99667190Y-66670857D02*
X99333857Y-66670857D01*
X99381476Y-66670857D02*
X99357666Y-66647047D01*
X99333857Y-66599428D01*
X99333857Y-66528000D01*
X99357666Y-66480380D01*
X99405285Y-66456571D01*
X99667190Y-66456571D01*
X99405285Y-66456571D02*
X99357666Y-66432761D01*
X99333857Y-66385142D01*
X99333857Y-66313714D01*
X99357666Y-66266095D01*
X99405285Y-66242285D01*
X99667190Y-66242285D01*
X99667190Y-65932761D02*
X99643380Y-65980380D01*
X99619571Y-66004190D01*
X99571952Y-66028000D01*
X99429095Y-66028000D01*
X99381476Y-66004190D01*
X99357666Y-65980380D01*
X99333857Y-65932761D01*
X99333857Y-65861333D01*
X99357666Y-65813714D01*
X99381476Y-65789904D01*
X99429095Y-65766095D01*
X99571952Y-65766095D01*
X99619571Y-65789904D01*
X99643380Y-65813714D01*
X99667190Y-65861333D01*
X99667190Y-65932761D01*
X99333857Y-65623238D02*
X99333857Y-65432761D01*
X99167190Y-65551809D02*
X99595761Y-65551809D01*
X99643380Y-65528000D01*
X99667190Y-65480380D01*
X99667190Y-65432761D01*
X99667190Y-65194666D02*
X99643380Y-65242285D01*
X99619571Y-65266095D01*
X99571952Y-65289904D01*
X99429095Y-65289904D01*
X99381476Y-65266095D01*
X99357666Y-65242285D01*
X99333857Y-65194666D01*
X99333857Y-65123238D01*
X99357666Y-65075619D01*
X99381476Y-65051809D01*
X99429095Y-65028000D01*
X99571952Y-65028000D01*
X99619571Y-65051809D01*
X99643380Y-65075619D01*
X99667190Y-65123238D01*
X99667190Y-65194666D01*
X99667190Y-64813714D02*
X99333857Y-64813714D01*
X99429095Y-64813714D02*
X99381476Y-64789904D01*
X99357666Y-64766095D01*
X99333857Y-64718476D01*
X99333857Y-64670857D01*
X99667190Y-63861333D02*
X99667190Y-64147047D01*
X99667190Y-64004190D02*
X99167190Y-64004190D01*
X99238619Y-64051809D01*
X99286238Y-64099428D01*
X99310047Y-64147047D01*
X99667190Y-71623857D02*
X99333857Y-71623857D01*
X99381476Y-71623857D02*
X99357666Y-71600047D01*
X99333857Y-71552428D01*
X99333857Y-71481000D01*
X99357666Y-71433380D01*
X99405285Y-71409571D01*
X99667190Y-71409571D01*
X99405285Y-71409571D02*
X99357666Y-71385761D01*
X99333857Y-71338142D01*
X99333857Y-71266714D01*
X99357666Y-71219095D01*
X99405285Y-71195285D01*
X99667190Y-71195285D01*
X99667190Y-70885761D02*
X99643380Y-70933380D01*
X99619571Y-70957190D01*
X99571952Y-70981000D01*
X99429095Y-70981000D01*
X99381476Y-70957190D01*
X99357666Y-70933380D01*
X99333857Y-70885761D01*
X99333857Y-70814333D01*
X99357666Y-70766714D01*
X99381476Y-70742904D01*
X99429095Y-70719095D01*
X99571952Y-70719095D01*
X99619571Y-70742904D01*
X99643380Y-70766714D01*
X99667190Y-70814333D01*
X99667190Y-70885761D01*
X99333857Y-70576238D02*
X99333857Y-70385761D01*
X99167190Y-70504809D02*
X99595761Y-70504809D01*
X99643380Y-70481000D01*
X99667190Y-70433380D01*
X99667190Y-70385761D01*
X99667190Y-70147666D02*
X99643380Y-70195285D01*
X99619571Y-70219095D01*
X99571952Y-70242904D01*
X99429095Y-70242904D01*
X99381476Y-70219095D01*
X99357666Y-70195285D01*
X99333857Y-70147666D01*
X99333857Y-70076238D01*
X99357666Y-70028619D01*
X99381476Y-70004809D01*
X99429095Y-69981000D01*
X99571952Y-69981000D01*
X99619571Y-70004809D01*
X99643380Y-70028619D01*
X99667190Y-70076238D01*
X99667190Y-70147666D01*
X99667190Y-69766714D02*
X99333857Y-69766714D01*
X99429095Y-69766714D02*
X99381476Y-69742904D01*
X99357666Y-69719095D01*
X99333857Y-69671476D01*
X99333857Y-69623857D01*
X99214809Y-69100047D02*
X99191000Y-69076238D01*
X99167190Y-69028619D01*
X99167190Y-68909571D01*
X99191000Y-68861952D01*
X99214809Y-68838142D01*
X99262428Y-68814333D01*
X99310047Y-68814333D01*
X99381476Y-68838142D01*
X99667190Y-69123857D01*
X99667190Y-68814333D01*
X99667190Y-76830857D02*
X99333857Y-76830857D01*
X99381476Y-76830857D02*
X99357666Y-76807047D01*
X99333857Y-76759428D01*
X99333857Y-76688000D01*
X99357666Y-76640380D01*
X99405285Y-76616571D01*
X99667190Y-76616571D01*
X99405285Y-76616571D02*
X99357666Y-76592761D01*
X99333857Y-76545142D01*
X99333857Y-76473714D01*
X99357666Y-76426095D01*
X99405285Y-76402285D01*
X99667190Y-76402285D01*
X99667190Y-76092761D02*
X99643380Y-76140380D01*
X99619571Y-76164190D01*
X99571952Y-76188000D01*
X99429095Y-76188000D01*
X99381476Y-76164190D01*
X99357666Y-76140380D01*
X99333857Y-76092761D01*
X99333857Y-76021333D01*
X99357666Y-75973714D01*
X99381476Y-75949904D01*
X99429095Y-75926095D01*
X99571952Y-75926095D01*
X99619571Y-75949904D01*
X99643380Y-75973714D01*
X99667190Y-76021333D01*
X99667190Y-76092761D01*
X99333857Y-75783238D02*
X99333857Y-75592761D01*
X99167190Y-75711809D02*
X99595761Y-75711809D01*
X99643380Y-75688000D01*
X99667190Y-75640380D01*
X99667190Y-75592761D01*
X99667190Y-75354666D02*
X99643380Y-75402285D01*
X99619571Y-75426095D01*
X99571952Y-75449904D01*
X99429095Y-75449904D01*
X99381476Y-75426095D01*
X99357666Y-75402285D01*
X99333857Y-75354666D01*
X99333857Y-75283238D01*
X99357666Y-75235619D01*
X99381476Y-75211809D01*
X99429095Y-75188000D01*
X99571952Y-75188000D01*
X99619571Y-75211809D01*
X99643380Y-75235619D01*
X99667190Y-75283238D01*
X99667190Y-75354666D01*
X99667190Y-74973714D02*
X99333857Y-74973714D01*
X99429095Y-74973714D02*
X99381476Y-74949904D01*
X99357666Y-74926095D01*
X99333857Y-74878476D01*
X99333857Y-74830857D01*
X99167190Y-74330857D02*
X99167190Y-74021333D01*
X99357666Y-74188000D01*
X99357666Y-74116571D01*
X99381476Y-74068952D01*
X99405285Y-74045142D01*
X99452904Y-74021333D01*
X99571952Y-74021333D01*
X99619571Y-74045142D01*
X99643380Y-74068952D01*
X99667190Y-74116571D01*
X99667190Y-74259428D01*
X99643380Y-74307047D01*
X99619571Y-74330857D01*
X99822000Y-64008000D02*
X100584000Y-64008000D01*
X99822000Y-66675000D02*
X99822000Y-64008000D01*
X100584000Y-66675000D02*
X99822000Y-66675000D01*
X99822000Y-69088000D02*
X100584000Y-69088000D01*
X99822000Y-71755000D02*
X99822000Y-69088000D01*
X100584000Y-71755000D02*
X99822000Y-71755000D01*
X99822000Y-74168000D02*
X100584000Y-74168000D01*
X99822000Y-76835000D02*
X99822000Y-74168000D01*
X100584000Y-76835000D02*
X99822000Y-76835000D01*
X99667190Y-81910857D02*
X99333857Y-81910857D01*
X99381476Y-81910857D02*
X99357666Y-81887047D01*
X99333857Y-81839428D01*
X99333857Y-81768000D01*
X99357666Y-81720380D01*
X99405285Y-81696571D01*
X99667190Y-81696571D01*
X99405285Y-81696571D02*
X99357666Y-81672761D01*
X99333857Y-81625142D01*
X99333857Y-81553714D01*
X99357666Y-81506095D01*
X99405285Y-81482285D01*
X99667190Y-81482285D01*
X99667190Y-81172761D02*
X99643380Y-81220380D01*
X99619571Y-81244190D01*
X99571952Y-81268000D01*
X99429095Y-81268000D01*
X99381476Y-81244190D01*
X99357666Y-81220380D01*
X99333857Y-81172761D01*
X99333857Y-81101333D01*
X99357666Y-81053714D01*
X99381476Y-81029904D01*
X99429095Y-81006095D01*
X99571952Y-81006095D01*
X99619571Y-81029904D01*
X99643380Y-81053714D01*
X99667190Y-81101333D01*
X99667190Y-81172761D01*
X99333857Y-80863238D02*
X99333857Y-80672761D01*
X99167190Y-80791809D02*
X99595761Y-80791809D01*
X99643380Y-80768000D01*
X99667190Y-80720380D01*
X99667190Y-80672761D01*
X99667190Y-80434666D02*
X99643380Y-80482285D01*
X99619571Y-80506095D01*
X99571952Y-80529904D01*
X99429095Y-80529904D01*
X99381476Y-80506095D01*
X99357666Y-80482285D01*
X99333857Y-80434666D01*
X99333857Y-80363238D01*
X99357666Y-80315619D01*
X99381476Y-80291809D01*
X99429095Y-80268000D01*
X99571952Y-80268000D01*
X99619571Y-80291809D01*
X99643380Y-80315619D01*
X99667190Y-80363238D01*
X99667190Y-80434666D01*
X99667190Y-80053714D02*
X99333857Y-80053714D01*
X99429095Y-80053714D02*
X99381476Y-80029904D01*
X99357666Y-80006095D01*
X99333857Y-79958476D01*
X99333857Y-79910857D01*
X99333857Y-79148952D02*
X99667190Y-79148952D01*
X99143380Y-79268000D02*
X99500523Y-79387047D01*
X99500523Y-79077523D01*
X99822000Y-79248000D02*
X100584000Y-79248000D01*
X99822000Y-81915000D02*
X99822000Y-79248000D01*
X100584000Y-81915000D02*
X99822000Y-81915000D01*
X103457380Y-61535476D02*
X103409761Y-61511666D01*
X103385952Y-61487857D01*
X103362142Y-61440238D01*
X103362142Y-61416428D01*
X103385952Y-61368809D01*
X103409761Y-61345000D01*
X103457380Y-61321190D01*
X103552619Y-61321190D01*
X103600238Y-61345000D01*
X103624047Y-61368809D01*
X103647857Y-61416428D01*
X103647857Y-61440238D01*
X103624047Y-61487857D01*
X103600238Y-61511666D01*
X103552619Y-61535476D01*
X103457380Y-61535476D01*
X103409761Y-61559285D01*
X103385952Y-61583095D01*
X103362142Y-61630714D01*
X103362142Y-61725952D01*
X103385952Y-61773571D01*
X103409761Y-61797380D01*
X103457380Y-61821190D01*
X103552619Y-61821190D01*
X103600238Y-61797380D01*
X103624047Y-61773571D01*
X103647857Y-61725952D01*
X103647857Y-61630714D01*
X103624047Y-61583095D01*
X103600238Y-61559285D01*
X103552619Y-61535476D01*
X103338333Y-63734190D02*
X103671666Y-63734190D01*
X103457380Y-64234190D01*
X103600238Y-66274190D02*
X103505000Y-66274190D01*
X103457380Y-66298000D01*
X103433571Y-66321809D01*
X103385952Y-66393238D01*
X103362142Y-66488476D01*
X103362142Y-66678952D01*
X103385952Y-66726571D01*
X103409761Y-66750380D01*
X103457380Y-66774190D01*
X103552619Y-66774190D01*
X103600238Y-66750380D01*
X103624047Y-66726571D01*
X103647857Y-66678952D01*
X103647857Y-66559904D01*
X103624047Y-66512285D01*
X103600238Y-66488476D01*
X103552619Y-66464666D01*
X103457380Y-66464666D01*
X103409761Y-66488476D01*
X103385952Y-66512285D01*
X103362142Y-66559904D01*
X103624047Y-68814190D02*
X103385952Y-68814190D01*
X103362142Y-69052285D01*
X103385952Y-69028476D01*
X103433571Y-69004666D01*
X103552619Y-69004666D01*
X103600238Y-69028476D01*
X103624047Y-69052285D01*
X103647857Y-69099904D01*
X103647857Y-69218952D01*
X103624047Y-69266571D01*
X103600238Y-69290380D01*
X103552619Y-69314190D01*
X103433571Y-69314190D01*
X103385952Y-69290380D01*
X103362142Y-69266571D01*
X103600238Y-71520857D02*
X103600238Y-71854190D01*
X103481190Y-71330380D02*
X103362142Y-71687523D01*
X103671666Y-71687523D01*
X103338333Y-73894190D02*
X103647857Y-73894190D01*
X103481190Y-74084666D01*
X103552619Y-74084666D01*
X103600238Y-74108476D01*
X103624047Y-74132285D01*
X103647857Y-74179904D01*
X103647857Y-74298952D01*
X103624047Y-74346571D01*
X103600238Y-74370380D01*
X103552619Y-74394190D01*
X103409761Y-74394190D01*
X103362142Y-74370380D01*
X103338333Y-74346571D01*
X104394000Y-61595000D02*
X103886000Y-61595000D01*
X104394000Y-64008000D02*
X103886000Y-64008000D01*
X104394000Y-66548000D02*
X103886000Y-66548000D01*
X104394000Y-69088000D02*
X103886000Y-69088000D01*
X104394000Y-71628000D02*
X103886000Y-71628000D01*
X104394000Y-74168000D02*
X103886000Y-74168000D01*
X103362142Y-76481809D02*
X103385952Y-76458000D01*
X103433571Y-76434190D01*
X103552619Y-76434190D01*
X103600238Y-76458000D01*
X103624047Y-76481809D01*
X103647857Y-76529428D01*
X103647857Y-76577047D01*
X103624047Y-76648476D01*
X103338333Y-76934190D01*
X103647857Y-76934190D01*
X104394000Y-76708000D02*
X103886000Y-76708000D01*
X103647857Y-79474190D02*
X103362142Y-79474190D01*
X103505000Y-79474190D02*
X103505000Y-78974190D01*
X103457380Y-79045619D01*
X103409761Y-79093238D01*
X103362142Y-79117047D01*
X104394000Y-79248000D02*
X103886000Y-79248000D01*
X103886000Y-81915000D02*
X104394000Y-81915000D01*
X103481190Y-81641190D02*
X103528809Y-81641190D01*
X103576428Y-81665000D01*
X103600238Y-81688809D01*
X103624047Y-81736428D01*
X103647857Y-81831666D01*
X103647857Y-81950714D01*
X103624047Y-82045952D01*
X103600238Y-82093571D01*
X103576428Y-82117380D01*
X103528809Y-82141190D01*
X103481190Y-82141190D01*
X103433571Y-82117380D01*
X103409761Y-82093571D01*
X103385952Y-82045952D01*
X103362142Y-81950714D01*
X103362142Y-81831666D01*
X103385952Y-81736428D01*
X103409761Y-81688809D01*
X103433571Y-81665000D01*
X103481190Y-81641190D01*
X111252000Y-83566000D02*
X111125000Y-83439000D01*
X111252000Y-83566000D02*
X111379000Y-83439000D01*
X107442000Y-83566000D02*
X107569000Y-83439000D01*
X107442000Y-83566000D02*
X107315000Y-83439000D01*
X107442000Y-66548000D02*
X108331000Y-66548000D01*
X107442000Y-64008000D02*
X108331000Y-64008000D01*
X107442000Y-61468000D02*
X108331000Y-61468000D01*
X107442000Y-59944000D02*
X107569000Y-60071000D01*
X107442000Y-59944000D02*
X107315000Y-60071000D01*
X107442000Y-66548000D02*
X107442000Y-59944000D01*
X106382523Y-59162190D02*
X106549190Y-59662190D01*
X106715857Y-59162190D01*
X106763476Y-59709809D02*
X107144428Y-59709809D01*
X107263476Y-59662190D02*
X107263476Y-59328857D01*
X107263476Y-59376476D02*
X107287285Y-59352666D01*
X107334904Y-59328857D01*
X107406333Y-59328857D01*
X107453952Y-59352666D01*
X107477761Y-59400285D01*
X107477761Y-59662190D01*
X107477761Y-59400285D02*
X107501571Y-59352666D01*
X107549190Y-59328857D01*
X107620619Y-59328857D01*
X107668238Y-59352666D01*
X107692047Y-59400285D01*
X107692047Y-59662190D01*
X108001571Y-59662190D02*
X107953952Y-59638380D01*
X107930142Y-59614571D01*
X107906333Y-59566952D01*
X107906333Y-59424095D01*
X107930142Y-59376476D01*
X107953952Y-59352666D01*
X108001571Y-59328857D01*
X108073000Y-59328857D01*
X108120619Y-59352666D01*
X108144428Y-59376476D01*
X108168238Y-59424095D01*
X108168238Y-59566952D01*
X108144428Y-59614571D01*
X108120619Y-59638380D01*
X108073000Y-59662190D01*
X108001571Y-59662190D01*
X108311095Y-59328857D02*
X108501571Y-59328857D01*
X108382523Y-59162190D02*
X108382523Y-59590761D01*
X108406333Y-59638380D01*
X108453952Y-59662190D01*
X108501571Y-59662190D01*
X108739666Y-59662190D02*
X108692047Y-59638380D01*
X108668238Y-59614571D01*
X108644428Y-59566952D01*
X108644428Y-59424095D01*
X108668238Y-59376476D01*
X108692047Y-59352666D01*
X108739666Y-59328857D01*
X108811095Y-59328857D01*
X108858714Y-59352666D01*
X108882523Y-59376476D01*
X108906333Y-59424095D01*
X108906333Y-59566952D01*
X108882523Y-59614571D01*
X108858714Y-59638380D01*
X108811095Y-59662190D01*
X108739666Y-59662190D01*
X109120619Y-59662190D02*
X109120619Y-59328857D01*
X109120619Y-59424095D02*
X109144428Y-59376476D01*
X109168238Y-59352666D01*
X109215857Y-59328857D01*
X109263476Y-59328857D01*
X111125000Y-81788000D02*
X110363000Y-81788000D01*
X111252000Y-79248000D02*
X110363000Y-79248000D01*
X110998000Y-76581000D02*
X110363000Y-76581000D01*
X107442000Y-71628000D02*
X108331000Y-71628000D01*
X107696000Y-69088000D02*
X108331000Y-69088000D01*
X107696000Y-74295000D02*
X108331000Y-74295000D01*
X107442000Y-74295000D02*
X107696000Y-74295000D01*
X107346761Y-83800190D02*
X107108666Y-83800190D01*
X107084857Y-84038285D01*
X107108666Y-84014476D01*
X107156285Y-83990666D01*
X107275333Y-83990666D01*
X107322952Y-84014476D01*
X107346761Y-84038285D01*
X107370571Y-84085904D01*
X107370571Y-84204952D01*
X107346761Y-84252571D01*
X107322952Y-84276380D01*
X107275333Y-84300190D01*
X107156285Y-84300190D01*
X107108666Y-84276380D01*
X107084857Y-84252571D01*
X107513428Y-83800190D02*
X107680095Y-84300190D01*
X107846761Y-83800190D01*
X107442000Y-74168000D02*
X107442000Y-83566000D01*
X107442000Y-69088000D02*
X107696000Y-69088000D01*
X107442000Y-74168000D02*
X107442000Y-69088000D01*
X111252000Y-76581000D02*
X110998000Y-76581000D01*
X111252000Y-76835000D02*
X111252000Y-76581000D01*
X115189000Y-60452000D02*
X114935000Y-60452000D01*
X115189000Y-65532000D02*
X114935000Y-65532000D01*
X115189000Y-67945000D02*
X114935000Y-67945000D01*
X115189000Y-73025000D02*
X114935000Y-73025000D01*
X115189000Y-76835000D02*
X114935000Y-76835000D01*
X115189000Y-81915000D02*
X114935000Y-81915000D01*
X111252000Y-81915000D02*
X111252000Y-83566000D01*
X111252000Y-81915000D02*
X111252000Y-76835000D01*
X115189000Y-81915000D02*
X115189000Y-76835000D01*
X116296333Y-60305190D02*
X116391571Y-60305190D01*
X116439190Y-60329000D01*
X116486809Y-60376619D01*
X116510619Y-60471857D01*
X116510619Y-60638523D01*
X116486809Y-60733761D01*
X116439190Y-60781380D01*
X116391571Y-60805190D01*
X116296333Y-60805190D01*
X116248714Y-60781380D01*
X116201095Y-60733761D01*
X116177285Y-60638523D01*
X116177285Y-60471857D01*
X116201095Y-60376619D01*
X116248714Y-60329000D01*
X116296333Y-60305190D01*
X116939190Y-60471857D02*
X116939190Y-60805190D01*
X116724904Y-60471857D02*
X116724904Y-60733761D01*
X116748714Y-60781380D01*
X116796333Y-60805190D01*
X116867761Y-60805190D01*
X116915380Y-60781380D01*
X116939190Y-60757571D01*
X117105857Y-60471857D02*
X117296333Y-60471857D01*
X117177285Y-60305190D02*
X117177285Y-60733761D01*
X117201095Y-60781380D01*
X117248714Y-60805190D01*
X117296333Y-60805190D01*
X116391571Y-62996000D02*
X116343952Y-62972190D01*
X116272523Y-62972190D01*
X116201095Y-62996000D01*
X116153476Y-63043619D01*
X116129666Y-63091238D01*
X116105857Y-63186476D01*
X116105857Y-63257904D01*
X116129666Y-63353142D01*
X116153476Y-63400761D01*
X116201095Y-63448380D01*
X116272523Y-63472190D01*
X116320142Y-63472190D01*
X116391571Y-63448380D01*
X116415380Y-63424571D01*
X116415380Y-63257904D01*
X116320142Y-63257904D01*
X116629666Y-63138857D02*
X116629666Y-63472190D01*
X116629666Y-63186476D02*
X116653476Y-63162666D01*
X116701095Y-63138857D01*
X116772523Y-63138857D01*
X116820142Y-63162666D01*
X116843952Y-63210285D01*
X116843952Y-63472190D01*
X117296333Y-63472190D02*
X117296333Y-62972190D01*
X117296333Y-63448380D02*
X117248714Y-63472190D01*
X117153476Y-63472190D01*
X117105857Y-63448380D01*
X117082047Y-63424571D01*
X117058238Y-63376952D01*
X117058238Y-63234095D01*
X117082047Y-63186476D01*
X117105857Y-63162666D01*
X117153476Y-63138857D01*
X117248714Y-63138857D01*
X117296333Y-63162666D01*
X115923190Y-64464238D02*
X115423190Y-64464238D01*
X115589857Y-64226142D02*
X115923190Y-64226142D01*
X115637476Y-64226142D02*
X115613666Y-64202333D01*
X115589857Y-64154714D01*
X115589857Y-64083285D01*
X115613666Y-64035666D01*
X115661285Y-64011857D01*
X115923190Y-64011857D01*
X115589857Y-63845190D02*
X115589857Y-63654714D01*
X115923190Y-63773761D02*
X115494619Y-63773761D01*
X115447000Y-63749952D01*
X115423190Y-63702333D01*
X115423190Y-63654714D01*
X115923190Y-63488047D02*
X115589857Y-63488047D01*
X115685095Y-63488047D02*
X115637476Y-63464238D01*
X115613666Y-63440428D01*
X115589857Y-63392809D01*
X115589857Y-63345190D01*
X115923190Y-62964238D02*
X115661285Y-62964238D01*
X115613666Y-62988047D01*
X115589857Y-63035666D01*
X115589857Y-63130904D01*
X115613666Y-63178523D01*
X115899380Y-62964238D02*
X115923190Y-63011857D01*
X115923190Y-63130904D01*
X115899380Y-63178523D01*
X115851761Y-63202333D01*
X115804142Y-63202333D01*
X115756523Y-63178523D01*
X115732714Y-63130904D01*
X115732714Y-63011857D01*
X115708904Y-62964238D01*
X115923190Y-62726142D02*
X115589857Y-62726142D01*
X115685095Y-62726142D02*
X115637476Y-62702333D01*
X115613666Y-62678523D01*
X115589857Y-62630904D01*
X115589857Y-62583285D01*
X115899380Y-62226142D02*
X115923190Y-62273761D01*
X115923190Y-62369000D01*
X115899380Y-62416619D01*
X115851761Y-62440428D01*
X115661285Y-62440428D01*
X115613666Y-62416619D01*
X115589857Y-62369000D01*
X115589857Y-62273761D01*
X115613666Y-62226142D01*
X115661285Y-62202333D01*
X115708904Y-62202333D01*
X115756523Y-62440428D01*
X115923190Y-61773761D02*
X115423190Y-61773761D01*
X115899380Y-61773761D02*
X115923190Y-61821380D01*
X115923190Y-61916619D01*
X115899380Y-61964238D01*
X115875571Y-61988047D01*
X115827952Y-62011857D01*
X115685095Y-62011857D01*
X115637476Y-61988047D01*
X115613666Y-61964238D01*
X115589857Y-61916619D01*
X115589857Y-61821380D01*
X115613666Y-61773761D01*
X116117761Y-65512190D02*
X116284428Y-66012190D01*
X116451095Y-65512190D01*
X116832047Y-65988380D02*
X116784428Y-66012190D01*
X116689190Y-66012190D01*
X116641571Y-65988380D01*
X116617761Y-65964571D01*
X116593952Y-65916952D01*
X116593952Y-65774095D01*
X116617761Y-65726476D01*
X116641571Y-65702666D01*
X116689190Y-65678857D01*
X116784428Y-65678857D01*
X116832047Y-65702666D01*
X117260619Y-65988380D02*
X117213000Y-66012190D01*
X117117761Y-66012190D01*
X117070142Y-65988380D01*
X117046333Y-65964571D01*
X117022523Y-65916952D01*
X117022523Y-65774095D01*
X117046333Y-65726476D01*
X117070142Y-65702666D01*
X117117761Y-65678857D01*
X117213000Y-65678857D01*
X117260619Y-65702666D01*
X115189000Y-65532000D02*
X115189000Y-60452000D01*
X115189000Y-73025000D02*
X115189000Y-67945000D01*
X116117761Y-73005190D02*
X116284428Y-73505190D01*
X116451095Y-73005190D01*
X116832047Y-73481380D02*
X116784428Y-73505190D01*
X116689190Y-73505190D01*
X116641571Y-73481380D01*
X116617761Y-73457571D01*
X116593952Y-73409952D01*
X116593952Y-73267095D01*
X116617761Y-73219476D01*
X116641571Y-73195666D01*
X116689190Y-73171857D01*
X116784428Y-73171857D01*
X116832047Y-73195666D01*
X117260619Y-73481380D02*
X117213000Y-73505190D01*
X117117761Y-73505190D01*
X117070142Y-73481380D01*
X117046333Y-73457571D01*
X117022523Y-73409952D01*
X117022523Y-73267095D01*
X117046333Y-73219476D01*
X117070142Y-73195666D01*
X117117761Y-73171857D01*
X117213000Y-73171857D01*
X117260619Y-73195666D01*
X115923190Y-71957238D02*
X115423190Y-71957238D01*
X115589857Y-71719142D02*
X115923190Y-71719142D01*
X115637476Y-71719142D02*
X115613666Y-71695333D01*
X115589857Y-71647714D01*
X115589857Y-71576285D01*
X115613666Y-71528666D01*
X115661285Y-71504857D01*
X115923190Y-71504857D01*
X115589857Y-71338190D02*
X115589857Y-71147714D01*
X115923190Y-71266761D02*
X115494619Y-71266761D01*
X115447000Y-71242952D01*
X115423190Y-71195333D01*
X115423190Y-71147714D01*
X115923190Y-70981047D02*
X115589857Y-70981047D01*
X115685095Y-70981047D02*
X115637476Y-70957238D01*
X115613666Y-70933428D01*
X115589857Y-70885809D01*
X115589857Y-70838190D01*
X115923190Y-70457238D02*
X115661285Y-70457238D01*
X115613666Y-70481047D01*
X115589857Y-70528666D01*
X115589857Y-70623904D01*
X115613666Y-70671523D01*
X115899380Y-70457238D02*
X115923190Y-70504857D01*
X115923190Y-70623904D01*
X115899380Y-70671523D01*
X115851761Y-70695333D01*
X115804142Y-70695333D01*
X115756523Y-70671523D01*
X115732714Y-70623904D01*
X115732714Y-70504857D01*
X115708904Y-70457238D01*
X115923190Y-70219142D02*
X115589857Y-70219142D01*
X115685095Y-70219142D02*
X115637476Y-70195333D01*
X115613666Y-70171523D01*
X115589857Y-70123904D01*
X115589857Y-70076285D01*
X115899380Y-69719142D02*
X115923190Y-69766761D01*
X115923190Y-69862000D01*
X115899380Y-69909619D01*
X115851761Y-69933428D01*
X115661285Y-69933428D01*
X115613666Y-69909619D01*
X115589857Y-69862000D01*
X115589857Y-69766761D01*
X115613666Y-69719142D01*
X115661285Y-69695333D01*
X115708904Y-69695333D01*
X115756523Y-69933428D01*
X115923190Y-69266761D02*
X115423190Y-69266761D01*
X115899380Y-69266761D02*
X115923190Y-69314380D01*
X115923190Y-69409619D01*
X115899380Y-69457238D01*
X115875571Y-69481047D01*
X115827952Y-69504857D01*
X115685095Y-69504857D01*
X115637476Y-69481047D01*
X115613666Y-69457238D01*
X115589857Y-69409619D01*
X115589857Y-69314380D01*
X115613666Y-69266761D01*
X116391571Y-70489000D02*
X116343952Y-70465190D01*
X116272523Y-70465190D01*
X116201095Y-70489000D01*
X116153476Y-70536619D01*
X116129666Y-70584238D01*
X116105857Y-70679476D01*
X116105857Y-70750904D01*
X116129666Y-70846142D01*
X116153476Y-70893761D01*
X116201095Y-70941380D01*
X116272523Y-70965190D01*
X116320142Y-70965190D01*
X116391571Y-70941380D01*
X116415380Y-70917571D01*
X116415380Y-70750904D01*
X116320142Y-70750904D01*
X116629666Y-70631857D02*
X116629666Y-70965190D01*
X116629666Y-70679476D02*
X116653476Y-70655666D01*
X116701095Y-70631857D01*
X116772523Y-70631857D01*
X116820142Y-70655666D01*
X116843952Y-70703285D01*
X116843952Y-70965190D01*
X117296333Y-70965190D02*
X117296333Y-70465190D01*
X117296333Y-70941380D02*
X117248714Y-70965190D01*
X117153476Y-70965190D01*
X117105857Y-70941380D01*
X117082047Y-70917571D01*
X117058238Y-70869952D01*
X117058238Y-70727095D01*
X117082047Y-70679476D01*
X117105857Y-70655666D01*
X117153476Y-70631857D01*
X117248714Y-70631857D01*
X117296333Y-70655666D01*
X116296333Y-67798190D02*
X116391571Y-67798190D01*
X116439190Y-67822000D01*
X116486809Y-67869619D01*
X116510619Y-67964857D01*
X116510619Y-68131523D01*
X116486809Y-68226761D01*
X116439190Y-68274380D01*
X116391571Y-68298190D01*
X116296333Y-68298190D01*
X116248714Y-68274380D01*
X116201095Y-68226761D01*
X116177285Y-68131523D01*
X116177285Y-67964857D01*
X116201095Y-67869619D01*
X116248714Y-67822000D01*
X116296333Y-67798190D01*
X116939190Y-67964857D02*
X116939190Y-68298190D01*
X116724904Y-67964857D02*
X116724904Y-68226761D01*
X116748714Y-68274380D01*
X116796333Y-68298190D01*
X116867761Y-68298190D01*
X116915380Y-68274380D01*
X116939190Y-68250571D01*
X117105857Y-67964857D02*
X117296333Y-67964857D01*
X117177285Y-67798190D02*
X117177285Y-68226761D01*
X117201095Y-68274380D01*
X117248714Y-68298190D01*
X117296333Y-68298190D01*
X61020000Y-75498000D02*
X59690000Y-75498000D01*
X61020000Y-74168000D02*
X61020000Y-75498000D01*
X61020000Y-72898000D02*
X58360000Y-72898000D01*
X58360000Y-72898000D02*
X58360000Y-70298000D01*
X61020000Y-72898000D02*
X61020000Y-70298000D01*
X61020000Y-70298000D02*
X58360000Y-70298000D01*
X104225333Y-86614000D02*
X104225333Y-87884000D01*
X102872000Y-87814000D02*
X104225333Y-87814000D01*
X102872000Y-87694000D02*
X104225333Y-87694000D01*
X102872000Y-87574000D02*
X104225333Y-87574000D01*
X102872000Y-87454000D02*
X104225333Y-87454000D01*
X102872000Y-87334000D02*
X104225333Y-87334000D01*
X102872000Y-87214000D02*
X104225333Y-87214000D01*
X102872000Y-87094000D02*
X104225333Y-87094000D01*
X102872000Y-86974000D02*
X104225333Y-86974000D01*
X102872000Y-86854000D02*
X104225333Y-86854000D01*
X102872000Y-86734000D02*
X104225333Y-86734000D01*
X106932000Y-86614000D02*
X102872000Y-86614000D01*
X106932000Y-87884000D02*
X106932000Y-86614000D01*
X102872000Y-87884000D02*
X106932000Y-87884000D01*
X102872000Y-86614000D02*
X102872000Y-87884000D01*
X99712000Y-84589000D02*
X99712000Y-85972000D01*
X99712000Y-84589000D02*
X101096000Y-84589000D01*
X109852000Y-88049000D02*
X109852000Y-89669000D01*
X109852000Y-84829000D02*
X109852000Y-86449000D01*
X99952000Y-88049000D02*
X99952000Y-89669000D01*
X99952000Y-84829000D02*
X99952000Y-86449000D01*
X99952000Y-89669000D02*
X109852000Y-89669000D01*
X99952000Y-84829000D02*
X109852000Y-84829000D01*
X110677000Y-83092600D02*
X109347000Y-83092600D01*
X110677000Y-81762600D02*
X110677000Y-83092600D01*
X110677000Y-80492600D02*
X108017000Y-80492600D01*
X108017000Y-80492600D02*
X108017000Y-60112600D01*
X110677000Y-80492600D02*
X110677000Y-60112600D01*
X110677000Y-60112600D02*
X108017000Y-60112600D01*
X111827000Y-75378000D02*
X113157000Y-75378000D01*
X111827000Y-76708000D02*
X111827000Y-75378000D01*
X111827000Y-77978000D02*
X114487000Y-77978000D01*
X114487000Y-77978000D02*
X114487000Y-83118000D01*
X111827000Y-77978000D02*
X111827000Y-83118000D01*
X111827000Y-83118000D02*
X114487000Y-83118000D01*
X100244600Y-62703400D02*
X101574600Y-62703400D01*
X100244600Y-64033400D02*
X100244600Y-62703400D01*
X100244600Y-65303400D02*
X102904600Y-65303400D01*
X102904600Y-65303400D02*
X102904600Y-83143400D01*
X100244600Y-65303400D02*
X100244600Y-83143400D01*
X100244600Y-83143400D02*
X102904600Y-83143400D01*
X111852400Y-59071200D02*
X113182400Y-59071200D01*
X111852400Y-60401200D02*
X111852400Y-59071200D01*
X111852400Y-61671200D02*
X114512400Y-61671200D01*
X114512400Y-61671200D02*
X114512400Y-74431200D01*
X111852400Y-61671200D02*
X111852400Y-74431200D01*
X111852400Y-74431200D02*
X114512400Y-74431200D01*
X97561400Y-45050400D02*
X98891400Y-45050400D01*
X98891400Y-45050400D02*
X98891400Y-46380400D01*
X98891400Y-47650400D02*
X98891400Y-83270400D01*
X96231400Y-83270400D02*
X98891400Y-83270400D01*
X96231400Y-47650400D02*
X96231400Y-83270400D01*
X96231400Y-47650400D02*
X98891400Y-47650400D01*
X76691800Y-80645000D02*
X74031800Y-80645000D01*
X76691800Y-80645000D02*
X76691800Y-45025000D01*
X76691800Y-45025000D02*
X74031800Y-45025000D01*
X74031800Y-80645000D02*
X74031800Y-45025000D01*
X74031800Y-83245000D02*
X74031800Y-81915000D01*
X75361800Y-83245000D02*
X74031800Y-83245000D01*
X112349200Y-47953200D02*
X112349200Y-49053200D01*
X112619200Y-47953200D02*
X112349200Y-47953200D01*
X112619200Y-46453200D02*
X112619200Y-47953200D01*
X105989200Y-47953200D02*
X105989200Y-50783200D01*
X105719200Y-47953200D02*
X105989200Y-47953200D01*
X105719200Y-46453200D02*
X105719200Y-47953200D01*
X66234000Y-34350000D02*
X66234000Y-33020000D01*
X67564000Y-34350000D02*
X66234000Y-34350000D01*
X68834000Y-34350000D02*
X68834000Y-31690000D01*
X68834000Y-31690000D02*
X106994000Y-31690000D01*
X68834000Y-34350000D02*
X106994000Y-34350000D01*
X106994000Y-34350000D02*
X106994000Y-31690000D01*
X91380000Y-39074400D02*
X91380000Y-37744400D01*
X92710000Y-39074400D02*
X91380000Y-39074400D01*
X93980000Y-39074400D02*
X93980000Y-36414400D01*
X93980000Y-36414400D02*
X106740000Y-36414400D01*
X93980000Y-39074400D02*
X106740000Y-39074400D01*
X106740000Y-39074400D02*
X106740000Y-36414400D01*
X75073200Y-39074400D02*
X75073200Y-37744400D01*
X76403200Y-39074400D02*
X75073200Y-39074400D01*
X77673200Y-39074400D02*
X77673200Y-36414400D01*
X77673200Y-36414400D02*
X90433200Y-36414400D01*
X77673200Y-39074400D02*
X90433200Y-39074400D01*
X90433200Y-39074400D02*
X90433200Y-36414400D01*
X89914800Y-83796878D02*
X89914800Y-83279722D01*
X88494800Y-83796878D02*
X88494800Y-83279722D01*
X103525822Y-49528800D02*
X104042978Y-49528800D01*
X103525822Y-48108800D02*
X104042978Y-48108800D01*
X95706000Y-83847678D02*
X95706000Y-83330522D01*
X94286000Y-83847678D02*
X94286000Y-83330522D01*
X103553522Y-53948400D02*
X104070678Y-53948400D01*
X103553522Y-52528400D02*
X104070678Y-52528400D01*
X103553522Y-51713200D02*
X104070678Y-51713200D01*
X103553522Y-50293200D02*
X104070678Y-50293200D01*
X93775600Y-83824578D02*
X93775600Y-83307422D01*
X92355600Y-83824578D02*
X92355600Y-83307422D01*
X91845200Y-83796878D02*
X91845200Y-83279722D01*
X90425200Y-83796878D02*
X90425200Y-83279722D01*
X91339200Y-47329600D02*
G75*
G02X90639200Y-46629600I0J700000D01*
G01*
X90639200Y-46029600D02*
G75*
G02X91339200Y-45329600I700000J0D01*
G01*
X92739200Y-45329600D02*
G75*
G02X93439200Y-46029600I0J-700000D01*
G01*
X93439200Y-46629600D02*
G75*
G02X92739200Y-47329600I-700000J0D01*
G01*
X93439200Y-46029600D02*
X93439200Y-46629600D01*
X91339200Y-45329600D02*
X92739200Y-45329600D01*
X90639200Y-46629600D02*
X90639200Y-46029600D01*
X92739200Y-47329600D02*
X91339200Y-47329600D01*
X104066078Y-41248400D02*
X103548922Y-41248400D01*
X104066078Y-39828400D02*
X103548922Y-39828400D01*
X87628800Y-67582522D02*
X87628800Y-68099678D01*
X86208800Y-67582522D02*
X86208800Y-68099678D01*
X73507600Y-83794600D02*
X98907600Y-83794600D01*
X73507600Y-45059600D02*
X73507600Y-83794600D01*
X98907600Y-45059600D02*
X98907600Y-83794600D01*
X73507600Y-45059600D02*
X98907600Y-45059600D01*
D11*
X88735800Y-55143600D02*
X89810800Y-55143600D01*
X88735800Y-45418600D02*
X84085800Y-45418600D01*
X88735800Y-55368600D02*
X84085800Y-55368600D01*
X88735800Y-45418600D02*
X88735800Y-45743600D01*
X84085800Y-45418600D02*
X84085800Y-45743600D01*
X84085800Y-55368600D02*
X84085800Y-55043600D01*
X88735800Y-55368600D02*
X88735800Y-55143600D01*
D10*
X104070678Y-43280400D02*
X103553522Y-43280400D01*
X104070678Y-41860400D02*
X103553522Y-41860400D01*
X78016823Y-45563801D02*
X78533979Y-45563801D01*
X78016823Y-46983801D02*
X78533979Y-46983801D01*
X104066078Y-43892400D02*
X103548922Y-43892400D01*
X104066078Y-45312400D02*
X103548922Y-45312400D01*
X78075022Y-49224000D02*
X78592178Y-49224000D01*
X78075022Y-47804000D02*
X78592178Y-47804000D01*
X104066078Y-45924400D02*
X103548922Y-45924400D01*
X104066078Y-47344400D02*
X103548922Y-47344400D01*
X102812100Y-56484400D02*
X105497100Y-56484400D01*
X105497100Y-56484400D02*
X105497100Y-54564400D01*
X105497100Y-54564400D02*
X102812100Y-54564400D01*
X99928800Y-39643100D02*
X99928800Y-42328100D01*
X101848800Y-39643100D02*
X99928800Y-39643100D01*
X101848800Y-42328100D02*
X101848800Y-39643100D01*
X89544400Y-39730800D02*
X86859400Y-39730800D01*
X86859400Y-39730800D02*
X86859400Y-41650800D01*
X86859400Y-41650800D02*
X89544400Y-41650800D01*
X87368900Y-44038400D02*
X90053900Y-44038400D01*
X90053900Y-44038400D02*
X90053900Y-42118400D01*
X90053900Y-42118400D02*
X87368900Y-42118400D01*
X77435200Y-44394000D02*
X80120200Y-44394000D01*
X80120200Y-44394000D02*
X80120200Y-42474000D01*
X80120200Y-42474000D02*
X77435200Y-42474000D01*
X77195136Y-39780800D02*
X78399264Y-39780800D01*
X77195136Y-41600800D02*
X78399264Y-41600800D01*
X66234000Y-36516000D02*
X66234000Y-39176000D01*
X68834000Y-36516000D02*
X66234000Y-36516000D01*
X68834000Y-39176000D02*
X66234000Y-39176000D01*
X68834000Y-36516000D02*
X68834000Y-39176000D01*
X70104000Y-36516000D02*
X71434000Y-36516000D01*
X71434000Y-36516000D02*
X71434000Y-37846000D01*
X106740000Y-60188800D02*
X104080000Y-60188800D01*
X106740000Y-80568800D02*
X106740000Y-60188800D01*
X104080000Y-80568800D02*
X104080000Y-60188800D01*
X106740000Y-80568800D02*
X104080000Y-80568800D01*
X106740000Y-81838800D02*
X106740000Y-83168800D01*
X106740000Y-83168800D02*
X105410000Y-83168800D01*
X72450000Y-87131200D02*
X72450000Y-84471200D01*
X64770000Y-87131200D02*
X72450000Y-87131200D01*
X64770000Y-84471200D02*
X72450000Y-84471200D01*
X64770000Y-87131200D02*
X64770000Y-84471200D01*
X63500000Y-87131200D02*
X62170000Y-87131200D01*
X62170000Y-87131200D02*
X62170000Y-85801200D01*
X101294000Y-54028078D02*
X101294000Y-53510922D01*
X99874000Y-54028078D02*
X99874000Y-53510922D01*
X100178800Y-45138078D02*
X100178800Y-44620922D01*
X101598800Y-45138078D02*
X101598800Y-44620922D01*
X91692800Y-68099678D02*
X91692800Y-67582522D01*
X90272800Y-68099678D02*
X90272800Y-67582522D01*
X92304800Y-68099678D02*
X92304800Y-67582522D01*
X93724800Y-68099678D02*
X93724800Y-67582522D01*
X95756800Y-68104278D02*
X95756800Y-67587122D01*
X94336800Y-68104278D02*
X94336800Y-67587122D01*
X96112400Y-53372278D02*
X96112400Y-52855122D01*
X94692400Y-53372278D02*
X94692400Y-52855122D01*
X92812800Y-53367678D02*
X92812800Y-52850522D01*
X94232800Y-53367678D02*
X94232800Y-52850522D01*
X92353200Y-53367678D02*
X92353200Y-52850522D01*
X90933200Y-53367678D02*
X90933200Y-52850522D01*
X92558800Y-49585378D02*
X92558800Y-49068222D01*
X93978800Y-49585378D02*
X93978800Y-49068222D01*
X92048400Y-49562278D02*
X92048400Y-49045122D01*
X90628400Y-49562278D02*
X90628400Y-49045122D01*
X96163200Y-49142122D02*
X96163200Y-49659278D01*
X94743200Y-49142122D02*
X94743200Y-49659278D01*
X89711600Y-68099678D02*
X89711600Y-67582522D01*
X88291600Y-68099678D02*
X88291600Y-67582522D01*
X84278400Y-68099678D02*
X84278400Y-67582522D01*
X85698400Y-68099678D02*
X85698400Y-67582522D01*
X71754800Y-47546400D02*
X71754800Y-52131400D01*
X71754800Y-55402400D02*
X71754800Y-74931400D01*
X71754800Y-78202400D02*
X71754800Y-82786400D01*
X62514800Y-47546400D02*
X62514800Y-50931400D01*
X62514800Y-54202400D02*
X62514800Y-76131400D01*
X62514800Y-79402400D02*
X62514800Y-82786400D01*
X71754800Y-47546400D02*
X70059800Y-47546400D01*
X67709800Y-47546400D02*
X65839800Y-47546400D01*
X64928800Y-47546400D02*
X62514800Y-47546400D01*
X71754800Y-82786400D02*
X69340800Y-82786400D01*
X68428800Y-82786400D02*
X62514800Y-82786400D01*
X68884800Y-47491400D02*
X69384800Y-46991400D01*
X69384800Y-46991400D02*
X68384800Y-46991400D01*
X68384800Y-46991400D02*
X68884800Y-47491400D01*
X67134800Y-55166400D02*
X67134800Y-75166400D01*
X68634800Y-55166400D02*
X65634800Y-55166400D01*
X67884800Y-55916400D02*
X67134800Y-55166400D01*
X67134800Y-55166400D02*
X66384800Y-55916400D01*
X68634800Y-75166400D02*
X65634800Y-75166400D01*
X67884800Y-74416400D02*
X67134800Y-75166400D01*
X67134800Y-75166400D02*
X66384800Y-74416400D01*
X94198400Y-54879200D02*
X96098400Y-54879200D01*
X96098400Y-54879200D02*
X96098400Y-56779200D01*
X96098400Y-56779200D02*
X94198400Y-56779200D01*
X94198400Y-56779200D02*
X94198400Y-54879200D01*
X68551200Y-46782400D02*
X70051200Y-46782400D01*
X70051200Y-46782400D02*
X70051200Y-46512400D01*
X70051200Y-46512400D02*
X72881200Y-46512400D01*
X68551200Y-39882400D02*
X70051200Y-39882400D01*
X70051200Y-39882400D02*
X70051200Y-40152400D01*
X70051200Y-40152400D02*
X71151200Y-40152400D01*
X77199200Y-51913000D02*
X77199200Y-51238000D01*
X77199200Y-51238000D02*
X77374200Y-51238000D01*
X80419200Y-51913000D02*
X80419200Y-51238000D01*
X80419200Y-51238000D02*
X80244200Y-51238000D01*
X80419200Y-53783000D02*
X80419200Y-54458000D01*
X80419200Y-54458000D02*
X80244200Y-54458000D01*
D11*
X77235000Y-79516200D02*
X77485000Y-79516200D01*
X77235000Y-71766200D02*
X77580000Y-71766200D01*
X95485000Y-71766200D02*
X95140000Y-71766200D01*
X95485000Y-79516200D02*
X95140000Y-79516200D01*
X77235000Y-79516200D02*
X77235000Y-71766200D01*
X95485000Y-79516200D02*
X95485000Y-71766200D01*
X77485000Y-79516200D02*
X77485000Y-81341200D01*
X94321800Y-65618800D02*
X95921800Y-65618800D01*
X94321800Y-57193800D02*
X88571800Y-57193800D01*
X94321800Y-65843800D02*
X88571800Y-65843800D01*
X94321800Y-57193800D02*
X94321800Y-57493800D01*
X88571800Y-57193800D02*
X88571800Y-57493800D01*
X88571800Y-65843800D02*
X88571800Y-65543800D01*
X94321800Y-65843800D02*
X94321800Y-65618800D01*
X78811400Y-57193800D02*
X78811400Y-57418800D01*
X84561400Y-57193800D02*
X84561400Y-57493800D01*
X84561400Y-65843800D02*
X84561400Y-65543800D01*
X78811400Y-65843800D02*
X78811400Y-65543800D01*
X78811400Y-57193800D02*
X84561400Y-57193800D01*
X78811400Y-65843800D02*
X84561400Y-65843800D01*
X78811400Y-57418800D02*
X77211400Y-57418800D01*
D10*
X107676190Y-45864152D02*
X108080952Y-45864152D01*
X108128571Y-45840342D01*
X108152380Y-45816533D01*
X108176190Y-45768914D01*
X108176190Y-45673676D01*
X108152380Y-45626057D01*
X108128571Y-45602247D01*
X108080952Y-45578438D01*
X107676190Y-45578438D01*
X107676190Y-45387961D02*
X107676190Y-45054628D01*
X108176190Y-45268914D01*
X89380190Y-83859728D02*
X89142095Y-84026395D01*
X89380190Y-84145442D02*
X88880190Y-84145442D01*
X88880190Y-83954966D01*
X88904000Y-83907347D01*
X88927809Y-83883538D01*
X88975428Y-83859728D01*
X89046857Y-83859728D01*
X89094476Y-83883538D01*
X89118285Y-83907347D01*
X89142095Y-83954966D01*
X89142095Y-84145442D01*
X89380190Y-83383538D02*
X89380190Y-83669252D01*
X89380190Y-83526395D02*
X88880190Y-83526395D01*
X88951619Y-83574014D01*
X88999238Y-83621633D01*
X89023047Y-83669252D01*
X88880190Y-83216871D02*
X88880190Y-82907347D01*
X89070666Y-83074014D01*
X89070666Y-83002585D01*
X89094476Y-82954966D01*
X89118285Y-82931157D01*
X89165904Y-82907347D01*
X89284952Y-82907347D01*
X89332571Y-82931157D01*
X89356380Y-82954966D01*
X89380190Y-83002585D01*
X89380190Y-83145442D01*
X89356380Y-83193061D01*
X89332571Y-83216871D01*
X103462971Y-48994190D02*
X103296304Y-48756095D01*
X103177257Y-48994190D02*
X103177257Y-48494190D01*
X103367733Y-48494190D01*
X103415352Y-48518000D01*
X103439161Y-48541809D01*
X103462971Y-48589428D01*
X103462971Y-48660857D01*
X103439161Y-48708476D01*
X103415352Y-48732285D01*
X103367733Y-48756095D01*
X103177257Y-48756095D01*
X103939161Y-48994190D02*
X103653447Y-48994190D01*
X103796304Y-48994190D02*
X103796304Y-48494190D01*
X103748685Y-48565619D01*
X103701066Y-48613238D01*
X103653447Y-48637047D01*
X104129638Y-48541809D02*
X104153447Y-48518000D01*
X104201066Y-48494190D01*
X104320114Y-48494190D01*
X104367733Y-48518000D01*
X104391542Y-48541809D01*
X104415352Y-48589428D01*
X104415352Y-48637047D01*
X104391542Y-48708476D01*
X104105828Y-48994190D01*
X104415352Y-48994190D01*
X95222190Y-83887428D02*
X94984095Y-84054095D01*
X95222190Y-84173142D02*
X94722190Y-84173142D01*
X94722190Y-83982666D01*
X94746000Y-83935047D01*
X94769809Y-83911238D01*
X94817428Y-83887428D01*
X94888857Y-83887428D01*
X94936476Y-83911238D01*
X94960285Y-83935047D01*
X94984095Y-83982666D01*
X94984095Y-84173142D01*
X95222190Y-83411238D02*
X95222190Y-83696952D01*
X95222190Y-83554095D02*
X94722190Y-83554095D01*
X94793619Y-83601714D01*
X94841238Y-83649333D01*
X94865047Y-83696952D01*
X94936476Y-83125523D02*
X94912666Y-83173142D01*
X94888857Y-83196952D01*
X94841238Y-83220761D01*
X94817428Y-83220761D01*
X94769809Y-83196952D01*
X94746000Y-83173142D01*
X94722190Y-83125523D01*
X94722190Y-83030285D01*
X94746000Y-82982666D01*
X94769809Y-82958857D01*
X94817428Y-82935047D01*
X94841238Y-82935047D01*
X94888857Y-82958857D01*
X94912666Y-82982666D01*
X94936476Y-83030285D01*
X94936476Y-83125523D01*
X94960285Y-83173142D01*
X94984095Y-83196952D01*
X95031714Y-83220761D01*
X95126952Y-83220761D01*
X95174571Y-83196952D01*
X95198380Y-83173142D01*
X95222190Y-83125523D01*
X95222190Y-83030285D01*
X95198380Y-82982666D01*
X95174571Y-82958857D01*
X95126952Y-82935047D01*
X95031714Y-82935047D01*
X94984095Y-82958857D01*
X94960285Y-82982666D01*
X94936476Y-83030285D01*
X103490671Y-53439190D02*
X103324004Y-53201095D01*
X103204957Y-53439190D02*
X103204957Y-52939190D01*
X103395433Y-52939190D01*
X103443052Y-52963000D01*
X103466861Y-52986809D01*
X103490671Y-53034428D01*
X103490671Y-53105857D01*
X103466861Y-53153476D01*
X103443052Y-53177285D01*
X103395433Y-53201095D01*
X103204957Y-53201095D01*
X103966861Y-53439190D02*
X103681147Y-53439190D01*
X103824004Y-53439190D02*
X103824004Y-52939190D01*
X103776385Y-53010619D01*
X103728766Y-53058238D01*
X103681147Y-53082047D01*
X104133528Y-52939190D02*
X104466861Y-52939190D01*
X104252576Y-53439190D01*
X103490671Y-51280190D02*
X103324004Y-51042095D01*
X103204957Y-51280190D02*
X103204957Y-50780190D01*
X103395433Y-50780190D01*
X103443052Y-50804000D01*
X103466861Y-50827809D01*
X103490671Y-50875428D01*
X103490671Y-50946857D01*
X103466861Y-50994476D01*
X103443052Y-51018285D01*
X103395433Y-51042095D01*
X103204957Y-51042095D01*
X103966861Y-51280190D02*
X103681147Y-51280190D01*
X103824004Y-51280190D02*
X103824004Y-50780190D01*
X103776385Y-50851619D01*
X103728766Y-50899238D01*
X103681147Y-50923047D01*
X104419242Y-50780190D02*
X104181147Y-50780190D01*
X104157338Y-51018285D01*
X104181147Y-50994476D01*
X104228766Y-50970666D01*
X104347814Y-50970666D01*
X104395433Y-50994476D01*
X104419242Y-51018285D01*
X104443052Y-51065904D01*
X104443052Y-51184952D01*
X104419242Y-51232571D01*
X104395433Y-51256380D01*
X104347814Y-51280190D01*
X104228766Y-51280190D01*
X104181147Y-51256380D01*
X104157338Y-51232571D01*
X93317190Y-83887428D02*
X93079095Y-84054095D01*
X93317190Y-84173142D02*
X92817190Y-84173142D01*
X92817190Y-83982666D01*
X92841000Y-83935047D01*
X92864809Y-83911238D01*
X92912428Y-83887428D01*
X92983857Y-83887428D01*
X93031476Y-83911238D01*
X93055285Y-83935047D01*
X93079095Y-83982666D01*
X93079095Y-84173142D01*
X93317190Y-83411238D02*
X93317190Y-83696952D01*
X93317190Y-83554095D02*
X92817190Y-83554095D01*
X92888619Y-83601714D01*
X92936238Y-83649333D01*
X92960047Y-83696952D01*
X92983857Y-82982666D02*
X93317190Y-82982666D01*
X92793380Y-83101714D02*
X93150523Y-83220761D01*
X93150523Y-82911238D01*
X91412190Y-83859728D02*
X91174095Y-84026395D01*
X91412190Y-84145442D02*
X90912190Y-84145442D01*
X90912190Y-83954966D01*
X90936000Y-83907347D01*
X90959809Y-83883538D01*
X91007428Y-83859728D01*
X91078857Y-83859728D01*
X91126476Y-83883538D01*
X91150285Y-83907347D01*
X91174095Y-83954966D01*
X91174095Y-84145442D01*
X91412190Y-83383538D02*
X91412190Y-83669252D01*
X91412190Y-83526395D02*
X90912190Y-83526395D01*
X90983619Y-83574014D01*
X91031238Y-83621633D01*
X91055047Y-83669252D01*
X90912190Y-82954966D02*
X90912190Y-83050204D01*
X90936000Y-83097823D01*
X90959809Y-83121633D01*
X91031238Y-83169252D01*
X91126476Y-83193061D01*
X91316952Y-83193061D01*
X91364571Y-83169252D01*
X91388380Y-83145442D01*
X91412190Y-83097823D01*
X91412190Y-83002585D01*
X91388380Y-82954966D01*
X91364571Y-82931157D01*
X91316952Y-82907347D01*
X91197904Y-82907347D01*
X91150285Y-82931157D01*
X91126476Y-82954966D01*
X91102666Y-83002585D01*
X91102666Y-83097823D01*
X91126476Y-83145442D01*
X91150285Y-83169252D01*
X91197904Y-83193061D01*
X103724166Y-40691571D02*
X103700357Y-40715380D01*
X103628928Y-40739190D01*
X103581309Y-40739190D01*
X103509880Y-40715380D01*
X103462261Y-40667761D01*
X103438452Y-40620142D01*
X103414642Y-40524904D01*
X103414642Y-40453476D01*
X103438452Y-40358238D01*
X103462261Y-40310619D01*
X103509880Y-40263000D01*
X103581309Y-40239190D01*
X103628928Y-40239190D01*
X103700357Y-40263000D01*
X103724166Y-40286809D01*
X104152738Y-40405857D02*
X104152738Y-40739190D01*
X104033690Y-40215380D02*
X103914642Y-40572523D01*
X104224166Y-40572523D01*
X87094190Y-68139428D02*
X86856095Y-68306095D01*
X87094190Y-68425142D02*
X86594190Y-68425142D01*
X86594190Y-68234666D01*
X86618000Y-68187047D01*
X86641809Y-68163238D01*
X86689428Y-68139428D01*
X86760857Y-68139428D01*
X86808476Y-68163238D01*
X86832285Y-68187047D01*
X86856095Y-68234666D01*
X86856095Y-68425142D01*
X86641809Y-67948952D02*
X86618000Y-67925142D01*
X86594190Y-67877523D01*
X86594190Y-67758476D01*
X86618000Y-67710857D01*
X86641809Y-67687047D01*
X86689428Y-67663238D01*
X86737047Y-67663238D01*
X86808476Y-67687047D01*
X87094190Y-67972761D01*
X87094190Y-67663238D01*
X86594190Y-67353714D02*
X86594190Y-67306095D01*
X86618000Y-67258476D01*
X86641809Y-67234666D01*
X86689428Y-67210857D01*
X86784666Y-67187047D01*
X86903714Y-67187047D01*
X86998952Y-67210857D01*
X87046571Y-67234666D01*
X87070380Y-67258476D01*
X87094190Y-67306095D01*
X87094190Y-67353714D01*
X87070380Y-67401333D01*
X87046571Y-67425142D01*
X86998952Y-67448952D01*
X86903714Y-67472761D01*
X86784666Y-67472761D01*
X86689428Y-67448952D01*
X86641809Y-67425142D01*
X86618000Y-67401333D01*
X86594190Y-67353714D01*
X85979047Y-53320190D02*
X85979047Y-53724952D01*
X86002857Y-53772571D01*
X86026666Y-53796380D01*
X86074285Y-53820190D01*
X86169523Y-53820190D01*
X86217142Y-53796380D01*
X86240952Y-53772571D01*
X86264761Y-53724952D01*
X86264761Y-53320190D01*
X86717142Y-53486857D02*
X86717142Y-53820190D01*
X86598095Y-53296380D02*
X86479047Y-53653523D01*
X86788571Y-53653523D01*
X103728766Y-42723571D02*
X103704957Y-42747380D01*
X103633528Y-42771190D01*
X103585909Y-42771190D01*
X103514480Y-42747380D01*
X103466861Y-42699761D01*
X103443052Y-42652142D01*
X103419242Y-42556904D01*
X103419242Y-42485476D01*
X103443052Y-42390238D01*
X103466861Y-42342619D01*
X103514480Y-42295000D01*
X103585909Y-42271190D01*
X103633528Y-42271190D01*
X103704957Y-42295000D01*
X103728766Y-42318809D01*
X104204957Y-42771190D02*
X103919242Y-42771190D01*
X104062100Y-42771190D02*
X104062100Y-42271190D01*
X104014480Y-42342619D01*
X103966861Y-42390238D01*
X103919242Y-42414047D01*
D14*
X78199466Y-46406571D02*
X78175657Y-46430380D01*
X78104228Y-46454190D01*
X78056609Y-46454190D01*
X77985180Y-46430380D01*
X77937561Y-46382761D01*
X77913752Y-46335142D01*
X77889942Y-46239904D01*
X77889942Y-46168476D01*
X77913752Y-46073238D01*
X77937561Y-46025619D01*
X77985180Y-45978000D01*
X78056609Y-45954190D01*
X78104228Y-45954190D01*
X78175657Y-45978000D01*
X78199466Y-46001809D01*
X78651847Y-45954190D02*
X78413752Y-45954190D01*
X78389942Y-46192285D01*
X78413752Y-46168476D01*
X78461371Y-46144666D01*
X78580419Y-46144666D01*
X78628038Y-46168476D01*
X78651847Y-46192285D01*
X78675657Y-46239904D01*
X78675657Y-46358952D01*
X78651847Y-46406571D01*
X78628038Y-46430380D01*
X78580419Y-46454190D01*
X78461371Y-46454190D01*
X78413752Y-46430380D01*
X78389942Y-46406571D01*
D10*
X103724166Y-44755571D02*
X103700357Y-44779380D01*
X103628928Y-44803190D01*
X103581309Y-44803190D01*
X103509880Y-44779380D01*
X103462261Y-44731761D01*
X103438452Y-44684142D01*
X103414642Y-44588904D01*
X103414642Y-44517476D01*
X103438452Y-44422238D01*
X103462261Y-44374619D01*
X103509880Y-44327000D01*
X103581309Y-44303190D01*
X103628928Y-44303190D01*
X103700357Y-44327000D01*
X103724166Y-44350809D01*
X103914642Y-44350809D02*
X103938452Y-44327000D01*
X103986071Y-44303190D01*
X104105119Y-44303190D01*
X104152738Y-44327000D01*
X104176547Y-44350809D01*
X104200357Y-44398428D01*
X104200357Y-44446047D01*
X104176547Y-44517476D01*
X103890833Y-44803190D01*
X104200357Y-44803190D01*
D14*
X78275666Y-48692571D02*
X78251857Y-48716380D01*
X78180428Y-48740190D01*
X78132809Y-48740190D01*
X78061380Y-48716380D01*
X78013761Y-48668761D01*
X77989952Y-48621142D01*
X77966142Y-48525904D01*
X77966142Y-48454476D01*
X77989952Y-48359238D01*
X78013761Y-48311619D01*
X78061380Y-48264000D01*
X78132809Y-48240190D01*
X78180428Y-48240190D01*
X78251857Y-48264000D01*
X78275666Y-48287809D01*
X78704238Y-48240190D02*
X78609000Y-48240190D01*
X78561380Y-48264000D01*
X78537571Y-48287809D01*
X78489952Y-48359238D01*
X78466142Y-48454476D01*
X78466142Y-48644952D01*
X78489952Y-48692571D01*
X78513761Y-48716380D01*
X78561380Y-48740190D01*
X78656619Y-48740190D01*
X78704238Y-48716380D01*
X78728047Y-48692571D01*
X78751857Y-48644952D01*
X78751857Y-48525904D01*
X78728047Y-48478285D01*
X78704238Y-48454476D01*
X78656619Y-48430666D01*
X78561380Y-48430666D01*
X78513761Y-48454476D01*
X78489952Y-48478285D01*
X78466142Y-48525904D01*
D10*
X103675666Y-46787571D02*
X103651857Y-46811380D01*
X103580428Y-46835190D01*
X103532809Y-46835190D01*
X103461380Y-46811380D01*
X103413761Y-46763761D01*
X103389952Y-46716142D01*
X103366142Y-46620904D01*
X103366142Y-46549476D01*
X103389952Y-46454238D01*
X103413761Y-46406619D01*
X103461380Y-46359000D01*
X103532809Y-46335190D01*
X103580428Y-46335190D01*
X103651857Y-46359000D01*
X103675666Y-46382809D01*
X103842333Y-46335190D02*
X104151857Y-46335190D01*
X103985190Y-46525666D01*
X104056619Y-46525666D01*
X104104238Y-46549476D01*
X104128047Y-46573285D01*
X104151857Y-46620904D01*
X104151857Y-46739952D01*
X104128047Y-46787571D01*
X104104238Y-46811380D01*
X104056619Y-46835190D01*
X103913761Y-46835190D01*
X103866142Y-46811380D01*
X103842333Y-46787571D01*
X101064190Y-41720247D02*
X100564190Y-41720247D01*
X100564190Y-41601200D01*
X100588000Y-41529771D01*
X100635619Y-41482152D01*
X100683238Y-41458342D01*
X100778476Y-41434533D01*
X100849904Y-41434533D01*
X100945142Y-41458342D01*
X100992761Y-41482152D01*
X101040380Y-41529771D01*
X101064190Y-41601200D01*
X101064190Y-41720247D01*
X100611809Y-41244057D02*
X100588000Y-41220247D01*
X100564190Y-41172628D01*
X100564190Y-41053580D01*
X100588000Y-41005961D01*
X100611809Y-40982152D01*
X100659428Y-40958342D01*
X100707047Y-40958342D01*
X100778476Y-40982152D01*
X101064190Y-41267866D01*
X101064190Y-40958342D01*
X88175352Y-40866190D02*
X88175352Y-40366190D01*
X88294400Y-40366190D01*
X88365828Y-40390000D01*
X88413447Y-40437619D01*
X88437257Y-40485238D01*
X88461066Y-40580476D01*
X88461066Y-40651904D01*
X88437257Y-40747142D01*
X88413447Y-40794761D01*
X88365828Y-40842380D01*
X88294400Y-40866190D01*
X88175352Y-40866190D01*
X88627733Y-40366190D02*
X88937257Y-40366190D01*
X88770590Y-40556666D01*
X88842019Y-40556666D01*
X88889638Y-40580476D01*
X88913447Y-40604285D01*
X88937257Y-40651904D01*
X88937257Y-40770952D01*
X88913447Y-40818571D01*
X88889638Y-40842380D01*
X88842019Y-40866190D01*
X88699161Y-40866190D01*
X88651542Y-40842380D01*
X88627733Y-40818571D01*
X87999852Y-43279190D02*
X87999852Y-42779190D01*
X88118900Y-42779190D01*
X88190328Y-42803000D01*
X88237947Y-42850619D01*
X88261757Y-42898238D01*
X88285566Y-42993476D01*
X88285566Y-43064904D01*
X88261757Y-43160142D01*
X88237947Y-43207761D01*
X88190328Y-43255380D01*
X88118900Y-43279190D01*
X87999852Y-43279190D01*
X88737947Y-42779190D02*
X88499852Y-42779190D01*
X88476042Y-43017285D01*
X88499852Y-42993476D01*
X88547471Y-42969666D01*
X88666519Y-42969666D01*
X88714138Y-42993476D01*
X88737947Y-43017285D01*
X88761757Y-43064904D01*
X88761757Y-43183952D01*
X88737947Y-43231571D01*
X88714138Y-43255380D01*
X88666519Y-43279190D01*
X88547471Y-43279190D01*
X88499852Y-43255380D01*
X88476042Y-43231571D01*
X78116952Y-43660190D02*
X78116952Y-43160190D01*
X78236000Y-43160190D01*
X78307428Y-43184000D01*
X78355047Y-43231619D01*
X78378857Y-43279238D01*
X78402666Y-43374476D01*
X78402666Y-43445904D01*
X78378857Y-43541142D01*
X78355047Y-43588761D01*
X78307428Y-43636380D01*
X78236000Y-43660190D01*
X78116952Y-43660190D01*
X78831238Y-43326857D02*
X78831238Y-43660190D01*
X78712190Y-43136380D02*
X78593142Y-43493523D01*
X78902666Y-43493523D01*
X77557333Y-40604285D02*
X77390666Y-40604285D01*
X77390666Y-40866190D02*
X77390666Y-40366190D01*
X77628761Y-40366190D01*
X78081142Y-40866190D02*
X77795428Y-40866190D01*
X77938285Y-40866190D02*
X77938285Y-40366190D01*
X77890666Y-40437619D01*
X77843047Y-40485238D01*
X77795428Y-40509047D01*
X100810190Y-53804333D02*
X100572095Y-53971000D01*
X100810190Y-54090047D02*
X100310190Y-54090047D01*
X100310190Y-53899571D01*
X100334000Y-53851952D01*
X100357809Y-53828142D01*
X100405428Y-53804333D01*
X100476857Y-53804333D01*
X100524476Y-53828142D01*
X100548285Y-53851952D01*
X100572095Y-53899571D01*
X100572095Y-54090047D01*
X100810190Y-53328142D02*
X100810190Y-53613857D01*
X100810190Y-53471000D02*
X100310190Y-53471000D01*
X100381619Y-53518619D01*
X100429238Y-53566238D01*
X100453047Y-53613857D01*
X101064190Y-44990533D02*
X100826095Y-45157200D01*
X101064190Y-45276247D02*
X100564190Y-45276247D01*
X100564190Y-45085771D01*
X100588000Y-45038152D01*
X100611809Y-45014342D01*
X100659428Y-44990533D01*
X100730857Y-44990533D01*
X100778476Y-45014342D01*
X100802285Y-45038152D01*
X100826095Y-45085771D01*
X100826095Y-45276247D01*
X100611809Y-44800057D02*
X100588000Y-44776247D01*
X100564190Y-44728628D01*
X100564190Y-44609580D01*
X100588000Y-44561961D01*
X100611809Y-44538152D01*
X100659428Y-44514342D01*
X100707047Y-44514342D01*
X100778476Y-44538152D01*
X101064190Y-44823866D01*
X101064190Y-44514342D01*
X91158190Y-67901333D02*
X90920095Y-68068000D01*
X91158190Y-68187047D02*
X90658190Y-68187047D01*
X90658190Y-67996571D01*
X90682000Y-67948952D01*
X90705809Y-67925142D01*
X90753428Y-67901333D01*
X90824857Y-67901333D01*
X90872476Y-67925142D01*
X90896285Y-67948952D01*
X90920095Y-67996571D01*
X90920095Y-68187047D01*
X91158190Y-67663238D02*
X91158190Y-67568000D01*
X91134380Y-67520380D01*
X91110571Y-67496571D01*
X91039142Y-67448952D01*
X90943904Y-67425142D01*
X90753428Y-67425142D01*
X90705809Y-67448952D01*
X90682000Y-67472761D01*
X90658190Y-67520380D01*
X90658190Y-67615619D01*
X90682000Y-67663238D01*
X90705809Y-67687047D01*
X90753428Y-67710857D01*
X90872476Y-67710857D01*
X90920095Y-67687047D01*
X90943904Y-67663238D01*
X90967714Y-67615619D01*
X90967714Y-67520380D01*
X90943904Y-67472761D01*
X90920095Y-67448952D01*
X90872476Y-67425142D01*
X93190190Y-68190228D02*
X92952095Y-68356895D01*
X93190190Y-68475942D02*
X92690190Y-68475942D01*
X92690190Y-68285466D01*
X92714000Y-68237847D01*
X92737809Y-68214038D01*
X92785428Y-68190228D01*
X92856857Y-68190228D01*
X92904476Y-68214038D01*
X92928285Y-68237847D01*
X92952095Y-68285466D01*
X92952095Y-68475942D01*
X93190190Y-67714038D02*
X93190190Y-67999752D01*
X93190190Y-67856895D02*
X92690190Y-67856895D01*
X92761619Y-67904514D01*
X92809238Y-67952133D01*
X92833047Y-67999752D01*
X92690190Y-67404514D02*
X92690190Y-67356895D01*
X92714000Y-67309276D01*
X92737809Y-67285466D01*
X92785428Y-67261657D01*
X92880666Y-67237847D01*
X92999714Y-67237847D01*
X93094952Y-67261657D01*
X93142571Y-67285466D01*
X93166380Y-67309276D01*
X93190190Y-67356895D01*
X93190190Y-67404514D01*
X93166380Y-67452133D01*
X93142571Y-67475942D01*
X93094952Y-67499752D01*
X92999714Y-67523561D01*
X92880666Y-67523561D01*
X92785428Y-67499752D01*
X92737809Y-67475942D01*
X92714000Y-67452133D01*
X92690190Y-67404514D01*
X95349190Y-68139428D02*
X95111095Y-68306095D01*
X95349190Y-68425142D02*
X94849190Y-68425142D01*
X94849190Y-68234666D01*
X94873000Y-68187047D01*
X94896809Y-68163238D01*
X94944428Y-68139428D01*
X95015857Y-68139428D01*
X95063476Y-68163238D01*
X95087285Y-68187047D01*
X95111095Y-68234666D01*
X95111095Y-68425142D01*
X95349190Y-67663238D02*
X95349190Y-67948952D01*
X95349190Y-67806095D02*
X94849190Y-67806095D01*
X94920619Y-67853714D01*
X94968238Y-67901333D01*
X94992047Y-67948952D01*
X95349190Y-67187047D02*
X95349190Y-67472761D01*
X95349190Y-67329904D02*
X94849190Y-67329904D01*
X94920619Y-67377523D01*
X94968238Y-67425142D01*
X94992047Y-67472761D01*
X95603190Y-53169333D02*
X95365095Y-53336000D01*
X95603190Y-53455047D02*
X95103190Y-53455047D01*
X95103190Y-53264571D01*
X95127000Y-53216952D01*
X95150809Y-53193142D01*
X95198428Y-53169333D01*
X95269857Y-53169333D01*
X95317476Y-53193142D01*
X95341285Y-53216952D01*
X95365095Y-53264571D01*
X95365095Y-53455047D01*
X95103190Y-53002666D02*
X95103190Y-52693142D01*
X95293666Y-52859809D01*
X95293666Y-52788380D01*
X95317476Y-52740761D01*
X95341285Y-52716952D01*
X95388904Y-52693142D01*
X95507952Y-52693142D01*
X95555571Y-52716952D01*
X95579380Y-52740761D01*
X95603190Y-52788380D01*
X95603190Y-52931238D01*
X95579380Y-52978857D01*
X95555571Y-53002666D01*
X93825190Y-53169333D02*
X93587095Y-53336000D01*
X93825190Y-53455047D02*
X93325190Y-53455047D01*
X93325190Y-53264571D01*
X93349000Y-53216952D01*
X93372809Y-53193142D01*
X93420428Y-53169333D01*
X93491857Y-53169333D01*
X93539476Y-53193142D01*
X93563285Y-53216952D01*
X93587095Y-53264571D01*
X93587095Y-53455047D01*
X93491857Y-52740761D02*
X93825190Y-52740761D01*
X93301380Y-52859809D02*
X93658523Y-52978857D01*
X93658523Y-52669333D01*
X91793190Y-53169333D02*
X91555095Y-53336000D01*
X91793190Y-53455047D02*
X91293190Y-53455047D01*
X91293190Y-53264571D01*
X91317000Y-53216952D01*
X91340809Y-53193142D01*
X91388428Y-53169333D01*
X91459857Y-53169333D01*
X91507476Y-53193142D01*
X91531285Y-53216952D01*
X91555095Y-53264571D01*
X91555095Y-53455047D01*
X91293190Y-52716952D02*
X91293190Y-52955047D01*
X91531285Y-52978857D01*
X91507476Y-52955047D01*
X91483666Y-52907428D01*
X91483666Y-52788380D01*
X91507476Y-52740761D01*
X91531285Y-52716952D01*
X91578904Y-52693142D01*
X91697952Y-52693142D01*
X91745571Y-52716952D01*
X91769380Y-52740761D01*
X91793190Y-52788380D01*
X91793190Y-52907428D01*
X91769380Y-52955047D01*
X91745571Y-52978857D01*
X93494990Y-49359333D02*
X93256895Y-49526000D01*
X93494990Y-49645047D02*
X92994990Y-49645047D01*
X92994990Y-49454571D01*
X93018800Y-49406952D01*
X93042609Y-49383142D01*
X93090228Y-49359333D01*
X93161657Y-49359333D01*
X93209276Y-49383142D01*
X93233085Y-49406952D01*
X93256895Y-49454571D01*
X93256895Y-49645047D01*
X92994990Y-48930761D02*
X92994990Y-49026000D01*
X93018800Y-49073619D01*
X93042609Y-49097428D01*
X93114038Y-49145047D01*
X93209276Y-49168857D01*
X93399752Y-49168857D01*
X93447371Y-49145047D01*
X93471180Y-49121238D01*
X93494990Y-49073619D01*
X93494990Y-48978380D01*
X93471180Y-48930761D01*
X93447371Y-48906952D01*
X93399752Y-48883142D01*
X93280704Y-48883142D01*
X93233085Y-48906952D01*
X93209276Y-48930761D01*
X93185466Y-48978380D01*
X93185466Y-49073619D01*
X93209276Y-49121238D01*
X93233085Y-49145047D01*
X93280704Y-49168857D01*
X91564590Y-49359333D02*
X91326495Y-49526000D01*
X91564590Y-49645047D02*
X91064590Y-49645047D01*
X91064590Y-49454571D01*
X91088400Y-49406952D01*
X91112209Y-49383142D01*
X91159828Y-49359333D01*
X91231257Y-49359333D01*
X91278876Y-49383142D01*
X91302685Y-49406952D01*
X91326495Y-49454571D01*
X91326495Y-49645047D01*
X91064590Y-49192666D02*
X91064590Y-48859333D01*
X91564590Y-49073619D01*
X95730190Y-49486333D02*
X95492095Y-49653000D01*
X95730190Y-49772047D02*
X95230190Y-49772047D01*
X95230190Y-49581571D01*
X95254000Y-49533952D01*
X95277809Y-49510142D01*
X95325428Y-49486333D01*
X95396857Y-49486333D01*
X95444476Y-49510142D01*
X95468285Y-49533952D01*
X95492095Y-49581571D01*
X95492095Y-49772047D01*
X95444476Y-49200619D02*
X95420666Y-49248238D01*
X95396857Y-49272047D01*
X95349238Y-49295857D01*
X95325428Y-49295857D01*
X95277809Y-49272047D01*
X95254000Y-49248238D01*
X95230190Y-49200619D01*
X95230190Y-49105380D01*
X95254000Y-49057761D01*
X95277809Y-49033952D01*
X95325428Y-49010142D01*
X95349238Y-49010142D01*
X95396857Y-49033952D01*
X95420666Y-49057761D01*
X95444476Y-49105380D01*
X95444476Y-49200619D01*
X95468285Y-49248238D01*
X95492095Y-49272047D01*
X95539714Y-49295857D01*
X95634952Y-49295857D01*
X95682571Y-49272047D01*
X95706380Y-49248238D01*
X95730190Y-49200619D01*
X95730190Y-49105380D01*
X95706380Y-49057761D01*
X95682571Y-49033952D01*
X95634952Y-49010142D01*
X95539714Y-49010142D01*
X95492095Y-49033952D01*
X95468285Y-49057761D01*
X95444476Y-49105380D01*
X89253190Y-68162528D02*
X89015095Y-68329195D01*
X89253190Y-68448242D02*
X88753190Y-68448242D01*
X88753190Y-68257766D01*
X88777000Y-68210147D01*
X88800809Y-68186338D01*
X88848428Y-68162528D01*
X88919857Y-68162528D01*
X88967476Y-68186338D01*
X88991285Y-68210147D01*
X89015095Y-68257766D01*
X89015095Y-68448242D01*
X89253190Y-67686338D02*
X89253190Y-67972052D01*
X89253190Y-67829195D02*
X88753190Y-67829195D01*
X88824619Y-67876814D01*
X88872238Y-67924433D01*
X88896047Y-67972052D01*
X88753190Y-67257766D02*
X88753190Y-67353004D01*
X88777000Y-67400623D01*
X88800809Y-67424433D01*
X88872238Y-67472052D01*
X88967476Y-67495861D01*
X89157952Y-67495861D01*
X89205571Y-67472052D01*
X89229380Y-67448242D01*
X89253190Y-67400623D01*
X89253190Y-67305385D01*
X89229380Y-67257766D01*
X89205571Y-67233957D01*
X89157952Y-67210147D01*
X89038904Y-67210147D01*
X88991285Y-67233957D01*
X88967476Y-67257766D01*
X88943666Y-67305385D01*
X88943666Y-67400623D01*
X88967476Y-67448242D01*
X88991285Y-67472052D01*
X89038904Y-67495861D01*
X85189190Y-68162528D02*
X84951095Y-68329195D01*
X85189190Y-68448242D02*
X84689190Y-68448242D01*
X84689190Y-68257766D01*
X84713000Y-68210147D01*
X84736809Y-68186338D01*
X84784428Y-68162528D01*
X84855857Y-68162528D01*
X84903476Y-68186338D01*
X84927285Y-68210147D01*
X84951095Y-68257766D01*
X84951095Y-68448242D01*
X85189190Y-67686338D02*
X85189190Y-67972052D01*
X85189190Y-67829195D02*
X84689190Y-67829195D01*
X84760619Y-67876814D01*
X84808238Y-67924433D01*
X84832047Y-67972052D01*
X85189190Y-67448242D02*
X85189190Y-67353004D01*
X85165380Y-67305385D01*
X85141571Y-67281576D01*
X85070142Y-67233957D01*
X84974904Y-67210147D01*
X84784428Y-67210147D01*
X84736809Y-67233957D01*
X84713000Y-67257766D01*
X84689190Y-67305385D01*
X84689190Y-67400623D01*
X84713000Y-67448242D01*
X84736809Y-67472052D01*
X84784428Y-67495861D01*
X84903476Y-67495861D01*
X84951095Y-67472052D01*
X84974904Y-67448242D01*
X84998714Y-67400623D01*
X84998714Y-67305385D01*
X84974904Y-67257766D01*
X84951095Y-67233957D01*
X84903476Y-67210147D01*
X70711190Y-65464019D02*
X70473095Y-65630685D01*
X70711190Y-65749733D02*
X70211190Y-65749733D01*
X70211190Y-65559257D01*
X70235000Y-65511638D01*
X70258809Y-65487828D01*
X70306428Y-65464019D01*
X70377857Y-65464019D01*
X70425476Y-65487828D01*
X70449285Y-65511638D01*
X70473095Y-65559257D01*
X70473095Y-65749733D01*
X70211190Y-65321161D02*
X70711190Y-65154495D01*
X70211190Y-64987828D01*
X70711190Y-64559257D02*
X70711190Y-64844971D01*
X70711190Y-64702114D02*
X70211190Y-64702114D01*
X70282619Y-64749733D01*
X70330238Y-64797352D01*
X70354047Y-64844971D01*
X66929047Y-45065190D02*
X66929047Y-45469952D01*
X66952857Y-45517571D01*
X66976666Y-45541380D01*
X67024285Y-45565190D01*
X67119523Y-45565190D01*
X67167142Y-45541380D01*
X67190952Y-45517571D01*
X67214761Y-45469952D01*
X67214761Y-45065190D01*
X67714761Y-45565190D02*
X67429047Y-45565190D01*
X67571904Y-45565190D02*
X67571904Y-45065190D01*
X67524285Y-45136619D01*
X67476666Y-45184238D01*
X67429047Y-45208047D01*
X78593190Y-53228952D02*
X78997952Y-53228952D01*
X79045571Y-53205142D01*
X79069380Y-53181333D01*
X79093190Y-53133714D01*
X79093190Y-53038476D01*
X79069380Y-52990857D01*
X79045571Y-52967047D01*
X78997952Y-52943238D01*
X78593190Y-52943238D01*
X78640809Y-52728952D02*
X78617000Y-52705142D01*
X78593190Y-52657523D01*
X78593190Y-52538476D01*
X78617000Y-52490857D01*
X78640809Y-52467047D01*
X78688428Y-52443238D01*
X78736047Y-52443238D01*
X78807476Y-52467047D01*
X79093190Y-52752761D01*
X79093190Y-52443238D01*
X81361790Y-76022152D02*
X81766552Y-76022152D01*
X81814171Y-75998342D01*
X81837980Y-75974533D01*
X81861790Y-75926914D01*
X81861790Y-75831676D01*
X81837980Y-75784057D01*
X81814171Y-75760247D01*
X81766552Y-75736438D01*
X81361790Y-75736438D01*
X81361790Y-75284057D02*
X81361790Y-75379295D01*
X81385600Y-75426914D01*
X81409409Y-75450723D01*
X81480838Y-75498342D01*
X81576076Y-75522152D01*
X81766552Y-75522152D01*
X81814171Y-75498342D01*
X81837980Y-75474533D01*
X81861790Y-75426914D01*
X81861790Y-75331676D01*
X81837980Y-75284057D01*
X81814171Y-75260247D01*
X81766552Y-75236438D01*
X81647504Y-75236438D01*
X81599885Y-75260247D01*
X81576076Y-75284057D01*
X81552266Y-75331676D01*
X81552266Y-75426914D01*
X81576076Y-75474533D01*
X81599885Y-75498342D01*
X81647504Y-75522152D01*
X91567047Y-64800990D02*
X91567047Y-65205752D01*
X91590857Y-65253371D01*
X91614666Y-65277180D01*
X91662285Y-65300990D01*
X91757523Y-65300990D01*
X91805142Y-65277180D01*
X91828952Y-65253371D01*
X91852761Y-65205752D01*
X91852761Y-64800990D01*
X92043238Y-64800990D02*
X92352761Y-64800990D01*
X92186095Y-64991466D01*
X92257523Y-64991466D01*
X92305142Y-65015276D01*
X92328952Y-65039085D01*
X92352761Y-65086704D01*
X92352761Y-65205752D01*
X92328952Y-65253371D01*
X92305142Y-65277180D01*
X92257523Y-65300990D01*
X92114666Y-65300990D01*
X92067047Y-65277180D01*
X92043238Y-65253371D01*
X81102247Y-62921390D02*
X81102247Y-63326152D01*
X81126057Y-63373771D01*
X81149866Y-63397580D01*
X81197485Y-63421390D01*
X81292723Y-63421390D01*
X81340342Y-63397580D01*
X81364152Y-63373771D01*
X81387961Y-63326152D01*
X81387961Y-62921390D01*
X81864152Y-62921390D02*
X81626057Y-62921390D01*
X81602247Y-63159485D01*
X81626057Y-63135676D01*
X81673676Y-63111866D01*
X81792723Y-63111866D01*
X81840342Y-63135676D01*
X81864152Y-63159485D01*
X81887961Y-63207104D01*
X81887961Y-63326152D01*
X81864152Y-63373771D01*
X81840342Y-63397580D01*
X81792723Y-63421390D01*
X81673676Y-63421390D01*
X81626057Y-63397580D01*
X81602247Y-63373771D01*
M02*
