G04 #@! TF.GenerationSoftware,KiCad,Pcbnew,(5.1.0)-1*
G04 #@! TF.CreationDate,2019-05-21T17:29:50+05:30*
G04 #@! TF.ProjectId,Console,436f6e73-6f6c-4652-9e6b-696361645f70,2.0.1*
G04 #@! TF.SameCoordinates,Original*
G04 #@! TF.FileFunction,Paste,Top*
G04 #@! TF.FilePolarity,Positive*
%FSLAX46Y46*%
G04 Gerber Fmt 4.6, Leading zero omitted, Abs format (unit mm)*
G04 Created by KiCad (PCBNEW (5.1.0)-1) date 2019-05-21 17:29:50*
%MOMM*%
%LPD*%
G04 APERTURE LIST*
%ADD10R,2.750000X3.050000*%
%ADD11R,1.200000X2.200000*%
%ADD12C,0.100000*%
%ADD13C,0.975000*%
%ADD14R,1.100000X0.400000*%
%ADD15C,1.250000*%
%ADD16R,2.200000X1.200000*%
%ADD17R,3.050000X2.750000*%
%ADD18R,0.350000X0.600000*%
%ADD19R,0.600000X0.350000*%
%ADD20R,0.600000X2.000000*%
%ADD21R,1.750000X0.450000*%
G04 APERTURE END LIST*
D10*
X110694200Y-45058200D03*
X107644200Y-41708200D03*
X107644200Y-45058200D03*
X110694200Y-41708200D03*
D11*
X111449200Y-49683200D03*
X109169200Y-49683200D03*
X106889200Y-49683200D03*
D12*
G36*
X89684942Y-82114474D02*
G01*
X89708603Y-82117984D01*
X89731807Y-82123796D01*
X89754329Y-82131854D01*
X89775953Y-82142082D01*
X89796470Y-82154379D01*
X89815683Y-82168629D01*
X89833407Y-82184693D01*
X89849471Y-82202417D01*
X89863721Y-82221630D01*
X89876018Y-82242147D01*
X89886246Y-82263771D01*
X89894304Y-82286293D01*
X89900116Y-82309497D01*
X89903626Y-82333158D01*
X89904800Y-82357050D01*
X89904800Y-82844550D01*
X89903626Y-82868442D01*
X89900116Y-82892103D01*
X89894304Y-82915307D01*
X89886246Y-82937829D01*
X89876018Y-82959453D01*
X89863721Y-82979970D01*
X89849471Y-82999183D01*
X89833407Y-83016907D01*
X89815683Y-83032971D01*
X89796470Y-83047221D01*
X89775953Y-83059518D01*
X89754329Y-83069746D01*
X89731807Y-83077804D01*
X89708603Y-83083616D01*
X89684942Y-83087126D01*
X89661050Y-83088300D01*
X88748550Y-83088300D01*
X88724658Y-83087126D01*
X88700997Y-83083616D01*
X88677793Y-83077804D01*
X88655271Y-83069746D01*
X88633647Y-83059518D01*
X88613130Y-83047221D01*
X88593917Y-83032971D01*
X88576193Y-83016907D01*
X88560129Y-82999183D01*
X88545879Y-82979970D01*
X88533582Y-82959453D01*
X88523354Y-82937829D01*
X88515296Y-82915307D01*
X88509484Y-82892103D01*
X88505974Y-82868442D01*
X88504800Y-82844550D01*
X88504800Y-82357050D01*
X88505974Y-82333158D01*
X88509484Y-82309497D01*
X88515296Y-82286293D01*
X88523354Y-82263771D01*
X88533582Y-82242147D01*
X88545879Y-82221630D01*
X88560129Y-82202417D01*
X88576193Y-82184693D01*
X88593917Y-82168629D01*
X88613130Y-82154379D01*
X88633647Y-82142082D01*
X88655271Y-82131854D01*
X88677793Y-82123796D01*
X88700997Y-82117984D01*
X88724658Y-82114474D01*
X88748550Y-82113300D01*
X89661050Y-82113300D01*
X89684942Y-82114474D01*
X89684942Y-82114474D01*
G37*
D13*
X89204800Y-82600800D03*
D12*
G36*
X89684942Y-83989474D02*
G01*
X89708603Y-83992984D01*
X89731807Y-83998796D01*
X89754329Y-84006854D01*
X89775953Y-84017082D01*
X89796470Y-84029379D01*
X89815683Y-84043629D01*
X89833407Y-84059693D01*
X89849471Y-84077417D01*
X89863721Y-84096630D01*
X89876018Y-84117147D01*
X89886246Y-84138771D01*
X89894304Y-84161293D01*
X89900116Y-84184497D01*
X89903626Y-84208158D01*
X89904800Y-84232050D01*
X89904800Y-84719550D01*
X89903626Y-84743442D01*
X89900116Y-84767103D01*
X89894304Y-84790307D01*
X89886246Y-84812829D01*
X89876018Y-84834453D01*
X89863721Y-84854970D01*
X89849471Y-84874183D01*
X89833407Y-84891907D01*
X89815683Y-84907971D01*
X89796470Y-84922221D01*
X89775953Y-84934518D01*
X89754329Y-84944746D01*
X89731807Y-84952804D01*
X89708603Y-84958616D01*
X89684942Y-84962126D01*
X89661050Y-84963300D01*
X88748550Y-84963300D01*
X88724658Y-84962126D01*
X88700997Y-84958616D01*
X88677793Y-84952804D01*
X88655271Y-84944746D01*
X88633647Y-84934518D01*
X88613130Y-84922221D01*
X88593917Y-84907971D01*
X88576193Y-84891907D01*
X88560129Y-84874183D01*
X88545879Y-84854970D01*
X88533582Y-84834453D01*
X88523354Y-84812829D01*
X88515296Y-84790307D01*
X88509484Y-84767103D01*
X88505974Y-84743442D01*
X88504800Y-84719550D01*
X88504800Y-84232050D01*
X88505974Y-84208158D01*
X88509484Y-84184497D01*
X88515296Y-84161293D01*
X88523354Y-84138771D01*
X88533582Y-84117147D01*
X88545879Y-84096630D01*
X88560129Y-84077417D01*
X88576193Y-84059693D01*
X88593917Y-84043629D01*
X88613130Y-84029379D01*
X88633647Y-84017082D01*
X88655271Y-84006854D01*
X88677793Y-83998796D01*
X88700997Y-83992984D01*
X88724658Y-83989474D01*
X88748550Y-83988300D01*
X89661050Y-83988300D01*
X89684942Y-83989474D01*
X89684942Y-83989474D01*
G37*
D13*
X89204800Y-84475800D03*
D12*
G36*
X104989542Y-48119974D02*
G01*
X105013203Y-48123484D01*
X105036407Y-48129296D01*
X105058929Y-48137354D01*
X105080553Y-48147582D01*
X105101070Y-48159879D01*
X105120283Y-48174129D01*
X105138007Y-48190193D01*
X105154071Y-48207917D01*
X105168321Y-48227130D01*
X105180618Y-48247647D01*
X105190846Y-48269271D01*
X105198904Y-48291793D01*
X105204716Y-48314997D01*
X105208226Y-48338658D01*
X105209400Y-48362550D01*
X105209400Y-49275050D01*
X105208226Y-49298942D01*
X105204716Y-49322603D01*
X105198904Y-49345807D01*
X105190846Y-49368329D01*
X105180618Y-49389953D01*
X105168321Y-49410470D01*
X105154071Y-49429683D01*
X105138007Y-49447407D01*
X105120283Y-49463471D01*
X105101070Y-49477721D01*
X105080553Y-49490018D01*
X105058929Y-49500246D01*
X105036407Y-49508304D01*
X105013203Y-49514116D01*
X104989542Y-49517626D01*
X104965650Y-49518800D01*
X104478150Y-49518800D01*
X104454258Y-49517626D01*
X104430597Y-49514116D01*
X104407393Y-49508304D01*
X104384871Y-49500246D01*
X104363247Y-49490018D01*
X104342730Y-49477721D01*
X104323517Y-49463471D01*
X104305793Y-49447407D01*
X104289729Y-49429683D01*
X104275479Y-49410470D01*
X104263182Y-49389953D01*
X104252954Y-49368329D01*
X104244896Y-49345807D01*
X104239084Y-49322603D01*
X104235574Y-49298942D01*
X104234400Y-49275050D01*
X104234400Y-48362550D01*
X104235574Y-48338658D01*
X104239084Y-48314997D01*
X104244896Y-48291793D01*
X104252954Y-48269271D01*
X104263182Y-48247647D01*
X104275479Y-48227130D01*
X104289729Y-48207917D01*
X104305793Y-48190193D01*
X104323517Y-48174129D01*
X104342730Y-48159879D01*
X104363247Y-48147582D01*
X104384871Y-48137354D01*
X104407393Y-48129296D01*
X104430597Y-48123484D01*
X104454258Y-48119974D01*
X104478150Y-48118800D01*
X104965650Y-48118800D01*
X104989542Y-48119974D01*
X104989542Y-48119974D01*
G37*
D13*
X104721900Y-48818800D03*
D12*
G36*
X103114542Y-48119974D02*
G01*
X103138203Y-48123484D01*
X103161407Y-48129296D01*
X103183929Y-48137354D01*
X103205553Y-48147582D01*
X103226070Y-48159879D01*
X103245283Y-48174129D01*
X103263007Y-48190193D01*
X103279071Y-48207917D01*
X103293321Y-48227130D01*
X103305618Y-48247647D01*
X103315846Y-48269271D01*
X103323904Y-48291793D01*
X103329716Y-48314997D01*
X103333226Y-48338658D01*
X103334400Y-48362550D01*
X103334400Y-49275050D01*
X103333226Y-49298942D01*
X103329716Y-49322603D01*
X103323904Y-49345807D01*
X103315846Y-49368329D01*
X103305618Y-49389953D01*
X103293321Y-49410470D01*
X103279071Y-49429683D01*
X103263007Y-49447407D01*
X103245283Y-49463471D01*
X103226070Y-49477721D01*
X103205553Y-49490018D01*
X103183929Y-49500246D01*
X103161407Y-49508304D01*
X103138203Y-49514116D01*
X103114542Y-49517626D01*
X103090650Y-49518800D01*
X102603150Y-49518800D01*
X102579258Y-49517626D01*
X102555597Y-49514116D01*
X102532393Y-49508304D01*
X102509871Y-49500246D01*
X102488247Y-49490018D01*
X102467730Y-49477721D01*
X102448517Y-49463471D01*
X102430793Y-49447407D01*
X102414729Y-49429683D01*
X102400479Y-49410470D01*
X102388182Y-49389953D01*
X102377954Y-49368329D01*
X102369896Y-49345807D01*
X102364084Y-49322603D01*
X102360574Y-49298942D01*
X102359400Y-49275050D01*
X102359400Y-48362550D01*
X102360574Y-48338658D01*
X102364084Y-48314997D01*
X102369896Y-48291793D01*
X102377954Y-48269271D01*
X102388182Y-48247647D01*
X102400479Y-48227130D01*
X102414729Y-48207917D01*
X102430793Y-48190193D01*
X102448517Y-48174129D01*
X102467730Y-48159879D01*
X102488247Y-48147582D01*
X102509871Y-48137354D01*
X102532393Y-48129296D01*
X102555597Y-48123484D01*
X102579258Y-48119974D01*
X102603150Y-48118800D01*
X103090650Y-48118800D01*
X103114542Y-48119974D01*
X103114542Y-48119974D01*
G37*
D13*
X102846900Y-48818800D03*
D12*
G36*
X95476142Y-82165274D02*
G01*
X95499803Y-82168784D01*
X95523007Y-82174596D01*
X95545529Y-82182654D01*
X95567153Y-82192882D01*
X95587670Y-82205179D01*
X95606883Y-82219429D01*
X95624607Y-82235493D01*
X95640671Y-82253217D01*
X95654921Y-82272430D01*
X95667218Y-82292947D01*
X95677446Y-82314571D01*
X95685504Y-82337093D01*
X95691316Y-82360297D01*
X95694826Y-82383958D01*
X95696000Y-82407850D01*
X95696000Y-82895350D01*
X95694826Y-82919242D01*
X95691316Y-82942903D01*
X95685504Y-82966107D01*
X95677446Y-82988629D01*
X95667218Y-83010253D01*
X95654921Y-83030770D01*
X95640671Y-83049983D01*
X95624607Y-83067707D01*
X95606883Y-83083771D01*
X95587670Y-83098021D01*
X95567153Y-83110318D01*
X95545529Y-83120546D01*
X95523007Y-83128604D01*
X95499803Y-83134416D01*
X95476142Y-83137926D01*
X95452250Y-83139100D01*
X94539750Y-83139100D01*
X94515858Y-83137926D01*
X94492197Y-83134416D01*
X94468993Y-83128604D01*
X94446471Y-83120546D01*
X94424847Y-83110318D01*
X94404330Y-83098021D01*
X94385117Y-83083771D01*
X94367393Y-83067707D01*
X94351329Y-83049983D01*
X94337079Y-83030770D01*
X94324782Y-83010253D01*
X94314554Y-82988629D01*
X94306496Y-82966107D01*
X94300684Y-82942903D01*
X94297174Y-82919242D01*
X94296000Y-82895350D01*
X94296000Y-82407850D01*
X94297174Y-82383958D01*
X94300684Y-82360297D01*
X94306496Y-82337093D01*
X94314554Y-82314571D01*
X94324782Y-82292947D01*
X94337079Y-82272430D01*
X94351329Y-82253217D01*
X94367393Y-82235493D01*
X94385117Y-82219429D01*
X94404330Y-82205179D01*
X94424847Y-82192882D01*
X94446471Y-82182654D01*
X94468993Y-82174596D01*
X94492197Y-82168784D01*
X94515858Y-82165274D01*
X94539750Y-82164100D01*
X95452250Y-82164100D01*
X95476142Y-82165274D01*
X95476142Y-82165274D01*
G37*
D13*
X94996000Y-82651600D03*
D12*
G36*
X95476142Y-84040274D02*
G01*
X95499803Y-84043784D01*
X95523007Y-84049596D01*
X95545529Y-84057654D01*
X95567153Y-84067882D01*
X95587670Y-84080179D01*
X95606883Y-84094429D01*
X95624607Y-84110493D01*
X95640671Y-84128217D01*
X95654921Y-84147430D01*
X95667218Y-84167947D01*
X95677446Y-84189571D01*
X95685504Y-84212093D01*
X95691316Y-84235297D01*
X95694826Y-84258958D01*
X95696000Y-84282850D01*
X95696000Y-84770350D01*
X95694826Y-84794242D01*
X95691316Y-84817903D01*
X95685504Y-84841107D01*
X95677446Y-84863629D01*
X95667218Y-84885253D01*
X95654921Y-84905770D01*
X95640671Y-84924983D01*
X95624607Y-84942707D01*
X95606883Y-84958771D01*
X95587670Y-84973021D01*
X95567153Y-84985318D01*
X95545529Y-84995546D01*
X95523007Y-85003604D01*
X95499803Y-85009416D01*
X95476142Y-85012926D01*
X95452250Y-85014100D01*
X94539750Y-85014100D01*
X94515858Y-85012926D01*
X94492197Y-85009416D01*
X94468993Y-85003604D01*
X94446471Y-84995546D01*
X94424847Y-84985318D01*
X94404330Y-84973021D01*
X94385117Y-84958771D01*
X94367393Y-84942707D01*
X94351329Y-84924983D01*
X94337079Y-84905770D01*
X94324782Y-84885253D01*
X94314554Y-84863629D01*
X94306496Y-84841107D01*
X94300684Y-84817903D01*
X94297174Y-84794242D01*
X94296000Y-84770350D01*
X94296000Y-84282850D01*
X94297174Y-84258958D01*
X94300684Y-84235297D01*
X94306496Y-84212093D01*
X94314554Y-84189571D01*
X94324782Y-84167947D01*
X94337079Y-84147430D01*
X94351329Y-84128217D01*
X94367393Y-84110493D01*
X94385117Y-84094429D01*
X94404330Y-84080179D01*
X94424847Y-84067882D01*
X94446471Y-84057654D01*
X94468993Y-84049596D01*
X94492197Y-84043784D01*
X94515858Y-84040274D01*
X94539750Y-84039100D01*
X95452250Y-84039100D01*
X95476142Y-84040274D01*
X95476142Y-84040274D01*
G37*
D13*
X94996000Y-84526600D03*
D12*
G36*
X105017242Y-52539574D02*
G01*
X105040903Y-52543084D01*
X105064107Y-52548896D01*
X105086629Y-52556954D01*
X105108253Y-52567182D01*
X105128770Y-52579479D01*
X105147983Y-52593729D01*
X105165707Y-52609793D01*
X105181771Y-52627517D01*
X105196021Y-52646730D01*
X105208318Y-52667247D01*
X105218546Y-52688871D01*
X105226604Y-52711393D01*
X105232416Y-52734597D01*
X105235926Y-52758258D01*
X105237100Y-52782150D01*
X105237100Y-53694650D01*
X105235926Y-53718542D01*
X105232416Y-53742203D01*
X105226604Y-53765407D01*
X105218546Y-53787929D01*
X105208318Y-53809553D01*
X105196021Y-53830070D01*
X105181771Y-53849283D01*
X105165707Y-53867007D01*
X105147983Y-53883071D01*
X105128770Y-53897321D01*
X105108253Y-53909618D01*
X105086629Y-53919846D01*
X105064107Y-53927904D01*
X105040903Y-53933716D01*
X105017242Y-53937226D01*
X104993350Y-53938400D01*
X104505850Y-53938400D01*
X104481958Y-53937226D01*
X104458297Y-53933716D01*
X104435093Y-53927904D01*
X104412571Y-53919846D01*
X104390947Y-53909618D01*
X104370430Y-53897321D01*
X104351217Y-53883071D01*
X104333493Y-53867007D01*
X104317429Y-53849283D01*
X104303179Y-53830070D01*
X104290882Y-53809553D01*
X104280654Y-53787929D01*
X104272596Y-53765407D01*
X104266784Y-53742203D01*
X104263274Y-53718542D01*
X104262100Y-53694650D01*
X104262100Y-52782150D01*
X104263274Y-52758258D01*
X104266784Y-52734597D01*
X104272596Y-52711393D01*
X104280654Y-52688871D01*
X104290882Y-52667247D01*
X104303179Y-52646730D01*
X104317429Y-52627517D01*
X104333493Y-52609793D01*
X104351217Y-52593729D01*
X104370430Y-52579479D01*
X104390947Y-52567182D01*
X104412571Y-52556954D01*
X104435093Y-52548896D01*
X104458297Y-52543084D01*
X104481958Y-52539574D01*
X104505850Y-52538400D01*
X104993350Y-52538400D01*
X105017242Y-52539574D01*
X105017242Y-52539574D01*
G37*
D13*
X104749600Y-53238400D03*
D12*
G36*
X103142242Y-52539574D02*
G01*
X103165903Y-52543084D01*
X103189107Y-52548896D01*
X103211629Y-52556954D01*
X103233253Y-52567182D01*
X103253770Y-52579479D01*
X103272983Y-52593729D01*
X103290707Y-52609793D01*
X103306771Y-52627517D01*
X103321021Y-52646730D01*
X103333318Y-52667247D01*
X103343546Y-52688871D01*
X103351604Y-52711393D01*
X103357416Y-52734597D01*
X103360926Y-52758258D01*
X103362100Y-52782150D01*
X103362100Y-53694650D01*
X103360926Y-53718542D01*
X103357416Y-53742203D01*
X103351604Y-53765407D01*
X103343546Y-53787929D01*
X103333318Y-53809553D01*
X103321021Y-53830070D01*
X103306771Y-53849283D01*
X103290707Y-53867007D01*
X103272983Y-53883071D01*
X103253770Y-53897321D01*
X103233253Y-53909618D01*
X103211629Y-53919846D01*
X103189107Y-53927904D01*
X103165903Y-53933716D01*
X103142242Y-53937226D01*
X103118350Y-53938400D01*
X102630850Y-53938400D01*
X102606958Y-53937226D01*
X102583297Y-53933716D01*
X102560093Y-53927904D01*
X102537571Y-53919846D01*
X102515947Y-53909618D01*
X102495430Y-53897321D01*
X102476217Y-53883071D01*
X102458493Y-53867007D01*
X102442429Y-53849283D01*
X102428179Y-53830070D01*
X102415882Y-53809553D01*
X102405654Y-53787929D01*
X102397596Y-53765407D01*
X102391784Y-53742203D01*
X102388274Y-53718542D01*
X102387100Y-53694650D01*
X102387100Y-52782150D01*
X102388274Y-52758258D01*
X102391784Y-52734597D01*
X102397596Y-52711393D01*
X102405654Y-52688871D01*
X102415882Y-52667247D01*
X102428179Y-52646730D01*
X102442429Y-52627517D01*
X102458493Y-52609793D01*
X102476217Y-52593729D01*
X102495430Y-52579479D01*
X102515947Y-52567182D01*
X102537571Y-52556954D01*
X102560093Y-52548896D01*
X102583297Y-52543084D01*
X102606958Y-52539574D01*
X102630850Y-52538400D01*
X103118350Y-52538400D01*
X103142242Y-52539574D01*
X103142242Y-52539574D01*
G37*
D13*
X102874600Y-53238400D03*
D12*
G36*
X105017242Y-50304374D02*
G01*
X105040903Y-50307884D01*
X105064107Y-50313696D01*
X105086629Y-50321754D01*
X105108253Y-50331982D01*
X105128770Y-50344279D01*
X105147983Y-50358529D01*
X105165707Y-50374593D01*
X105181771Y-50392317D01*
X105196021Y-50411530D01*
X105208318Y-50432047D01*
X105218546Y-50453671D01*
X105226604Y-50476193D01*
X105232416Y-50499397D01*
X105235926Y-50523058D01*
X105237100Y-50546950D01*
X105237100Y-51459450D01*
X105235926Y-51483342D01*
X105232416Y-51507003D01*
X105226604Y-51530207D01*
X105218546Y-51552729D01*
X105208318Y-51574353D01*
X105196021Y-51594870D01*
X105181771Y-51614083D01*
X105165707Y-51631807D01*
X105147983Y-51647871D01*
X105128770Y-51662121D01*
X105108253Y-51674418D01*
X105086629Y-51684646D01*
X105064107Y-51692704D01*
X105040903Y-51698516D01*
X105017242Y-51702026D01*
X104993350Y-51703200D01*
X104505850Y-51703200D01*
X104481958Y-51702026D01*
X104458297Y-51698516D01*
X104435093Y-51692704D01*
X104412571Y-51684646D01*
X104390947Y-51674418D01*
X104370430Y-51662121D01*
X104351217Y-51647871D01*
X104333493Y-51631807D01*
X104317429Y-51614083D01*
X104303179Y-51594870D01*
X104290882Y-51574353D01*
X104280654Y-51552729D01*
X104272596Y-51530207D01*
X104266784Y-51507003D01*
X104263274Y-51483342D01*
X104262100Y-51459450D01*
X104262100Y-50546950D01*
X104263274Y-50523058D01*
X104266784Y-50499397D01*
X104272596Y-50476193D01*
X104280654Y-50453671D01*
X104290882Y-50432047D01*
X104303179Y-50411530D01*
X104317429Y-50392317D01*
X104333493Y-50374593D01*
X104351217Y-50358529D01*
X104370430Y-50344279D01*
X104390947Y-50331982D01*
X104412571Y-50321754D01*
X104435093Y-50313696D01*
X104458297Y-50307884D01*
X104481958Y-50304374D01*
X104505850Y-50303200D01*
X104993350Y-50303200D01*
X105017242Y-50304374D01*
X105017242Y-50304374D01*
G37*
D13*
X104749600Y-51003200D03*
D12*
G36*
X103142242Y-50304374D02*
G01*
X103165903Y-50307884D01*
X103189107Y-50313696D01*
X103211629Y-50321754D01*
X103233253Y-50331982D01*
X103253770Y-50344279D01*
X103272983Y-50358529D01*
X103290707Y-50374593D01*
X103306771Y-50392317D01*
X103321021Y-50411530D01*
X103333318Y-50432047D01*
X103343546Y-50453671D01*
X103351604Y-50476193D01*
X103357416Y-50499397D01*
X103360926Y-50523058D01*
X103362100Y-50546950D01*
X103362100Y-51459450D01*
X103360926Y-51483342D01*
X103357416Y-51507003D01*
X103351604Y-51530207D01*
X103343546Y-51552729D01*
X103333318Y-51574353D01*
X103321021Y-51594870D01*
X103306771Y-51614083D01*
X103290707Y-51631807D01*
X103272983Y-51647871D01*
X103253770Y-51662121D01*
X103233253Y-51674418D01*
X103211629Y-51684646D01*
X103189107Y-51692704D01*
X103165903Y-51698516D01*
X103142242Y-51702026D01*
X103118350Y-51703200D01*
X102630850Y-51703200D01*
X102606958Y-51702026D01*
X102583297Y-51698516D01*
X102560093Y-51692704D01*
X102537571Y-51684646D01*
X102515947Y-51674418D01*
X102495430Y-51662121D01*
X102476217Y-51647871D01*
X102458493Y-51631807D01*
X102442429Y-51614083D01*
X102428179Y-51594870D01*
X102415882Y-51574353D01*
X102405654Y-51552729D01*
X102397596Y-51530207D01*
X102391784Y-51507003D01*
X102388274Y-51483342D01*
X102387100Y-51459450D01*
X102387100Y-50546950D01*
X102388274Y-50523058D01*
X102391784Y-50499397D01*
X102397596Y-50476193D01*
X102405654Y-50453671D01*
X102415882Y-50432047D01*
X102428179Y-50411530D01*
X102442429Y-50392317D01*
X102458493Y-50374593D01*
X102476217Y-50358529D01*
X102495430Y-50344279D01*
X102515947Y-50331982D01*
X102537571Y-50321754D01*
X102560093Y-50313696D01*
X102583297Y-50307884D01*
X102606958Y-50304374D01*
X102630850Y-50303200D01*
X103118350Y-50303200D01*
X103142242Y-50304374D01*
X103142242Y-50304374D01*
G37*
D13*
X102874600Y-51003200D03*
D12*
G36*
X93545742Y-82142174D02*
G01*
X93569403Y-82145684D01*
X93592607Y-82151496D01*
X93615129Y-82159554D01*
X93636753Y-82169782D01*
X93657270Y-82182079D01*
X93676483Y-82196329D01*
X93694207Y-82212393D01*
X93710271Y-82230117D01*
X93724521Y-82249330D01*
X93736818Y-82269847D01*
X93747046Y-82291471D01*
X93755104Y-82313993D01*
X93760916Y-82337197D01*
X93764426Y-82360858D01*
X93765600Y-82384750D01*
X93765600Y-82872250D01*
X93764426Y-82896142D01*
X93760916Y-82919803D01*
X93755104Y-82943007D01*
X93747046Y-82965529D01*
X93736818Y-82987153D01*
X93724521Y-83007670D01*
X93710271Y-83026883D01*
X93694207Y-83044607D01*
X93676483Y-83060671D01*
X93657270Y-83074921D01*
X93636753Y-83087218D01*
X93615129Y-83097446D01*
X93592607Y-83105504D01*
X93569403Y-83111316D01*
X93545742Y-83114826D01*
X93521850Y-83116000D01*
X92609350Y-83116000D01*
X92585458Y-83114826D01*
X92561797Y-83111316D01*
X92538593Y-83105504D01*
X92516071Y-83097446D01*
X92494447Y-83087218D01*
X92473930Y-83074921D01*
X92454717Y-83060671D01*
X92436993Y-83044607D01*
X92420929Y-83026883D01*
X92406679Y-83007670D01*
X92394382Y-82987153D01*
X92384154Y-82965529D01*
X92376096Y-82943007D01*
X92370284Y-82919803D01*
X92366774Y-82896142D01*
X92365600Y-82872250D01*
X92365600Y-82384750D01*
X92366774Y-82360858D01*
X92370284Y-82337197D01*
X92376096Y-82313993D01*
X92384154Y-82291471D01*
X92394382Y-82269847D01*
X92406679Y-82249330D01*
X92420929Y-82230117D01*
X92436993Y-82212393D01*
X92454717Y-82196329D01*
X92473930Y-82182079D01*
X92494447Y-82169782D01*
X92516071Y-82159554D01*
X92538593Y-82151496D01*
X92561797Y-82145684D01*
X92585458Y-82142174D01*
X92609350Y-82141000D01*
X93521850Y-82141000D01*
X93545742Y-82142174D01*
X93545742Y-82142174D01*
G37*
D13*
X93065600Y-82628500D03*
D12*
G36*
X93545742Y-84017174D02*
G01*
X93569403Y-84020684D01*
X93592607Y-84026496D01*
X93615129Y-84034554D01*
X93636753Y-84044782D01*
X93657270Y-84057079D01*
X93676483Y-84071329D01*
X93694207Y-84087393D01*
X93710271Y-84105117D01*
X93724521Y-84124330D01*
X93736818Y-84144847D01*
X93747046Y-84166471D01*
X93755104Y-84188993D01*
X93760916Y-84212197D01*
X93764426Y-84235858D01*
X93765600Y-84259750D01*
X93765600Y-84747250D01*
X93764426Y-84771142D01*
X93760916Y-84794803D01*
X93755104Y-84818007D01*
X93747046Y-84840529D01*
X93736818Y-84862153D01*
X93724521Y-84882670D01*
X93710271Y-84901883D01*
X93694207Y-84919607D01*
X93676483Y-84935671D01*
X93657270Y-84949921D01*
X93636753Y-84962218D01*
X93615129Y-84972446D01*
X93592607Y-84980504D01*
X93569403Y-84986316D01*
X93545742Y-84989826D01*
X93521850Y-84991000D01*
X92609350Y-84991000D01*
X92585458Y-84989826D01*
X92561797Y-84986316D01*
X92538593Y-84980504D01*
X92516071Y-84972446D01*
X92494447Y-84962218D01*
X92473930Y-84949921D01*
X92454717Y-84935671D01*
X92436993Y-84919607D01*
X92420929Y-84901883D01*
X92406679Y-84882670D01*
X92394382Y-84862153D01*
X92384154Y-84840529D01*
X92376096Y-84818007D01*
X92370284Y-84794803D01*
X92366774Y-84771142D01*
X92365600Y-84747250D01*
X92365600Y-84259750D01*
X92366774Y-84235858D01*
X92370284Y-84212197D01*
X92376096Y-84188993D01*
X92384154Y-84166471D01*
X92394382Y-84144847D01*
X92406679Y-84124330D01*
X92420929Y-84105117D01*
X92436993Y-84087393D01*
X92454717Y-84071329D01*
X92473930Y-84057079D01*
X92494447Y-84044782D01*
X92516071Y-84034554D01*
X92538593Y-84026496D01*
X92561797Y-84020684D01*
X92585458Y-84017174D01*
X92609350Y-84016000D01*
X93521850Y-84016000D01*
X93545742Y-84017174D01*
X93545742Y-84017174D01*
G37*
D13*
X93065600Y-84503500D03*
D12*
G36*
X91615342Y-82114474D02*
G01*
X91639003Y-82117984D01*
X91662207Y-82123796D01*
X91684729Y-82131854D01*
X91706353Y-82142082D01*
X91726870Y-82154379D01*
X91746083Y-82168629D01*
X91763807Y-82184693D01*
X91779871Y-82202417D01*
X91794121Y-82221630D01*
X91806418Y-82242147D01*
X91816646Y-82263771D01*
X91824704Y-82286293D01*
X91830516Y-82309497D01*
X91834026Y-82333158D01*
X91835200Y-82357050D01*
X91835200Y-82844550D01*
X91834026Y-82868442D01*
X91830516Y-82892103D01*
X91824704Y-82915307D01*
X91816646Y-82937829D01*
X91806418Y-82959453D01*
X91794121Y-82979970D01*
X91779871Y-82999183D01*
X91763807Y-83016907D01*
X91746083Y-83032971D01*
X91726870Y-83047221D01*
X91706353Y-83059518D01*
X91684729Y-83069746D01*
X91662207Y-83077804D01*
X91639003Y-83083616D01*
X91615342Y-83087126D01*
X91591450Y-83088300D01*
X90678950Y-83088300D01*
X90655058Y-83087126D01*
X90631397Y-83083616D01*
X90608193Y-83077804D01*
X90585671Y-83069746D01*
X90564047Y-83059518D01*
X90543530Y-83047221D01*
X90524317Y-83032971D01*
X90506593Y-83016907D01*
X90490529Y-82999183D01*
X90476279Y-82979970D01*
X90463982Y-82959453D01*
X90453754Y-82937829D01*
X90445696Y-82915307D01*
X90439884Y-82892103D01*
X90436374Y-82868442D01*
X90435200Y-82844550D01*
X90435200Y-82357050D01*
X90436374Y-82333158D01*
X90439884Y-82309497D01*
X90445696Y-82286293D01*
X90453754Y-82263771D01*
X90463982Y-82242147D01*
X90476279Y-82221630D01*
X90490529Y-82202417D01*
X90506593Y-82184693D01*
X90524317Y-82168629D01*
X90543530Y-82154379D01*
X90564047Y-82142082D01*
X90585671Y-82131854D01*
X90608193Y-82123796D01*
X90631397Y-82117984D01*
X90655058Y-82114474D01*
X90678950Y-82113300D01*
X91591450Y-82113300D01*
X91615342Y-82114474D01*
X91615342Y-82114474D01*
G37*
D13*
X91135200Y-82600800D03*
D12*
G36*
X91615342Y-83989474D02*
G01*
X91639003Y-83992984D01*
X91662207Y-83998796D01*
X91684729Y-84006854D01*
X91706353Y-84017082D01*
X91726870Y-84029379D01*
X91746083Y-84043629D01*
X91763807Y-84059693D01*
X91779871Y-84077417D01*
X91794121Y-84096630D01*
X91806418Y-84117147D01*
X91816646Y-84138771D01*
X91824704Y-84161293D01*
X91830516Y-84184497D01*
X91834026Y-84208158D01*
X91835200Y-84232050D01*
X91835200Y-84719550D01*
X91834026Y-84743442D01*
X91830516Y-84767103D01*
X91824704Y-84790307D01*
X91816646Y-84812829D01*
X91806418Y-84834453D01*
X91794121Y-84854970D01*
X91779871Y-84874183D01*
X91763807Y-84891907D01*
X91746083Y-84907971D01*
X91726870Y-84922221D01*
X91706353Y-84934518D01*
X91684729Y-84944746D01*
X91662207Y-84952804D01*
X91639003Y-84958616D01*
X91615342Y-84962126D01*
X91591450Y-84963300D01*
X90678950Y-84963300D01*
X90655058Y-84962126D01*
X90631397Y-84958616D01*
X90608193Y-84952804D01*
X90585671Y-84944746D01*
X90564047Y-84934518D01*
X90543530Y-84922221D01*
X90524317Y-84907971D01*
X90506593Y-84891907D01*
X90490529Y-84874183D01*
X90476279Y-84854970D01*
X90463982Y-84834453D01*
X90453754Y-84812829D01*
X90445696Y-84790307D01*
X90439884Y-84767103D01*
X90436374Y-84743442D01*
X90435200Y-84719550D01*
X90435200Y-84232050D01*
X90436374Y-84208158D01*
X90439884Y-84184497D01*
X90445696Y-84161293D01*
X90453754Y-84138771D01*
X90463982Y-84117147D01*
X90476279Y-84096630D01*
X90490529Y-84077417D01*
X90506593Y-84059693D01*
X90524317Y-84043629D01*
X90543530Y-84029379D01*
X90564047Y-84017082D01*
X90585671Y-84006854D01*
X90608193Y-83998796D01*
X90631397Y-83992984D01*
X90655058Y-83989474D01*
X90678950Y-83988300D01*
X91591450Y-83988300D01*
X91615342Y-83989474D01*
X91615342Y-83989474D01*
G37*
D13*
X91135200Y-84475800D03*
D12*
G36*
X105012642Y-39839574D02*
G01*
X105036303Y-39843084D01*
X105059507Y-39848896D01*
X105082029Y-39856954D01*
X105103653Y-39867182D01*
X105124170Y-39879479D01*
X105143383Y-39893729D01*
X105161107Y-39909793D01*
X105177171Y-39927517D01*
X105191421Y-39946730D01*
X105203718Y-39967247D01*
X105213946Y-39988871D01*
X105222004Y-40011393D01*
X105227816Y-40034597D01*
X105231326Y-40058258D01*
X105232500Y-40082150D01*
X105232500Y-40994650D01*
X105231326Y-41018542D01*
X105227816Y-41042203D01*
X105222004Y-41065407D01*
X105213946Y-41087929D01*
X105203718Y-41109553D01*
X105191421Y-41130070D01*
X105177171Y-41149283D01*
X105161107Y-41167007D01*
X105143383Y-41183071D01*
X105124170Y-41197321D01*
X105103653Y-41209618D01*
X105082029Y-41219846D01*
X105059507Y-41227904D01*
X105036303Y-41233716D01*
X105012642Y-41237226D01*
X104988750Y-41238400D01*
X104501250Y-41238400D01*
X104477358Y-41237226D01*
X104453697Y-41233716D01*
X104430493Y-41227904D01*
X104407971Y-41219846D01*
X104386347Y-41209618D01*
X104365830Y-41197321D01*
X104346617Y-41183071D01*
X104328893Y-41167007D01*
X104312829Y-41149283D01*
X104298579Y-41130070D01*
X104286282Y-41109553D01*
X104276054Y-41087929D01*
X104267996Y-41065407D01*
X104262184Y-41042203D01*
X104258674Y-41018542D01*
X104257500Y-40994650D01*
X104257500Y-40082150D01*
X104258674Y-40058258D01*
X104262184Y-40034597D01*
X104267996Y-40011393D01*
X104276054Y-39988871D01*
X104286282Y-39967247D01*
X104298579Y-39946730D01*
X104312829Y-39927517D01*
X104328893Y-39909793D01*
X104346617Y-39893729D01*
X104365830Y-39879479D01*
X104386347Y-39867182D01*
X104407971Y-39856954D01*
X104430493Y-39848896D01*
X104453697Y-39843084D01*
X104477358Y-39839574D01*
X104501250Y-39838400D01*
X104988750Y-39838400D01*
X105012642Y-39839574D01*
X105012642Y-39839574D01*
G37*
D13*
X104745000Y-40538400D03*
D12*
G36*
X103137642Y-39839574D02*
G01*
X103161303Y-39843084D01*
X103184507Y-39848896D01*
X103207029Y-39856954D01*
X103228653Y-39867182D01*
X103249170Y-39879479D01*
X103268383Y-39893729D01*
X103286107Y-39909793D01*
X103302171Y-39927517D01*
X103316421Y-39946730D01*
X103328718Y-39967247D01*
X103338946Y-39988871D01*
X103347004Y-40011393D01*
X103352816Y-40034597D01*
X103356326Y-40058258D01*
X103357500Y-40082150D01*
X103357500Y-40994650D01*
X103356326Y-41018542D01*
X103352816Y-41042203D01*
X103347004Y-41065407D01*
X103338946Y-41087929D01*
X103328718Y-41109553D01*
X103316421Y-41130070D01*
X103302171Y-41149283D01*
X103286107Y-41167007D01*
X103268383Y-41183071D01*
X103249170Y-41197321D01*
X103228653Y-41209618D01*
X103207029Y-41219846D01*
X103184507Y-41227904D01*
X103161303Y-41233716D01*
X103137642Y-41237226D01*
X103113750Y-41238400D01*
X102626250Y-41238400D01*
X102602358Y-41237226D01*
X102578697Y-41233716D01*
X102555493Y-41227904D01*
X102532971Y-41219846D01*
X102511347Y-41209618D01*
X102490830Y-41197321D01*
X102471617Y-41183071D01*
X102453893Y-41167007D01*
X102437829Y-41149283D01*
X102423579Y-41130070D01*
X102411282Y-41109553D01*
X102401054Y-41087929D01*
X102392996Y-41065407D01*
X102387184Y-41042203D01*
X102383674Y-41018542D01*
X102382500Y-40994650D01*
X102382500Y-40082150D01*
X102383674Y-40058258D01*
X102387184Y-40034597D01*
X102392996Y-40011393D01*
X102401054Y-39988871D01*
X102411282Y-39967247D01*
X102423579Y-39946730D01*
X102437829Y-39927517D01*
X102453893Y-39909793D01*
X102471617Y-39893729D01*
X102490830Y-39879479D01*
X102511347Y-39867182D01*
X102532971Y-39856954D01*
X102555493Y-39848896D01*
X102578697Y-39843084D01*
X102602358Y-39839574D01*
X102626250Y-39838400D01*
X103113750Y-39838400D01*
X103137642Y-39839574D01*
X103137642Y-39839574D01*
G37*
D13*
X102870000Y-40538400D03*
D12*
G36*
X87398942Y-66417274D02*
G01*
X87422603Y-66420784D01*
X87445807Y-66426596D01*
X87468329Y-66434654D01*
X87489953Y-66444882D01*
X87510470Y-66457179D01*
X87529683Y-66471429D01*
X87547407Y-66487493D01*
X87563471Y-66505217D01*
X87577721Y-66524430D01*
X87590018Y-66544947D01*
X87600246Y-66566571D01*
X87608304Y-66589093D01*
X87614116Y-66612297D01*
X87617626Y-66635958D01*
X87618800Y-66659850D01*
X87618800Y-67147350D01*
X87617626Y-67171242D01*
X87614116Y-67194903D01*
X87608304Y-67218107D01*
X87600246Y-67240629D01*
X87590018Y-67262253D01*
X87577721Y-67282770D01*
X87563471Y-67301983D01*
X87547407Y-67319707D01*
X87529683Y-67335771D01*
X87510470Y-67350021D01*
X87489953Y-67362318D01*
X87468329Y-67372546D01*
X87445807Y-67380604D01*
X87422603Y-67386416D01*
X87398942Y-67389926D01*
X87375050Y-67391100D01*
X86462550Y-67391100D01*
X86438658Y-67389926D01*
X86414997Y-67386416D01*
X86391793Y-67380604D01*
X86369271Y-67372546D01*
X86347647Y-67362318D01*
X86327130Y-67350021D01*
X86307917Y-67335771D01*
X86290193Y-67319707D01*
X86274129Y-67301983D01*
X86259879Y-67282770D01*
X86247582Y-67262253D01*
X86237354Y-67240629D01*
X86229296Y-67218107D01*
X86223484Y-67194903D01*
X86219974Y-67171242D01*
X86218800Y-67147350D01*
X86218800Y-66659850D01*
X86219974Y-66635958D01*
X86223484Y-66612297D01*
X86229296Y-66589093D01*
X86237354Y-66566571D01*
X86247582Y-66544947D01*
X86259879Y-66524430D01*
X86274129Y-66505217D01*
X86290193Y-66487493D01*
X86307917Y-66471429D01*
X86327130Y-66457179D01*
X86347647Y-66444882D01*
X86369271Y-66434654D01*
X86391793Y-66426596D01*
X86414997Y-66420784D01*
X86438658Y-66417274D01*
X86462550Y-66416100D01*
X87375050Y-66416100D01*
X87398942Y-66417274D01*
X87398942Y-66417274D01*
G37*
D13*
X86918800Y-66903600D03*
D12*
G36*
X87398942Y-68292274D02*
G01*
X87422603Y-68295784D01*
X87445807Y-68301596D01*
X87468329Y-68309654D01*
X87489953Y-68319882D01*
X87510470Y-68332179D01*
X87529683Y-68346429D01*
X87547407Y-68362493D01*
X87563471Y-68380217D01*
X87577721Y-68399430D01*
X87590018Y-68419947D01*
X87600246Y-68441571D01*
X87608304Y-68464093D01*
X87614116Y-68487297D01*
X87617626Y-68510958D01*
X87618800Y-68534850D01*
X87618800Y-69022350D01*
X87617626Y-69046242D01*
X87614116Y-69069903D01*
X87608304Y-69093107D01*
X87600246Y-69115629D01*
X87590018Y-69137253D01*
X87577721Y-69157770D01*
X87563471Y-69176983D01*
X87547407Y-69194707D01*
X87529683Y-69210771D01*
X87510470Y-69225021D01*
X87489953Y-69237318D01*
X87468329Y-69247546D01*
X87445807Y-69255604D01*
X87422603Y-69261416D01*
X87398942Y-69264926D01*
X87375050Y-69266100D01*
X86462550Y-69266100D01*
X86438658Y-69264926D01*
X86414997Y-69261416D01*
X86391793Y-69255604D01*
X86369271Y-69247546D01*
X86347647Y-69237318D01*
X86327130Y-69225021D01*
X86307917Y-69210771D01*
X86290193Y-69194707D01*
X86274129Y-69176983D01*
X86259879Y-69157770D01*
X86247582Y-69137253D01*
X86237354Y-69115629D01*
X86229296Y-69093107D01*
X86223484Y-69069903D01*
X86219974Y-69046242D01*
X86218800Y-69022350D01*
X86218800Y-68534850D01*
X86219974Y-68510958D01*
X86223484Y-68487297D01*
X86229296Y-68464093D01*
X86237354Y-68441571D01*
X86247582Y-68419947D01*
X86259879Y-68399430D01*
X86274129Y-68380217D01*
X86290193Y-68362493D01*
X86307917Y-68346429D01*
X86327130Y-68332179D01*
X86347647Y-68319882D01*
X86369271Y-68309654D01*
X86391793Y-68301596D01*
X86414997Y-68295784D01*
X86438658Y-68292274D01*
X86462550Y-68291100D01*
X87375050Y-68291100D01*
X87398942Y-68292274D01*
X87398942Y-68292274D01*
G37*
D13*
X86918800Y-68778600D03*
D14*
X83560800Y-54618600D03*
X83560800Y-53968600D03*
X83560800Y-53318600D03*
X83560800Y-52668600D03*
X83560800Y-52018600D03*
X83560800Y-51368600D03*
X83560800Y-50718600D03*
X83560800Y-50068600D03*
X83560800Y-49418600D03*
X83560800Y-48768600D03*
X83560800Y-48118600D03*
X83560800Y-47468600D03*
X83560800Y-46818600D03*
X83560800Y-46168600D03*
X89260800Y-46168600D03*
X89260800Y-46818600D03*
X89260800Y-47468600D03*
X89260800Y-48118600D03*
X89260800Y-48768600D03*
X89260800Y-49418600D03*
X89260800Y-50068600D03*
X89260800Y-50718600D03*
X89260800Y-51368600D03*
X89260800Y-52018600D03*
X89260800Y-52668600D03*
X89260800Y-53318600D03*
X89260800Y-53968600D03*
X89260800Y-54618600D03*
D12*
G36*
X105017242Y-41871574D02*
G01*
X105040903Y-41875084D01*
X105064107Y-41880896D01*
X105086629Y-41888954D01*
X105108253Y-41899182D01*
X105128770Y-41911479D01*
X105147983Y-41925729D01*
X105165707Y-41941793D01*
X105181771Y-41959517D01*
X105196021Y-41978730D01*
X105208318Y-41999247D01*
X105218546Y-42020871D01*
X105226604Y-42043393D01*
X105232416Y-42066597D01*
X105235926Y-42090258D01*
X105237100Y-42114150D01*
X105237100Y-43026650D01*
X105235926Y-43050542D01*
X105232416Y-43074203D01*
X105226604Y-43097407D01*
X105218546Y-43119929D01*
X105208318Y-43141553D01*
X105196021Y-43162070D01*
X105181771Y-43181283D01*
X105165707Y-43199007D01*
X105147983Y-43215071D01*
X105128770Y-43229321D01*
X105108253Y-43241618D01*
X105086629Y-43251846D01*
X105064107Y-43259904D01*
X105040903Y-43265716D01*
X105017242Y-43269226D01*
X104993350Y-43270400D01*
X104505850Y-43270400D01*
X104481958Y-43269226D01*
X104458297Y-43265716D01*
X104435093Y-43259904D01*
X104412571Y-43251846D01*
X104390947Y-43241618D01*
X104370430Y-43229321D01*
X104351217Y-43215071D01*
X104333493Y-43199007D01*
X104317429Y-43181283D01*
X104303179Y-43162070D01*
X104290882Y-43141553D01*
X104280654Y-43119929D01*
X104272596Y-43097407D01*
X104266784Y-43074203D01*
X104263274Y-43050542D01*
X104262100Y-43026650D01*
X104262100Y-42114150D01*
X104263274Y-42090258D01*
X104266784Y-42066597D01*
X104272596Y-42043393D01*
X104280654Y-42020871D01*
X104290882Y-41999247D01*
X104303179Y-41978730D01*
X104317429Y-41959517D01*
X104333493Y-41941793D01*
X104351217Y-41925729D01*
X104370430Y-41911479D01*
X104390947Y-41899182D01*
X104412571Y-41888954D01*
X104435093Y-41880896D01*
X104458297Y-41875084D01*
X104481958Y-41871574D01*
X104505850Y-41870400D01*
X104993350Y-41870400D01*
X105017242Y-41871574D01*
X105017242Y-41871574D01*
G37*
D13*
X104749600Y-42570400D03*
D12*
G36*
X103142242Y-41871574D02*
G01*
X103165903Y-41875084D01*
X103189107Y-41880896D01*
X103211629Y-41888954D01*
X103233253Y-41899182D01*
X103253770Y-41911479D01*
X103272983Y-41925729D01*
X103290707Y-41941793D01*
X103306771Y-41959517D01*
X103321021Y-41978730D01*
X103333318Y-41999247D01*
X103343546Y-42020871D01*
X103351604Y-42043393D01*
X103357416Y-42066597D01*
X103360926Y-42090258D01*
X103362100Y-42114150D01*
X103362100Y-43026650D01*
X103360926Y-43050542D01*
X103357416Y-43074203D01*
X103351604Y-43097407D01*
X103343546Y-43119929D01*
X103333318Y-43141553D01*
X103321021Y-43162070D01*
X103306771Y-43181283D01*
X103290707Y-43199007D01*
X103272983Y-43215071D01*
X103253770Y-43229321D01*
X103233253Y-43241618D01*
X103211629Y-43251846D01*
X103189107Y-43259904D01*
X103165903Y-43265716D01*
X103142242Y-43269226D01*
X103118350Y-43270400D01*
X102630850Y-43270400D01*
X102606958Y-43269226D01*
X102583297Y-43265716D01*
X102560093Y-43259904D01*
X102537571Y-43251846D01*
X102515947Y-43241618D01*
X102495430Y-43229321D01*
X102476217Y-43215071D01*
X102458493Y-43199007D01*
X102442429Y-43181283D01*
X102428179Y-43162070D01*
X102415882Y-43141553D01*
X102405654Y-43119929D01*
X102397596Y-43097407D01*
X102391784Y-43074203D01*
X102388274Y-43050542D01*
X102387100Y-43026650D01*
X102387100Y-42114150D01*
X102388274Y-42090258D01*
X102391784Y-42066597D01*
X102397596Y-42043393D01*
X102405654Y-42020871D01*
X102415882Y-41999247D01*
X102428179Y-41978730D01*
X102442429Y-41959517D01*
X102458493Y-41941793D01*
X102476217Y-41925729D01*
X102495430Y-41911479D01*
X102515947Y-41899182D01*
X102537571Y-41888954D01*
X102560093Y-41880896D01*
X102583297Y-41875084D01*
X102606958Y-41871574D01*
X102630850Y-41870400D01*
X103118350Y-41870400D01*
X103142242Y-41871574D01*
X103142242Y-41871574D01*
G37*
D13*
X102874600Y-42570400D03*
D12*
G36*
X77605543Y-45574975D02*
G01*
X77629204Y-45578485D01*
X77652408Y-45584297D01*
X77674930Y-45592355D01*
X77696554Y-45602583D01*
X77717071Y-45614880D01*
X77736284Y-45629130D01*
X77754008Y-45645194D01*
X77770072Y-45662918D01*
X77784322Y-45682131D01*
X77796619Y-45702648D01*
X77806847Y-45724272D01*
X77814905Y-45746794D01*
X77820717Y-45769998D01*
X77824227Y-45793659D01*
X77825401Y-45817551D01*
X77825401Y-46730051D01*
X77824227Y-46753943D01*
X77820717Y-46777604D01*
X77814905Y-46800808D01*
X77806847Y-46823330D01*
X77796619Y-46844954D01*
X77784322Y-46865471D01*
X77770072Y-46884684D01*
X77754008Y-46902408D01*
X77736284Y-46918472D01*
X77717071Y-46932722D01*
X77696554Y-46945019D01*
X77674930Y-46955247D01*
X77652408Y-46963305D01*
X77629204Y-46969117D01*
X77605543Y-46972627D01*
X77581651Y-46973801D01*
X77094151Y-46973801D01*
X77070259Y-46972627D01*
X77046598Y-46969117D01*
X77023394Y-46963305D01*
X77000872Y-46955247D01*
X76979248Y-46945019D01*
X76958731Y-46932722D01*
X76939518Y-46918472D01*
X76921794Y-46902408D01*
X76905730Y-46884684D01*
X76891480Y-46865471D01*
X76879183Y-46844954D01*
X76868955Y-46823330D01*
X76860897Y-46800808D01*
X76855085Y-46777604D01*
X76851575Y-46753943D01*
X76850401Y-46730051D01*
X76850401Y-45817551D01*
X76851575Y-45793659D01*
X76855085Y-45769998D01*
X76860897Y-45746794D01*
X76868955Y-45724272D01*
X76879183Y-45702648D01*
X76891480Y-45682131D01*
X76905730Y-45662918D01*
X76921794Y-45645194D01*
X76939518Y-45629130D01*
X76958731Y-45614880D01*
X76979248Y-45602583D01*
X77000872Y-45592355D01*
X77023394Y-45584297D01*
X77046598Y-45578485D01*
X77070259Y-45574975D01*
X77094151Y-45573801D01*
X77581651Y-45573801D01*
X77605543Y-45574975D01*
X77605543Y-45574975D01*
G37*
D13*
X77337901Y-46273801D03*
D12*
G36*
X79480543Y-45574975D02*
G01*
X79504204Y-45578485D01*
X79527408Y-45584297D01*
X79549930Y-45592355D01*
X79571554Y-45602583D01*
X79592071Y-45614880D01*
X79611284Y-45629130D01*
X79629008Y-45645194D01*
X79645072Y-45662918D01*
X79659322Y-45682131D01*
X79671619Y-45702648D01*
X79681847Y-45724272D01*
X79689905Y-45746794D01*
X79695717Y-45769998D01*
X79699227Y-45793659D01*
X79700401Y-45817551D01*
X79700401Y-46730051D01*
X79699227Y-46753943D01*
X79695717Y-46777604D01*
X79689905Y-46800808D01*
X79681847Y-46823330D01*
X79671619Y-46844954D01*
X79659322Y-46865471D01*
X79645072Y-46884684D01*
X79629008Y-46902408D01*
X79611284Y-46918472D01*
X79592071Y-46932722D01*
X79571554Y-46945019D01*
X79549930Y-46955247D01*
X79527408Y-46963305D01*
X79504204Y-46969117D01*
X79480543Y-46972627D01*
X79456651Y-46973801D01*
X78969151Y-46973801D01*
X78945259Y-46972627D01*
X78921598Y-46969117D01*
X78898394Y-46963305D01*
X78875872Y-46955247D01*
X78854248Y-46945019D01*
X78833731Y-46932722D01*
X78814518Y-46918472D01*
X78796794Y-46902408D01*
X78780730Y-46884684D01*
X78766480Y-46865471D01*
X78754183Y-46844954D01*
X78743955Y-46823330D01*
X78735897Y-46800808D01*
X78730085Y-46777604D01*
X78726575Y-46753943D01*
X78725401Y-46730051D01*
X78725401Y-45817551D01*
X78726575Y-45793659D01*
X78730085Y-45769998D01*
X78735897Y-45746794D01*
X78743955Y-45724272D01*
X78754183Y-45702648D01*
X78766480Y-45682131D01*
X78780730Y-45662918D01*
X78796794Y-45645194D01*
X78814518Y-45629130D01*
X78833731Y-45614880D01*
X78854248Y-45602583D01*
X78875872Y-45592355D01*
X78898394Y-45584297D01*
X78921598Y-45578485D01*
X78945259Y-45574975D01*
X78969151Y-45573801D01*
X79456651Y-45573801D01*
X79480543Y-45574975D01*
X79480543Y-45574975D01*
G37*
D13*
X79212901Y-46273801D03*
D12*
G36*
X103137642Y-43903574D02*
G01*
X103161303Y-43907084D01*
X103184507Y-43912896D01*
X103207029Y-43920954D01*
X103228653Y-43931182D01*
X103249170Y-43943479D01*
X103268383Y-43957729D01*
X103286107Y-43973793D01*
X103302171Y-43991517D01*
X103316421Y-44010730D01*
X103328718Y-44031247D01*
X103338946Y-44052871D01*
X103347004Y-44075393D01*
X103352816Y-44098597D01*
X103356326Y-44122258D01*
X103357500Y-44146150D01*
X103357500Y-45058650D01*
X103356326Y-45082542D01*
X103352816Y-45106203D01*
X103347004Y-45129407D01*
X103338946Y-45151929D01*
X103328718Y-45173553D01*
X103316421Y-45194070D01*
X103302171Y-45213283D01*
X103286107Y-45231007D01*
X103268383Y-45247071D01*
X103249170Y-45261321D01*
X103228653Y-45273618D01*
X103207029Y-45283846D01*
X103184507Y-45291904D01*
X103161303Y-45297716D01*
X103137642Y-45301226D01*
X103113750Y-45302400D01*
X102626250Y-45302400D01*
X102602358Y-45301226D01*
X102578697Y-45297716D01*
X102555493Y-45291904D01*
X102532971Y-45283846D01*
X102511347Y-45273618D01*
X102490830Y-45261321D01*
X102471617Y-45247071D01*
X102453893Y-45231007D01*
X102437829Y-45213283D01*
X102423579Y-45194070D01*
X102411282Y-45173553D01*
X102401054Y-45151929D01*
X102392996Y-45129407D01*
X102387184Y-45106203D01*
X102383674Y-45082542D01*
X102382500Y-45058650D01*
X102382500Y-44146150D01*
X102383674Y-44122258D01*
X102387184Y-44098597D01*
X102392996Y-44075393D01*
X102401054Y-44052871D01*
X102411282Y-44031247D01*
X102423579Y-44010730D01*
X102437829Y-43991517D01*
X102453893Y-43973793D01*
X102471617Y-43957729D01*
X102490830Y-43943479D01*
X102511347Y-43931182D01*
X102532971Y-43920954D01*
X102555493Y-43912896D01*
X102578697Y-43907084D01*
X102602358Y-43903574D01*
X102626250Y-43902400D01*
X103113750Y-43902400D01*
X103137642Y-43903574D01*
X103137642Y-43903574D01*
G37*
D13*
X102870000Y-44602400D03*
D12*
G36*
X105012642Y-43903574D02*
G01*
X105036303Y-43907084D01*
X105059507Y-43912896D01*
X105082029Y-43920954D01*
X105103653Y-43931182D01*
X105124170Y-43943479D01*
X105143383Y-43957729D01*
X105161107Y-43973793D01*
X105177171Y-43991517D01*
X105191421Y-44010730D01*
X105203718Y-44031247D01*
X105213946Y-44052871D01*
X105222004Y-44075393D01*
X105227816Y-44098597D01*
X105231326Y-44122258D01*
X105232500Y-44146150D01*
X105232500Y-45058650D01*
X105231326Y-45082542D01*
X105227816Y-45106203D01*
X105222004Y-45129407D01*
X105213946Y-45151929D01*
X105203718Y-45173553D01*
X105191421Y-45194070D01*
X105177171Y-45213283D01*
X105161107Y-45231007D01*
X105143383Y-45247071D01*
X105124170Y-45261321D01*
X105103653Y-45273618D01*
X105082029Y-45283846D01*
X105059507Y-45291904D01*
X105036303Y-45297716D01*
X105012642Y-45301226D01*
X104988750Y-45302400D01*
X104501250Y-45302400D01*
X104477358Y-45301226D01*
X104453697Y-45297716D01*
X104430493Y-45291904D01*
X104407971Y-45283846D01*
X104386347Y-45273618D01*
X104365830Y-45261321D01*
X104346617Y-45247071D01*
X104328893Y-45231007D01*
X104312829Y-45213283D01*
X104298579Y-45194070D01*
X104286282Y-45173553D01*
X104276054Y-45151929D01*
X104267996Y-45129407D01*
X104262184Y-45106203D01*
X104258674Y-45082542D01*
X104257500Y-45058650D01*
X104257500Y-44146150D01*
X104258674Y-44122258D01*
X104262184Y-44098597D01*
X104267996Y-44075393D01*
X104276054Y-44052871D01*
X104286282Y-44031247D01*
X104298579Y-44010730D01*
X104312829Y-43991517D01*
X104328893Y-43973793D01*
X104346617Y-43957729D01*
X104365830Y-43943479D01*
X104386347Y-43931182D01*
X104407971Y-43920954D01*
X104430493Y-43912896D01*
X104453697Y-43907084D01*
X104477358Y-43903574D01*
X104501250Y-43902400D01*
X104988750Y-43902400D01*
X105012642Y-43903574D01*
X105012642Y-43903574D01*
G37*
D13*
X104745000Y-44602400D03*
D12*
G36*
X79538742Y-47815174D02*
G01*
X79562403Y-47818684D01*
X79585607Y-47824496D01*
X79608129Y-47832554D01*
X79629753Y-47842782D01*
X79650270Y-47855079D01*
X79669483Y-47869329D01*
X79687207Y-47885393D01*
X79703271Y-47903117D01*
X79717521Y-47922330D01*
X79729818Y-47942847D01*
X79740046Y-47964471D01*
X79748104Y-47986993D01*
X79753916Y-48010197D01*
X79757426Y-48033858D01*
X79758600Y-48057750D01*
X79758600Y-48970250D01*
X79757426Y-48994142D01*
X79753916Y-49017803D01*
X79748104Y-49041007D01*
X79740046Y-49063529D01*
X79729818Y-49085153D01*
X79717521Y-49105670D01*
X79703271Y-49124883D01*
X79687207Y-49142607D01*
X79669483Y-49158671D01*
X79650270Y-49172921D01*
X79629753Y-49185218D01*
X79608129Y-49195446D01*
X79585607Y-49203504D01*
X79562403Y-49209316D01*
X79538742Y-49212826D01*
X79514850Y-49214000D01*
X79027350Y-49214000D01*
X79003458Y-49212826D01*
X78979797Y-49209316D01*
X78956593Y-49203504D01*
X78934071Y-49195446D01*
X78912447Y-49185218D01*
X78891930Y-49172921D01*
X78872717Y-49158671D01*
X78854993Y-49142607D01*
X78838929Y-49124883D01*
X78824679Y-49105670D01*
X78812382Y-49085153D01*
X78802154Y-49063529D01*
X78794096Y-49041007D01*
X78788284Y-49017803D01*
X78784774Y-48994142D01*
X78783600Y-48970250D01*
X78783600Y-48057750D01*
X78784774Y-48033858D01*
X78788284Y-48010197D01*
X78794096Y-47986993D01*
X78802154Y-47964471D01*
X78812382Y-47942847D01*
X78824679Y-47922330D01*
X78838929Y-47903117D01*
X78854993Y-47885393D01*
X78872717Y-47869329D01*
X78891930Y-47855079D01*
X78912447Y-47842782D01*
X78934071Y-47832554D01*
X78956593Y-47824496D01*
X78979797Y-47818684D01*
X79003458Y-47815174D01*
X79027350Y-47814000D01*
X79514850Y-47814000D01*
X79538742Y-47815174D01*
X79538742Y-47815174D01*
G37*
D13*
X79271100Y-48514000D03*
D12*
G36*
X77663742Y-47815174D02*
G01*
X77687403Y-47818684D01*
X77710607Y-47824496D01*
X77733129Y-47832554D01*
X77754753Y-47842782D01*
X77775270Y-47855079D01*
X77794483Y-47869329D01*
X77812207Y-47885393D01*
X77828271Y-47903117D01*
X77842521Y-47922330D01*
X77854818Y-47942847D01*
X77865046Y-47964471D01*
X77873104Y-47986993D01*
X77878916Y-48010197D01*
X77882426Y-48033858D01*
X77883600Y-48057750D01*
X77883600Y-48970250D01*
X77882426Y-48994142D01*
X77878916Y-49017803D01*
X77873104Y-49041007D01*
X77865046Y-49063529D01*
X77854818Y-49085153D01*
X77842521Y-49105670D01*
X77828271Y-49124883D01*
X77812207Y-49142607D01*
X77794483Y-49158671D01*
X77775270Y-49172921D01*
X77754753Y-49185218D01*
X77733129Y-49195446D01*
X77710607Y-49203504D01*
X77687403Y-49209316D01*
X77663742Y-49212826D01*
X77639850Y-49214000D01*
X77152350Y-49214000D01*
X77128458Y-49212826D01*
X77104797Y-49209316D01*
X77081593Y-49203504D01*
X77059071Y-49195446D01*
X77037447Y-49185218D01*
X77016930Y-49172921D01*
X76997717Y-49158671D01*
X76979993Y-49142607D01*
X76963929Y-49124883D01*
X76949679Y-49105670D01*
X76937382Y-49085153D01*
X76927154Y-49063529D01*
X76919096Y-49041007D01*
X76913284Y-49017803D01*
X76909774Y-48994142D01*
X76908600Y-48970250D01*
X76908600Y-48057750D01*
X76909774Y-48033858D01*
X76913284Y-48010197D01*
X76919096Y-47986993D01*
X76927154Y-47964471D01*
X76937382Y-47942847D01*
X76949679Y-47922330D01*
X76963929Y-47903117D01*
X76979993Y-47885393D01*
X76997717Y-47869329D01*
X77016930Y-47855079D01*
X77037447Y-47842782D01*
X77059071Y-47832554D01*
X77081593Y-47824496D01*
X77104797Y-47818684D01*
X77128458Y-47815174D01*
X77152350Y-47814000D01*
X77639850Y-47814000D01*
X77663742Y-47815174D01*
X77663742Y-47815174D01*
G37*
D13*
X77396100Y-48514000D03*
D12*
G36*
X103137642Y-45935574D02*
G01*
X103161303Y-45939084D01*
X103184507Y-45944896D01*
X103207029Y-45952954D01*
X103228653Y-45963182D01*
X103249170Y-45975479D01*
X103268383Y-45989729D01*
X103286107Y-46005793D01*
X103302171Y-46023517D01*
X103316421Y-46042730D01*
X103328718Y-46063247D01*
X103338946Y-46084871D01*
X103347004Y-46107393D01*
X103352816Y-46130597D01*
X103356326Y-46154258D01*
X103357500Y-46178150D01*
X103357500Y-47090650D01*
X103356326Y-47114542D01*
X103352816Y-47138203D01*
X103347004Y-47161407D01*
X103338946Y-47183929D01*
X103328718Y-47205553D01*
X103316421Y-47226070D01*
X103302171Y-47245283D01*
X103286107Y-47263007D01*
X103268383Y-47279071D01*
X103249170Y-47293321D01*
X103228653Y-47305618D01*
X103207029Y-47315846D01*
X103184507Y-47323904D01*
X103161303Y-47329716D01*
X103137642Y-47333226D01*
X103113750Y-47334400D01*
X102626250Y-47334400D01*
X102602358Y-47333226D01*
X102578697Y-47329716D01*
X102555493Y-47323904D01*
X102532971Y-47315846D01*
X102511347Y-47305618D01*
X102490830Y-47293321D01*
X102471617Y-47279071D01*
X102453893Y-47263007D01*
X102437829Y-47245283D01*
X102423579Y-47226070D01*
X102411282Y-47205553D01*
X102401054Y-47183929D01*
X102392996Y-47161407D01*
X102387184Y-47138203D01*
X102383674Y-47114542D01*
X102382500Y-47090650D01*
X102382500Y-46178150D01*
X102383674Y-46154258D01*
X102387184Y-46130597D01*
X102392996Y-46107393D01*
X102401054Y-46084871D01*
X102411282Y-46063247D01*
X102423579Y-46042730D01*
X102437829Y-46023517D01*
X102453893Y-46005793D01*
X102471617Y-45989729D01*
X102490830Y-45975479D01*
X102511347Y-45963182D01*
X102532971Y-45952954D01*
X102555493Y-45944896D01*
X102578697Y-45939084D01*
X102602358Y-45935574D01*
X102626250Y-45934400D01*
X103113750Y-45934400D01*
X103137642Y-45935574D01*
X103137642Y-45935574D01*
G37*
D13*
X102870000Y-46634400D03*
D12*
G36*
X105012642Y-45935574D02*
G01*
X105036303Y-45939084D01*
X105059507Y-45944896D01*
X105082029Y-45952954D01*
X105103653Y-45963182D01*
X105124170Y-45975479D01*
X105143383Y-45989729D01*
X105161107Y-46005793D01*
X105177171Y-46023517D01*
X105191421Y-46042730D01*
X105203718Y-46063247D01*
X105213946Y-46084871D01*
X105222004Y-46107393D01*
X105227816Y-46130597D01*
X105231326Y-46154258D01*
X105232500Y-46178150D01*
X105232500Y-47090650D01*
X105231326Y-47114542D01*
X105227816Y-47138203D01*
X105222004Y-47161407D01*
X105213946Y-47183929D01*
X105203718Y-47205553D01*
X105191421Y-47226070D01*
X105177171Y-47245283D01*
X105161107Y-47263007D01*
X105143383Y-47279071D01*
X105124170Y-47293321D01*
X105103653Y-47305618D01*
X105082029Y-47315846D01*
X105059507Y-47323904D01*
X105036303Y-47329716D01*
X105012642Y-47333226D01*
X104988750Y-47334400D01*
X104501250Y-47334400D01*
X104477358Y-47333226D01*
X104453697Y-47329716D01*
X104430493Y-47323904D01*
X104407971Y-47315846D01*
X104386347Y-47305618D01*
X104365830Y-47293321D01*
X104346617Y-47279071D01*
X104328893Y-47263007D01*
X104312829Y-47245283D01*
X104298579Y-47226070D01*
X104286282Y-47205553D01*
X104276054Y-47183929D01*
X104267996Y-47161407D01*
X104262184Y-47138203D01*
X104258674Y-47114542D01*
X104257500Y-47090650D01*
X104257500Y-46178150D01*
X104258674Y-46154258D01*
X104262184Y-46130597D01*
X104267996Y-46107393D01*
X104276054Y-46084871D01*
X104286282Y-46063247D01*
X104298579Y-46042730D01*
X104312829Y-46023517D01*
X104328893Y-46005793D01*
X104346617Y-45989729D01*
X104365830Y-45975479D01*
X104386347Y-45963182D01*
X104407971Y-45952954D01*
X104430493Y-45944896D01*
X104453697Y-45939084D01*
X104477358Y-45935574D01*
X104501250Y-45934400D01*
X104988750Y-45934400D01*
X105012642Y-45935574D01*
X105012642Y-45935574D01*
G37*
D13*
X104745000Y-46634400D03*
D12*
G36*
X105017242Y-54825574D02*
G01*
X105040903Y-54829084D01*
X105064107Y-54834896D01*
X105086629Y-54842954D01*
X105108253Y-54853182D01*
X105128770Y-54865479D01*
X105147983Y-54879729D01*
X105165707Y-54895793D01*
X105181771Y-54913517D01*
X105196021Y-54932730D01*
X105208318Y-54953247D01*
X105218546Y-54974871D01*
X105226604Y-54997393D01*
X105232416Y-55020597D01*
X105235926Y-55044258D01*
X105237100Y-55068150D01*
X105237100Y-55980650D01*
X105235926Y-56004542D01*
X105232416Y-56028203D01*
X105226604Y-56051407D01*
X105218546Y-56073929D01*
X105208318Y-56095553D01*
X105196021Y-56116070D01*
X105181771Y-56135283D01*
X105165707Y-56153007D01*
X105147983Y-56169071D01*
X105128770Y-56183321D01*
X105108253Y-56195618D01*
X105086629Y-56205846D01*
X105064107Y-56213904D01*
X105040903Y-56219716D01*
X105017242Y-56223226D01*
X104993350Y-56224400D01*
X104505850Y-56224400D01*
X104481958Y-56223226D01*
X104458297Y-56219716D01*
X104435093Y-56213904D01*
X104412571Y-56205846D01*
X104390947Y-56195618D01*
X104370430Y-56183321D01*
X104351217Y-56169071D01*
X104333493Y-56153007D01*
X104317429Y-56135283D01*
X104303179Y-56116070D01*
X104290882Y-56095553D01*
X104280654Y-56073929D01*
X104272596Y-56051407D01*
X104266784Y-56028203D01*
X104263274Y-56004542D01*
X104262100Y-55980650D01*
X104262100Y-55068150D01*
X104263274Y-55044258D01*
X104266784Y-55020597D01*
X104272596Y-54997393D01*
X104280654Y-54974871D01*
X104290882Y-54953247D01*
X104303179Y-54932730D01*
X104317429Y-54913517D01*
X104333493Y-54895793D01*
X104351217Y-54879729D01*
X104370430Y-54865479D01*
X104390947Y-54853182D01*
X104412571Y-54842954D01*
X104435093Y-54834896D01*
X104458297Y-54829084D01*
X104481958Y-54825574D01*
X104505850Y-54824400D01*
X104993350Y-54824400D01*
X105017242Y-54825574D01*
X105017242Y-54825574D01*
G37*
D13*
X104749600Y-55524400D03*
D12*
G36*
X103142242Y-54825574D02*
G01*
X103165903Y-54829084D01*
X103189107Y-54834896D01*
X103211629Y-54842954D01*
X103233253Y-54853182D01*
X103253770Y-54865479D01*
X103272983Y-54879729D01*
X103290707Y-54895793D01*
X103306771Y-54913517D01*
X103321021Y-54932730D01*
X103333318Y-54953247D01*
X103343546Y-54974871D01*
X103351604Y-54997393D01*
X103357416Y-55020597D01*
X103360926Y-55044258D01*
X103362100Y-55068150D01*
X103362100Y-55980650D01*
X103360926Y-56004542D01*
X103357416Y-56028203D01*
X103351604Y-56051407D01*
X103343546Y-56073929D01*
X103333318Y-56095553D01*
X103321021Y-56116070D01*
X103306771Y-56135283D01*
X103290707Y-56153007D01*
X103272983Y-56169071D01*
X103253770Y-56183321D01*
X103233253Y-56195618D01*
X103211629Y-56205846D01*
X103189107Y-56213904D01*
X103165903Y-56219716D01*
X103142242Y-56223226D01*
X103118350Y-56224400D01*
X102630850Y-56224400D01*
X102606958Y-56223226D01*
X102583297Y-56219716D01*
X102560093Y-56213904D01*
X102537571Y-56205846D01*
X102515947Y-56195618D01*
X102495430Y-56183321D01*
X102476217Y-56169071D01*
X102458493Y-56153007D01*
X102442429Y-56135283D01*
X102428179Y-56116070D01*
X102415882Y-56095553D01*
X102405654Y-56073929D01*
X102397596Y-56051407D01*
X102391784Y-56028203D01*
X102388274Y-56004542D01*
X102387100Y-55980650D01*
X102387100Y-55068150D01*
X102388274Y-55044258D01*
X102391784Y-55020597D01*
X102397596Y-54997393D01*
X102405654Y-54974871D01*
X102415882Y-54953247D01*
X102428179Y-54932730D01*
X102442429Y-54913517D01*
X102458493Y-54895793D01*
X102476217Y-54879729D01*
X102495430Y-54865479D01*
X102515947Y-54853182D01*
X102537571Y-54842954D01*
X102560093Y-54834896D01*
X102583297Y-54829084D01*
X102606958Y-54825574D01*
X102630850Y-54824400D01*
X103118350Y-54824400D01*
X103142242Y-54825574D01*
X103142242Y-54825574D01*
G37*
D13*
X102874600Y-55524400D03*
D12*
G36*
X101368942Y-41779274D02*
G01*
X101392603Y-41782784D01*
X101415807Y-41788596D01*
X101438329Y-41796654D01*
X101459953Y-41806882D01*
X101480470Y-41819179D01*
X101499683Y-41833429D01*
X101517407Y-41849493D01*
X101533471Y-41867217D01*
X101547721Y-41886430D01*
X101560018Y-41906947D01*
X101570246Y-41928571D01*
X101578304Y-41951093D01*
X101584116Y-41974297D01*
X101587626Y-41997958D01*
X101588800Y-42021850D01*
X101588800Y-42509350D01*
X101587626Y-42533242D01*
X101584116Y-42556903D01*
X101578304Y-42580107D01*
X101570246Y-42602629D01*
X101560018Y-42624253D01*
X101547721Y-42644770D01*
X101533471Y-42663983D01*
X101517407Y-42681707D01*
X101499683Y-42697771D01*
X101480470Y-42712021D01*
X101459953Y-42724318D01*
X101438329Y-42734546D01*
X101415807Y-42742604D01*
X101392603Y-42748416D01*
X101368942Y-42751926D01*
X101345050Y-42753100D01*
X100432550Y-42753100D01*
X100408658Y-42751926D01*
X100384997Y-42748416D01*
X100361793Y-42742604D01*
X100339271Y-42734546D01*
X100317647Y-42724318D01*
X100297130Y-42712021D01*
X100277917Y-42697771D01*
X100260193Y-42681707D01*
X100244129Y-42663983D01*
X100229879Y-42644770D01*
X100217582Y-42624253D01*
X100207354Y-42602629D01*
X100199296Y-42580107D01*
X100193484Y-42556903D01*
X100189974Y-42533242D01*
X100188800Y-42509350D01*
X100188800Y-42021850D01*
X100189974Y-41997958D01*
X100193484Y-41974297D01*
X100199296Y-41951093D01*
X100207354Y-41928571D01*
X100217582Y-41906947D01*
X100229879Y-41886430D01*
X100244129Y-41867217D01*
X100260193Y-41849493D01*
X100277917Y-41833429D01*
X100297130Y-41819179D01*
X100317647Y-41806882D01*
X100339271Y-41796654D01*
X100361793Y-41788596D01*
X100384997Y-41782784D01*
X100408658Y-41779274D01*
X100432550Y-41778100D01*
X101345050Y-41778100D01*
X101368942Y-41779274D01*
X101368942Y-41779274D01*
G37*
D13*
X100888800Y-42265600D03*
D12*
G36*
X101368942Y-39904274D02*
G01*
X101392603Y-39907784D01*
X101415807Y-39913596D01*
X101438329Y-39921654D01*
X101459953Y-39931882D01*
X101480470Y-39944179D01*
X101499683Y-39958429D01*
X101517407Y-39974493D01*
X101533471Y-39992217D01*
X101547721Y-40011430D01*
X101560018Y-40031947D01*
X101570246Y-40053571D01*
X101578304Y-40076093D01*
X101584116Y-40099297D01*
X101587626Y-40122958D01*
X101588800Y-40146850D01*
X101588800Y-40634350D01*
X101587626Y-40658242D01*
X101584116Y-40681903D01*
X101578304Y-40705107D01*
X101570246Y-40727629D01*
X101560018Y-40749253D01*
X101547721Y-40769770D01*
X101533471Y-40788983D01*
X101517407Y-40806707D01*
X101499683Y-40822771D01*
X101480470Y-40837021D01*
X101459953Y-40849318D01*
X101438329Y-40859546D01*
X101415807Y-40867604D01*
X101392603Y-40873416D01*
X101368942Y-40876926D01*
X101345050Y-40878100D01*
X100432550Y-40878100D01*
X100408658Y-40876926D01*
X100384997Y-40873416D01*
X100361793Y-40867604D01*
X100339271Y-40859546D01*
X100317647Y-40849318D01*
X100297130Y-40837021D01*
X100277917Y-40822771D01*
X100260193Y-40806707D01*
X100244129Y-40788983D01*
X100229879Y-40769770D01*
X100217582Y-40749253D01*
X100207354Y-40727629D01*
X100199296Y-40705107D01*
X100193484Y-40681903D01*
X100189974Y-40658242D01*
X100188800Y-40634350D01*
X100188800Y-40146850D01*
X100189974Y-40122958D01*
X100193484Y-40099297D01*
X100199296Y-40076093D01*
X100207354Y-40053571D01*
X100217582Y-40031947D01*
X100229879Y-40011430D01*
X100244129Y-39992217D01*
X100260193Y-39974493D01*
X100277917Y-39958429D01*
X100297130Y-39944179D01*
X100317647Y-39931882D01*
X100339271Y-39921654D01*
X100361793Y-39913596D01*
X100384997Y-39907784D01*
X100408658Y-39904274D01*
X100432550Y-39903100D01*
X101345050Y-39903100D01*
X101368942Y-39904274D01*
X101368942Y-39904274D01*
G37*
D13*
X100888800Y-40390600D03*
D12*
G36*
X87874542Y-39991974D02*
G01*
X87898203Y-39995484D01*
X87921407Y-40001296D01*
X87943929Y-40009354D01*
X87965553Y-40019582D01*
X87986070Y-40031879D01*
X88005283Y-40046129D01*
X88023007Y-40062193D01*
X88039071Y-40079917D01*
X88053321Y-40099130D01*
X88065618Y-40119647D01*
X88075846Y-40141271D01*
X88083904Y-40163793D01*
X88089716Y-40186997D01*
X88093226Y-40210658D01*
X88094400Y-40234550D01*
X88094400Y-41147050D01*
X88093226Y-41170942D01*
X88089716Y-41194603D01*
X88083904Y-41217807D01*
X88075846Y-41240329D01*
X88065618Y-41261953D01*
X88053321Y-41282470D01*
X88039071Y-41301683D01*
X88023007Y-41319407D01*
X88005283Y-41335471D01*
X87986070Y-41349721D01*
X87965553Y-41362018D01*
X87943929Y-41372246D01*
X87921407Y-41380304D01*
X87898203Y-41386116D01*
X87874542Y-41389626D01*
X87850650Y-41390800D01*
X87363150Y-41390800D01*
X87339258Y-41389626D01*
X87315597Y-41386116D01*
X87292393Y-41380304D01*
X87269871Y-41372246D01*
X87248247Y-41362018D01*
X87227730Y-41349721D01*
X87208517Y-41335471D01*
X87190793Y-41319407D01*
X87174729Y-41301683D01*
X87160479Y-41282470D01*
X87148182Y-41261953D01*
X87137954Y-41240329D01*
X87129896Y-41217807D01*
X87124084Y-41194603D01*
X87120574Y-41170942D01*
X87119400Y-41147050D01*
X87119400Y-40234550D01*
X87120574Y-40210658D01*
X87124084Y-40186997D01*
X87129896Y-40163793D01*
X87137954Y-40141271D01*
X87148182Y-40119647D01*
X87160479Y-40099130D01*
X87174729Y-40079917D01*
X87190793Y-40062193D01*
X87208517Y-40046129D01*
X87227730Y-40031879D01*
X87248247Y-40019582D01*
X87269871Y-40009354D01*
X87292393Y-40001296D01*
X87315597Y-39995484D01*
X87339258Y-39991974D01*
X87363150Y-39990800D01*
X87850650Y-39990800D01*
X87874542Y-39991974D01*
X87874542Y-39991974D01*
G37*
D13*
X87606900Y-40690800D03*
D12*
G36*
X89749542Y-39991974D02*
G01*
X89773203Y-39995484D01*
X89796407Y-40001296D01*
X89818929Y-40009354D01*
X89840553Y-40019582D01*
X89861070Y-40031879D01*
X89880283Y-40046129D01*
X89898007Y-40062193D01*
X89914071Y-40079917D01*
X89928321Y-40099130D01*
X89940618Y-40119647D01*
X89950846Y-40141271D01*
X89958904Y-40163793D01*
X89964716Y-40186997D01*
X89968226Y-40210658D01*
X89969400Y-40234550D01*
X89969400Y-41147050D01*
X89968226Y-41170942D01*
X89964716Y-41194603D01*
X89958904Y-41217807D01*
X89950846Y-41240329D01*
X89940618Y-41261953D01*
X89928321Y-41282470D01*
X89914071Y-41301683D01*
X89898007Y-41319407D01*
X89880283Y-41335471D01*
X89861070Y-41349721D01*
X89840553Y-41362018D01*
X89818929Y-41372246D01*
X89796407Y-41380304D01*
X89773203Y-41386116D01*
X89749542Y-41389626D01*
X89725650Y-41390800D01*
X89238150Y-41390800D01*
X89214258Y-41389626D01*
X89190597Y-41386116D01*
X89167393Y-41380304D01*
X89144871Y-41372246D01*
X89123247Y-41362018D01*
X89102730Y-41349721D01*
X89083517Y-41335471D01*
X89065793Y-41319407D01*
X89049729Y-41301683D01*
X89035479Y-41282470D01*
X89023182Y-41261953D01*
X89012954Y-41240329D01*
X89004896Y-41217807D01*
X88999084Y-41194603D01*
X88995574Y-41170942D01*
X88994400Y-41147050D01*
X88994400Y-40234550D01*
X88995574Y-40210658D01*
X88999084Y-40186997D01*
X89004896Y-40163793D01*
X89012954Y-40141271D01*
X89023182Y-40119647D01*
X89035479Y-40099130D01*
X89049729Y-40079917D01*
X89065793Y-40062193D01*
X89083517Y-40046129D01*
X89102730Y-40031879D01*
X89123247Y-40019582D01*
X89144871Y-40009354D01*
X89167393Y-40001296D01*
X89190597Y-39995484D01*
X89214258Y-39991974D01*
X89238150Y-39990800D01*
X89725650Y-39990800D01*
X89749542Y-39991974D01*
X89749542Y-39991974D01*
G37*
D13*
X89481900Y-40690800D03*
D12*
G36*
X89574042Y-42379574D02*
G01*
X89597703Y-42383084D01*
X89620907Y-42388896D01*
X89643429Y-42396954D01*
X89665053Y-42407182D01*
X89685570Y-42419479D01*
X89704783Y-42433729D01*
X89722507Y-42449793D01*
X89738571Y-42467517D01*
X89752821Y-42486730D01*
X89765118Y-42507247D01*
X89775346Y-42528871D01*
X89783404Y-42551393D01*
X89789216Y-42574597D01*
X89792726Y-42598258D01*
X89793900Y-42622150D01*
X89793900Y-43534650D01*
X89792726Y-43558542D01*
X89789216Y-43582203D01*
X89783404Y-43605407D01*
X89775346Y-43627929D01*
X89765118Y-43649553D01*
X89752821Y-43670070D01*
X89738571Y-43689283D01*
X89722507Y-43707007D01*
X89704783Y-43723071D01*
X89685570Y-43737321D01*
X89665053Y-43749618D01*
X89643429Y-43759846D01*
X89620907Y-43767904D01*
X89597703Y-43773716D01*
X89574042Y-43777226D01*
X89550150Y-43778400D01*
X89062650Y-43778400D01*
X89038758Y-43777226D01*
X89015097Y-43773716D01*
X88991893Y-43767904D01*
X88969371Y-43759846D01*
X88947747Y-43749618D01*
X88927230Y-43737321D01*
X88908017Y-43723071D01*
X88890293Y-43707007D01*
X88874229Y-43689283D01*
X88859979Y-43670070D01*
X88847682Y-43649553D01*
X88837454Y-43627929D01*
X88829396Y-43605407D01*
X88823584Y-43582203D01*
X88820074Y-43558542D01*
X88818900Y-43534650D01*
X88818900Y-42622150D01*
X88820074Y-42598258D01*
X88823584Y-42574597D01*
X88829396Y-42551393D01*
X88837454Y-42528871D01*
X88847682Y-42507247D01*
X88859979Y-42486730D01*
X88874229Y-42467517D01*
X88890293Y-42449793D01*
X88908017Y-42433729D01*
X88927230Y-42419479D01*
X88947747Y-42407182D01*
X88969371Y-42396954D01*
X88991893Y-42388896D01*
X89015097Y-42383084D01*
X89038758Y-42379574D01*
X89062650Y-42378400D01*
X89550150Y-42378400D01*
X89574042Y-42379574D01*
X89574042Y-42379574D01*
G37*
D13*
X89306400Y-43078400D03*
D12*
G36*
X87699042Y-42379574D02*
G01*
X87722703Y-42383084D01*
X87745907Y-42388896D01*
X87768429Y-42396954D01*
X87790053Y-42407182D01*
X87810570Y-42419479D01*
X87829783Y-42433729D01*
X87847507Y-42449793D01*
X87863571Y-42467517D01*
X87877821Y-42486730D01*
X87890118Y-42507247D01*
X87900346Y-42528871D01*
X87908404Y-42551393D01*
X87914216Y-42574597D01*
X87917726Y-42598258D01*
X87918900Y-42622150D01*
X87918900Y-43534650D01*
X87917726Y-43558542D01*
X87914216Y-43582203D01*
X87908404Y-43605407D01*
X87900346Y-43627929D01*
X87890118Y-43649553D01*
X87877821Y-43670070D01*
X87863571Y-43689283D01*
X87847507Y-43707007D01*
X87829783Y-43723071D01*
X87810570Y-43737321D01*
X87790053Y-43749618D01*
X87768429Y-43759846D01*
X87745907Y-43767904D01*
X87722703Y-43773716D01*
X87699042Y-43777226D01*
X87675150Y-43778400D01*
X87187650Y-43778400D01*
X87163758Y-43777226D01*
X87140097Y-43773716D01*
X87116893Y-43767904D01*
X87094371Y-43759846D01*
X87072747Y-43749618D01*
X87052230Y-43737321D01*
X87033017Y-43723071D01*
X87015293Y-43707007D01*
X86999229Y-43689283D01*
X86984979Y-43670070D01*
X86972682Y-43649553D01*
X86962454Y-43627929D01*
X86954396Y-43605407D01*
X86948584Y-43582203D01*
X86945074Y-43558542D01*
X86943900Y-43534650D01*
X86943900Y-42622150D01*
X86945074Y-42598258D01*
X86948584Y-42574597D01*
X86954396Y-42551393D01*
X86962454Y-42528871D01*
X86972682Y-42507247D01*
X86984979Y-42486730D01*
X86999229Y-42467517D01*
X87015293Y-42449793D01*
X87033017Y-42433729D01*
X87052230Y-42419479D01*
X87072747Y-42407182D01*
X87094371Y-42396954D01*
X87116893Y-42388896D01*
X87140097Y-42383084D01*
X87163758Y-42379574D01*
X87187650Y-42378400D01*
X87675150Y-42378400D01*
X87699042Y-42379574D01*
X87699042Y-42379574D01*
G37*
D13*
X87431400Y-43078400D03*
D12*
G36*
X79640342Y-42735174D02*
G01*
X79664003Y-42738684D01*
X79687207Y-42744496D01*
X79709729Y-42752554D01*
X79731353Y-42762782D01*
X79751870Y-42775079D01*
X79771083Y-42789329D01*
X79788807Y-42805393D01*
X79804871Y-42823117D01*
X79819121Y-42842330D01*
X79831418Y-42862847D01*
X79841646Y-42884471D01*
X79849704Y-42906993D01*
X79855516Y-42930197D01*
X79859026Y-42953858D01*
X79860200Y-42977750D01*
X79860200Y-43890250D01*
X79859026Y-43914142D01*
X79855516Y-43937803D01*
X79849704Y-43961007D01*
X79841646Y-43983529D01*
X79831418Y-44005153D01*
X79819121Y-44025670D01*
X79804871Y-44044883D01*
X79788807Y-44062607D01*
X79771083Y-44078671D01*
X79751870Y-44092921D01*
X79731353Y-44105218D01*
X79709729Y-44115446D01*
X79687207Y-44123504D01*
X79664003Y-44129316D01*
X79640342Y-44132826D01*
X79616450Y-44134000D01*
X79128950Y-44134000D01*
X79105058Y-44132826D01*
X79081397Y-44129316D01*
X79058193Y-44123504D01*
X79035671Y-44115446D01*
X79014047Y-44105218D01*
X78993530Y-44092921D01*
X78974317Y-44078671D01*
X78956593Y-44062607D01*
X78940529Y-44044883D01*
X78926279Y-44025670D01*
X78913982Y-44005153D01*
X78903754Y-43983529D01*
X78895696Y-43961007D01*
X78889884Y-43937803D01*
X78886374Y-43914142D01*
X78885200Y-43890250D01*
X78885200Y-42977750D01*
X78886374Y-42953858D01*
X78889884Y-42930197D01*
X78895696Y-42906993D01*
X78903754Y-42884471D01*
X78913982Y-42862847D01*
X78926279Y-42842330D01*
X78940529Y-42823117D01*
X78956593Y-42805393D01*
X78974317Y-42789329D01*
X78993530Y-42775079D01*
X79014047Y-42762782D01*
X79035671Y-42752554D01*
X79058193Y-42744496D01*
X79081397Y-42738684D01*
X79105058Y-42735174D01*
X79128950Y-42734000D01*
X79616450Y-42734000D01*
X79640342Y-42735174D01*
X79640342Y-42735174D01*
G37*
D13*
X79372700Y-43434000D03*
D12*
G36*
X77765342Y-42735174D02*
G01*
X77789003Y-42738684D01*
X77812207Y-42744496D01*
X77834729Y-42752554D01*
X77856353Y-42762782D01*
X77876870Y-42775079D01*
X77896083Y-42789329D01*
X77913807Y-42805393D01*
X77929871Y-42823117D01*
X77944121Y-42842330D01*
X77956418Y-42862847D01*
X77966646Y-42884471D01*
X77974704Y-42906993D01*
X77980516Y-42930197D01*
X77984026Y-42953858D01*
X77985200Y-42977750D01*
X77985200Y-43890250D01*
X77984026Y-43914142D01*
X77980516Y-43937803D01*
X77974704Y-43961007D01*
X77966646Y-43983529D01*
X77956418Y-44005153D01*
X77944121Y-44025670D01*
X77929871Y-44044883D01*
X77913807Y-44062607D01*
X77896083Y-44078671D01*
X77876870Y-44092921D01*
X77856353Y-44105218D01*
X77834729Y-44115446D01*
X77812207Y-44123504D01*
X77789003Y-44129316D01*
X77765342Y-44132826D01*
X77741450Y-44134000D01*
X77253950Y-44134000D01*
X77230058Y-44132826D01*
X77206397Y-44129316D01*
X77183193Y-44123504D01*
X77160671Y-44115446D01*
X77139047Y-44105218D01*
X77118530Y-44092921D01*
X77099317Y-44078671D01*
X77081593Y-44062607D01*
X77065529Y-44044883D01*
X77051279Y-44025670D01*
X77038982Y-44005153D01*
X77028754Y-43983529D01*
X77020696Y-43961007D01*
X77014884Y-43937803D01*
X77011374Y-43914142D01*
X77010200Y-43890250D01*
X77010200Y-42977750D01*
X77011374Y-42953858D01*
X77014884Y-42930197D01*
X77020696Y-42906993D01*
X77028754Y-42884471D01*
X77038982Y-42862847D01*
X77051279Y-42842330D01*
X77065529Y-42823117D01*
X77081593Y-42805393D01*
X77099317Y-42789329D01*
X77118530Y-42775079D01*
X77139047Y-42762782D01*
X77160671Y-42752554D01*
X77183193Y-42744496D01*
X77206397Y-42738684D01*
X77230058Y-42735174D01*
X77253950Y-42734000D01*
X77741450Y-42734000D01*
X77765342Y-42735174D01*
X77765342Y-42735174D01*
G37*
D13*
X77497700Y-43434000D03*
D12*
G36*
X76796704Y-39817004D02*
G01*
X76820973Y-39820604D01*
X76844771Y-39826565D01*
X76867871Y-39834830D01*
X76890049Y-39845320D01*
X76911093Y-39857933D01*
X76930798Y-39872547D01*
X76948977Y-39889023D01*
X76965453Y-39907202D01*
X76980067Y-39926907D01*
X76992680Y-39947951D01*
X77003170Y-39970129D01*
X77011435Y-39993229D01*
X77017396Y-40017027D01*
X77020996Y-40041296D01*
X77022200Y-40065800D01*
X77022200Y-41315800D01*
X77020996Y-41340304D01*
X77017396Y-41364573D01*
X77011435Y-41388371D01*
X77003170Y-41411471D01*
X76992680Y-41433649D01*
X76980067Y-41454693D01*
X76965453Y-41474398D01*
X76948977Y-41492577D01*
X76930798Y-41509053D01*
X76911093Y-41523667D01*
X76890049Y-41536280D01*
X76867871Y-41546770D01*
X76844771Y-41555035D01*
X76820973Y-41560996D01*
X76796704Y-41564596D01*
X76772200Y-41565800D01*
X76022200Y-41565800D01*
X75997696Y-41564596D01*
X75973427Y-41560996D01*
X75949629Y-41555035D01*
X75926529Y-41546770D01*
X75904351Y-41536280D01*
X75883307Y-41523667D01*
X75863602Y-41509053D01*
X75845423Y-41492577D01*
X75828947Y-41474398D01*
X75814333Y-41454693D01*
X75801720Y-41433649D01*
X75791230Y-41411471D01*
X75782965Y-41388371D01*
X75777004Y-41364573D01*
X75773404Y-41340304D01*
X75772200Y-41315800D01*
X75772200Y-40065800D01*
X75773404Y-40041296D01*
X75777004Y-40017027D01*
X75782965Y-39993229D01*
X75791230Y-39970129D01*
X75801720Y-39947951D01*
X75814333Y-39926907D01*
X75828947Y-39907202D01*
X75845423Y-39889023D01*
X75863602Y-39872547D01*
X75883307Y-39857933D01*
X75904351Y-39845320D01*
X75926529Y-39834830D01*
X75949629Y-39826565D01*
X75973427Y-39820604D01*
X75997696Y-39817004D01*
X76022200Y-39815800D01*
X76772200Y-39815800D01*
X76796704Y-39817004D01*
X76796704Y-39817004D01*
G37*
D15*
X76397200Y-40690800D03*
D12*
G36*
X79596704Y-39817004D02*
G01*
X79620973Y-39820604D01*
X79644771Y-39826565D01*
X79667871Y-39834830D01*
X79690049Y-39845320D01*
X79711093Y-39857933D01*
X79730798Y-39872547D01*
X79748977Y-39889023D01*
X79765453Y-39907202D01*
X79780067Y-39926907D01*
X79792680Y-39947951D01*
X79803170Y-39970129D01*
X79811435Y-39993229D01*
X79817396Y-40017027D01*
X79820996Y-40041296D01*
X79822200Y-40065800D01*
X79822200Y-41315800D01*
X79820996Y-41340304D01*
X79817396Y-41364573D01*
X79811435Y-41388371D01*
X79803170Y-41411471D01*
X79792680Y-41433649D01*
X79780067Y-41454693D01*
X79765453Y-41474398D01*
X79748977Y-41492577D01*
X79730798Y-41509053D01*
X79711093Y-41523667D01*
X79690049Y-41536280D01*
X79667871Y-41546770D01*
X79644771Y-41555035D01*
X79620973Y-41560996D01*
X79596704Y-41564596D01*
X79572200Y-41565800D01*
X78822200Y-41565800D01*
X78797696Y-41564596D01*
X78773427Y-41560996D01*
X78749629Y-41555035D01*
X78726529Y-41546770D01*
X78704351Y-41536280D01*
X78683307Y-41523667D01*
X78663602Y-41509053D01*
X78645423Y-41492577D01*
X78628947Y-41474398D01*
X78614333Y-41454693D01*
X78601720Y-41433649D01*
X78591230Y-41411471D01*
X78582965Y-41388371D01*
X78577004Y-41364573D01*
X78573404Y-41340304D01*
X78572200Y-41315800D01*
X78572200Y-40065800D01*
X78573404Y-40041296D01*
X78577004Y-40017027D01*
X78582965Y-39993229D01*
X78591230Y-39970129D01*
X78601720Y-39947951D01*
X78614333Y-39926907D01*
X78628947Y-39907202D01*
X78645423Y-39889023D01*
X78663602Y-39872547D01*
X78683307Y-39857933D01*
X78704351Y-39845320D01*
X78726529Y-39834830D01*
X78749629Y-39826565D01*
X78773427Y-39820604D01*
X78797696Y-39817004D01*
X78822200Y-39815800D01*
X79572200Y-39815800D01*
X79596704Y-39817004D01*
X79596704Y-39817004D01*
G37*
D15*
X79197200Y-40690800D03*
D12*
G36*
X101064142Y-52345674D02*
G01*
X101087803Y-52349184D01*
X101111007Y-52354996D01*
X101133529Y-52363054D01*
X101155153Y-52373282D01*
X101175670Y-52385579D01*
X101194883Y-52399829D01*
X101212607Y-52415893D01*
X101228671Y-52433617D01*
X101242921Y-52452830D01*
X101255218Y-52473347D01*
X101265446Y-52494971D01*
X101273504Y-52517493D01*
X101279316Y-52540697D01*
X101282826Y-52564358D01*
X101284000Y-52588250D01*
X101284000Y-53075750D01*
X101282826Y-53099642D01*
X101279316Y-53123303D01*
X101273504Y-53146507D01*
X101265446Y-53169029D01*
X101255218Y-53190653D01*
X101242921Y-53211170D01*
X101228671Y-53230383D01*
X101212607Y-53248107D01*
X101194883Y-53264171D01*
X101175670Y-53278421D01*
X101155153Y-53290718D01*
X101133529Y-53300946D01*
X101111007Y-53309004D01*
X101087803Y-53314816D01*
X101064142Y-53318326D01*
X101040250Y-53319500D01*
X100127750Y-53319500D01*
X100103858Y-53318326D01*
X100080197Y-53314816D01*
X100056993Y-53309004D01*
X100034471Y-53300946D01*
X100012847Y-53290718D01*
X99992330Y-53278421D01*
X99973117Y-53264171D01*
X99955393Y-53248107D01*
X99939329Y-53230383D01*
X99925079Y-53211170D01*
X99912782Y-53190653D01*
X99902554Y-53169029D01*
X99894496Y-53146507D01*
X99888684Y-53123303D01*
X99885174Y-53099642D01*
X99884000Y-53075750D01*
X99884000Y-52588250D01*
X99885174Y-52564358D01*
X99888684Y-52540697D01*
X99894496Y-52517493D01*
X99902554Y-52494971D01*
X99912782Y-52473347D01*
X99925079Y-52452830D01*
X99939329Y-52433617D01*
X99955393Y-52415893D01*
X99973117Y-52399829D01*
X99992330Y-52385579D01*
X100012847Y-52373282D01*
X100034471Y-52363054D01*
X100056993Y-52354996D01*
X100080197Y-52349184D01*
X100103858Y-52345674D01*
X100127750Y-52344500D01*
X101040250Y-52344500D01*
X101064142Y-52345674D01*
X101064142Y-52345674D01*
G37*
D13*
X100584000Y-52832000D03*
D12*
G36*
X101064142Y-54220674D02*
G01*
X101087803Y-54224184D01*
X101111007Y-54229996D01*
X101133529Y-54238054D01*
X101155153Y-54248282D01*
X101175670Y-54260579D01*
X101194883Y-54274829D01*
X101212607Y-54290893D01*
X101228671Y-54308617D01*
X101242921Y-54327830D01*
X101255218Y-54348347D01*
X101265446Y-54369971D01*
X101273504Y-54392493D01*
X101279316Y-54415697D01*
X101282826Y-54439358D01*
X101284000Y-54463250D01*
X101284000Y-54950750D01*
X101282826Y-54974642D01*
X101279316Y-54998303D01*
X101273504Y-55021507D01*
X101265446Y-55044029D01*
X101255218Y-55065653D01*
X101242921Y-55086170D01*
X101228671Y-55105383D01*
X101212607Y-55123107D01*
X101194883Y-55139171D01*
X101175670Y-55153421D01*
X101155153Y-55165718D01*
X101133529Y-55175946D01*
X101111007Y-55184004D01*
X101087803Y-55189816D01*
X101064142Y-55193326D01*
X101040250Y-55194500D01*
X100127750Y-55194500D01*
X100103858Y-55193326D01*
X100080197Y-55189816D01*
X100056993Y-55184004D01*
X100034471Y-55175946D01*
X100012847Y-55165718D01*
X99992330Y-55153421D01*
X99973117Y-55139171D01*
X99955393Y-55123107D01*
X99939329Y-55105383D01*
X99925079Y-55086170D01*
X99912782Y-55065653D01*
X99902554Y-55044029D01*
X99894496Y-55021507D01*
X99888684Y-54998303D01*
X99885174Y-54974642D01*
X99884000Y-54950750D01*
X99884000Y-54463250D01*
X99885174Y-54439358D01*
X99888684Y-54415697D01*
X99894496Y-54392493D01*
X99902554Y-54369971D01*
X99912782Y-54348347D01*
X99925079Y-54327830D01*
X99939329Y-54308617D01*
X99955393Y-54290893D01*
X99973117Y-54274829D01*
X99992330Y-54260579D01*
X100012847Y-54248282D01*
X100034471Y-54238054D01*
X100056993Y-54229996D01*
X100080197Y-54224184D01*
X100103858Y-54220674D01*
X100127750Y-54219500D01*
X101040250Y-54219500D01*
X101064142Y-54220674D01*
X101064142Y-54220674D01*
G37*
D13*
X100584000Y-54707000D03*
D12*
G36*
X101368942Y-45330674D02*
G01*
X101392603Y-45334184D01*
X101415807Y-45339996D01*
X101438329Y-45348054D01*
X101459953Y-45358282D01*
X101480470Y-45370579D01*
X101499683Y-45384829D01*
X101517407Y-45400893D01*
X101533471Y-45418617D01*
X101547721Y-45437830D01*
X101560018Y-45458347D01*
X101570246Y-45479971D01*
X101578304Y-45502493D01*
X101584116Y-45525697D01*
X101587626Y-45549358D01*
X101588800Y-45573250D01*
X101588800Y-46060750D01*
X101587626Y-46084642D01*
X101584116Y-46108303D01*
X101578304Y-46131507D01*
X101570246Y-46154029D01*
X101560018Y-46175653D01*
X101547721Y-46196170D01*
X101533471Y-46215383D01*
X101517407Y-46233107D01*
X101499683Y-46249171D01*
X101480470Y-46263421D01*
X101459953Y-46275718D01*
X101438329Y-46285946D01*
X101415807Y-46294004D01*
X101392603Y-46299816D01*
X101368942Y-46303326D01*
X101345050Y-46304500D01*
X100432550Y-46304500D01*
X100408658Y-46303326D01*
X100384997Y-46299816D01*
X100361793Y-46294004D01*
X100339271Y-46285946D01*
X100317647Y-46275718D01*
X100297130Y-46263421D01*
X100277917Y-46249171D01*
X100260193Y-46233107D01*
X100244129Y-46215383D01*
X100229879Y-46196170D01*
X100217582Y-46175653D01*
X100207354Y-46154029D01*
X100199296Y-46131507D01*
X100193484Y-46108303D01*
X100189974Y-46084642D01*
X100188800Y-46060750D01*
X100188800Y-45573250D01*
X100189974Y-45549358D01*
X100193484Y-45525697D01*
X100199296Y-45502493D01*
X100207354Y-45479971D01*
X100217582Y-45458347D01*
X100229879Y-45437830D01*
X100244129Y-45418617D01*
X100260193Y-45400893D01*
X100277917Y-45384829D01*
X100297130Y-45370579D01*
X100317647Y-45358282D01*
X100339271Y-45348054D01*
X100361793Y-45339996D01*
X100384997Y-45334184D01*
X100408658Y-45330674D01*
X100432550Y-45329500D01*
X101345050Y-45329500D01*
X101368942Y-45330674D01*
X101368942Y-45330674D01*
G37*
D13*
X100888800Y-45817000D03*
D12*
G36*
X101368942Y-43455674D02*
G01*
X101392603Y-43459184D01*
X101415807Y-43464996D01*
X101438329Y-43473054D01*
X101459953Y-43483282D01*
X101480470Y-43495579D01*
X101499683Y-43509829D01*
X101517407Y-43525893D01*
X101533471Y-43543617D01*
X101547721Y-43562830D01*
X101560018Y-43583347D01*
X101570246Y-43604971D01*
X101578304Y-43627493D01*
X101584116Y-43650697D01*
X101587626Y-43674358D01*
X101588800Y-43698250D01*
X101588800Y-44185750D01*
X101587626Y-44209642D01*
X101584116Y-44233303D01*
X101578304Y-44256507D01*
X101570246Y-44279029D01*
X101560018Y-44300653D01*
X101547721Y-44321170D01*
X101533471Y-44340383D01*
X101517407Y-44358107D01*
X101499683Y-44374171D01*
X101480470Y-44388421D01*
X101459953Y-44400718D01*
X101438329Y-44410946D01*
X101415807Y-44419004D01*
X101392603Y-44424816D01*
X101368942Y-44428326D01*
X101345050Y-44429500D01*
X100432550Y-44429500D01*
X100408658Y-44428326D01*
X100384997Y-44424816D01*
X100361793Y-44419004D01*
X100339271Y-44410946D01*
X100317647Y-44400718D01*
X100297130Y-44388421D01*
X100277917Y-44374171D01*
X100260193Y-44358107D01*
X100244129Y-44340383D01*
X100229879Y-44321170D01*
X100217582Y-44300653D01*
X100207354Y-44279029D01*
X100199296Y-44256507D01*
X100193484Y-44233303D01*
X100189974Y-44209642D01*
X100188800Y-44185750D01*
X100188800Y-43698250D01*
X100189974Y-43674358D01*
X100193484Y-43650697D01*
X100199296Y-43627493D01*
X100207354Y-43604971D01*
X100217582Y-43583347D01*
X100229879Y-43562830D01*
X100244129Y-43543617D01*
X100260193Y-43525893D01*
X100277917Y-43509829D01*
X100297130Y-43495579D01*
X100317647Y-43483282D01*
X100339271Y-43473054D01*
X100361793Y-43464996D01*
X100384997Y-43459184D01*
X100408658Y-43455674D01*
X100432550Y-43454500D01*
X101345050Y-43454500D01*
X101368942Y-43455674D01*
X101368942Y-43455674D01*
G37*
D13*
X100888800Y-43942000D03*
D12*
G36*
X91462942Y-66417274D02*
G01*
X91486603Y-66420784D01*
X91509807Y-66426596D01*
X91532329Y-66434654D01*
X91553953Y-66444882D01*
X91574470Y-66457179D01*
X91593683Y-66471429D01*
X91611407Y-66487493D01*
X91627471Y-66505217D01*
X91641721Y-66524430D01*
X91654018Y-66544947D01*
X91664246Y-66566571D01*
X91672304Y-66589093D01*
X91678116Y-66612297D01*
X91681626Y-66635958D01*
X91682800Y-66659850D01*
X91682800Y-67147350D01*
X91681626Y-67171242D01*
X91678116Y-67194903D01*
X91672304Y-67218107D01*
X91664246Y-67240629D01*
X91654018Y-67262253D01*
X91641721Y-67282770D01*
X91627471Y-67301983D01*
X91611407Y-67319707D01*
X91593683Y-67335771D01*
X91574470Y-67350021D01*
X91553953Y-67362318D01*
X91532329Y-67372546D01*
X91509807Y-67380604D01*
X91486603Y-67386416D01*
X91462942Y-67389926D01*
X91439050Y-67391100D01*
X90526550Y-67391100D01*
X90502658Y-67389926D01*
X90478997Y-67386416D01*
X90455793Y-67380604D01*
X90433271Y-67372546D01*
X90411647Y-67362318D01*
X90391130Y-67350021D01*
X90371917Y-67335771D01*
X90354193Y-67319707D01*
X90338129Y-67301983D01*
X90323879Y-67282770D01*
X90311582Y-67262253D01*
X90301354Y-67240629D01*
X90293296Y-67218107D01*
X90287484Y-67194903D01*
X90283974Y-67171242D01*
X90282800Y-67147350D01*
X90282800Y-66659850D01*
X90283974Y-66635958D01*
X90287484Y-66612297D01*
X90293296Y-66589093D01*
X90301354Y-66566571D01*
X90311582Y-66544947D01*
X90323879Y-66524430D01*
X90338129Y-66505217D01*
X90354193Y-66487493D01*
X90371917Y-66471429D01*
X90391130Y-66457179D01*
X90411647Y-66444882D01*
X90433271Y-66434654D01*
X90455793Y-66426596D01*
X90478997Y-66420784D01*
X90502658Y-66417274D01*
X90526550Y-66416100D01*
X91439050Y-66416100D01*
X91462942Y-66417274D01*
X91462942Y-66417274D01*
G37*
D13*
X90982800Y-66903600D03*
D12*
G36*
X91462942Y-68292274D02*
G01*
X91486603Y-68295784D01*
X91509807Y-68301596D01*
X91532329Y-68309654D01*
X91553953Y-68319882D01*
X91574470Y-68332179D01*
X91593683Y-68346429D01*
X91611407Y-68362493D01*
X91627471Y-68380217D01*
X91641721Y-68399430D01*
X91654018Y-68419947D01*
X91664246Y-68441571D01*
X91672304Y-68464093D01*
X91678116Y-68487297D01*
X91681626Y-68510958D01*
X91682800Y-68534850D01*
X91682800Y-69022350D01*
X91681626Y-69046242D01*
X91678116Y-69069903D01*
X91672304Y-69093107D01*
X91664246Y-69115629D01*
X91654018Y-69137253D01*
X91641721Y-69157770D01*
X91627471Y-69176983D01*
X91611407Y-69194707D01*
X91593683Y-69210771D01*
X91574470Y-69225021D01*
X91553953Y-69237318D01*
X91532329Y-69247546D01*
X91509807Y-69255604D01*
X91486603Y-69261416D01*
X91462942Y-69264926D01*
X91439050Y-69266100D01*
X90526550Y-69266100D01*
X90502658Y-69264926D01*
X90478997Y-69261416D01*
X90455793Y-69255604D01*
X90433271Y-69247546D01*
X90411647Y-69237318D01*
X90391130Y-69225021D01*
X90371917Y-69210771D01*
X90354193Y-69194707D01*
X90338129Y-69176983D01*
X90323879Y-69157770D01*
X90311582Y-69137253D01*
X90301354Y-69115629D01*
X90293296Y-69093107D01*
X90287484Y-69069903D01*
X90283974Y-69046242D01*
X90282800Y-69022350D01*
X90282800Y-68534850D01*
X90283974Y-68510958D01*
X90287484Y-68487297D01*
X90293296Y-68464093D01*
X90301354Y-68441571D01*
X90311582Y-68419947D01*
X90323879Y-68399430D01*
X90338129Y-68380217D01*
X90354193Y-68362493D01*
X90371917Y-68346429D01*
X90391130Y-68332179D01*
X90411647Y-68319882D01*
X90433271Y-68309654D01*
X90455793Y-68301596D01*
X90478997Y-68295784D01*
X90502658Y-68292274D01*
X90526550Y-68291100D01*
X91439050Y-68291100D01*
X91462942Y-68292274D01*
X91462942Y-68292274D01*
G37*
D13*
X90982800Y-68778600D03*
D12*
G36*
X93494942Y-68292274D02*
G01*
X93518603Y-68295784D01*
X93541807Y-68301596D01*
X93564329Y-68309654D01*
X93585953Y-68319882D01*
X93606470Y-68332179D01*
X93625683Y-68346429D01*
X93643407Y-68362493D01*
X93659471Y-68380217D01*
X93673721Y-68399430D01*
X93686018Y-68419947D01*
X93696246Y-68441571D01*
X93704304Y-68464093D01*
X93710116Y-68487297D01*
X93713626Y-68510958D01*
X93714800Y-68534850D01*
X93714800Y-69022350D01*
X93713626Y-69046242D01*
X93710116Y-69069903D01*
X93704304Y-69093107D01*
X93696246Y-69115629D01*
X93686018Y-69137253D01*
X93673721Y-69157770D01*
X93659471Y-69176983D01*
X93643407Y-69194707D01*
X93625683Y-69210771D01*
X93606470Y-69225021D01*
X93585953Y-69237318D01*
X93564329Y-69247546D01*
X93541807Y-69255604D01*
X93518603Y-69261416D01*
X93494942Y-69264926D01*
X93471050Y-69266100D01*
X92558550Y-69266100D01*
X92534658Y-69264926D01*
X92510997Y-69261416D01*
X92487793Y-69255604D01*
X92465271Y-69247546D01*
X92443647Y-69237318D01*
X92423130Y-69225021D01*
X92403917Y-69210771D01*
X92386193Y-69194707D01*
X92370129Y-69176983D01*
X92355879Y-69157770D01*
X92343582Y-69137253D01*
X92333354Y-69115629D01*
X92325296Y-69093107D01*
X92319484Y-69069903D01*
X92315974Y-69046242D01*
X92314800Y-69022350D01*
X92314800Y-68534850D01*
X92315974Y-68510958D01*
X92319484Y-68487297D01*
X92325296Y-68464093D01*
X92333354Y-68441571D01*
X92343582Y-68419947D01*
X92355879Y-68399430D01*
X92370129Y-68380217D01*
X92386193Y-68362493D01*
X92403917Y-68346429D01*
X92423130Y-68332179D01*
X92443647Y-68319882D01*
X92465271Y-68309654D01*
X92487793Y-68301596D01*
X92510997Y-68295784D01*
X92534658Y-68292274D01*
X92558550Y-68291100D01*
X93471050Y-68291100D01*
X93494942Y-68292274D01*
X93494942Y-68292274D01*
G37*
D13*
X93014800Y-68778600D03*
D12*
G36*
X93494942Y-66417274D02*
G01*
X93518603Y-66420784D01*
X93541807Y-66426596D01*
X93564329Y-66434654D01*
X93585953Y-66444882D01*
X93606470Y-66457179D01*
X93625683Y-66471429D01*
X93643407Y-66487493D01*
X93659471Y-66505217D01*
X93673721Y-66524430D01*
X93686018Y-66544947D01*
X93696246Y-66566571D01*
X93704304Y-66589093D01*
X93710116Y-66612297D01*
X93713626Y-66635958D01*
X93714800Y-66659850D01*
X93714800Y-67147350D01*
X93713626Y-67171242D01*
X93710116Y-67194903D01*
X93704304Y-67218107D01*
X93696246Y-67240629D01*
X93686018Y-67262253D01*
X93673721Y-67282770D01*
X93659471Y-67301983D01*
X93643407Y-67319707D01*
X93625683Y-67335771D01*
X93606470Y-67350021D01*
X93585953Y-67362318D01*
X93564329Y-67372546D01*
X93541807Y-67380604D01*
X93518603Y-67386416D01*
X93494942Y-67389926D01*
X93471050Y-67391100D01*
X92558550Y-67391100D01*
X92534658Y-67389926D01*
X92510997Y-67386416D01*
X92487793Y-67380604D01*
X92465271Y-67372546D01*
X92443647Y-67362318D01*
X92423130Y-67350021D01*
X92403917Y-67335771D01*
X92386193Y-67319707D01*
X92370129Y-67301983D01*
X92355879Y-67282770D01*
X92343582Y-67262253D01*
X92333354Y-67240629D01*
X92325296Y-67218107D01*
X92319484Y-67194903D01*
X92315974Y-67171242D01*
X92314800Y-67147350D01*
X92314800Y-66659850D01*
X92315974Y-66635958D01*
X92319484Y-66612297D01*
X92325296Y-66589093D01*
X92333354Y-66566571D01*
X92343582Y-66544947D01*
X92355879Y-66524430D01*
X92370129Y-66505217D01*
X92386193Y-66487493D01*
X92403917Y-66471429D01*
X92423130Y-66457179D01*
X92443647Y-66444882D01*
X92465271Y-66434654D01*
X92487793Y-66426596D01*
X92510997Y-66420784D01*
X92534658Y-66417274D01*
X92558550Y-66416100D01*
X93471050Y-66416100D01*
X93494942Y-66417274D01*
X93494942Y-66417274D01*
G37*
D13*
X93014800Y-66903600D03*
D12*
G36*
X95526942Y-66421874D02*
G01*
X95550603Y-66425384D01*
X95573807Y-66431196D01*
X95596329Y-66439254D01*
X95617953Y-66449482D01*
X95638470Y-66461779D01*
X95657683Y-66476029D01*
X95675407Y-66492093D01*
X95691471Y-66509817D01*
X95705721Y-66529030D01*
X95718018Y-66549547D01*
X95728246Y-66571171D01*
X95736304Y-66593693D01*
X95742116Y-66616897D01*
X95745626Y-66640558D01*
X95746800Y-66664450D01*
X95746800Y-67151950D01*
X95745626Y-67175842D01*
X95742116Y-67199503D01*
X95736304Y-67222707D01*
X95728246Y-67245229D01*
X95718018Y-67266853D01*
X95705721Y-67287370D01*
X95691471Y-67306583D01*
X95675407Y-67324307D01*
X95657683Y-67340371D01*
X95638470Y-67354621D01*
X95617953Y-67366918D01*
X95596329Y-67377146D01*
X95573807Y-67385204D01*
X95550603Y-67391016D01*
X95526942Y-67394526D01*
X95503050Y-67395700D01*
X94590550Y-67395700D01*
X94566658Y-67394526D01*
X94542997Y-67391016D01*
X94519793Y-67385204D01*
X94497271Y-67377146D01*
X94475647Y-67366918D01*
X94455130Y-67354621D01*
X94435917Y-67340371D01*
X94418193Y-67324307D01*
X94402129Y-67306583D01*
X94387879Y-67287370D01*
X94375582Y-67266853D01*
X94365354Y-67245229D01*
X94357296Y-67222707D01*
X94351484Y-67199503D01*
X94347974Y-67175842D01*
X94346800Y-67151950D01*
X94346800Y-66664450D01*
X94347974Y-66640558D01*
X94351484Y-66616897D01*
X94357296Y-66593693D01*
X94365354Y-66571171D01*
X94375582Y-66549547D01*
X94387879Y-66529030D01*
X94402129Y-66509817D01*
X94418193Y-66492093D01*
X94435917Y-66476029D01*
X94455130Y-66461779D01*
X94475647Y-66449482D01*
X94497271Y-66439254D01*
X94519793Y-66431196D01*
X94542997Y-66425384D01*
X94566658Y-66421874D01*
X94590550Y-66420700D01*
X95503050Y-66420700D01*
X95526942Y-66421874D01*
X95526942Y-66421874D01*
G37*
D13*
X95046800Y-66908200D03*
D12*
G36*
X95526942Y-68296874D02*
G01*
X95550603Y-68300384D01*
X95573807Y-68306196D01*
X95596329Y-68314254D01*
X95617953Y-68324482D01*
X95638470Y-68336779D01*
X95657683Y-68351029D01*
X95675407Y-68367093D01*
X95691471Y-68384817D01*
X95705721Y-68404030D01*
X95718018Y-68424547D01*
X95728246Y-68446171D01*
X95736304Y-68468693D01*
X95742116Y-68491897D01*
X95745626Y-68515558D01*
X95746800Y-68539450D01*
X95746800Y-69026950D01*
X95745626Y-69050842D01*
X95742116Y-69074503D01*
X95736304Y-69097707D01*
X95728246Y-69120229D01*
X95718018Y-69141853D01*
X95705721Y-69162370D01*
X95691471Y-69181583D01*
X95675407Y-69199307D01*
X95657683Y-69215371D01*
X95638470Y-69229621D01*
X95617953Y-69241918D01*
X95596329Y-69252146D01*
X95573807Y-69260204D01*
X95550603Y-69266016D01*
X95526942Y-69269526D01*
X95503050Y-69270700D01*
X94590550Y-69270700D01*
X94566658Y-69269526D01*
X94542997Y-69266016D01*
X94519793Y-69260204D01*
X94497271Y-69252146D01*
X94475647Y-69241918D01*
X94455130Y-69229621D01*
X94435917Y-69215371D01*
X94418193Y-69199307D01*
X94402129Y-69181583D01*
X94387879Y-69162370D01*
X94375582Y-69141853D01*
X94365354Y-69120229D01*
X94357296Y-69097707D01*
X94351484Y-69074503D01*
X94347974Y-69050842D01*
X94346800Y-69026950D01*
X94346800Y-68539450D01*
X94347974Y-68515558D01*
X94351484Y-68491897D01*
X94357296Y-68468693D01*
X94365354Y-68446171D01*
X94375582Y-68424547D01*
X94387879Y-68404030D01*
X94402129Y-68384817D01*
X94418193Y-68367093D01*
X94435917Y-68351029D01*
X94455130Y-68336779D01*
X94475647Y-68324482D01*
X94497271Y-68314254D01*
X94519793Y-68306196D01*
X94542997Y-68300384D01*
X94566658Y-68296874D01*
X94590550Y-68295700D01*
X95503050Y-68295700D01*
X95526942Y-68296874D01*
X95526942Y-68296874D01*
G37*
D13*
X95046800Y-68783200D03*
D12*
G36*
X95882542Y-51689874D02*
G01*
X95906203Y-51693384D01*
X95929407Y-51699196D01*
X95951929Y-51707254D01*
X95973553Y-51717482D01*
X95994070Y-51729779D01*
X96013283Y-51744029D01*
X96031007Y-51760093D01*
X96047071Y-51777817D01*
X96061321Y-51797030D01*
X96073618Y-51817547D01*
X96083846Y-51839171D01*
X96091904Y-51861693D01*
X96097716Y-51884897D01*
X96101226Y-51908558D01*
X96102400Y-51932450D01*
X96102400Y-52419950D01*
X96101226Y-52443842D01*
X96097716Y-52467503D01*
X96091904Y-52490707D01*
X96083846Y-52513229D01*
X96073618Y-52534853D01*
X96061321Y-52555370D01*
X96047071Y-52574583D01*
X96031007Y-52592307D01*
X96013283Y-52608371D01*
X95994070Y-52622621D01*
X95973553Y-52634918D01*
X95951929Y-52645146D01*
X95929407Y-52653204D01*
X95906203Y-52659016D01*
X95882542Y-52662526D01*
X95858650Y-52663700D01*
X94946150Y-52663700D01*
X94922258Y-52662526D01*
X94898597Y-52659016D01*
X94875393Y-52653204D01*
X94852871Y-52645146D01*
X94831247Y-52634918D01*
X94810730Y-52622621D01*
X94791517Y-52608371D01*
X94773793Y-52592307D01*
X94757729Y-52574583D01*
X94743479Y-52555370D01*
X94731182Y-52534853D01*
X94720954Y-52513229D01*
X94712896Y-52490707D01*
X94707084Y-52467503D01*
X94703574Y-52443842D01*
X94702400Y-52419950D01*
X94702400Y-51932450D01*
X94703574Y-51908558D01*
X94707084Y-51884897D01*
X94712896Y-51861693D01*
X94720954Y-51839171D01*
X94731182Y-51817547D01*
X94743479Y-51797030D01*
X94757729Y-51777817D01*
X94773793Y-51760093D01*
X94791517Y-51744029D01*
X94810730Y-51729779D01*
X94831247Y-51717482D01*
X94852871Y-51707254D01*
X94875393Y-51699196D01*
X94898597Y-51693384D01*
X94922258Y-51689874D01*
X94946150Y-51688700D01*
X95858650Y-51688700D01*
X95882542Y-51689874D01*
X95882542Y-51689874D01*
G37*
D13*
X95402400Y-52176200D03*
D12*
G36*
X95882542Y-53564874D02*
G01*
X95906203Y-53568384D01*
X95929407Y-53574196D01*
X95951929Y-53582254D01*
X95973553Y-53592482D01*
X95994070Y-53604779D01*
X96013283Y-53619029D01*
X96031007Y-53635093D01*
X96047071Y-53652817D01*
X96061321Y-53672030D01*
X96073618Y-53692547D01*
X96083846Y-53714171D01*
X96091904Y-53736693D01*
X96097716Y-53759897D01*
X96101226Y-53783558D01*
X96102400Y-53807450D01*
X96102400Y-54294950D01*
X96101226Y-54318842D01*
X96097716Y-54342503D01*
X96091904Y-54365707D01*
X96083846Y-54388229D01*
X96073618Y-54409853D01*
X96061321Y-54430370D01*
X96047071Y-54449583D01*
X96031007Y-54467307D01*
X96013283Y-54483371D01*
X95994070Y-54497621D01*
X95973553Y-54509918D01*
X95951929Y-54520146D01*
X95929407Y-54528204D01*
X95906203Y-54534016D01*
X95882542Y-54537526D01*
X95858650Y-54538700D01*
X94946150Y-54538700D01*
X94922258Y-54537526D01*
X94898597Y-54534016D01*
X94875393Y-54528204D01*
X94852871Y-54520146D01*
X94831247Y-54509918D01*
X94810730Y-54497621D01*
X94791517Y-54483371D01*
X94773793Y-54467307D01*
X94757729Y-54449583D01*
X94743479Y-54430370D01*
X94731182Y-54409853D01*
X94720954Y-54388229D01*
X94712896Y-54365707D01*
X94707084Y-54342503D01*
X94703574Y-54318842D01*
X94702400Y-54294950D01*
X94702400Y-53807450D01*
X94703574Y-53783558D01*
X94707084Y-53759897D01*
X94712896Y-53736693D01*
X94720954Y-53714171D01*
X94731182Y-53692547D01*
X94743479Y-53672030D01*
X94757729Y-53652817D01*
X94773793Y-53635093D01*
X94791517Y-53619029D01*
X94810730Y-53604779D01*
X94831247Y-53592482D01*
X94852871Y-53582254D01*
X94875393Y-53574196D01*
X94898597Y-53568384D01*
X94922258Y-53564874D01*
X94946150Y-53563700D01*
X95858650Y-53563700D01*
X95882542Y-53564874D01*
X95882542Y-53564874D01*
G37*
D13*
X95402400Y-54051200D03*
D12*
G36*
X94002942Y-53560274D02*
G01*
X94026603Y-53563784D01*
X94049807Y-53569596D01*
X94072329Y-53577654D01*
X94093953Y-53587882D01*
X94114470Y-53600179D01*
X94133683Y-53614429D01*
X94151407Y-53630493D01*
X94167471Y-53648217D01*
X94181721Y-53667430D01*
X94194018Y-53687947D01*
X94204246Y-53709571D01*
X94212304Y-53732093D01*
X94218116Y-53755297D01*
X94221626Y-53778958D01*
X94222800Y-53802850D01*
X94222800Y-54290350D01*
X94221626Y-54314242D01*
X94218116Y-54337903D01*
X94212304Y-54361107D01*
X94204246Y-54383629D01*
X94194018Y-54405253D01*
X94181721Y-54425770D01*
X94167471Y-54444983D01*
X94151407Y-54462707D01*
X94133683Y-54478771D01*
X94114470Y-54493021D01*
X94093953Y-54505318D01*
X94072329Y-54515546D01*
X94049807Y-54523604D01*
X94026603Y-54529416D01*
X94002942Y-54532926D01*
X93979050Y-54534100D01*
X93066550Y-54534100D01*
X93042658Y-54532926D01*
X93018997Y-54529416D01*
X92995793Y-54523604D01*
X92973271Y-54515546D01*
X92951647Y-54505318D01*
X92931130Y-54493021D01*
X92911917Y-54478771D01*
X92894193Y-54462707D01*
X92878129Y-54444983D01*
X92863879Y-54425770D01*
X92851582Y-54405253D01*
X92841354Y-54383629D01*
X92833296Y-54361107D01*
X92827484Y-54337903D01*
X92823974Y-54314242D01*
X92822800Y-54290350D01*
X92822800Y-53802850D01*
X92823974Y-53778958D01*
X92827484Y-53755297D01*
X92833296Y-53732093D01*
X92841354Y-53709571D01*
X92851582Y-53687947D01*
X92863879Y-53667430D01*
X92878129Y-53648217D01*
X92894193Y-53630493D01*
X92911917Y-53614429D01*
X92931130Y-53600179D01*
X92951647Y-53587882D01*
X92973271Y-53577654D01*
X92995793Y-53569596D01*
X93018997Y-53563784D01*
X93042658Y-53560274D01*
X93066550Y-53559100D01*
X93979050Y-53559100D01*
X94002942Y-53560274D01*
X94002942Y-53560274D01*
G37*
D13*
X93522800Y-54046600D03*
D12*
G36*
X94002942Y-51685274D02*
G01*
X94026603Y-51688784D01*
X94049807Y-51694596D01*
X94072329Y-51702654D01*
X94093953Y-51712882D01*
X94114470Y-51725179D01*
X94133683Y-51739429D01*
X94151407Y-51755493D01*
X94167471Y-51773217D01*
X94181721Y-51792430D01*
X94194018Y-51812947D01*
X94204246Y-51834571D01*
X94212304Y-51857093D01*
X94218116Y-51880297D01*
X94221626Y-51903958D01*
X94222800Y-51927850D01*
X94222800Y-52415350D01*
X94221626Y-52439242D01*
X94218116Y-52462903D01*
X94212304Y-52486107D01*
X94204246Y-52508629D01*
X94194018Y-52530253D01*
X94181721Y-52550770D01*
X94167471Y-52569983D01*
X94151407Y-52587707D01*
X94133683Y-52603771D01*
X94114470Y-52618021D01*
X94093953Y-52630318D01*
X94072329Y-52640546D01*
X94049807Y-52648604D01*
X94026603Y-52654416D01*
X94002942Y-52657926D01*
X93979050Y-52659100D01*
X93066550Y-52659100D01*
X93042658Y-52657926D01*
X93018997Y-52654416D01*
X92995793Y-52648604D01*
X92973271Y-52640546D01*
X92951647Y-52630318D01*
X92931130Y-52618021D01*
X92911917Y-52603771D01*
X92894193Y-52587707D01*
X92878129Y-52569983D01*
X92863879Y-52550770D01*
X92851582Y-52530253D01*
X92841354Y-52508629D01*
X92833296Y-52486107D01*
X92827484Y-52462903D01*
X92823974Y-52439242D01*
X92822800Y-52415350D01*
X92822800Y-51927850D01*
X92823974Y-51903958D01*
X92827484Y-51880297D01*
X92833296Y-51857093D01*
X92841354Y-51834571D01*
X92851582Y-51812947D01*
X92863879Y-51792430D01*
X92878129Y-51773217D01*
X92894193Y-51755493D01*
X92911917Y-51739429D01*
X92931130Y-51725179D01*
X92951647Y-51712882D01*
X92973271Y-51702654D01*
X92995793Y-51694596D01*
X93018997Y-51688784D01*
X93042658Y-51685274D01*
X93066550Y-51684100D01*
X93979050Y-51684100D01*
X94002942Y-51685274D01*
X94002942Y-51685274D01*
G37*
D13*
X93522800Y-52171600D03*
D12*
G36*
X92123342Y-51685274D02*
G01*
X92147003Y-51688784D01*
X92170207Y-51694596D01*
X92192729Y-51702654D01*
X92214353Y-51712882D01*
X92234870Y-51725179D01*
X92254083Y-51739429D01*
X92271807Y-51755493D01*
X92287871Y-51773217D01*
X92302121Y-51792430D01*
X92314418Y-51812947D01*
X92324646Y-51834571D01*
X92332704Y-51857093D01*
X92338516Y-51880297D01*
X92342026Y-51903958D01*
X92343200Y-51927850D01*
X92343200Y-52415350D01*
X92342026Y-52439242D01*
X92338516Y-52462903D01*
X92332704Y-52486107D01*
X92324646Y-52508629D01*
X92314418Y-52530253D01*
X92302121Y-52550770D01*
X92287871Y-52569983D01*
X92271807Y-52587707D01*
X92254083Y-52603771D01*
X92234870Y-52618021D01*
X92214353Y-52630318D01*
X92192729Y-52640546D01*
X92170207Y-52648604D01*
X92147003Y-52654416D01*
X92123342Y-52657926D01*
X92099450Y-52659100D01*
X91186950Y-52659100D01*
X91163058Y-52657926D01*
X91139397Y-52654416D01*
X91116193Y-52648604D01*
X91093671Y-52640546D01*
X91072047Y-52630318D01*
X91051530Y-52618021D01*
X91032317Y-52603771D01*
X91014593Y-52587707D01*
X90998529Y-52569983D01*
X90984279Y-52550770D01*
X90971982Y-52530253D01*
X90961754Y-52508629D01*
X90953696Y-52486107D01*
X90947884Y-52462903D01*
X90944374Y-52439242D01*
X90943200Y-52415350D01*
X90943200Y-51927850D01*
X90944374Y-51903958D01*
X90947884Y-51880297D01*
X90953696Y-51857093D01*
X90961754Y-51834571D01*
X90971982Y-51812947D01*
X90984279Y-51792430D01*
X90998529Y-51773217D01*
X91014593Y-51755493D01*
X91032317Y-51739429D01*
X91051530Y-51725179D01*
X91072047Y-51712882D01*
X91093671Y-51702654D01*
X91116193Y-51694596D01*
X91139397Y-51688784D01*
X91163058Y-51685274D01*
X91186950Y-51684100D01*
X92099450Y-51684100D01*
X92123342Y-51685274D01*
X92123342Y-51685274D01*
G37*
D13*
X91643200Y-52171600D03*
D12*
G36*
X92123342Y-53560274D02*
G01*
X92147003Y-53563784D01*
X92170207Y-53569596D01*
X92192729Y-53577654D01*
X92214353Y-53587882D01*
X92234870Y-53600179D01*
X92254083Y-53614429D01*
X92271807Y-53630493D01*
X92287871Y-53648217D01*
X92302121Y-53667430D01*
X92314418Y-53687947D01*
X92324646Y-53709571D01*
X92332704Y-53732093D01*
X92338516Y-53755297D01*
X92342026Y-53778958D01*
X92343200Y-53802850D01*
X92343200Y-54290350D01*
X92342026Y-54314242D01*
X92338516Y-54337903D01*
X92332704Y-54361107D01*
X92324646Y-54383629D01*
X92314418Y-54405253D01*
X92302121Y-54425770D01*
X92287871Y-54444983D01*
X92271807Y-54462707D01*
X92254083Y-54478771D01*
X92234870Y-54493021D01*
X92214353Y-54505318D01*
X92192729Y-54515546D01*
X92170207Y-54523604D01*
X92147003Y-54529416D01*
X92123342Y-54532926D01*
X92099450Y-54534100D01*
X91186950Y-54534100D01*
X91163058Y-54532926D01*
X91139397Y-54529416D01*
X91116193Y-54523604D01*
X91093671Y-54515546D01*
X91072047Y-54505318D01*
X91051530Y-54493021D01*
X91032317Y-54478771D01*
X91014593Y-54462707D01*
X90998529Y-54444983D01*
X90984279Y-54425770D01*
X90971982Y-54405253D01*
X90961754Y-54383629D01*
X90953696Y-54361107D01*
X90947884Y-54337903D01*
X90944374Y-54314242D01*
X90943200Y-54290350D01*
X90943200Y-53802850D01*
X90944374Y-53778958D01*
X90947884Y-53755297D01*
X90953696Y-53732093D01*
X90961754Y-53709571D01*
X90971982Y-53687947D01*
X90984279Y-53667430D01*
X90998529Y-53648217D01*
X91014593Y-53630493D01*
X91032317Y-53614429D01*
X91051530Y-53600179D01*
X91072047Y-53587882D01*
X91093671Y-53577654D01*
X91116193Y-53569596D01*
X91139397Y-53563784D01*
X91163058Y-53560274D01*
X91186950Y-53559100D01*
X92099450Y-53559100D01*
X92123342Y-53560274D01*
X92123342Y-53560274D01*
G37*
D13*
X91643200Y-54046600D03*
D12*
G36*
X93748942Y-49777974D02*
G01*
X93772603Y-49781484D01*
X93795807Y-49787296D01*
X93818329Y-49795354D01*
X93839953Y-49805582D01*
X93860470Y-49817879D01*
X93879683Y-49832129D01*
X93897407Y-49848193D01*
X93913471Y-49865917D01*
X93927721Y-49885130D01*
X93940018Y-49905647D01*
X93950246Y-49927271D01*
X93958304Y-49949793D01*
X93964116Y-49972997D01*
X93967626Y-49996658D01*
X93968800Y-50020550D01*
X93968800Y-50508050D01*
X93967626Y-50531942D01*
X93964116Y-50555603D01*
X93958304Y-50578807D01*
X93950246Y-50601329D01*
X93940018Y-50622953D01*
X93927721Y-50643470D01*
X93913471Y-50662683D01*
X93897407Y-50680407D01*
X93879683Y-50696471D01*
X93860470Y-50710721D01*
X93839953Y-50723018D01*
X93818329Y-50733246D01*
X93795807Y-50741304D01*
X93772603Y-50747116D01*
X93748942Y-50750626D01*
X93725050Y-50751800D01*
X92812550Y-50751800D01*
X92788658Y-50750626D01*
X92764997Y-50747116D01*
X92741793Y-50741304D01*
X92719271Y-50733246D01*
X92697647Y-50723018D01*
X92677130Y-50710721D01*
X92657917Y-50696471D01*
X92640193Y-50680407D01*
X92624129Y-50662683D01*
X92609879Y-50643470D01*
X92597582Y-50622953D01*
X92587354Y-50601329D01*
X92579296Y-50578807D01*
X92573484Y-50555603D01*
X92569974Y-50531942D01*
X92568800Y-50508050D01*
X92568800Y-50020550D01*
X92569974Y-49996658D01*
X92573484Y-49972997D01*
X92579296Y-49949793D01*
X92587354Y-49927271D01*
X92597582Y-49905647D01*
X92609879Y-49885130D01*
X92624129Y-49865917D01*
X92640193Y-49848193D01*
X92657917Y-49832129D01*
X92677130Y-49817879D01*
X92697647Y-49805582D01*
X92719271Y-49795354D01*
X92741793Y-49787296D01*
X92764997Y-49781484D01*
X92788658Y-49777974D01*
X92812550Y-49776800D01*
X93725050Y-49776800D01*
X93748942Y-49777974D01*
X93748942Y-49777974D01*
G37*
D13*
X93268800Y-50264300D03*
D12*
G36*
X93748942Y-47902974D02*
G01*
X93772603Y-47906484D01*
X93795807Y-47912296D01*
X93818329Y-47920354D01*
X93839953Y-47930582D01*
X93860470Y-47942879D01*
X93879683Y-47957129D01*
X93897407Y-47973193D01*
X93913471Y-47990917D01*
X93927721Y-48010130D01*
X93940018Y-48030647D01*
X93950246Y-48052271D01*
X93958304Y-48074793D01*
X93964116Y-48097997D01*
X93967626Y-48121658D01*
X93968800Y-48145550D01*
X93968800Y-48633050D01*
X93967626Y-48656942D01*
X93964116Y-48680603D01*
X93958304Y-48703807D01*
X93950246Y-48726329D01*
X93940018Y-48747953D01*
X93927721Y-48768470D01*
X93913471Y-48787683D01*
X93897407Y-48805407D01*
X93879683Y-48821471D01*
X93860470Y-48835721D01*
X93839953Y-48848018D01*
X93818329Y-48858246D01*
X93795807Y-48866304D01*
X93772603Y-48872116D01*
X93748942Y-48875626D01*
X93725050Y-48876800D01*
X92812550Y-48876800D01*
X92788658Y-48875626D01*
X92764997Y-48872116D01*
X92741793Y-48866304D01*
X92719271Y-48858246D01*
X92697647Y-48848018D01*
X92677130Y-48835721D01*
X92657917Y-48821471D01*
X92640193Y-48805407D01*
X92624129Y-48787683D01*
X92609879Y-48768470D01*
X92597582Y-48747953D01*
X92587354Y-48726329D01*
X92579296Y-48703807D01*
X92573484Y-48680603D01*
X92569974Y-48656942D01*
X92568800Y-48633050D01*
X92568800Y-48145550D01*
X92569974Y-48121658D01*
X92573484Y-48097997D01*
X92579296Y-48074793D01*
X92587354Y-48052271D01*
X92597582Y-48030647D01*
X92609879Y-48010130D01*
X92624129Y-47990917D01*
X92640193Y-47973193D01*
X92657917Y-47957129D01*
X92677130Y-47942879D01*
X92697647Y-47930582D01*
X92719271Y-47920354D01*
X92741793Y-47912296D01*
X92764997Y-47906484D01*
X92788658Y-47902974D01*
X92812550Y-47901800D01*
X93725050Y-47901800D01*
X93748942Y-47902974D01*
X93748942Y-47902974D01*
G37*
D13*
X93268800Y-48389300D03*
D12*
G36*
X91818542Y-47879874D02*
G01*
X91842203Y-47883384D01*
X91865407Y-47889196D01*
X91887929Y-47897254D01*
X91909553Y-47907482D01*
X91930070Y-47919779D01*
X91949283Y-47934029D01*
X91967007Y-47950093D01*
X91983071Y-47967817D01*
X91997321Y-47987030D01*
X92009618Y-48007547D01*
X92019846Y-48029171D01*
X92027904Y-48051693D01*
X92033716Y-48074897D01*
X92037226Y-48098558D01*
X92038400Y-48122450D01*
X92038400Y-48609950D01*
X92037226Y-48633842D01*
X92033716Y-48657503D01*
X92027904Y-48680707D01*
X92019846Y-48703229D01*
X92009618Y-48724853D01*
X91997321Y-48745370D01*
X91983071Y-48764583D01*
X91967007Y-48782307D01*
X91949283Y-48798371D01*
X91930070Y-48812621D01*
X91909553Y-48824918D01*
X91887929Y-48835146D01*
X91865407Y-48843204D01*
X91842203Y-48849016D01*
X91818542Y-48852526D01*
X91794650Y-48853700D01*
X90882150Y-48853700D01*
X90858258Y-48852526D01*
X90834597Y-48849016D01*
X90811393Y-48843204D01*
X90788871Y-48835146D01*
X90767247Y-48824918D01*
X90746730Y-48812621D01*
X90727517Y-48798371D01*
X90709793Y-48782307D01*
X90693729Y-48764583D01*
X90679479Y-48745370D01*
X90667182Y-48724853D01*
X90656954Y-48703229D01*
X90648896Y-48680707D01*
X90643084Y-48657503D01*
X90639574Y-48633842D01*
X90638400Y-48609950D01*
X90638400Y-48122450D01*
X90639574Y-48098558D01*
X90643084Y-48074897D01*
X90648896Y-48051693D01*
X90656954Y-48029171D01*
X90667182Y-48007547D01*
X90679479Y-47987030D01*
X90693729Y-47967817D01*
X90709793Y-47950093D01*
X90727517Y-47934029D01*
X90746730Y-47919779D01*
X90767247Y-47907482D01*
X90788871Y-47897254D01*
X90811393Y-47889196D01*
X90834597Y-47883384D01*
X90858258Y-47879874D01*
X90882150Y-47878700D01*
X91794650Y-47878700D01*
X91818542Y-47879874D01*
X91818542Y-47879874D01*
G37*
D13*
X91338400Y-48366200D03*
D12*
G36*
X91818542Y-49754874D02*
G01*
X91842203Y-49758384D01*
X91865407Y-49764196D01*
X91887929Y-49772254D01*
X91909553Y-49782482D01*
X91930070Y-49794779D01*
X91949283Y-49809029D01*
X91967007Y-49825093D01*
X91983071Y-49842817D01*
X91997321Y-49862030D01*
X92009618Y-49882547D01*
X92019846Y-49904171D01*
X92027904Y-49926693D01*
X92033716Y-49949897D01*
X92037226Y-49973558D01*
X92038400Y-49997450D01*
X92038400Y-50484950D01*
X92037226Y-50508842D01*
X92033716Y-50532503D01*
X92027904Y-50555707D01*
X92019846Y-50578229D01*
X92009618Y-50599853D01*
X91997321Y-50620370D01*
X91983071Y-50639583D01*
X91967007Y-50657307D01*
X91949283Y-50673371D01*
X91930070Y-50687621D01*
X91909553Y-50699918D01*
X91887929Y-50710146D01*
X91865407Y-50718204D01*
X91842203Y-50724016D01*
X91818542Y-50727526D01*
X91794650Y-50728700D01*
X90882150Y-50728700D01*
X90858258Y-50727526D01*
X90834597Y-50724016D01*
X90811393Y-50718204D01*
X90788871Y-50710146D01*
X90767247Y-50699918D01*
X90746730Y-50687621D01*
X90727517Y-50673371D01*
X90709793Y-50657307D01*
X90693729Y-50639583D01*
X90679479Y-50620370D01*
X90667182Y-50599853D01*
X90656954Y-50578229D01*
X90648896Y-50555707D01*
X90643084Y-50532503D01*
X90639574Y-50508842D01*
X90638400Y-50484950D01*
X90638400Y-49997450D01*
X90639574Y-49973558D01*
X90643084Y-49949897D01*
X90648896Y-49926693D01*
X90656954Y-49904171D01*
X90667182Y-49882547D01*
X90679479Y-49862030D01*
X90693729Y-49842817D01*
X90709793Y-49825093D01*
X90727517Y-49809029D01*
X90746730Y-49794779D01*
X90767247Y-49782482D01*
X90788871Y-49772254D01*
X90811393Y-49764196D01*
X90834597Y-49758384D01*
X90858258Y-49754874D01*
X90882150Y-49753700D01*
X91794650Y-49753700D01*
X91818542Y-49754874D01*
X91818542Y-49754874D01*
G37*
D13*
X91338400Y-50241200D03*
D12*
G36*
X95933342Y-47976874D02*
G01*
X95957003Y-47980384D01*
X95980207Y-47986196D01*
X96002729Y-47994254D01*
X96024353Y-48004482D01*
X96044870Y-48016779D01*
X96064083Y-48031029D01*
X96081807Y-48047093D01*
X96097871Y-48064817D01*
X96112121Y-48084030D01*
X96124418Y-48104547D01*
X96134646Y-48126171D01*
X96142704Y-48148693D01*
X96148516Y-48171897D01*
X96152026Y-48195558D01*
X96153200Y-48219450D01*
X96153200Y-48706950D01*
X96152026Y-48730842D01*
X96148516Y-48754503D01*
X96142704Y-48777707D01*
X96134646Y-48800229D01*
X96124418Y-48821853D01*
X96112121Y-48842370D01*
X96097871Y-48861583D01*
X96081807Y-48879307D01*
X96064083Y-48895371D01*
X96044870Y-48909621D01*
X96024353Y-48921918D01*
X96002729Y-48932146D01*
X95980207Y-48940204D01*
X95957003Y-48946016D01*
X95933342Y-48949526D01*
X95909450Y-48950700D01*
X94996950Y-48950700D01*
X94973058Y-48949526D01*
X94949397Y-48946016D01*
X94926193Y-48940204D01*
X94903671Y-48932146D01*
X94882047Y-48921918D01*
X94861530Y-48909621D01*
X94842317Y-48895371D01*
X94824593Y-48879307D01*
X94808529Y-48861583D01*
X94794279Y-48842370D01*
X94781982Y-48821853D01*
X94771754Y-48800229D01*
X94763696Y-48777707D01*
X94757884Y-48754503D01*
X94754374Y-48730842D01*
X94753200Y-48706950D01*
X94753200Y-48219450D01*
X94754374Y-48195558D01*
X94757884Y-48171897D01*
X94763696Y-48148693D01*
X94771754Y-48126171D01*
X94781982Y-48104547D01*
X94794279Y-48084030D01*
X94808529Y-48064817D01*
X94824593Y-48047093D01*
X94842317Y-48031029D01*
X94861530Y-48016779D01*
X94882047Y-48004482D01*
X94903671Y-47994254D01*
X94926193Y-47986196D01*
X94949397Y-47980384D01*
X94973058Y-47976874D01*
X94996950Y-47975700D01*
X95909450Y-47975700D01*
X95933342Y-47976874D01*
X95933342Y-47976874D01*
G37*
D13*
X95453200Y-48463200D03*
D12*
G36*
X95933342Y-49851874D02*
G01*
X95957003Y-49855384D01*
X95980207Y-49861196D01*
X96002729Y-49869254D01*
X96024353Y-49879482D01*
X96044870Y-49891779D01*
X96064083Y-49906029D01*
X96081807Y-49922093D01*
X96097871Y-49939817D01*
X96112121Y-49959030D01*
X96124418Y-49979547D01*
X96134646Y-50001171D01*
X96142704Y-50023693D01*
X96148516Y-50046897D01*
X96152026Y-50070558D01*
X96153200Y-50094450D01*
X96153200Y-50581950D01*
X96152026Y-50605842D01*
X96148516Y-50629503D01*
X96142704Y-50652707D01*
X96134646Y-50675229D01*
X96124418Y-50696853D01*
X96112121Y-50717370D01*
X96097871Y-50736583D01*
X96081807Y-50754307D01*
X96064083Y-50770371D01*
X96044870Y-50784621D01*
X96024353Y-50796918D01*
X96002729Y-50807146D01*
X95980207Y-50815204D01*
X95957003Y-50821016D01*
X95933342Y-50824526D01*
X95909450Y-50825700D01*
X94996950Y-50825700D01*
X94973058Y-50824526D01*
X94949397Y-50821016D01*
X94926193Y-50815204D01*
X94903671Y-50807146D01*
X94882047Y-50796918D01*
X94861530Y-50784621D01*
X94842317Y-50770371D01*
X94824593Y-50754307D01*
X94808529Y-50736583D01*
X94794279Y-50717370D01*
X94781982Y-50696853D01*
X94771754Y-50675229D01*
X94763696Y-50652707D01*
X94757884Y-50629503D01*
X94754374Y-50605842D01*
X94753200Y-50581950D01*
X94753200Y-50094450D01*
X94754374Y-50070558D01*
X94757884Y-50046897D01*
X94763696Y-50023693D01*
X94771754Y-50001171D01*
X94781982Y-49979547D01*
X94794279Y-49959030D01*
X94808529Y-49939817D01*
X94824593Y-49922093D01*
X94842317Y-49906029D01*
X94861530Y-49891779D01*
X94882047Y-49879482D01*
X94903671Y-49869254D01*
X94926193Y-49861196D01*
X94949397Y-49855384D01*
X94973058Y-49851874D01*
X94996950Y-49850700D01*
X95909450Y-49850700D01*
X95933342Y-49851874D01*
X95933342Y-49851874D01*
G37*
D13*
X95453200Y-50338200D03*
D12*
G36*
X89481742Y-66417274D02*
G01*
X89505403Y-66420784D01*
X89528607Y-66426596D01*
X89551129Y-66434654D01*
X89572753Y-66444882D01*
X89593270Y-66457179D01*
X89612483Y-66471429D01*
X89630207Y-66487493D01*
X89646271Y-66505217D01*
X89660521Y-66524430D01*
X89672818Y-66544947D01*
X89683046Y-66566571D01*
X89691104Y-66589093D01*
X89696916Y-66612297D01*
X89700426Y-66635958D01*
X89701600Y-66659850D01*
X89701600Y-67147350D01*
X89700426Y-67171242D01*
X89696916Y-67194903D01*
X89691104Y-67218107D01*
X89683046Y-67240629D01*
X89672818Y-67262253D01*
X89660521Y-67282770D01*
X89646271Y-67301983D01*
X89630207Y-67319707D01*
X89612483Y-67335771D01*
X89593270Y-67350021D01*
X89572753Y-67362318D01*
X89551129Y-67372546D01*
X89528607Y-67380604D01*
X89505403Y-67386416D01*
X89481742Y-67389926D01*
X89457850Y-67391100D01*
X88545350Y-67391100D01*
X88521458Y-67389926D01*
X88497797Y-67386416D01*
X88474593Y-67380604D01*
X88452071Y-67372546D01*
X88430447Y-67362318D01*
X88409930Y-67350021D01*
X88390717Y-67335771D01*
X88372993Y-67319707D01*
X88356929Y-67301983D01*
X88342679Y-67282770D01*
X88330382Y-67262253D01*
X88320154Y-67240629D01*
X88312096Y-67218107D01*
X88306284Y-67194903D01*
X88302774Y-67171242D01*
X88301600Y-67147350D01*
X88301600Y-66659850D01*
X88302774Y-66635958D01*
X88306284Y-66612297D01*
X88312096Y-66589093D01*
X88320154Y-66566571D01*
X88330382Y-66544947D01*
X88342679Y-66524430D01*
X88356929Y-66505217D01*
X88372993Y-66487493D01*
X88390717Y-66471429D01*
X88409930Y-66457179D01*
X88430447Y-66444882D01*
X88452071Y-66434654D01*
X88474593Y-66426596D01*
X88497797Y-66420784D01*
X88521458Y-66417274D01*
X88545350Y-66416100D01*
X89457850Y-66416100D01*
X89481742Y-66417274D01*
X89481742Y-66417274D01*
G37*
D13*
X89001600Y-66903600D03*
D12*
G36*
X89481742Y-68292274D02*
G01*
X89505403Y-68295784D01*
X89528607Y-68301596D01*
X89551129Y-68309654D01*
X89572753Y-68319882D01*
X89593270Y-68332179D01*
X89612483Y-68346429D01*
X89630207Y-68362493D01*
X89646271Y-68380217D01*
X89660521Y-68399430D01*
X89672818Y-68419947D01*
X89683046Y-68441571D01*
X89691104Y-68464093D01*
X89696916Y-68487297D01*
X89700426Y-68510958D01*
X89701600Y-68534850D01*
X89701600Y-69022350D01*
X89700426Y-69046242D01*
X89696916Y-69069903D01*
X89691104Y-69093107D01*
X89683046Y-69115629D01*
X89672818Y-69137253D01*
X89660521Y-69157770D01*
X89646271Y-69176983D01*
X89630207Y-69194707D01*
X89612483Y-69210771D01*
X89593270Y-69225021D01*
X89572753Y-69237318D01*
X89551129Y-69247546D01*
X89528607Y-69255604D01*
X89505403Y-69261416D01*
X89481742Y-69264926D01*
X89457850Y-69266100D01*
X88545350Y-69266100D01*
X88521458Y-69264926D01*
X88497797Y-69261416D01*
X88474593Y-69255604D01*
X88452071Y-69247546D01*
X88430447Y-69237318D01*
X88409930Y-69225021D01*
X88390717Y-69210771D01*
X88372993Y-69194707D01*
X88356929Y-69176983D01*
X88342679Y-69157770D01*
X88330382Y-69137253D01*
X88320154Y-69115629D01*
X88312096Y-69093107D01*
X88306284Y-69069903D01*
X88302774Y-69046242D01*
X88301600Y-69022350D01*
X88301600Y-68534850D01*
X88302774Y-68510958D01*
X88306284Y-68487297D01*
X88312096Y-68464093D01*
X88320154Y-68441571D01*
X88330382Y-68419947D01*
X88342679Y-68399430D01*
X88356929Y-68380217D01*
X88372993Y-68362493D01*
X88390717Y-68346429D01*
X88409930Y-68332179D01*
X88430447Y-68319882D01*
X88452071Y-68309654D01*
X88474593Y-68301596D01*
X88497797Y-68295784D01*
X88521458Y-68292274D01*
X88545350Y-68291100D01*
X89457850Y-68291100D01*
X89481742Y-68292274D01*
X89481742Y-68292274D01*
G37*
D13*
X89001600Y-68778600D03*
D12*
G36*
X85468542Y-68292274D02*
G01*
X85492203Y-68295784D01*
X85515407Y-68301596D01*
X85537929Y-68309654D01*
X85559553Y-68319882D01*
X85580070Y-68332179D01*
X85599283Y-68346429D01*
X85617007Y-68362493D01*
X85633071Y-68380217D01*
X85647321Y-68399430D01*
X85659618Y-68419947D01*
X85669846Y-68441571D01*
X85677904Y-68464093D01*
X85683716Y-68487297D01*
X85687226Y-68510958D01*
X85688400Y-68534850D01*
X85688400Y-69022350D01*
X85687226Y-69046242D01*
X85683716Y-69069903D01*
X85677904Y-69093107D01*
X85669846Y-69115629D01*
X85659618Y-69137253D01*
X85647321Y-69157770D01*
X85633071Y-69176983D01*
X85617007Y-69194707D01*
X85599283Y-69210771D01*
X85580070Y-69225021D01*
X85559553Y-69237318D01*
X85537929Y-69247546D01*
X85515407Y-69255604D01*
X85492203Y-69261416D01*
X85468542Y-69264926D01*
X85444650Y-69266100D01*
X84532150Y-69266100D01*
X84508258Y-69264926D01*
X84484597Y-69261416D01*
X84461393Y-69255604D01*
X84438871Y-69247546D01*
X84417247Y-69237318D01*
X84396730Y-69225021D01*
X84377517Y-69210771D01*
X84359793Y-69194707D01*
X84343729Y-69176983D01*
X84329479Y-69157770D01*
X84317182Y-69137253D01*
X84306954Y-69115629D01*
X84298896Y-69093107D01*
X84293084Y-69069903D01*
X84289574Y-69046242D01*
X84288400Y-69022350D01*
X84288400Y-68534850D01*
X84289574Y-68510958D01*
X84293084Y-68487297D01*
X84298896Y-68464093D01*
X84306954Y-68441571D01*
X84317182Y-68419947D01*
X84329479Y-68399430D01*
X84343729Y-68380217D01*
X84359793Y-68362493D01*
X84377517Y-68346429D01*
X84396730Y-68332179D01*
X84417247Y-68319882D01*
X84438871Y-68309654D01*
X84461393Y-68301596D01*
X84484597Y-68295784D01*
X84508258Y-68292274D01*
X84532150Y-68291100D01*
X85444650Y-68291100D01*
X85468542Y-68292274D01*
X85468542Y-68292274D01*
G37*
D13*
X84988400Y-68778600D03*
D12*
G36*
X85468542Y-66417274D02*
G01*
X85492203Y-66420784D01*
X85515407Y-66426596D01*
X85537929Y-66434654D01*
X85559553Y-66444882D01*
X85580070Y-66457179D01*
X85599283Y-66471429D01*
X85617007Y-66487493D01*
X85633071Y-66505217D01*
X85647321Y-66524430D01*
X85659618Y-66544947D01*
X85669846Y-66566571D01*
X85677904Y-66589093D01*
X85683716Y-66612297D01*
X85687226Y-66635958D01*
X85688400Y-66659850D01*
X85688400Y-67147350D01*
X85687226Y-67171242D01*
X85683716Y-67194903D01*
X85677904Y-67218107D01*
X85669846Y-67240629D01*
X85659618Y-67262253D01*
X85647321Y-67282770D01*
X85633071Y-67301983D01*
X85617007Y-67319707D01*
X85599283Y-67335771D01*
X85580070Y-67350021D01*
X85559553Y-67362318D01*
X85537929Y-67372546D01*
X85515407Y-67380604D01*
X85492203Y-67386416D01*
X85468542Y-67389926D01*
X85444650Y-67391100D01*
X84532150Y-67391100D01*
X84508258Y-67389926D01*
X84484597Y-67386416D01*
X84461393Y-67380604D01*
X84438871Y-67372546D01*
X84417247Y-67362318D01*
X84396730Y-67350021D01*
X84377517Y-67335771D01*
X84359793Y-67319707D01*
X84343729Y-67301983D01*
X84329479Y-67282770D01*
X84317182Y-67262253D01*
X84306954Y-67240629D01*
X84298896Y-67218107D01*
X84293084Y-67194903D01*
X84289574Y-67171242D01*
X84288400Y-67147350D01*
X84288400Y-66659850D01*
X84289574Y-66635958D01*
X84293084Y-66612297D01*
X84298896Y-66589093D01*
X84306954Y-66566571D01*
X84317182Y-66544947D01*
X84329479Y-66524430D01*
X84343729Y-66505217D01*
X84359793Y-66487493D01*
X84377517Y-66471429D01*
X84396730Y-66457179D01*
X84417247Y-66444882D01*
X84438871Y-66434654D01*
X84461393Y-66426596D01*
X84484597Y-66420784D01*
X84508258Y-66417274D01*
X84532150Y-66416100D01*
X85444650Y-66416100D01*
X85468542Y-66417274D01*
X85468542Y-66417274D01*
G37*
D13*
X84988400Y-66903600D03*
D16*
X71781200Y-45612400D03*
X71781200Y-43332400D03*
X71781200Y-41052400D03*
D17*
X63806200Y-41807400D03*
X67156200Y-44857400D03*
X63806200Y-44857400D03*
X67156200Y-41807400D03*
D18*
X77809200Y-53998000D03*
X78309200Y-53998000D03*
X78809200Y-53998000D03*
X79309200Y-53998000D03*
X79809200Y-53998000D03*
D19*
X79959200Y-53348000D03*
X79959200Y-52848000D03*
X79959200Y-52348000D03*
D18*
X79809200Y-51698000D03*
X79309200Y-51698000D03*
X78809200Y-51698000D03*
X78309200Y-51698000D03*
X77809200Y-51698000D03*
D19*
X77659200Y-52348000D03*
X77659200Y-52848000D03*
X77659200Y-53348000D03*
D20*
X78105000Y-80341200D03*
X79375000Y-80341200D03*
X80645000Y-80341200D03*
X81915000Y-80341200D03*
X83185000Y-80341200D03*
X84455000Y-80341200D03*
X85725000Y-80341200D03*
X86995000Y-80341200D03*
X88265000Y-80341200D03*
X89535000Y-80341200D03*
X90805000Y-80341200D03*
X92075000Y-80341200D03*
X93345000Y-80341200D03*
X94615000Y-80341200D03*
X94615000Y-70941200D03*
X93345000Y-70941200D03*
X92075000Y-70941200D03*
X90805000Y-70941200D03*
X89535000Y-70941200D03*
X88265000Y-70941200D03*
X86995000Y-70941200D03*
X85725000Y-70941200D03*
X84455000Y-70941200D03*
X83185000Y-70941200D03*
X81915000Y-70941200D03*
X80645000Y-70941200D03*
X79375000Y-70941200D03*
X78105000Y-70941200D03*
D21*
X87846800Y-65093800D03*
X87846800Y-64443800D03*
X87846800Y-63793800D03*
X87846800Y-63143800D03*
X87846800Y-62493800D03*
X87846800Y-61843800D03*
X87846800Y-61193800D03*
X87846800Y-60543800D03*
X87846800Y-59893800D03*
X87846800Y-59243800D03*
X87846800Y-58593800D03*
X87846800Y-57943800D03*
X95046800Y-57943800D03*
X95046800Y-58593800D03*
X95046800Y-59243800D03*
X95046800Y-59893800D03*
X95046800Y-60543800D03*
X95046800Y-61193800D03*
X95046800Y-61843800D03*
X95046800Y-62493800D03*
X95046800Y-63143800D03*
X95046800Y-63793800D03*
X95046800Y-64443800D03*
X95046800Y-65093800D03*
X78086400Y-57943800D03*
X78086400Y-58593800D03*
X78086400Y-59243800D03*
X78086400Y-59893800D03*
X78086400Y-60543800D03*
X78086400Y-61193800D03*
X78086400Y-61843800D03*
X78086400Y-62493800D03*
X78086400Y-63143800D03*
X78086400Y-63793800D03*
X78086400Y-64443800D03*
X78086400Y-65093800D03*
X85286400Y-65093800D03*
X85286400Y-64443800D03*
X85286400Y-63793800D03*
X85286400Y-63143800D03*
X85286400Y-62493800D03*
X85286400Y-61843800D03*
X85286400Y-61193800D03*
X85286400Y-60543800D03*
X85286400Y-59893800D03*
X85286400Y-59243800D03*
X85286400Y-58593800D03*
X85286400Y-57943800D03*
M02*
