G04 #@! TF.GenerationSoftware,KiCad,Pcbnew,(5.1.0)-1*
G04 #@! TF.CreationDate,2019-04-28T14:02:46+05:30*
G04 #@! TF.ProjectId,Console,436f6e73-6f6c-4652-9e6b-696361645f70,2.0.1*
G04 #@! TF.SameCoordinates,Original*
G04 #@! TF.FileFunction,Copper,L2,Bot*
G04 #@! TF.FilePolarity,Positive*
%FSLAX46Y46*%
G04 Gerber Fmt 4.6, Leading zero omitted, Abs format (unit mm)*
G04 Created by KiCad (PCBNEW (5.1.0)-1) date 2019-04-28 14:02:46*
%MOMM*%
%LPD*%
G04 APERTURE LIST*
%ADD10O,1.700000X1.700000*%
%ADD11R,1.700000X1.700000*%
%ADD12R,1.750000X1.750000*%
%ADD13C,1.750000*%
%ADD14C,2.700000*%
%ADD15C,4.000000*%
%ADD16C,0.800000*%
%ADD17C,0.200000*%
G04 APERTURE END LIST*
D10*
X59690000Y-71628000D03*
D11*
X59690000Y-74168000D03*
D10*
X109347000Y-61442600D03*
X109347000Y-63982600D03*
X109347000Y-66522600D03*
X109347000Y-69062600D03*
X109347000Y-71602600D03*
X109347000Y-74142600D03*
X109347000Y-76682600D03*
X109347000Y-79222600D03*
D11*
X109347000Y-81762600D03*
D10*
X113157000Y-81788000D03*
X113157000Y-79248000D03*
D11*
X113157000Y-76708000D03*
D10*
X101574600Y-81813400D03*
X101574600Y-79273400D03*
X101574600Y-76733400D03*
X101574600Y-74193400D03*
X101574600Y-71653400D03*
X101574600Y-69113400D03*
X101574600Y-66573400D03*
D11*
X101574600Y-64033400D03*
D10*
X113182400Y-73101200D03*
X113182400Y-70561200D03*
X113182400Y-68021200D03*
X113182400Y-65481200D03*
X113182400Y-62941200D03*
D11*
X113182400Y-60401200D03*
D10*
X97561400Y-81940400D03*
X97561400Y-79400400D03*
X97561400Y-76860400D03*
X97561400Y-74320400D03*
X97561400Y-71780400D03*
X97561400Y-69240400D03*
X97561400Y-66700400D03*
X97561400Y-64160400D03*
X97561400Y-61620400D03*
X97561400Y-59080400D03*
X97561400Y-56540400D03*
X97561400Y-54000400D03*
X97561400Y-51460400D03*
X97561400Y-48920400D03*
D11*
X97561400Y-46380400D03*
X75361800Y-81915000D03*
D10*
X75361800Y-79375000D03*
X75361800Y-76835000D03*
X75361800Y-74295000D03*
X75361800Y-71755000D03*
X75361800Y-69215000D03*
X75361800Y-66675000D03*
X75361800Y-64135000D03*
X75361800Y-61595000D03*
X75361800Y-59055000D03*
X75361800Y-56515000D03*
X75361800Y-53975000D03*
X75361800Y-51435000D03*
X75361800Y-48895000D03*
X75361800Y-46355000D03*
X105664000Y-33020000D03*
X103124000Y-33020000D03*
X100584000Y-33020000D03*
X98044000Y-33020000D03*
X95504000Y-33020000D03*
X92964000Y-33020000D03*
X90424000Y-33020000D03*
X87884000Y-33020000D03*
X85344000Y-33020000D03*
X82804000Y-33020000D03*
X80264000Y-33020000D03*
X77724000Y-33020000D03*
X75184000Y-33020000D03*
X72644000Y-33020000D03*
X70104000Y-33020000D03*
D11*
X67564000Y-33020000D03*
D10*
X105410000Y-37744400D03*
X102870000Y-37744400D03*
X100330000Y-37744400D03*
X97790000Y-37744400D03*
X95250000Y-37744400D03*
D11*
X92710000Y-37744400D03*
D10*
X89103200Y-37744400D03*
X86563200Y-37744400D03*
X84023200Y-37744400D03*
X81483200Y-37744400D03*
X78943200Y-37744400D03*
D11*
X76403200Y-37744400D03*
D10*
X97561400Y-46380400D03*
X97561400Y-69240400D03*
X97561400Y-76860400D03*
X97561400Y-59080400D03*
X97561400Y-56540400D03*
X97561400Y-71780400D03*
X97561400Y-64160400D03*
X97561400Y-74320400D03*
X97561400Y-81940400D03*
X97561400Y-54000400D03*
X97561400Y-61620400D03*
X97561400Y-51460400D03*
X97561400Y-66700400D03*
X97561400Y-48920400D03*
X97561400Y-79400400D03*
X75361800Y-66675000D03*
X75361800Y-74295000D03*
X75361800Y-51435000D03*
X75361800Y-71755000D03*
X75361800Y-79375000D03*
D11*
X75361800Y-46355000D03*
D10*
X75361800Y-61595000D03*
X75361800Y-69215000D03*
X75361800Y-81915000D03*
X75361800Y-76835000D03*
X75361800Y-59055000D03*
X75361800Y-56515000D03*
X75361800Y-48895000D03*
X75361800Y-53975000D03*
X75361800Y-64135000D03*
D11*
X70104000Y-37846000D03*
D10*
X67564000Y-37846000D03*
D11*
X105410000Y-81838800D03*
D10*
X105410000Y-79298800D03*
X105410000Y-76758800D03*
X105410000Y-74218800D03*
X105410000Y-71678800D03*
X105410000Y-69138800D03*
X105410000Y-66598800D03*
X105410000Y-64058800D03*
X105410000Y-61518800D03*
D11*
X63500000Y-85801200D03*
D10*
X66040000Y-85801200D03*
X68580000Y-85801200D03*
X71120000Y-85801200D03*
D12*
X68884800Y-48666400D03*
D13*
X65384800Y-48666400D03*
X68884800Y-81666400D03*
D14*
X71334800Y-53766400D03*
X71334800Y-76566400D03*
X62934800Y-52566400D03*
X62934800Y-77766400D03*
D15*
X115189000Y-87807800D03*
X60198000Y-32766000D03*
X115189000Y-32766000D03*
D16*
X91389200Y-46329600D03*
X88265000Y-80341200D03*
X90805000Y-70941200D03*
X89001600Y-68778600D03*
X83770409Y-54768612D03*
X89718412Y-60454814D03*
X82628439Y-58893842D03*
X77139314Y-53601994D03*
X78536801Y-52998011D03*
X72328010Y-42252412D03*
X69748400Y-44551600D03*
X95046800Y-59718798D03*
X95402400Y-52176200D03*
X95453200Y-50338200D03*
X89306400Y-45059600D03*
X91338400Y-48401210D03*
X100888800Y-40390600D03*
X103581200Y-45872400D03*
X106889200Y-49683200D03*
X95046800Y-63618798D03*
X95046800Y-66908200D03*
X71781200Y-45612400D03*
X92318456Y-59766330D03*
X89276737Y-61352003D03*
X82245200Y-60045600D03*
X82426326Y-52531131D03*
X79584201Y-55919610D03*
X80124625Y-50736175D03*
X94956390Y-76200000D03*
X104228582Y-57061418D03*
X99530938Y-61162696D03*
X92075000Y-31115000D03*
X96659476Y-34556476D03*
X89481900Y-40690800D03*
X58881123Y-37737953D03*
X99314000Y-43561000D03*
X115189000Y-57150000D03*
X109982000Y-85457256D03*
X101854000Y-85457256D03*
X73787000Y-39497000D03*
X74122923Y-35071027D03*
X83769200Y-64973200D03*
X79372700Y-43434000D03*
X78192390Y-50397985D03*
X82386410Y-47548800D03*
X81796028Y-48509403D03*
X81990156Y-49490392D03*
X99411401Y-51460400D03*
X99357518Y-50461851D03*
X107010200Y-83608979D03*
X81026000Y-64643000D03*
X65450199Y-38978313D03*
X85725000Y-70941200D03*
X86516431Y-82547111D03*
X92609557Y-86789215D03*
X115265200Y-83566000D03*
X84455000Y-70941200D03*
X85672447Y-81941212D03*
X89300792Y-87170440D03*
X83185000Y-70941200D03*
X85116419Y-82780857D03*
X88148048Y-87549194D03*
X81915000Y-70941200D03*
X83312000Y-82423000D03*
X85625060Y-88086951D03*
X75819000Y-86741000D03*
X79248000Y-86558087D03*
X104749600Y-53238400D03*
X104721900Y-48818800D03*
X80919671Y-56559020D03*
X83107125Y-55759522D03*
X84507136Y-55727724D03*
X92752355Y-57786443D03*
X105156000Y-35494389D03*
X82424432Y-53531141D03*
X78740000Y-55321200D03*
X111365584Y-83858181D03*
X108254798Y-84008990D03*
X95453200Y-48463200D03*
X85043276Y-48818610D03*
X89001600Y-66903600D03*
X90290550Y-62710864D03*
X84988400Y-66903600D03*
X83312000Y-61366400D03*
X109169200Y-43383200D03*
X94342282Y-87590390D03*
X95782829Y-87790525D03*
X86813596Y-88180979D03*
X84455000Y-88086951D03*
X63438010Y-81915000D03*
X82556582Y-50666418D03*
X87431400Y-43078400D03*
X66767416Y-77833820D03*
X66944084Y-76849537D03*
X66143032Y-78614953D03*
X65743022Y-79591014D03*
X93167200Y-59182000D03*
X102209600Y-60096400D03*
X96621600Y-65303400D03*
X96822884Y-70488238D03*
D17*
X69133400Y-81915000D02*
X75361800Y-81915000D01*
X68884800Y-81666400D02*
X69133400Y-81915000D01*
X88265000Y-74345800D02*
X88265000Y-80341200D01*
X89001600Y-73609200D02*
X88265000Y-74345800D01*
X89306400Y-73609200D02*
X89001600Y-73609200D01*
X90805000Y-70941200D02*
X90805000Y-72110600D01*
X90805000Y-72110600D02*
X89306400Y-73609200D01*
X86823913Y-83249093D02*
X85990169Y-83249093D01*
X81767996Y-81915000D02*
X76563881Y-81915000D01*
X85990169Y-83249093D02*
X85758395Y-83480867D01*
X85758395Y-83480867D02*
X83333863Y-83480867D01*
X76563881Y-81915000D02*
X75361800Y-81915000D01*
X83333863Y-83480867D02*
X81767996Y-81915000D01*
X88265000Y-80341200D02*
X88265000Y-81808006D01*
X88265000Y-81808006D02*
X86823913Y-83249093D01*
X86496284Y-46329600D02*
X83770409Y-49055475D01*
X83770409Y-49055475D02*
X83770409Y-54202927D01*
X91389200Y-46329600D02*
X86496284Y-46329600D01*
X83770409Y-54202927D02*
X83770409Y-54768612D01*
X91618450Y-58583599D02*
X90156597Y-60045452D01*
X92729599Y-58583599D02*
X91618450Y-58583599D01*
X89727775Y-60445451D02*
X89718412Y-60454814D01*
X89001600Y-68778600D02*
X93867201Y-63912999D01*
X93503201Y-58481999D02*
X92831199Y-58481999D01*
X89756598Y-60445451D02*
X89727775Y-60445451D01*
X92831199Y-58481999D02*
X92729599Y-58583599D01*
X90156597Y-60045452D02*
X89756598Y-60445451D01*
X93867201Y-58845999D02*
X93503201Y-58481999D01*
X93867201Y-63912999D02*
X93867201Y-58845999D01*
X88157440Y-58893842D02*
X83194124Y-58893842D01*
X89718412Y-60454814D02*
X88157440Y-58893842D01*
X83194124Y-58893842D02*
X82628439Y-58893842D01*
X78936800Y-49706798D02*
X78936800Y-52598012D01*
X77962374Y-49591999D02*
X78822001Y-49591999D01*
X78822001Y-49591999D02*
X78936800Y-49706798D01*
X77139314Y-50415059D02*
X77962374Y-49591999D01*
X77139314Y-53601994D02*
X77139314Y-50415059D01*
X78936800Y-52598012D02*
X78536801Y-52998011D01*
X78936800Y-53398010D02*
X78536801Y-52998011D01*
X78936800Y-53794248D02*
X78936800Y-53398010D01*
X78109851Y-54621197D02*
X78936800Y-53794248D01*
X77641999Y-54621197D02*
X78109851Y-54621197D01*
X76971699Y-55291497D02*
X77641999Y-54621197D01*
X77311823Y-55631621D02*
X76971699Y-55291497D01*
X80463840Y-58893842D02*
X77311823Y-55741825D01*
X82628439Y-58893842D02*
X80463840Y-58893842D01*
X77311823Y-55741825D02*
X77311823Y-55631621D01*
X72201010Y-36202310D02*
X72201010Y-42125412D01*
X70104000Y-33020000D02*
X70953999Y-33869999D01*
X72201010Y-42125412D02*
X72328010Y-42252412D01*
X70953999Y-33869999D02*
X70953999Y-34955299D01*
X70953999Y-34955299D02*
X72201010Y-36202310D01*
X97561400Y-61620400D02*
X95659798Y-59718798D01*
X95659798Y-59718798D02*
X95046800Y-59718798D01*
X95046800Y-59718798D02*
X95046800Y-52531800D01*
X95046800Y-52531800D02*
X95402400Y-52176200D01*
X95402400Y-52176200D02*
X95402400Y-50389000D01*
X95402400Y-50389000D02*
X95453200Y-50338200D01*
X91338400Y-47712390D02*
X91338400Y-48401210D01*
X91155202Y-45059600D02*
X92089201Y-45993599D01*
X92089201Y-46961589D02*
X91338400Y-47712390D01*
X92089201Y-45993599D02*
X92089201Y-46961589D01*
X89306400Y-45059600D02*
X91155202Y-45059600D01*
X100888800Y-38303200D02*
X100330000Y-37744400D01*
X100888800Y-40390600D02*
X100888800Y-38303200D01*
X103581200Y-45872400D02*
X106889200Y-49180400D01*
X106889200Y-49180400D02*
X106889200Y-49683200D01*
X95046800Y-63618798D02*
X95046800Y-66908200D01*
X78093201Y-36894401D02*
X78943200Y-37744400D01*
X77793199Y-36594399D02*
X78093201Y-36894401D01*
X75313199Y-36594399D02*
X77793199Y-36594399D01*
X75253199Y-36654399D02*
X75313199Y-36594399D01*
X75253199Y-42640401D02*
X75253199Y-36654399D01*
X72281200Y-45612400D02*
X75253199Y-42640401D01*
X71781200Y-45612400D02*
X72281200Y-45612400D01*
X89306751Y-61321989D02*
X90762797Y-61321989D01*
X91918457Y-60166329D02*
X92318456Y-59766330D01*
X90762797Y-61321989D02*
X91918457Y-60166329D01*
X89276737Y-61352003D02*
X89306751Y-61321989D01*
X89276737Y-61352003D02*
X87970334Y-60045600D01*
X82810885Y-60045600D02*
X82245200Y-60045600D01*
X87970334Y-60045600D02*
X82810885Y-60045600D01*
X80907085Y-55162411D02*
X80149886Y-55919610D01*
X81829166Y-55162411D02*
X80907085Y-55162411D01*
X80149886Y-55919610D02*
X79584201Y-55919610D01*
X83124434Y-53867143D02*
X81829166Y-55162411D01*
X83124434Y-53229239D02*
X83124434Y-53867143D01*
X82426326Y-52531131D02*
X83124434Y-53229239D01*
X80144299Y-55359512D02*
X79984200Y-55519611D01*
X79984200Y-55519611D02*
X79584201Y-55919610D01*
X81632063Y-55359512D02*
X80144299Y-55359512D01*
X83124433Y-53867142D02*
X81632063Y-55359512D01*
X83124433Y-53195140D02*
X83124433Y-53867142D01*
X81065467Y-51136174D02*
X83124433Y-53195140D01*
X80524624Y-51136174D02*
X81065467Y-51136174D01*
X80124625Y-50736175D02*
X80524624Y-51136174D01*
X95046800Y-76109590D02*
X94956390Y-76200000D01*
X97561400Y-79400400D02*
X94956390Y-76795390D01*
X94956390Y-76795390D02*
X94956390Y-76765685D01*
X95046800Y-66908200D02*
X95046800Y-76109590D01*
X94956390Y-76765685D02*
X94956390Y-76200000D01*
X112307001Y-69762001D02*
X113157000Y-70612000D01*
X112006999Y-66981999D02*
X112006999Y-69461999D01*
X112579599Y-66921999D02*
X112066999Y-66921999D01*
X112066999Y-66921999D02*
X112006999Y-66981999D01*
X112630399Y-66871199D02*
X112579599Y-66921999D01*
X113182400Y-62941200D02*
X114707011Y-64465811D01*
X114707011Y-66461989D02*
X114247001Y-66921999D01*
X114247001Y-66921999D02*
X113785201Y-66921999D01*
X114707011Y-64465811D02*
X114707011Y-66461989D01*
X113785201Y-66921999D02*
X113734401Y-66871199D01*
X112006999Y-69461999D02*
X112307001Y-69762001D01*
X113734401Y-66871199D02*
X112630399Y-66871199D01*
X103632216Y-57061418D02*
X99930937Y-60762697D01*
X99930937Y-60762697D02*
X99530938Y-61162696D01*
X104228582Y-57061418D02*
X103632216Y-57061418D01*
X67564000Y-36643919D02*
X67564000Y-33020000D01*
X67564000Y-37846000D02*
X67564000Y-36643919D01*
X71628000Y-42672000D02*
X69748400Y-44551600D01*
X71628000Y-36194998D02*
X71628000Y-42672000D01*
X70553989Y-35120988D02*
X71628000Y-36194998D01*
X70553989Y-34993989D02*
X70553989Y-35120988D01*
X67564000Y-33274000D02*
X67862001Y-33572001D01*
X67862001Y-33572001D02*
X67862001Y-34334001D01*
X67862001Y-34334001D02*
X68453000Y-34925000D01*
X68453000Y-34925000D02*
X70485000Y-34925000D01*
X67564000Y-33020000D02*
X67564000Y-33274000D01*
X70485000Y-34925000D02*
X70553989Y-34993989D01*
X92003602Y-40690800D02*
X89481900Y-40690800D01*
X93860001Y-38834401D02*
X92003602Y-40690800D01*
X93860001Y-37355951D02*
X93860001Y-38834401D01*
X96659476Y-34556476D02*
X93860001Y-37355951D01*
X65504076Y-31115000D02*
X59281122Y-37337954D01*
X92075000Y-31115000D02*
X65504076Y-31115000D01*
X59281122Y-37337954D02*
X58881123Y-37737953D01*
X112903000Y-57150000D02*
X115189000Y-57150000D01*
X99314000Y-44446902D02*
X108069189Y-53202091D01*
X99314000Y-43561000D02*
X99314000Y-44446902D01*
X108069189Y-53202091D02*
X108069189Y-61866791D01*
X108069189Y-61866791D02*
X108794999Y-62592601D01*
X110497001Y-61994601D02*
X110497001Y-59555999D01*
X108794999Y-62592601D02*
X109899001Y-62592601D01*
X110497001Y-59555999D02*
X112903000Y-57150000D01*
X109899001Y-62592601D02*
X110497001Y-61994601D01*
X109982000Y-85457256D02*
X101854000Y-85457256D01*
X73787000Y-39497000D02*
X73787000Y-35406950D01*
X73787000Y-35406950D02*
X74122923Y-35071027D01*
X91660000Y-37744400D02*
X92710000Y-37744400D01*
X90509999Y-36594399D02*
X91660000Y-37744400D01*
X80931199Y-36594399D02*
X90509999Y-36594399D01*
X80093201Y-37432397D02*
X80931199Y-36594399D01*
X80093201Y-42713499D02*
X80093201Y-37432397D01*
X79372700Y-43434000D02*
X80093201Y-42713499D01*
X76405999Y-55291497D02*
X77476310Y-54221186D01*
X83769200Y-64973200D02*
X76911812Y-58115812D01*
X76911812Y-55797310D02*
X76405999Y-55291497D01*
X77626825Y-54221186D02*
X78149998Y-53698013D01*
X78149998Y-53698013D02*
X77785998Y-53334013D01*
X77785998Y-50804377D02*
X78192390Y-50397985D01*
X77785998Y-53334013D02*
X77785998Y-50804377D01*
X76911812Y-58115812D02*
X76911812Y-55797310D01*
X77476310Y-54221186D02*
X77626825Y-54221186D01*
X109347000Y-59436000D02*
X109347000Y-61442600D01*
X108469199Y-35444199D02*
X108469199Y-57508199D01*
X107188000Y-34163000D02*
X108469199Y-35444199D01*
X106223002Y-34163000D02*
X107188000Y-34163000D01*
X101143002Y-34163000D02*
X102564998Y-34163000D01*
X96976998Y-33655000D02*
X97491999Y-34170001D01*
X100031999Y-34170001D02*
X101136001Y-34170001D01*
X105111999Y-34170001D02*
X106216001Y-34170001D01*
X93523002Y-34163000D02*
X94944998Y-34163000D01*
X103676001Y-34170001D02*
X103683002Y-34163000D01*
X93516001Y-34170001D02*
X93523002Y-34163000D01*
X102564998Y-34163000D02*
X102571999Y-34170001D01*
X92956999Y-34170001D02*
X93516001Y-34170001D01*
X108469199Y-57508199D02*
X109347000Y-58386000D01*
X94951999Y-34170001D02*
X96056001Y-34170001D01*
X103683002Y-34163000D02*
X105104998Y-34163000D01*
X92710000Y-37744400D02*
X92710000Y-34417000D01*
X97491999Y-34170001D02*
X98596001Y-34170001D01*
X109347000Y-58386000D02*
X109347000Y-59436000D01*
X96056001Y-34170001D02*
X96571002Y-33655000D01*
X105104998Y-34163000D02*
X105111999Y-34170001D01*
X96571002Y-33655000D02*
X96976998Y-33655000D01*
X92710000Y-34417000D02*
X92956999Y-34170001D01*
X98596001Y-34170001D02*
X98603002Y-34163000D01*
X100024998Y-34163000D02*
X100031999Y-34170001D01*
X106216001Y-34170001D02*
X106223002Y-34163000D01*
X94944998Y-34163000D02*
X94951999Y-34170001D01*
X98603002Y-34163000D02*
X100024998Y-34163000D01*
X102571999Y-34170001D02*
X103676001Y-34170001D01*
X101136001Y-34170001D02*
X101143002Y-34163000D01*
X86563200Y-43372010D02*
X82786409Y-47148801D01*
X82786409Y-47148801D02*
X82386410Y-47548800D01*
X86563200Y-37744400D02*
X86563200Y-43372010D01*
X81396029Y-48109404D02*
X81796028Y-48509403D01*
X81483200Y-37744400D02*
X83293601Y-39554801D01*
X83293601Y-39554801D02*
X83293601Y-41903201D01*
X83293601Y-41903201D02*
X81396029Y-43800773D01*
X81396029Y-43800773D02*
X81396029Y-48109404D01*
X76403200Y-37744400D02*
X76403200Y-44469121D01*
X76403200Y-44469121D02*
X81424471Y-49490392D01*
X81424471Y-49490392D02*
X81990156Y-49490392D01*
X106259999Y-78448801D02*
X105410000Y-79298800D01*
X106560001Y-78148799D02*
X106259999Y-78448801D01*
X106560001Y-54012799D02*
X106560001Y-78148799D01*
X104007602Y-51460400D02*
X106560001Y-54012799D01*
X99411401Y-51460400D02*
X104007602Y-51460400D01*
X104560001Y-77608799D02*
X105410000Y-76758800D01*
X104259999Y-77908801D02*
X104560001Y-77608799D01*
X104259999Y-79850801D02*
X104259999Y-77908801D01*
X104857999Y-80448801D02*
X104259999Y-79850801D01*
X105962001Y-80448801D02*
X104857999Y-80448801D01*
X106960011Y-79450791D02*
X105962001Y-80448801D01*
X106960011Y-53847110D02*
X106960011Y-79450791D01*
X103574751Y-50461851D02*
X106960011Y-53847110D01*
X99357518Y-50461851D02*
X103574751Y-50461851D01*
X106610201Y-84008978D02*
X107010200Y-83608979D01*
X98941846Y-85090456D02*
X99323302Y-84709000D01*
X96180954Y-85090456D02*
X98941846Y-85090456D01*
X95980831Y-84890333D02*
X96180954Y-85090456D01*
X88300698Y-86049170D02*
X89459535Y-84890333D01*
X87398383Y-86049170D02*
X88300698Y-86049170D01*
X99323302Y-84709000D02*
X105910179Y-84709000D01*
X82174040Y-86280944D02*
X87166609Y-86280944D01*
X81734387Y-85841291D02*
X82174040Y-86280944D01*
X75044711Y-85841291D02*
X81734387Y-85841291D01*
X62878648Y-88551245D02*
X72334757Y-88551245D01*
X61549977Y-84379821D02*
X61549977Y-87222574D01*
X61549977Y-87222574D02*
X62878648Y-88551245D01*
X63314796Y-82615002D02*
X61549977Y-84379821D01*
X63774012Y-82615002D02*
X63314796Y-82615002D01*
X74809799Y-60205001D02*
X75361800Y-60205001D01*
X75361800Y-60205001D02*
X75361800Y-60444999D01*
X74211799Y-59607001D02*
X74809799Y-60205001D01*
X64138012Y-81578998D02*
X64138012Y-82251002D01*
X74211799Y-58502999D02*
X74211799Y-59607001D01*
X74211799Y-62147001D02*
X74739399Y-62674601D01*
X74809799Y-57904999D02*
X74211799Y-58502999D01*
X105910179Y-84709000D02*
X106610201Y-84008978D01*
X64138012Y-82251002D02*
X63774012Y-82615002D01*
X89459535Y-84890333D02*
X95980831Y-84890333D01*
X75361800Y-60444999D02*
X74809799Y-60444999D01*
X72334757Y-88551245D02*
X75044711Y-85841291D01*
X74809799Y-60444999D02*
X74211799Y-61042999D01*
X61284799Y-76129201D02*
X61284799Y-78725785D01*
X74211799Y-61042999D02*
X74211799Y-62147001D01*
X87166609Y-86280944D02*
X87398383Y-86049170D01*
X75361800Y-57904999D02*
X74809799Y-57904999D01*
X74739399Y-62674601D02*
X61284799Y-76129201D01*
X75361800Y-56515000D02*
X75361800Y-57904999D01*
X61284799Y-78725785D02*
X64138012Y-81578998D01*
X81026000Y-64643000D02*
X76511801Y-60128801D01*
X74809799Y-55364999D02*
X74211799Y-55962999D01*
X63809788Y-49396090D02*
X63809788Y-47936710D01*
X65450199Y-39543998D02*
X65450199Y-38978313D01*
X65450199Y-46296299D02*
X65450199Y-39543998D01*
X75913801Y-55364999D02*
X74809799Y-55364999D01*
X76511801Y-55962999D02*
X75913801Y-55364999D01*
X63809788Y-47936710D02*
X65450199Y-46296299D01*
X74211799Y-55962999D02*
X70376698Y-55962999D01*
X70376698Y-55962999D02*
X63809788Y-49396090D01*
X76511801Y-60128801D02*
X76511801Y-55962999D01*
X85725000Y-72141200D02*
X86516431Y-72932631D01*
X86516431Y-81981426D02*
X86516431Y-82547111D01*
X86516431Y-72932631D02*
X86516431Y-81981426D01*
X85725000Y-70941200D02*
X85725000Y-72141200D01*
X114527492Y-83738023D02*
X114699515Y-83566000D01*
X110684822Y-86957278D02*
X113904077Y-83738023D01*
X92609557Y-86789215D02*
X93308406Y-86090366D01*
X97317121Y-86957278D02*
X110684822Y-86957278D01*
X93308406Y-86090366D02*
X95483764Y-86090366D01*
X114699515Y-83566000D02*
X115265200Y-83566000D01*
X95483764Y-86090366D02*
X95683887Y-86290489D01*
X95683887Y-86290489D02*
X96650332Y-86290489D01*
X113904077Y-83738023D02*
X114527492Y-83738023D01*
X96650332Y-86290489D02*
X97317121Y-86957278D01*
X84455000Y-70941200D02*
X84455000Y-80723765D01*
X85272448Y-81541213D02*
X85672447Y-81941212D01*
X84455000Y-80723765D02*
X85272448Y-81541213D01*
X97151432Y-87357289D02*
X96484643Y-86690500D01*
X99594009Y-31469991D02*
X106381690Y-31469991D01*
X110850511Y-87357289D02*
X97151432Y-87357289D01*
X106381690Y-31469991D02*
X115965201Y-41053502D01*
X93242269Y-87088699D02*
X93242269Y-87317929D01*
X95518198Y-86690500D02*
X95318075Y-86490377D01*
X98044000Y-33020000D02*
X99594009Y-31469991D01*
X90186415Y-87490378D02*
X89866477Y-87170440D01*
X115601201Y-84266001D02*
X113941799Y-84266001D01*
X113941799Y-84266001D02*
X110850511Y-87357289D01*
X115965201Y-41053502D02*
X115965201Y-83902001D01*
X89866477Y-87170440D02*
X89300792Y-87170440D01*
X93069820Y-87490378D02*
X90186415Y-87490378D01*
X93840591Y-86490377D02*
X93242269Y-87088699D01*
X93242269Y-87317929D02*
X93069820Y-87490378D01*
X95318075Y-86490377D02*
X93840591Y-86490377D01*
X96484643Y-86690500D02*
X95518198Y-86690500D01*
X115965201Y-83902001D02*
X115601201Y-84266001D01*
X83185000Y-70941200D02*
X83185000Y-80849438D01*
X83185000Y-80849438D02*
X84716420Y-82380858D01*
X84716420Y-82380858D02*
X85116419Y-82780857D01*
X116365212Y-84067690D02*
X115766890Y-84666012D01*
X93642280Y-87254388D02*
X93642280Y-87483618D01*
X95504000Y-33020000D02*
X97454020Y-31069980D01*
X116365212Y-40887813D02*
X116365212Y-84067690D01*
X94678284Y-86890388D02*
X94006280Y-86890388D01*
X93176705Y-87949193D02*
X88548047Y-87949193D01*
X93642280Y-87483618D02*
X93176705Y-87949193D01*
X88548047Y-87949193D02*
X88148048Y-87549194D01*
X96936120Y-87757300D02*
X96269331Y-87090511D01*
X94006280Y-86890388D02*
X93642280Y-87254388D01*
X94878407Y-87090511D02*
X94678284Y-86890388D01*
X96269331Y-87090511D02*
X94878407Y-87090511D01*
X111016200Y-87757300D02*
X96936120Y-87757300D01*
X114107488Y-84666012D02*
X111016200Y-87757300D01*
X115766890Y-84666012D02*
X114107488Y-84666012D01*
X106547379Y-31069980D02*
X116365212Y-40887813D01*
X97454020Y-31069980D02*
X106547379Y-31069980D01*
X81915000Y-70941200D02*
X81915000Y-81026000D01*
X82912001Y-82023001D02*
X83312000Y-82423000D01*
X81915000Y-81026000D02*
X82912001Y-82023001D01*
X88032148Y-88490527D02*
X87513598Y-87971977D01*
X87513598Y-87971977D02*
X87513598Y-87844977D01*
X95314031Y-30669969D02*
X106713068Y-30669969D01*
X106713068Y-30669969D02*
X116765223Y-40722124D01*
X116765223Y-40722124D02*
X116765223Y-84233379D01*
X87513598Y-87844977D02*
X87149598Y-87480977D01*
X115932579Y-85066023D02*
X114547021Y-85066023D01*
X86477594Y-87480977D02*
X85871620Y-88086951D01*
X114547021Y-85066023D02*
X111122517Y-88490527D01*
X92964000Y-33020000D02*
X95314031Y-30669969D01*
X85871620Y-88086951D02*
X85625060Y-88086951D01*
X116765223Y-84233379D02*
X115932579Y-85066023D01*
X87149598Y-87480977D02*
X86477594Y-87480977D01*
X111122517Y-88490527D02*
X88032148Y-88490527D01*
X76218999Y-87140999D02*
X75819000Y-86741000D01*
X76412966Y-87334966D02*
X76218999Y-87140999D01*
X113738388Y-83338012D02*
X110519133Y-86557267D01*
X87812046Y-86849192D02*
X87580272Y-87080966D01*
X95649453Y-85690355D02*
X89790913Y-85690355D01*
X115316000Y-81896702D02*
X113874690Y-83338012D01*
X113182400Y-60401200D02*
X115172200Y-60401200D01*
X115172200Y-60401200D02*
X115316000Y-60545000D01*
X110519133Y-86557267D02*
X97482810Y-86557267D01*
X115316000Y-60545000D02*
X115316000Y-81896702D01*
X89790913Y-85690355D02*
X88632076Y-86849192D01*
X113874690Y-83338012D02*
X113738388Y-83338012D01*
X97482810Y-86557267D02*
X96816021Y-85890478D01*
X86057905Y-87334966D02*
X76412966Y-87334966D01*
X96816021Y-85890478D02*
X95849576Y-85890478D01*
X95849576Y-85890478D02*
X95649453Y-85690355D01*
X88632076Y-86849192D02*
X87812046Y-86849192D01*
X87580272Y-87080966D02*
X86311905Y-87080966D01*
X86311905Y-87080966D02*
X86057905Y-87334966D01*
X79813685Y-86558087D02*
X79248000Y-86558087D01*
X113572699Y-82938001D02*
X110353444Y-86157256D01*
X113709001Y-82938001D02*
X113572699Y-82938001D01*
X88466387Y-86449181D02*
X87564072Y-86449181D01*
X114731800Y-81915202D02*
X113709001Y-82938001D01*
X79936553Y-86680955D02*
X79813685Y-86558087D01*
X114731800Y-68596800D02*
X114731800Y-81915202D01*
X113157000Y-68072000D02*
X114207000Y-68072000D01*
X114207000Y-68072000D02*
X114731800Y-68596800D01*
X87564072Y-86449181D02*
X87332298Y-86680955D01*
X110353444Y-86157256D02*
X97648499Y-86157256D01*
X97648499Y-86157256D02*
X96981710Y-85490467D01*
X89625224Y-85290344D02*
X88466387Y-86449181D01*
X96981710Y-85490467D02*
X96015265Y-85490467D01*
X96015265Y-85490467D02*
X95815142Y-85290344D01*
X95815142Y-85290344D02*
X89625224Y-85290344D01*
X87332298Y-86680955D02*
X79936553Y-86680955D01*
X66259799Y-47791401D02*
X65384800Y-48666400D01*
X74311800Y-46355000D02*
X73841980Y-46824820D01*
X67226380Y-46824820D02*
X66259799Y-47791401D01*
X73841980Y-46824820D02*
X67226380Y-46824820D01*
X75361800Y-46355000D02*
X74311800Y-46355000D01*
X102870000Y-37744400D02*
X102870000Y-46966900D01*
X102870000Y-46966900D02*
X104721900Y-48818800D01*
X81319670Y-56159021D02*
X80919671Y-56559020D01*
X83107125Y-55759522D02*
X81719169Y-55759522D01*
X81719169Y-55759522D02*
X81319670Y-56159021D01*
X92352356Y-57386444D02*
X92752355Y-57786443D01*
X84507136Y-55727724D02*
X90693636Y-55727724D01*
X90693636Y-55727724D02*
X92352356Y-57386444D01*
X100863400Y-53238400D02*
X98411399Y-55690401D01*
X98411399Y-55690401D02*
X97561400Y-56540400D01*
X104749600Y-53238400D02*
X100863400Y-53238400D01*
X105156000Y-37490400D02*
X105410000Y-37744400D01*
X105156000Y-35494389D02*
X105156000Y-37490400D01*
X79139999Y-54921201D02*
X78740000Y-55321200D01*
X82424432Y-53531141D02*
X80530059Y-53531141D01*
X80530059Y-53531141D02*
X79139999Y-54921201D01*
X108405607Y-83858181D02*
X108254798Y-84008990D01*
X111365584Y-83858181D02*
X108405607Y-83858181D01*
X95453200Y-48463200D02*
X94697791Y-49218609D01*
X94697791Y-49218609D02*
X85443275Y-49218609D01*
X85443275Y-49218609D02*
X85043276Y-48818610D01*
X89890551Y-63110863D02*
X90290550Y-62710864D01*
X89001600Y-63999814D02*
X89890551Y-63110863D01*
X89001600Y-66903600D02*
X89001600Y-63999814D01*
X84988400Y-66903600D02*
X84988400Y-63042800D01*
X84988400Y-63042800D02*
X83711999Y-61766399D01*
X83711999Y-61766399D02*
X83312000Y-61366400D01*
X109169200Y-34823198D02*
X109169200Y-43383200D01*
X106216001Y-31869999D02*
X109169200Y-34823198D01*
X104274001Y-31869999D02*
X106216001Y-31869999D01*
X103124000Y-33020000D02*
X104274001Y-31869999D01*
X112332401Y-66331199D02*
X113182400Y-65481200D01*
X112092100Y-66331199D02*
X112332401Y-66331199D01*
X110210698Y-68212601D02*
X112092100Y-66331199D01*
X110196999Y-68212601D02*
X110210698Y-68212601D01*
X109347000Y-69062600D02*
X110196999Y-68212601D01*
X109347000Y-70264681D02*
X109347000Y-71602600D01*
X109347000Y-69062600D02*
X109347000Y-70264681D01*
X109347000Y-74142600D02*
X109347000Y-71602600D01*
X112141000Y-74142600D02*
X113182400Y-73101200D01*
X109347000Y-74142600D02*
X112141000Y-74142600D01*
X95582694Y-87590390D02*
X95782829Y-87790525D01*
X94342282Y-87590390D02*
X95582694Y-87590390D01*
X62547270Y-89351267D02*
X85643308Y-89351267D01*
X85643308Y-89351267D02*
X86813596Y-88180979D01*
X61747248Y-88551245D02*
X62547270Y-89351267D01*
X60749955Y-84048443D02*
X60749955Y-87553957D01*
X60833000Y-83965398D02*
X60749955Y-84048443D01*
X60833000Y-75265002D02*
X60833000Y-83965398D01*
X63500000Y-72517000D02*
X60840001Y-75176999D01*
X63500000Y-54216401D02*
X63500000Y-72517000D01*
X63726801Y-54216401D02*
X63500000Y-54216401D01*
X64584801Y-53358401D02*
X63726801Y-54216401D01*
X64584801Y-51774399D02*
X64584801Y-53358401D01*
X63726801Y-50916399D02*
X64584801Y-51774399D01*
X61747243Y-88551245D02*
X61747248Y-88551245D01*
X63500000Y-50916399D02*
X63726801Y-50916399D01*
X63500000Y-49652002D02*
X63500000Y-50916399D01*
X63409777Y-49561779D02*
X63500000Y-49652002D01*
X72647012Y-36082612D02*
X72647012Y-41535410D01*
X71493999Y-32467999D02*
X71493999Y-34929599D01*
X65119179Y-37614399D02*
X62401999Y-37614399D01*
X72091999Y-31869999D02*
X71493999Y-32467999D01*
X86733999Y-31869999D02*
X72091999Y-31869999D01*
X62401999Y-37614399D02*
X63500000Y-38712400D01*
X87884000Y-33020000D02*
X86733999Y-31869999D01*
X60840001Y-75176999D02*
X60840001Y-75258001D01*
X63500000Y-47680798D02*
X63409777Y-47771021D01*
X72647012Y-41535410D02*
X73028012Y-41916410D01*
X63409777Y-47771021D02*
X63409777Y-49561779D01*
X73028012Y-41916410D02*
X73028012Y-42745188D01*
X60749955Y-87553957D02*
X61747243Y-88551245D01*
X73028012Y-42745188D02*
X69748400Y-46024800D01*
X69748400Y-46024800D02*
X66150201Y-42426601D01*
X66150201Y-42426601D02*
X66150201Y-38645421D01*
X71493999Y-34929599D02*
X72647012Y-36082612D01*
X66150201Y-38645421D02*
X65119179Y-37614399D01*
X60840001Y-75258001D02*
X60833000Y-75265002D01*
X63500000Y-38712400D02*
X63500000Y-47680798D01*
X63038011Y-82326087D02*
X63038011Y-82314999D01*
X63038011Y-82314999D02*
X63438010Y-81915000D01*
X61149966Y-84214132D02*
X63038011Y-82326087D01*
X84455000Y-88086951D02*
X83590695Y-88951256D01*
X83590695Y-88951256D02*
X62712954Y-88951256D01*
X62712954Y-88951256D02*
X61149966Y-87388268D01*
X61149966Y-87388268D02*
X61149966Y-84214132D01*
X73428023Y-41750721D02*
X73428023Y-42910877D01*
X69914091Y-46424809D02*
X65887389Y-46424809D01*
X73047023Y-41369721D02*
X73428023Y-41750721D01*
X65887389Y-46424809D02*
X64209799Y-48102399D01*
X64209799Y-49230401D02*
X64820799Y-49841401D01*
X73428023Y-42910877D02*
X69914091Y-46424809D01*
X73047023Y-34625104D02*
X73047023Y-41369721D01*
X64820799Y-49841401D02*
X71935399Y-49841401D01*
X64209799Y-48102399D02*
X64209799Y-49230401D01*
X81990897Y-50666418D02*
X82556582Y-50666418D01*
X71935399Y-49841401D02*
X74271799Y-47505001D01*
X72644000Y-33020000D02*
X72644000Y-34222081D01*
X78043672Y-47505001D02*
X81205089Y-50666418D01*
X74271799Y-47505001D02*
X78043672Y-47505001D01*
X81205089Y-50666418D02*
X81990897Y-50666418D01*
X72644000Y-34222081D02*
X73047023Y-34625104D01*
X91104402Y-43078400D02*
X87431400Y-43078400D01*
X96153201Y-48127199D02*
X91104402Y-43078400D01*
X96153201Y-49454201D02*
X96153201Y-48127199D01*
X97009399Y-50310399D02*
X96153201Y-49454201D01*
X96411399Y-55988399D02*
X96824800Y-55574998D01*
X96824800Y-55574998D02*
X96824800Y-54965802D01*
X96824800Y-53034998D02*
X96824800Y-52762698D01*
X98711401Y-52012401D02*
X98711401Y-50908399D01*
X96411399Y-57092401D02*
X96411399Y-55988399D01*
X96824800Y-57505802D02*
X96411399Y-57092401D01*
X96993248Y-52594250D02*
X97009399Y-52610401D01*
X98113401Y-50310399D02*
X97009399Y-50310399D01*
X97561400Y-59080400D02*
X96824800Y-58343800D01*
X96824800Y-58343800D02*
X96824800Y-57505802D01*
X96824800Y-54965802D02*
X96411399Y-54552401D01*
X96824800Y-52762698D02*
X96993248Y-52594250D01*
X96411399Y-54552401D02*
X96411399Y-53448399D01*
X96411399Y-53448399D02*
X96824800Y-53034998D01*
X97009399Y-52610401D02*
X98113401Y-52610401D01*
X98113401Y-52610401D02*
X98711401Y-52012401D01*
X98711401Y-50908399D02*
X98113401Y-50310399D01*
X98831400Y-80670400D02*
X98411399Y-81090401D01*
X97561400Y-59918398D02*
X98831400Y-61188398D01*
X97561400Y-59080400D02*
X97561400Y-59918398D01*
X98411399Y-81090401D02*
X97561400Y-81940400D01*
X98831400Y-61188398D02*
X98831400Y-80670400D01*
X67709799Y-82230401D02*
X67709799Y-78519503D01*
X73704198Y-71755000D02*
X74159719Y-71755000D01*
X67709799Y-78519503D02*
X67867428Y-78361874D01*
X86404248Y-83649104D02*
X86172474Y-83880878D01*
X97561400Y-81940400D02*
X89015268Y-81940400D01*
X87306564Y-83649104D02*
X86404248Y-83649104D01*
X89015268Y-81940400D02*
X87306564Y-83649104D01*
X86172474Y-83880878D02*
X83168174Y-83880878D01*
X74159719Y-71755000D02*
X75361800Y-71755000D01*
X67867428Y-78361874D02*
X67867428Y-77591770D01*
X67867428Y-77591770D02*
X73704198Y-71755000D01*
X83168174Y-83880878D02*
X82728519Y-83441223D01*
X68920621Y-83441223D02*
X67709799Y-82230401D01*
X82728519Y-83441223D02*
X68920621Y-83441223D01*
X101650800Y-79298800D02*
X101625400Y-79273400D01*
X101625400Y-79273400D02*
X101574600Y-79273400D01*
X88796779Y-83290289D02*
X87637942Y-84449126D01*
X66843034Y-77909438D02*
X66767416Y-77833820D01*
X102870000Y-81355998D02*
X102870000Y-82321602D01*
X87637942Y-84449126D02*
X86735627Y-84449126D01*
X102082646Y-83108956D02*
X98660546Y-83108956D01*
X68027999Y-86951201D02*
X67429999Y-86353201D01*
X74381955Y-84241247D02*
X71672001Y-86951201D01*
X96843710Y-83490412D02*
X96643587Y-83290289D01*
X102870000Y-82321602D02*
X102082646Y-83108956D01*
X86503852Y-84680900D02*
X82836796Y-84680900D01*
X71672001Y-86951201D02*
X68027999Y-86951201D01*
X67429999Y-85159199D02*
X66843034Y-84572234D01*
X98660546Y-83108956D02*
X98279090Y-83490412D01*
X66843034Y-84572234D02*
X66843034Y-77909438D01*
X102424599Y-80123399D02*
X102424599Y-80910597D01*
X96643587Y-83290289D02*
X88796779Y-83290289D01*
X67429999Y-86353201D02*
X67429999Y-85159199D01*
X86735627Y-84449126D02*
X86503852Y-84680900D01*
X82397143Y-84241247D02*
X74381955Y-84241247D01*
X98279090Y-83490412D02*
X96843710Y-83490412D01*
X101574600Y-79273400D02*
X102424599Y-80123399D01*
X82836796Y-84680900D02*
X82397143Y-84241247D01*
X102424599Y-80910597D02*
X102870000Y-81355998D01*
X96809276Y-82890278D02*
X88631090Y-82890278D01*
X99365002Y-81838800D02*
X98113401Y-83090401D01*
X86569937Y-84049115D02*
X86338163Y-84280889D01*
X101650800Y-81838800D02*
X99365002Y-81838800D01*
X98113401Y-83090401D02*
X97009399Y-83090401D01*
X97009399Y-83090401D02*
X96809276Y-82890278D01*
X68322036Y-83841234D02*
X67298801Y-82817999D01*
X67298801Y-82817999D02*
X67298801Y-78338437D01*
X67467417Y-77372870D02*
X67344083Y-77249536D01*
X67344083Y-77249536D02*
X66944084Y-76849537D01*
X67467417Y-78169821D02*
X67467417Y-77372870D01*
X67298801Y-78338437D02*
X67467417Y-78169821D01*
X82562830Y-83841234D02*
X68322036Y-83841234D01*
X83002485Y-84280889D02*
X82562830Y-83841234D01*
X86338163Y-84280889D02*
X83002485Y-84280889D01*
X87472253Y-84049115D02*
X86569937Y-84049115D01*
X88631090Y-82890278D02*
X87472253Y-84049115D01*
X71837690Y-87351212D02*
X65888010Y-87351212D01*
X66443023Y-81643091D02*
X66443023Y-78914944D01*
X101574600Y-76733400D02*
X103016011Y-78174811D01*
X103111935Y-83508967D02*
X98826235Y-83508967D01*
X65888010Y-87351212D02*
X64889999Y-86353201D01*
X98826235Y-83508967D02*
X98444779Y-83890423D01*
X64889999Y-83196115D02*
X66443023Y-81643091D01*
X74547644Y-84641258D02*
X71837690Y-87351212D01*
X96477898Y-83690300D02*
X88962468Y-83690300D01*
X64889999Y-86353201D02*
X64889999Y-83196115D01*
X86669541Y-85080911D02*
X82671107Y-85080911D01*
X82231454Y-84641258D02*
X74547644Y-84641258D01*
X86901316Y-84849137D02*
X86669541Y-85080911D01*
X82671107Y-85080911D02*
X82231454Y-84641258D01*
X103016011Y-80521511D02*
X103270011Y-80775511D01*
X98444779Y-83890423D02*
X96678021Y-83890423D01*
X96678021Y-83890423D02*
X96477898Y-83690300D01*
X66443023Y-78914944D02*
X66143032Y-78614953D01*
X87803631Y-84849137D02*
X86901316Y-84849137D01*
X88962468Y-83690300D02*
X87803631Y-84849137D01*
X103270011Y-83350891D02*
X103111935Y-83508967D01*
X103270011Y-80775511D02*
X103270011Y-83350891D01*
X103016011Y-78174811D02*
X103016011Y-80521511D01*
X62349999Y-86891201D02*
X62349999Y-84789415D01*
X101574600Y-74193400D02*
X103416022Y-76034822D01*
X65743022Y-81777392D02*
X65743022Y-80156699D01*
X72003379Y-87751223D02*
X63210021Y-87751223D01*
X74713333Y-85041269D02*
X72003379Y-87751223D01*
X87067005Y-85249148D02*
X86835230Y-85480922D01*
X62349999Y-84789415D02*
X63724390Y-83415024D01*
X98610468Y-84290434D02*
X96512332Y-84290434D01*
X96312209Y-84090311D02*
X89128157Y-84090311D01*
X87969320Y-85249148D02*
X87067005Y-85249148D01*
X65743022Y-80156699D02*
X65743022Y-79591014D01*
X63724390Y-83415024D02*
X64105390Y-83415024D01*
X63210021Y-87751223D02*
X62349999Y-86891201D01*
X82505418Y-85480922D02*
X82065765Y-85041269D01*
X86835230Y-85480922D02*
X82505418Y-85480922D01*
X89128157Y-84090311D02*
X87969320Y-85249148D01*
X96512332Y-84290434D02*
X96312209Y-84090311D01*
X98991924Y-83908978D02*
X98610468Y-84290434D01*
X103277624Y-83908978D02*
X98991924Y-83908978D01*
X103670022Y-83516580D02*
X103277624Y-83908978D01*
X103416022Y-80355822D02*
X103670022Y-80609822D01*
X103416022Y-76034822D02*
X103416022Y-80355822D01*
X103670022Y-80609822D02*
X103670022Y-83516580D01*
X82065765Y-85041269D02*
X74713333Y-85041269D01*
X64105390Y-83415024D02*
X65743022Y-81777392D01*
X89612739Y-62052005D02*
X89942744Y-61722000D01*
X91400224Y-61722000D02*
X93167200Y-59955024D01*
X87555129Y-60666399D02*
X88940735Y-62052005D01*
X63939701Y-83015013D02*
X64584801Y-82369913D01*
X98776157Y-84690445D02*
X96346643Y-84690445D01*
X103816033Y-73894833D02*
X103816033Y-80190133D01*
X89293846Y-84490322D02*
X88135009Y-85649159D01*
X93167200Y-59955024D02*
X93167200Y-59747685D01*
X88940735Y-62052005D02*
X89612739Y-62052005D01*
X64584801Y-82369913D02*
X64584801Y-77743805D01*
X64584801Y-77743805D02*
X74503605Y-67825001D01*
X84469201Y-64637199D02*
X82365681Y-62533679D01*
X82975999Y-60666399D02*
X87555129Y-60666399D01*
X89942744Y-61722000D02*
X91400224Y-61722000D01*
X93167200Y-59747685D02*
X93167200Y-59182000D01*
X82365681Y-61276717D02*
X82975999Y-60666399D01*
X82339729Y-85880933D02*
X81900076Y-85441280D01*
X74503605Y-67825001D02*
X81953401Y-67825001D01*
X104070033Y-83682269D02*
X103443313Y-84308989D01*
X84469201Y-65309201D02*
X84469201Y-64637199D01*
X99157613Y-84308989D02*
X98776157Y-84690445D01*
X81953401Y-67825001D02*
X84469201Y-65309201D01*
X82365681Y-62533679D02*
X82365681Y-61276717D01*
X63044332Y-88151234D02*
X61949988Y-87056890D01*
X63480485Y-83015013D02*
X63939701Y-83015013D01*
X61949988Y-87056890D02*
X61949988Y-84545510D01*
X74879022Y-85441280D02*
X72169068Y-88151234D01*
X72169068Y-88151234D02*
X63044332Y-88151234D01*
X81900076Y-85441280D02*
X74879022Y-85441280D01*
X87000919Y-85880933D02*
X82339729Y-85880933D01*
X87232694Y-85649159D02*
X87000919Y-85880933D01*
X96346643Y-84690445D02*
X96146520Y-84490322D01*
X103443313Y-84308989D02*
X99157613Y-84308989D01*
X103816033Y-80190133D02*
X104070033Y-80444133D01*
X101574600Y-71653400D02*
X103816033Y-73894833D01*
X96146520Y-84490322D02*
X89293846Y-84490322D01*
X88135009Y-85649159D02*
X87232694Y-85649159D01*
X61949988Y-84545510D02*
X63480485Y-83015013D01*
X104070033Y-80444133D02*
X104070033Y-83682269D01*
X102209600Y-63398400D02*
X101574600Y-64033400D01*
X102209600Y-60096400D02*
X102209600Y-63398400D01*
X96221601Y-69886955D02*
X96822884Y-70488238D01*
X96621600Y-65303400D02*
X96221601Y-65703399D01*
X96221601Y-65703399D02*
X96221601Y-69886955D01*
M02*
